<?xml version="1.0" encoding="UTF-8" standalone="no"?><svg xmlns="http://www.w3.org/2000/svg" xmlns:xlink="http://www.w3.org/1999/xlink" contentStyleType="text/css" height="506.4px" preserveAspectRatio="none" style="width:775px;height:506px;background:#FFFFFF;" version="1.1" viewBox="0 0 775 506" width="775.8px" zoomAndPan="magnify"><defs/><g><!--MD5=[5d4cd377749310b66bf14896f5cd8d9b]
cluster model--><g id="cluster_model"><path d="M5.7,3.6 L30.9,3.6 A3.15,3.15 0 0 1 33,5.7 L37.2,17.7656 L769.5,17.7656 A2.1,2.1 0 0 1 771.6,19.8656 L771.6,500.1 A2.1,2.1 0 0 1 769.5,502.2 L5.7,502.2 A2.1,2.1 0 0 1 3.6,500.1 L3.6,5.7 A2.1,2.1 0 0 1 5.7,3.6 " style="stroke:#696969;stroke-width:0.6;fill:none;"/><line style="stroke:#696969;stroke-width:0.6;fill:none;" x1="3.6" x2="37.2" y1="17.7656" y2="17.7656"/><text fill="#000000" font-family="sans-serif" font-size="8.4" font-weight="bold" lengthAdjust="spacing" textLength="25.8" x="6" y="13.5199">model</text></g><!--MD5=[18eee71c88ab61f27581b8cbdd3ef5ee]
class Color--><g id="elem_Color"><rect codeLine="6" fill="#F1F1F1" height="81.6281" id="Color" rx="2.1" ry="2.1" style="stroke:#181818;stroke-width:0.3;" width="42" x="352.8" y="325.2"/><ellipse cx="362.88" cy="334.8" fill="#EB937F" rx="6.6" ry="6.6" style="stroke:#181818;stroke-width:0.6;"/><path d="M361.98,335.4 L361.98,336.6 L364.38,336.6 L364.38,336 L364.38,335.7094 L364.755,335.4 L364.98,335.4 L365.205,335.4 L365.58,335.7094 L365.58,336 L365.58,337.8 L360.78,337.8 L360.4894,337.8 L360.18,337.425 L360.18,337.2 L360.18,336.975 L360.4894,336.6 L360.78,336.6 L360.78,336.6 L360.78,333 L360.78,333 L360.4894,333 L360.18,332.625 L360.18,332.4 L360.18,332.175 L360.4894,331.8 L360.78,331.8 L365.58,331.8 L365.58,333.6 L365.58,333.8906 L365.205,334.2 L364.98,334.2 L364.755,334.2 L364.38,333.8906 L364.38,333.6 L364.38,333 L361.98,333 L361.98,334.2 L362.58,334.2 L362.58,333.9094 L362.58,333.9094 L362.955,333.6 L363.18,333.6 L363.405,333.6 L363.78,333.9094 L363.78,334.2 L363.78,335.4 L363.78,335.6906 L363.405,336 L363.405,336 L363.18,336 L362.955,336 L362.58,335.6906 L362.58,335.6906 L362.58,335.4 L361.98,335.4 Z " fill="#000000"/><text fill="#000000" font-family="sans-serif" font-size="8.4" lengthAdjust="spacing" textLength="20.4" x="371.52" y="338.2371">Color</text><line style="stroke:#181818;stroke-width:0.3;" x1="353.4" x2="394.2" y1="344.4" y2="344.4"/><text fill="#000000" font-family="sans-serif" font-size="8.4" lengthAdjust="spacing" textLength="34.8" x="356.4" y="355.5199">YELLOW</text><text fill="#000000" font-family="sans-serif" font-size="8.4" lengthAdjust="spacing" textLength="21" x="356.4" y="366.0855">BLUE</text><text fill="#000000" font-family="sans-serif" font-size="8.4" lengthAdjust="spacing" textLength="28.8" x="356.4" y="376.6512">GREEN</text><text fill="#000000" font-family="sans-serif" font-size="8.4" lengthAdjust="spacing" textLength="17.4" x="356.4" y="387.2168">RED</text><text fill="#000000" font-family="sans-serif" font-size="8.4" lengthAdjust="spacing" textLength="18" x="356.4" y="397.7824">PINK</text><line style="stroke:#181818;stroke-width:0.3;" x1="353.4" x2="394.2" y1="402.0281" y2="402.0281"/></g><!--MD5=[6804500824724e03a064fc7681986872]
class TowerColor--><g id="elem_TowerColor"><rect codeLine="14" fill="#F1F1F1" height="60.4969" id="TowerColor" rx="2.1" ry="2.1" style="stroke:#181818;stroke-width:0.3;" width="63" x="213.3" y="335.7"/><ellipse cx="222.3" cy="345.3" fill="#EB937F" rx="6.6" ry="6.6" style="stroke:#181818;stroke-width:0.6;"/><path d="M221.4,345.9 L221.4,347.1 L223.8,347.1 L223.8,346.5 L223.8,346.2094 L224.175,345.9 L224.4,345.9 L224.625,345.9 L225,346.2094 L225,346.5 L225,348.3 L220.2,348.3 L219.9094,348.3 L219.6,347.925 L219.6,347.7 L219.6,347.475 L219.9094,347.1 L220.2,347.1 L220.2,347.1 L220.2,343.5 L220.2,343.5 L219.9094,343.5 L219.6,343.125 L219.6,342.9 L219.6,342.675 L219.9094,342.3 L220.2,342.3 L225,342.3 L225,344.1 L225,344.3906 L224.625,344.7 L224.4,344.7 L224.175,344.7 L223.8,344.3906 L223.8,344.1 L223.8,343.5 L221.4,343.5 L221.4,344.7 L222,344.7 L222,344.4094 L222,344.4094 L222.375,344.1 L222.6,344.1 L222.825,344.1 L223.2,344.4094 L223.2,344.7 L223.2,345.9 L223.2,346.1906 L222.825,346.5 L222.825,346.5 L222.6,346.5 L222.375,346.5 L222,346.1906 L222,346.1906 L222,345.9 L221.4,345.9 Z " fill="#000000"/><text fill="#000000" font-family="sans-serif" font-size="8.4" lengthAdjust="spacing" textLength="43.8" x="230.7" y="348.7371">TowerColor</text><line style="stroke:#181818;stroke-width:0.3;" x1="213.9" x2="275.7" y1="354.9" y2="354.9"/><text fill="#000000" font-family="sans-serif" font-size="8.4" lengthAdjust="spacing" textLength="25.8" x="216.9" y="366.0199">WHITE</text><text fill="#000000" font-family="sans-serif" font-size="8.4" lengthAdjust="spacing" textLength="23.4" x="216.9" y="376.5855">GRAY</text><text fill="#000000" font-family="sans-serif" font-size="8.4" lengthAdjust="spacing" textLength="27" x="216.9" y="387.1512">BLACK</text><line style="stroke:#181818;stroke-width:0.3;" x1="213.9" x2="275.7" y1="391.3969" y2="391.3969"/></g><!--MD5=[b6dcce5e5ef3c84b0b048d11301373dd]
class Game--><g id="elem_Game"><rect codeLine="20" fill="#F1F1F1" height="71.0625" id="Game" rx="2.1" ry="2.1" style="stroke:#181818;stroke-width:0.3;" width="130.8" x="274.8" y="25.2"/><ellipse cx="326.25" cy="34.8" fill="#ADD1B2" rx="6.6" ry="6.6" style="stroke:#181818;stroke-width:0.6;"/><path d="M327.45,32.7 Q327.5719,32.4 327.7125,32.25 Q327.8531,32.1 328.0125,32.1 Q328.2938,32.1 328.4719,32.2688 Q328.65,32.4375 328.65,32.8313 L328.65,33.7688 Q328.65,34.1625 328.4813,34.3313 Q328.3125,34.5 328.05,34.5 Q327.8156,34.5 327.6656,34.3969 Q327.5156,34.2937 327.45,34.0219 Q327.4219,33.8344 327.3187,33.7312 Q327.1312,33.5344 326.7938,33.4219 Q326.4563,33.3 326.1188,33.3 Q325.6969,33.3 325.3406,33.4688 Q324.9938,33.6375 324.7219,34.0125 Q324.45,34.3875 324.45,34.9031 L324.45,35.4563 Q324.45,36.075 324.9563,36.4875 Q325.4625,36.9 326.3625,36.9 Q326.8969,36.9 327.2719,36.7781 Q327.4875,36.7125 327.7313,36.4969 Q327.8906,36.375 327.975,36.3375 Q328.0594,36.3 328.1625,36.3 Q328.3594,36.3 328.5,36.4594 Q328.65,36.6094 328.65,36.825 Q328.65,37.0313 328.4437,37.275 Q328.1438,37.6313 327.6656,37.8281 Q327.0375,38.1 326.2688,38.1 Q325.3688,38.1 324.6469,37.7438 Q324.0656,37.4625 323.6531,36.8531 Q323.25,36.2438 323.25,35.5219 L323.25,34.8656 Q323.25,34.1156 323.6063,33.4594 Q323.9719,32.8031 324.6,32.4563 Q325.2375,32.1 325.95,32.1 Q326.3812,32.1 326.7562,32.25 Q327.1312,32.4 327.45,32.7 Z " fill="#000000"/><text fill="#000000" font-family="sans-serif" font-size="8.4" lengthAdjust="spacing" textLength="22.8" x="338.55" y="38.2371">Game</text><line style="stroke:#181818;stroke-width:0.3;" x1="275.4" x2="405" y1="44.4" y2="44.4"/><rect fill="none" height="3.6" style="stroke:#C82930;stroke-width:0.6;" width="3.6" x="279.6" y="49.2"/><text fill="#000000" font-family="sans-serif" font-size="8.4" lengthAdjust="spacing" textLength="115.2" x="286.8" y="55.5199">ArrayList&lt;Player&gt; playerOrder</text><line style="stroke:#181818;stroke-width:0.3;" x1="275.4" x2="405" y1="59.7656" y2="59.7656"/><ellipse cx="281.4" cy="66.3656" fill="#84BE84" rx="1.8" ry="1.8" style="stroke:#038048;stroke-width:0.6;"/><text fill="#000000" font-family="sans-serif" font-size="8.4" lengthAdjust="spacing" textLength="81" x="286.8" y="70.8855">«constructor»Game()</text><ellipse cx="281.4" cy="76.9312" fill="#84BE84" rx="1.8" ry="1.8" style="stroke:#038048;stroke-width:0.6;"/><text fill="#000000" font-family="sans-serif" font-size="8.4" lengthAdjust="spacing" textLength="46.2" x="286.8" y="81.4512">void round()</text><ellipse cx="281.4" cy="87.4969" fill="#84BE84" rx="1.8" ry="1.8" style="stroke:#038048;stroke-width:0.6;"/><text fill="#000000" font-family="sans-serif" font-size="8.4" lengthAdjust="spacing" textLength="112.2" x="286.8" y="92.0168">void addPlayer(Player player)</text></g><!--MD5=[9563755d011c5cec7ec66dc53565a59e]
class Board--><g id="elem_Board"><rect codeLine="27" fill="#F1F1F1" height="60.4969" id="Board" rx="2.1" ry="2.1" style="stroke:#181818;stroke-width:0.3;" width="172.2" x="71.1" y="132"/><ellipse cx="143.25" cy="141.6" fill="#A9DCDF" rx="6.6" ry="6.6" style="stroke:#181818;stroke-width:0.6;"/><path d="M144.3,142.5 L142.3219,142.5 L142.0594,143.1 L142.0594,143.1 L142.3406,143.1 L142.65,143.475 L142.65,143.7 L142.65,143.925 L142.3406,144.3 L142.0594,144.3 L140.925,144.3 L140.5594,144.3 L140.25,143.925 L140.25,143.7 L140.25,143.475 L140.5594,143.1 L140.925,143.1 L142.3125,139.5 L141.7875,139.5 L141.1594,139.5 L140.85,139.125 L140.85,138.9 L140.85,138.675 L141.1594,138.3 L141.7875,138.3 L143.9906,138.3 L145.6031,143.1 L145.9406,143.1 L145.9406,143.1 L146.25,143.475 L146.25,143.7 L146.25,143.925 L145.9406,144.3 L145.6031,144.3 L144.4688,144.3 L144.1594,144.3 L143.85,143.925 L143.85,143.7 L143.85,143.475 L144.1594,143.1 L144.4688,143.1 L144.4688,143.1 L144.3,142.5 Z M143.9719,141.3 L143.25,139.1531 L142.6313,141.3 L143.9719,141.3 Z " fill="#000000"/><text fill="#000000" font-family="sans-serif" font-size="8.4" font-style="italic" lengthAdjust="spacing" textLength="22.8" x="155.55" y="145.0371">Board</text><line style="stroke:#181818;stroke-width:0.3;" x1="71.7" x2="242.7" y1="151.2" y2="151.2"/><polygon fill="none" points="77.7,155.4,75.3,159,80.1,159" style="stroke:#1963A0;stroke-width:0.6;"/><text fill="#000000" font-family="sans-serif" font-size="8.4" lengthAdjust="spacing" textLength="19.2" x="83.1" y="162.3199">int ID</text><line style="stroke:#181818;stroke-width:0.3;" x1="71.7" x2="242.7" y1="166.5656" y2="166.5656"/><ellipse cx="77.7" cy="173.1656" fill="#84BE84" rx="1.8" ry="1.8" style="stroke:#038048;stroke-width:0.6;"/><text fill="#000000" font-family="sans-serif" font-size="8.4" lengthAdjust="spacing" textLength="156.6" x="83.1" y="177.6855">ArrayList&lt;Student&gt; getStudentOnBoard()</text><ellipse cx="77.7" cy="183.7313" fill="#84BE84" rx="1.8" ry="1.8" style="stroke:#038048;stroke-width:0.6;"/><text fill="#000000" font-family="sans-serif" font-size="8.4" lengthAdjust="spacing" textLength="37.2" x="83.1" y="188.2512">int getID()</text></g><!--MD5=[af29ca247b3a3642f0fb478cea99ef78]
class Pawn--><g id="elem_Pawn"><rect codeLine="33" fill="#F1F1F1" height="60.4969" id="Pawn" rx="2.1" ry="2.1" style="stroke:#181818;stroke-width:0.3;" width="151.2" x="264.6" y="132"/><ellipse cx="327.45" cy="141.6" fill="#A9DCDF" rx="6.6" ry="6.6" style="stroke:#181818;stroke-width:0.6;"/><path d="M328.5,142.5 L326.5219,142.5 L326.2594,143.1 L326.2594,143.1 L326.5406,143.1 L326.85,143.475 L326.85,143.7 L326.85,143.925 L326.5406,144.3 L326.2594,144.3 L325.125,144.3 L324.7594,144.3 L324.45,143.925 L324.45,143.7 L324.45,143.475 L324.7594,143.1 L325.125,143.1 L326.5125,139.5 L325.9875,139.5 L325.3594,139.5 L325.05,139.125 L325.05,138.9 L325.05,138.675 L325.3594,138.3 L325.9875,138.3 L328.1906,138.3 L329.8031,143.1 L330.1406,143.1 L330.1406,143.1 L330.45,143.475 L330.45,143.7 L330.45,143.925 L330.1406,144.3 L329.8031,144.3 L328.6688,144.3 L328.3594,144.3 L328.05,143.925 L328.05,143.7 L328.05,143.475 L328.3594,143.1 L328.6688,143.1 L328.6688,143.1 L328.5,142.5 Z M328.1719,141.3 L327.45,139.1531 L326.8313,141.3 L328.1719,141.3 Z " fill="#000000"/><text fill="#000000" font-family="sans-serif" font-size="8.4" font-style="italic" lengthAdjust="spacing" textLength="20.4" x="339.75" y="145.0371">Pawn</text><line style="stroke:#181818;stroke-width:0.3;" x1="265.2" x2="415.2" y1="151.2" y2="151.2"/><rect fill="none" height="3.6" style="stroke:#C82930;stroke-width:0.6;" width="3.6" x="269.4" y="156"/><text fill="#000000" font-family="sans-serif" font-size="8.4" lengthAdjust="spacing" textLength="54.6" x="276.6" y="162.3199">Board position</text><line style="stroke:#181818;stroke-width:0.3;" x1="265.2" x2="415.2" y1="166.5656" y2="166.5656"/><ellipse cx="271.2" cy="173.1656" fill="#84BE84" rx="1.8" ry="1.8" style="stroke:#038048;stroke-width:0.6;"/><text fill="#000000" font-family="sans-serif" font-size="8.4" lengthAdjust="spacing" textLength="73.2" x="276.6" y="177.6855">Board getPosition()</text><ellipse cx="271.2" cy="183.7313" fill="#84BE84" rx="1.8" ry="1.8" style="stroke:#038048;stroke-width:0.6;"/><text fill="#000000" font-family="sans-serif" font-size="8.4" lengthAdjust="spacing" textLength="135.6" x="276.6" y="188.2512">void setPosition(Board newPosition)</text></g><!--MD5=[5e305716458bbdabbd2d7f572ed2bae2]
class Card--><g id="elem_Card"><rect codeLine="39" fill="#F1F1F1" height="28.8" id="Card" rx="2.1" ry="2.1" style="stroke:#181818;stroke-width:0.3;" width="37.8" x="639.3" y="351.6"/><ellipse cx="648.3" cy="361.2" fill="#A9DCDF" rx="6.6" ry="6.6" style="stroke:#181818;stroke-width:0.6;"/><path d="M649.35,362.1 L647.3719,362.1 L647.1094,362.7 L647.1094,362.7 L647.3906,362.7 L647.7,363.075 L647.7,363.3 L647.7,363.525 L647.3906,363.9 L647.1094,363.9 L645.975,363.9 L645.6094,363.9 L645.3,363.525 L645.3,363.3 L645.3,363.075 L645.6094,362.7 L645.975,362.7 L647.3625,359.1 L646.8375,359.1 L646.2094,359.1 L645.9,358.725 L645.9,358.5 L645.9,358.275 L646.2094,357.9 L646.8375,357.9 L649.0406,357.9 L650.6531,362.7 L650.9906,362.7 L650.9906,362.7 L651.3,363.075 L651.3,363.3 L651.3,363.525 L650.9906,363.9 L650.6531,363.9 L649.5188,363.9 L649.2094,363.9 L648.9,363.525 L648.9,363.3 L648.9,363.075 L649.2094,362.7 L649.5188,362.7 L649.5188,362.7 L649.35,362.1 Z M649.0219,360.9 L648.3,358.7531 L647.6813,360.9 L649.0219,360.9 Z " fill="#000000"/><text fill="#000000" font-family="sans-serif" font-size="8.4" font-style="italic" lengthAdjust="spacing" textLength="18.6" x="656.7" y="364.6371">Card</text><line style="stroke:#181818;stroke-width:0.3;" x1="639.9" x2="676.5" y1="370.8" y2="370.8"/><line style="stroke:#181818;stroke-width:0.3;" x1="639.9" x2="676.5" y1="375.6" y2="375.6"/></g><!--MD5=[2cb47ba637a0d19583e6199456f6ad0b]
class Player--><g id="elem_Player"><rect codeLine="41" fill="#F1F1F1" height="60.4969" id="Player" rx="2.1" ry="2.1" style="stroke:#181818;stroke-width:0.3;" width="158.4" x="510.6" y="132"/><ellipse cx="575.25" cy="141.6" fill="#ADD1B2" rx="6.6" ry="6.6" style="stroke:#181818;stroke-width:0.6;"/><path d="M576.45,139.5 Q576.5719,139.2 576.7125,139.05 Q576.8531,138.9 577.0125,138.9 Q577.2937,138.9 577.4719,139.0688 Q577.65,139.2375 577.65,139.6313 L577.65,140.5688 Q577.65,140.9625 577.4812,141.1313 Q577.3125,141.3 577.05,141.3 Q576.8156,141.3 576.6656,141.1969 Q576.5156,141.0938 576.45,140.8219 Q576.4219,140.6344 576.3188,140.5313 Q576.1313,140.3344 575.7937,140.2219 Q575.4563,140.1 575.1188,140.1 Q574.6969,140.1 574.3406,140.2687 Q573.9938,140.4375 573.7219,140.8125 Q573.45,141.1875 573.45,141.7031 L573.45,142.2563 Q573.45,142.875 573.9563,143.2875 Q574.4625,143.7 575.3625,143.7 Q575.8969,143.7 576.2719,143.5781 Q576.4875,143.5125 576.7312,143.2969 Q576.8906,143.175 576.975,143.1375 Q577.0594,143.1 577.1625,143.1 Q577.3594,143.1 577.5,143.2594 Q577.65,143.4094 577.65,143.625 Q577.65,143.8312 577.4438,144.075 Q577.1438,144.4313 576.6656,144.6281 Q576.0375,144.9 575.2688,144.9 Q574.3688,144.9 573.6469,144.5438 Q573.0656,144.2625 572.6531,143.6531 Q572.25,143.0438 572.25,142.3219 L572.25,141.6656 Q572.25,140.9156 572.6062,140.2594 Q572.9719,139.6031 573.6,139.2563 Q574.2375,138.9 574.95,138.9 Q575.3813,138.9 575.7563,139.05 Q576.1313,139.2 576.45,139.5 Z " fill="#000000"/><text fill="#000000" font-family="sans-serif" font-size="8.4" lengthAdjust="spacing" textLength="24" x="587.55" y="145.0371">Player</text><line style="stroke:#181818;stroke-width:0.3;" x1="511.2" x2="668.4" y1="151.2" y2="151.2"/><rect fill="none" height="3.6" style="stroke:#C82930;stroke-width:0.6;" width="3.6" x="515.4" y="156"/><text fill="#000000" font-family="sans-serif" font-size="8.4" lengthAdjust="spacing" textLength="60.6" x="522.6" y="162.3199">String nickname</text><line style="stroke:#181818;stroke-width:0.3;" x1="511.2" x2="668.4" y1="166.5656" y2="166.5656"/><ellipse cx="517.2" cy="173.1656" fill="#84BE84" rx="1.8" ry="1.8" style="stroke:#038048;stroke-width:0.6;"/><text fill="#000000" font-family="sans-serif" font-size="8.4" lengthAdjust="spacing" textLength="142.8" x="522.6" y="177.6855">«constructor»Player(String nickname)</text><ellipse cx="517.2" cy="183.7313" fill="#84BE84" rx="1.8" ry="1.8" style="stroke:#038048;stroke-width:0.6;"/><text fill="#000000" font-family="sans-serif" font-size="8.4" lengthAdjust="spacing" textLength="79.2" x="522.6" y="188.2512">String getNickname()</text></g><!--MD5=[05ce2a234461a7e613a06d388968c06d]
class Island--><g id="elem_Island"><rect codeLine="47" fill="#F1F1F1" height="28.8" id="Island" rx="2.1" ry="2.1" style="stroke:#181818;stroke-width:0.3;" width="41.4" x="13.5" y="244.5"/><ellipse cx="22.5" cy="254.1" fill="#ADD1B2" rx="6.6" ry="6.6" style="stroke:#181818;stroke-width:0.6;"/><path d="M23.7,252 Q23.8219,251.7 23.9625,251.55 Q24.1031,251.4 24.2625,251.4 Q24.5438,251.4 24.7219,251.5688 Q24.9,251.7375 24.9,252.1313 L24.9,253.0688 Q24.9,253.4625 24.7313,253.6313 Q24.5625,253.8 24.3,253.8 Q24.0656,253.8 23.9156,253.6969 Q23.7656,253.5938 23.7,253.3219 Q23.6719,253.1344 23.5687,253.0313 Q23.3812,252.8344 23.0438,252.7219 Q22.7063,252.6 22.3688,252.6 Q21.9469,252.6 21.5906,252.7687 Q21.2438,252.9375 20.9719,253.3125 Q20.7,253.6875 20.7,254.2031 L20.7,254.7563 Q20.7,255.375 21.2063,255.7875 Q21.7125,256.2 22.6125,256.2 Q23.1469,256.2 23.5219,256.0781 Q23.7375,256.0125 23.9813,255.7969 Q24.1406,255.675 24.225,255.6375 Q24.3094,255.6 24.4125,255.6 Q24.6094,255.6 24.75,255.7594 Q24.9,255.9094 24.9,256.125 Q24.9,256.3313 24.6937,256.575 Q24.3938,256.9313 23.9156,257.1281 Q23.2875,257.4 22.5188,257.4 Q21.6188,257.4 20.8969,257.0438 Q20.3156,256.7625 19.9031,256.1531 Q19.5,255.5438 19.5,254.8219 L19.5,254.1656 Q19.5,253.4156 19.8563,252.7594 Q20.2219,252.1031 20.85,251.7563 Q21.4875,251.4 22.2,251.4 Q22.6312,251.4 23.0062,251.55 Q23.3812,251.7 23.7,252 Z " fill="#000000"/><text fill="#000000" font-family="sans-serif" font-size="8.4" lengthAdjust="spacing" textLength="22.2" x="30.9" y="257.5371">Island</text><line style="stroke:#181818;stroke-width:0.3;" x1="14.1" x2="54.3" y1="263.7" y2="263.7"/><line style="stroke:#181818;stroke-width:0.3;" x1="14.1" x2="54.3" y1="268.5" y2="268.5"/></g><!--MD5=[10a9fff9df9a76a22f65fd5d58adb785]
class School--><g id="elem_School"><rect codeLine="51" fill="#F1F1F1" height="28.8" id="School" rx="2.1" ry="2.1" style="stroke:#181818;stroke-width:0.3;" width="45" x="75.9" y="244.5"/><ellipse cx="84.9" cy="254.1" fill="#ADD1B2" rx="6.6" ry="6.6" style="stroke:#181818;stroke-width:0.6;"/><path d="M86.1,252 Q86.2219,251.7 86.3625,251.55 Q86.5031,251.4 86.6625,251.4 Q86.9438,251.4 87.1219,251.5688 Q87.3,251.7375 87.3,252.1313 L87.3,253.0688 Q87.3,253.4625 87.1313,253.6313 Q86.9625,253.8 86.7,253.8 Q86.4656,253.8 86.3156,253.6969 Q86.1656,253.5938 86.1,253.3219 Q86.0719,253.1344 85.9688,253.0313 Q85.7813,252.8344 85.4438,252.7219 Q85.1063,252.6 84.7688,252.6 Q84.3469,252.6 83.9906,252.7687 Q83.6438,252.9375 83.3719,253.3125 Q83.1,253.6875 83.1,254.2031 L83.1,254.7563 Q83.1,255.375 83.6063,255.7875 Q84.1125,256.2 85.0125,256.2 Q85.5469,256.2 85.9219,256.0781 Q86.1375,256.0125 86.3813,255.7969 Q86.5406,255.675 86.625,255.6375 Q86.7094,255.6 86.8125,255.6 Q87.0094,255.6 87.15,255.7594 Q87.3,255.9094 87.3,256.125 Q87.3,256.3313 87.0938,256.575 Q86.7938,256.9313 86.3156,257.1281 Q85.6875,257.4 84.9188,257.4 Q84.0188,257.4 83.2969,257.0438 Q82.7156,256.7625 82.3031,256.1531 Q81.9,255.5438 81.9,254.8219 L81.9,254.1656 Q81.9,253.4156 82.2563,252.7594 Q82.6219,252.1031 83.25,251.7563 Q83.8875,251.4 84.6,251.4 Q85.0313,251.4 85.4063,251.55 Q85.7813,251.7 86.1,252 Z " fill="#000000"/><text fill="#000000" font-family="sans-serif" font-size="8.4" lengthAdjust="spacing" textLength="25.8" x="93.3" y="257.5371">School</text><line style="stroke:#181818;stroke-width:0.3;" x1="76.5" x2="120.3" y1="263.7" y2="263.7"/><line style="stroke:#181818;stroke-width:0.3;" x1="76.5" x2="120.3" y1="268.5" y2="268.5"/></g><!--MD5=[a18b01c4419d38931cdb2da3f79e5451]
class Cloud--><g id="elem_Cloud"><rect codeLine="55" fill="#F1F1F1" height="28.8" id="Cloud" rx="2.1" ry="2.1" style="stroke:#181818;stroke-width:0.3;" width="41.4" x="141.9" y="244.5"/><ellipse cx="150.9" cy="254.1" fill="#ADD1B2" rx="6.6" ry="6.6" style="stroke:#181818;stroke-width:0.6;"/><path d="M152.1,252 Q152.2219,251.7 152.3625,251.55 Q152.5031,251.4 152.6625,251.4 Q152.9438,251.4 153.1219,251.5688 Q153.3,251.7375 153.3,252.1313 L153.3,253.0688 Q153.3,253.4625 153.1313,253.6313 Q152.9625,253.8 152.7,253.8 Q152.4656,253.8 152.3156,253.6969 Q152.1656,253.5938 152.1,253.3219 Q152.0719,253.1344 151.9688,253.0313 Q151.7813,252.8344 151.4438,252.7219 Q151.1063,252.6 150.7687,252.6 Q150.3469,252.6 149.9906,252.7687 Q149.6437,252.9375 149.3719,253.3125 Q149.1,253.6875 149.1,254.2031 L149.1,254.7563 Q149.1,255.375 149.6063,255.7875 Q150.1125,256.2 151.0125,256.2 Q151.5469,256.2 151.9219,256.0781 Q152.1375,256.0125 152.3813,255.7969 Q152.5406,255.675 152.625,255.6375 Q152.7094,255.6 152.8125,255.6 Q153.0094,255.6 153.15,255.7594 Q153.3,255.9094 153.3,256.125 Q153.3,256.3313 153.0938,256.575 Q152.7938,256.9313 152.3156,257.1281 Q151.6875,257.4 150.9188,257.4 Q150.0187,257.4 149.2969,257.0438 Q148.7156,256.7625 148.3031,256.1531 Q147.9,255.5438 147.9,254.8219 L147.9,254.1656 Q147.9,253.4156 148.2563,252.7594 Q148.6219,252.1031 149.25,251.7563 Q149.8875,251.4 150.6,251.4 Q151.0313,251.4 151.4063,251.55 Q151.7813,251.7 152.1,252 Z " fill="#000000"/><text fill="#000000" font-family="sans-serif" font-size="8.4" lengthAdjust="spacing" textLength="22.2" x="159.3" y="257.5371">Cloud</text><line style="stroke:#181818;stroke-width:0.3;" x1="142.5" x2="182.7" y1="263.7" y2="263.7"/><line style="stroke:#181818;stroke-width:0.3;" x1="142.5" x2="182.7" y1="268.5" y2="268.5"/></g><!--MD5=[21bc47177812100412265a444b535d59]
class Professor--><g id="elem_Professor"><rect codeLine="59" fill="#F1F1F1" height="39.3656" id="Professor" rx="2.1" ry="2.1" style="stroke:#181818;stroke-width:0.3;" width="57" x="384.3" y="239.1"/><ellipse cx="393.84" cy="248.7" fill="#ADD1B2" rx="6.6" ry="6.6" style="stroke:#181818;stroke-width:0.6;"/><path d="M395.04,246.6 Q395.1619,246.3 395.3025,246.15 Q395.4431,246 395.6025,246 Q395.8837,246 396.0619,246.1688 Q396.24,246.3375 396.24,246.7313 L396.24,247.6688 Q396.24,248.0625 396.0712,248.2313 Q395.9025,248.4 395.64,248.4 Q395.4056,248.4 395.2556,248.2969 Q395.1056,248.1938 395.04,247.9219 Q395.0119,247.7344 394.9088,247.6313 Q394.7213,247.4344 394.3837,247.3219 Q394.0463,247.2 393.7087,247.2 Q393.2869,247.2 392.9306,247.3687 Q392.5837,247.5375 392.3119,247.9125 Q392.04,248.2875 392.04,248.8031 L392.04,249.3563 Q392.04,249.975 392.5463,250.3875 Q393.0525,250.8 393.9525,250.8 Q394.4869,250.8 394.8619,250.6781 Q395.0775,250.6125 395.3212,250.3969 Q395.4806,250.275 395.565,250.2375 Q395.6494,250.2 395.7525,250.2 Q395.9494,250.2 396.09,250.3594 Q396.24,250.5094 396.24,250.725 Q396.24,250.9312 396.0338,251.175 Q395.7338,251.5313 395.2556,251.7281 Q394.6275,252 393.8588,252 Q392.9587,252 392.2369,251.6437 Q391.6556,251.3625 391.2431,250.7531 Q390.84,250.1437 390.84,249.4219 L390.84,248.7656 Q390.84,248.0156 391.1962,247.3594 Q391.5619,246.7031 392.19,246.3563 Q392.8275,246 393.54,246 Q393.9713,246 394.3463,246.15 Q394.7213,246.3 395.04,246.6 Z " fill="#000000"/><text fill="#000000" font-family="sans-serif" font-size="8.4" lengthAdjust="spacing" textLength="36.6" x="402.36" y="252.1371">Professor</text><line style="stroke:#181818;stroke-width:0.3;" x1="384.9" x2="440.7" y1="258.3" y2="258.3"/><rect fill="none" height="3.6" style="stroke:#C82930;stroke-width:0.6;" width="3.6" x="389.1" y="263.1"/><text fill="#000000" font-family="sans-serif" font-size="8.4" lengthAdjust="spacing" textLength="41.4" x="396.3" y="269.4199">Color color</text><line style="stroke:#181818;stroke-width:0.3;" x1="384.9" x2="440.7" y1="273.6656" y2="273.6656"/></g><!--MD5=[d6181cb537bdc20c0a3007a98a56832d]
class Student--><g id="elem_Student"><rect codeLine="63" fill="#F1F1F1" height="39.3656" id="Student" rx="2.1" ry="2.1" style="stroke:#181818;stroke-width:0.3;" width="57" x="306.3" y="239.1"/><ellipse cx="319.08" cy="248.7" fill="#ADD1B2" rx="6.6" ry="6.6" style="stroke:#181818;stroke-width:0.6;"/><path d="M320.28,246.6 Q320.4019,246.3 320.5425,246.15 Q320.6831,246 320.8425,246 Q321.1238,246 321.3019,246.1688 Q321.48,246.3375 321.48,246.7313 L321.48,247.6688 Q321.48,248.0625 321.3113,248.2313 Q321.1425,248.4 320.88,248.4 Q320.6456,248.4 320.4956,248.2969 Q320.3456,248.1938 320.28,247.9219 Q320.2519,247.7344 320.1487,247.6313 Q319.9612,247.4344 319.6238,247.3219 Q319.2862,247.2 318.9487,247.2 Q318.5269,247.2 318.1706,247.3687 Q317.8237,247.5375 317.5519,247.9125 Q317.28,248.2875 317.28,248.8031 L317.28,249.3563 Q317.28,249.975 317.7862,250.3875 Q318.2925,250.8 319.1925,250.8 Q319.7269,250.8 320.1019,250.6781 Q320.3175,250.6125 320.5613,250.3969 Q320.7206,250.275 320.805,250.2375 Q320.8894,250.2 320.9925,250.2 Q321.1894,250.2 321.33,250.3594 Q321.48,250.5094 321.48,250.725 Q321.48,250.9312 321.2737,251.175 Q320.9737,251.5313 320.4956,251.7281 Q319.8675,252 319.0987,252 Q318.1987,252 317.4769,251.6437 Q316.8956,251.3625 316.4831,250.7531 Q316.08,250.1437 316.08,249.4219 L316.08,248.7656 Q316.08,248.0156 316.4363,247.3594 Q316.8019,246.7031 317.43,246.3563 Q318.0675,246 318.78,246 Q319.2112,246 319.5862,246.15 Q319.9612,246.3 320.28,246.6 Z " fill="#000000"/><text fill="#000000" font-family="sans-serif" font-size="8.4" lengthAdjust="spacing" textLength="29.4" x="328.32" y="252.1371">Student</text><line style="stroke:#181818;stroke-width:0.3;" x1="306.9" x2="362.7" y1="258.3" y2="258.3"/><rect fill="none" height="3.6" style="stroke:#C82930;stroke-width:0.6;" width="3.6" x="311.1" y="263.1"/><text fill="#000000" font-family="sans-serif" font-size="8.4" lengthAdjust="spacing" textLength="41.4" x="318.3" y="269.4199">Color color</text><line style="stroke:#181818;stroke-width:0.3;" x1="306.9" x2="362.7" y1="273.6656" y2="273.6656"/></g><!--MD5=[e6a0401af6286042726057f986c3e7c8]
class Tower--><g id="elem_Tower"><rect codeLine="67" fill="#F1F1F1" height="39.3656" id="Tower" rx="2.1" ry="2.1" style="stroke:#181818;stroke-width:0.3;" width="80.4" x="204.6" y="239.1"/><ellipse cx="230.61" cy="248.7" fill="#ADD1B2" rx="6.6" ry="6.6" style="stroke:#181818;stroke-width:0.6;"/><path d="M231.81,246.6 Q231.9319,246.3 232.0725,246.15 Q232.2131,246 232.3725,246 Q232.6538,246 232.8319,246.1688 Q233.01,246.3375 233.01,246.7313 L233.01,247.6688 Q233.01,248.0625 232.8413,248.2313 Q232.6725,248.4 232.41,248.4 Q232.1756,248.4 232.0256,248.2969 Q231.8756,248.1938 231.81,247.9219 Q231.7819,247.7344 231.6788,247.6313 Q231.4913,247.4344 231.1538,247.3219 Q230.8163,247.2 230.4788,247.2 Q230.0569,247.2 229.7006,247.3687 Q229.3538,247.5375 229.0819,247.9125 Q228.81,248.2875 228.81,248.8031 L228.81,249.3563 Q228.81,249.975 229.3163,250.3875 Q229.8225,250.8 230.7225,250.8 Q231.2569,250.8 231.6319,250.6781 Q231.8475,250.6125 232.0913,250.3969 Q232.2506,250.275 232.335,250.2375 Q232.4194,250.2 232.5225,250.2 Q232.7194,250.2 232.86,250.3594 Q233.01,250.5094 233.01,250.725 Q233.01,250.9312 232.8038,251.175 Q232.5038,251.5313 232.0256,251.7281 Q231.3975,252 230.6288,252 Q229.7288,252 229.0069,251.6437 Q228.4256,251.3625 228.0131,250.7531 Q227.61,250.1437 227.61,249.4219 L227.61,248.7656 Q227.61,248.0156 227.9663,247.3594 Q228.3319,246.7031 228.96,246.3563 Q229.5975,246 230.31,246 Q230.7413,246 231.1163,246.15 Q231.4913,246.3 231.81,246.6 Z " fill="#000000"/><text fill="#000000" font-family="sans-serif" font-size="8.4" lengthAdjust="spacing" textLength="23.4" x="242.79" y="252.1371">Tower</text><line style="stroke:#181818;stroke-width:0.3;" x1="205.2" x2="284.4" y1="258.3" y2="258.3"/><rect fill="none" height="3.6" style="stroke:#C82930;stroke-width:0.6;" width="3.6" x="209.4" y="263.1"/><text fill="#000000" font-family="sans-serif" font-size="8.4" lengthAdjust="spacing" textLength="64.8" x="216.6" y="269.4199">TowerColor color</text><line style="stroke:#181818;stroke-width:0.3;" x1="205.2" x2="284.4" y1="273.6656" y2="273.6656"/></g><!--MD5=[3ea2e56578276300f1408dbb43472621]
class MotherNature--><g id="elem_MotherNature"><rect codeLine="71" fill="#F1F1F1" height="28.8" id="MotherNature" rx="2.1" ry="2.1" style="stroke:#181818;stroke-width:0.3;" width="70.8" x="462.6" y="244.5"/><ellipse cx="471.6" cy="254.1" fill="#ADD1B2" rx="6.6" ry="6.6" style="stroke:#181818;stroke-width:0.6;"/><path d="M472.8,252 Q472.9219,251.7 473.0625,251.55 Q473.2031,251.4 473.3625,251.4 Q473.6437,251.4 473.8219,251.5688 Q474,251.7375 474,252.1313 L474,253.0688 Q474,253.4625 473.8312,253.6313 Q473.6625,253.8 473.4,253.8 Q473.1656,253.8 473.0156,253.6969 Q472.8656,253.5938 472.8,253.3219 Q472.7719,253.1344 472.6688,253.0313 Q472.4813,252.8344 472.1437,252.7219 Q471.8063,252.6 471.4688,252.6 Q471.0469,252.6 470.6906,252.7687 Q470.3438,252.9375 470.0719,253.3125 Q469.8,253.6875 469.8,254.2031 L469.8,254.7563 Q469.8,255.375 470.3063,255.7875 Q470.8125,256.2 471.7125,256.2 Q472.2469,256.2 472.6219,256.0781 Q472.8375,256.0125 473.0812,255.7969 Q473.2406,255.675 473.325,255.6375 Q473.4094,255.6 473.5125,255.6 Q473.7094,255.6 473.85,255.7594 Q474,255.9094 474,256.125 Q474,256.3313 473.7938,256.575 Q473.4938,256.9313 473.0156,257.1281 Q472.3875,257.4 471.6188,257.4 Q470.7188,257.4 469.9969,257.0438 Q469.4156,256.7625 469.0031,256.1531 Q468.6,255.5438 468.6,254.8219 L468.6,254.1656 Q468.6,253.4156 468.9562,252.7594 Q469.3219,252.1031 469.95,251.7563 Q470.5875,251.4 471.3,251.4 Q471.7313,251.4 472.1063,251.55 Q472.4813,251.7 472.8,252 Z " fill="#000000"/><text fill="#000000" font-family="sans-serif" font-size="8.4" lengthAdjust="spacing" textLength="51.6" x="480" y="257.5371">MotherNature</text><line style="stroke:#181818;stroke-width:0.3;" x1="463.2" x2="532.8" y1="263.7" y2="263.7"/><line style="stroke:#181818;stroke-width:0.3;" x1="463.2" x2="532.8" y1="268.5" y2="268.5"/></g><!--MD5=[9153511ab415ec25fadc371cb52004ef]
class AssistantCard--><g id="elem_AssistantCard"><rect codeLine="73" fill="#F1F1F1" height="49.9313" id="AssistantCard" rx="2.1" ry="2.1" style="stroke:#181818;stroke-width:0.3;" width="72" x="655.8" y="442.8"/><ellipse cx="664.8" cy="452.4" fill="#ADD1B2" rx="6.6" ry="6.6" style="stroke:#181818;stroke-width:0.6;"/><path d="M666,450.3 Q666.1219,450 666.2625,449.85 Q666.4031,449.7 666.5625,449.7 Q666.8438,449.7 667.0219,449.8688 Q667.2,450.0375 667.2,450.4313 L667.2,451.3688 Q667.2,451.7625 667.0313,451.9313 Q666.8625,452.1 666.6,452.1 Q666.3656,452.1 666.2156,451.9969 Q666.0656,451.8938 666,451.6219 Q665.9719,451.4344 665.8688,451.3313 Q665.6813,451.1344 665.3438,451.0219 Q665.0063,450.9 664.6687,450.9 Q664.2469,450.9 663.8906,451.0687 Q663.5437,451.2375 663.2719,451.6125 Q663,451.9875 663,452.5031 L663,453.0563 Q663,453.675 663.5063,454.0875 Q664.0125,454.5 664.9125,454.5 Q665.4469,454.5 665.8219,454.3781 Q666.0375,454.3125 666.2813,454.0969 Q666.4406,453.975 666.525,453.9375 Q666.6094,453.9 666.7125,453.9 Q666.9094,453.9 667.05,454.0594 Q667.2,454.2094 667.2,454.425 Q667.2,454.6312 666.9938,454.875 Q666.6938,455.2313 666.2156,455.4281 Q665.5875,455.7 664.8188,455.7 Q663.9187,455.7 663.1969,455.3438 Q662.6156,455.0625 662.2031,454.4531 Q661.8,453.8438 661.8,453.1219 L661.8,452.4656 Q661.8,451.7156 662.1563,451.0594 Q662.5219,450.4031 663.15,450.0563 Q663.7875,449.7 664.5,449.7 Q664.9313,449.7 665.3063,449.85 Q665.6813,450 666,450.3 Z " fill="#000000"/><text fill="#000000" font-family="sans-serif" font-size="8.4" lengthAdjust="spacing" textLength="52.8" x="673.2" y="455.8371">AssistantCard</text><line style="stroke:#181818;stroke-width:0.3;" x1="656.4" x2="727.2" y1="462" y2="462"/><rect fill="none" height="3.6" style="stroke:#C82930;stroke-width:0.6;" width="3.6" x="660.6" y="466.8"/><text fill="#000000" font-family="sans-serif" font-size="8.4" lengthAdjust="spacing" textLength="31.8" x="667.8" y="473.1199">int value</text><rect fill="none" height="3.6" style="stroke:#C82930;stroke-width:0.6;" width="3.6" x="660.6" y="477.3656"/><text fill="#000000" font-family="sans-serif" font-size="8.4" lengthAdjust="spacing" textLength="50.4" x="667.8" y="483.6855">int movement</text><line style="stroke:#181818;stroke-width:0.3;" x1="656.4" x2="727.2" y1="487.9313" y2="487.9313"/></g><!--MD5=[4ea8e61345abb1b5d1b65d1adc4a63a0]
class CharacterCard--><g id="elem_CharacterCard"><rect codeLine="78" fill="#F1F1F1" height="39.3656" id="CharacterCard" rx="2.1" ry="2.1" style="stroke:#181818;stroke-width:0.3;" width="75.6" x="430.2" y="447.9"/><ellipse cx="439.2" cy="457.5" fill="#ADD1B2" rx="6.6" ry="6.6" style="stroke:#181818;stroke-width:0.6;"/><path d="M440.4,455.4 Q440.5219,455.1 440.6625,454.95 Q440.8031,454.8 440.9625,454.8 Q441.2438,454.8 441.4219,454.9688 Q441.6,455.1375 441.6,455.5313 L441.6,456.4688 Q441.6,456.8625 441.4313,457.0313 Q441.2625,457.2 441,457.2 Q440.7656,457.2 440.6156,457.0969 Q440.4656,456.9938 440.4,456.7219 Q440.3719,456.5344 440.2688,456.4313 Q440.0813,456.2344 439.7438,456.1219 Q439.4063,456 439.0687,456 Q438.6469,456 438.2906,456.1688 Q437.9437,456.3375 437.6719,456.7125 Q437.4,457.0875 437.4,457.6031 L437.4,458.1563 Q437.4,458.775 437.9063,459.1875 Q438.4125,459.6 439.3125,459.6 Q439.8469,459.6 440.2219,459.4781 Q440.4375,459.4125 440.6813,459.1969 Q440.8406,459.075 440.925,459.0375 Q441.0094,459 441.1125,459 Q441.3094,459 441.45,459.1594 Q441.6,459.3094 441.6,459.525 Q441.6,459.7313 441.3938,459.975 Q441.0938,460.3313 440.6156,460.5281 Q439.9875,460.8 439.2188,460.8 Q438.3187,460.8 437.5969,460.4437 Q437.0156,460.1625 436.6031,459.5531 Q436.2,458.9437 436.2,458.2219 L436.2,457.5656 Q436.2,456.8156 436.5563,456.1594 Q436.9219,455.5031 437.55,455.1563 Q438.1875,454.8 438.9,454.8 Q439.3313,454.8 439.7063,454.95 Q440.0813,455.1 440.4,455.4 Z " fill="#000000"/><text fill="#000000" font-family="sans-serif" font-size="8.4" lengthAdjust="spacing" textLength="56.4" x="447.6" y="460.9371">CharacterCard</text><line style="stroke:#181818;stroke-width:0.3;" x1="430.8" x2="505.2" y1="467.1" y2="467.1"/><rect fill="none" height="3.6" style="stroke:#C82930;stroke-width:0.6;" width="3.6" x="435" y="471.9"/><text fill="#000000" font-family="sans-serif" font-size="8.4" lengthAdjust="spacing" textLength="41.4" x="442.2" y="478.2199">Color color</text><line style="stroke:#181818;stroke-width:0.3;" x1="430.8" x2="505.2" y1="482.4656" y2="482.4656"/></g><!--MD5=[30299a58ba6b78debaaed5ddbb42f29a]
class Deck--><g id="elem_Deck"><rect codeLine="82" fill="#F1F1F1" height="60.4969" id="Deck" rx="2.1" ry="2.1" style="stroke:#181818;stroke-width:0.3;" width="207.6" x="554.4" y="228.6"/><ellipse cx="646.05" cy="238.2" fill="#ADD1B2" rx="6.6" ry="6.6" style="stroke:#181818;stroke-width:0.6;"/><path d="M647.25,236.1 Q647.3719,235.8 647.5125,235.65 Q647.6531,235.5 647.8125,235.5 Q648.0938,235.5 648.2719,235.6688 Q648.45,235.8375 648.45,236.2313 L648.45,237.1688 Q648.45,237.5625 648.2813,237.7313 Q648.1125,237.9 647.85,237.9 Q647.6156,237.9 647.4656,237.7969 Q647.3156,237.6938 647.25,237.4219 Q647.2219,237.2344 647.1188,237.1313 Q646.9313,236.9344 646.5938,236.8219 Q646.2563,236.7 645.9187,236.7 Q645.4969,236.7 645.1406,236.8687 Q644.7937,237.0375 644.5219,237.4125 Q644.25,237.7875 644.25,238.3031 L644.25,238.8563 Q644.25,239.475 644.7563,239.8875 Q645.2625,240.3 646.1625,240.3 Q646.6969,240.3 647.0719,240.1781 Q647.2875,240.1125 647.5313,239.8969 Q647.6906,239.775 647.775,239.7375 Q647.8594,239.7 647.9625,239.7 Q648.1594,239.7 648.3,239.8594 Q648.45,240.0094 648.45,240.225 Q648.45,240.4312 648.2438,240.675 Q647.9438,241.0313 647.4656,241.2281 Q646.8375,241.5 646.0688,241.5 Q645.1687,241.5 644.4469,241.1437 Q643.8656,240.8625 643.4531,240.2531 Q643.05,239.6437 643.05,238.9219 L643.05,238.2656 Q643.05,237.5156 643.4063,236.8594 Q643.7719,236.2031 644.4,235.8563 Q645.0375,235.5 645.75,235.5 Q646.1813,235.5 646.5563,235.65 Q646.9313,235.8 647.25,236.1 Z " fill="#000000"/><text fill="#000000" font-family="sans-serif" font-size="8.4" lengthAdjust="spacing" textLength="19.2" x="658.35" y="241.6371">Deck</text><line style="stroke:#181818;stroke-width:0.3;" x1="555" x2="761.4" y1="247.8" y2="247.8"/><rect fill="none" height="3.6" style="stroke:#C82930;stroke-width:0.6;" width="3.6" x="559.2" y="252.6"/><text fill="#000000" font-family="sans-serif" font-size="8.4" lengthAdjust="spacing" textLength="114.6" x="566.4" y="258.9199">ArrayList&lt;Card&gt; cardArrayList</text><line style="stroke:#181818;stroke-width:0.3;" x1="555" x2="761.4" y1="263.1656" y2="263.1656"/><ellipse cx="561" cy="269.7656" fill="#84BE84" rx="1.8" ry="1.8" style="stroke:#038048;stroke-width:0.6;"/><text fill="#000000" font-family="sans-serif" font-size="8.4" lengthAdjust="spacing" textLength="192" x="566.4" y="274.2855">«constructor»Deck(ArrayList&lt;Card&gt; cardArrayList)</text><ellipse cx="561" cy="280.3313" fill="#84BE84" rx="1.8" ry="1.8" style="stroke:#038048;stroke-width:0.6;"/><text fill="#000000" font-family="sans-serif" font-size="8.4" lengthAdjust="spacing" textLength="70.8" x="566.4" y="284.8512">Card extractCard()</text></g><!--MD5=[1da8f80c0a6f875dfd1b47fac061377f]
class Coin--><g id="elem_Coin"><rect codeLine="88" fill="#F1F1F1" height="49.9313" id="Coin" rx="2.1" ry="2.1" style="stroke:#181818;stroke-width:0.3;" width="107.4" x="527.1" y="442.8"/><ellipse cx="569.55" cy="452.4" fill="#ADD1B2" rx="6.6" ry="6.6" style="stroke:#181818;stroke-width:0.6;"/><path d="M570.75,450.3 Q570.8719,450 571.0125,449.85 Q571.1531,449.7 571.3125,449.7 Q571.5938,449.7 571.7719,449.8688 Q571.95,450.0375 571.95,450.4313 L571.95,451.3688 Q571.95,451.7625 571.7813,451.9313 Q571.6125,452.1 571.35,452.1 Q571.1156,452.1 570.9656,451.9969 Q570.8156,451.8938 570.75,451.6219 Q570.7219,451.4344 570.6188,451.3313 Q570.4313,451.1344 570.0938,451.0219 Q569.7563,450.9 569.4187,450.9 Q568.9969,450.9 568.6406,451.0687 Q568.2937,451.2375 568.0219,451.6125 Q567.75,451.9875 567.75,452.5031 L567.75,453.0563 Q567.75,453.675 568.2563,454.0875 Q568.7625,454.5 569.6625,454.5 Q570.1969,454.5 570.5719,454.3781 Q570.7875,454.3125 571.0313,454.0969 Q571.1906,453.975 571.275,453.9375 Q571.3594,453.9 571.4625,453.9 Q571.6594,453.9 571.8,454.0594 Q571.95,454.2094 571.95,454.425 Q571.95,454.6312 571.7438,454.875 Q571.4438,455.2313 570.9656,455.4281 Q570.3375,455.7 569.5688,455.7 Q568.6687,455.7 567.9469,455.3438 Q567.3656,455.0625 566.9531,454.4531 Q566.55,453.8438 566.55,453.1219 L566.55,452.4656 Q566.55,451.7156 566.9063,451.0594 Q567.2719,450.4031 567.9,450.0563 Q568.5375,449.7 569.25,449.7 Q569.6813,449.7 570.0563,449.85 Q570.4313,450 570.75,450.3 Z " fill="#000000"/><text fill="#000000" font-family="sans-serif" font-size="8.4" lengthAdjust="spacing" textLength="17.4" x="581.85" y="455.8371">Coin</text><line style="stroke:#181818;stroke-width:0.3;" x1="527.7" x2="633.9" y1="462" y2="462"/><rect fill="none" height="3.6" style="stroke:#C82930;stroke-width:0.6;" width="3.6" x="531.9" y="466.8"/><text fill="#000000" font-family="sans-serif" font-size="8.4" lengthAdjust="spacing" textLength="72" x="539.1" y="473.1199">AssistantCard card</text><line style="stroke:#181818;stroke-width:0.3;" x1="527.7" x2="633.9" y1="477.3656" y2="477.3656"/><ellipse cx="533.7" cy="483.9656" fill="#84BE84" rx="1.8" ry="1.8" style="stroke:#038048;stroke-width:0.6;"/><text fill="#000000" font-family="sans-serif" font-size="8.4" lengthAdjust="spacing" textLength="91.8" x="539.1" y="488.4855">AssistantCard getCard()</text></g><!--MD5=[aa5893810a147e5bdbd2270e945234e0]
class BlockTile--><g id="elem_BlockTile"><rect codeLine="93" fill="#F1F1F1" height="49.9313" id="BlockTile" rx="2.1" ry="2.1" style="stroke:#181818;stroke-width:0.3;" width="88.2" x="13.5" y="341.1"/><ellipse cx="38.16" cy="350.7" fill="#ADD1B2" rx="6.6" ry="6.6" style="stroke:#181818;stroke-width:0.6;"/><path d="M39.36,348.6 Q39.4819,348.3 39.6225,348.15 Q39.7631,348 39.9225,348 Q40.2037,348 40.3819,348.1688 Q40.56,348.3375 40.56,348.7313 L40.56,349.6688 Q40.56,350.0625 40.3912,350.2313 Q40.2225,350.4 39.96,350.4 Q39.7256,350.4 39.5756,350.2969 Q39.4256,350.1937 39.36,349.9219 Q39.3319,349.7344 39.2288,349.6312 Q39.0413,349.4344 38.7037,349.3219 Q38.3663,349.2 38.0288,349.2 Q37.6069,349.2 37.2506,349.3688 Q36.9038,349.5375 36.6319,349.9125 Q36.36,350.2875 36.36,350.8031 L36.36,351.3563 Q36.36,351.975 36.8663,352.3875 Q37.3725,352.8 38.2725,352.8 Q38.8069,352.8 39.1819,352.6781 Q39.3975,352.6125 39.6412,352.3969 Q39.8006,352.275 39.885,352.2375 Q39.9694,352.2 40.0725,352.2 Q40.2694,352.2 40.41,352.3594 Q40.56,352.5094 40.56,352.725 Q40.56,352.9313 40.3538,353.175 Q40.0537,353.5313 39.5756,353.7281 Q38.9475,354 38.1788,354 Q37.2788,354 36.5569,353.6438 Q35.9756,353.3625 35.5631,352.7531 Q35.16,352.1438 35.16,351.4219 L35.16,350.7656 Q35.16,350.0156 35.5163,349.3594 Q35.8819,348.7031 36.51,348.3563 Q37.1475,348 37.86,348 Q38.2913,348 38.6663,348.15 Q39.0413,348.3 39.36,348.6 Z " fill="#000000"/><text fill="#000000" font-family="sans-serif" font-size="8.4" lengthAdjust="spacing" textLength="34.2" x="50.04" y="354.1371">BlockTile</text><line style="stroke:#181818;stroke-width:0.3;" x1="14.1" x2="101.1" y1="360.3" y2="360.3"/><rect fill="none" height="3.6" style="stroke:#C82930;stroke-width:0.6;" width="3.6" x="18.3" y="365.1"/><text fill="#000000" font-family="sans-serif" font-size="8.4" lengthAdjust="spacing" textLength="46.8" x="25.5" y="371.4199">Island island</text><line style="stroke:#181818;stroke-width:0.3;" x1="14.1" x2="101.1" y1="375.6656" y2="375.6656"/><ellipse cx="20.1" cy="382.2656" fill="#84BE84" rx="1.8" ry="1.8" style="stroke:#038048;stroke-width:0.6;"/><text fill="#000000" font-family="sans-serif" font-size="8.4" lengthAdjust="spacing" textLength="72.6" x="25.5" y="386.7855">Island getPosition()</text></g><!--MD5=[c505e7abed7eac600adb46cdf8a9bcad]
reverse link Island to BlockTile--><g id="link_Island_BlockTile"><path codeLine="98" d="M34.2,276.342 C34.2,276.342 34.2,340.938 34.2,340.938 " fill="none" id="Island-backto-BlockTile" style="stroke:#454645;stroke-width:0.6;"/><polygon fill="#454645" points="34.2,273.342,31.8,278.742,34.2,276.342,36.6,278.742,34.2,273.342" style="stroke:#454645;stroke-width:0.6;"/></g><!--MD5=[ecb523b99ee52cd5a2ceec301750661a]
link Coin to AssistantCard--><g id="link_Coin_AssistantCard"><path codeLine="99" d="M634.512,468 C634.512,468 652.728,468 652.728,468 " fill="none" id="Coin-to-AssistantCard" style="stroke:#454645;stroke-width:0.6;"/><polygon fill="#454645" points="655.728,468,650.328,465.6,652.728,468,650.328,470.4,655.728,468" style="stroke:#454645;stroke-width:0.6;"/></g><!--MD5=[ef3cd93b4b4594f3c81ac07d483b3904]
reverse link Card to AssistantCard--><g id="link_Card_AssistantCard"><path codeLine="101" d="M666.45,392.574 C666.45,392.574 666.45,442.746 666.45,442.746 " fill="none" id="Card-backto-AssistantCard" style="stroke:#454645;stroke-width:0.6;"/><polygon fill="none" points="662.25,392.574,666.45,380.574,670.65,392.574,662.25,392.574" style="stroke:#454645;stroke-width:0.6;"/></g><!--MD5=[291c5d578a16afa36f38ad0004fb93fc]
reverse link Card to CharacterCard--><g id="link_Card_CharacterCard"><path codeLine="102" d="M627.246,366 C627.246,366 484.2,366 484.2,366 C484.2,366 484.2,418.254 484.2,447.852 " fill="none" id="Card-backto-CharacterCard" style="stroke:#454645;stroke-width:0.6;"/><polygon fill="none" points="627.246,361.8,639.246,366,627.246,370.2,627.246,361.8" style="stroke:#454645;stroke-width:0.6;"/></g><!--MD5=[675c98fc2462cbf3e0a6a5ea82b07648]
reverse link Board to Island--><g id="link_Board_Island"><path codeLine="104" d="M73.5,204.696 C73.5,204.696 73.5,259.2 73.5,259.2 C73.5,259.2 64.428,259.2 55.002,259.2 " fill="none" id="Board-backto-Island" style="stroke:#454645;stroke-width:0.6;"/><polygon fill="none" points="69.3,204.696,73.5,192.696,77.7,204.696,69.3,204.696" style="stroke:#454645;stroke-width:0.6;"/></g><!--MD5=[be23cc1339613c23591eff570872c022]
reverse link Board to Cloud--><g id="link_Board_Cloud"><path codeLine="105" d="M162.6,204.864 C162.6,204.864 162.6,244.44 162.6,244.44 " fill="none" id="Board-backto-Cloud" style="stroke:#454645;stroke-width:0.6;"/><polygon fill="none" points="158.4,204.864,162.6,192.864,166.8,204.864,158.4,204.864" style="stroke:#454645;stroke-width:0.6;"/></g><!--MD5=[7f594aabb976cac6a4bd27a68b863784]
reverse link Board to School--><g id="link_Board_School"><path codeLine="106" d="M98.4,204.864 C98.4,204.864 98.4,244.44 98.4,244.44 " fill="none" id="Board-backto-School" style="stroke:#454645;stroke-width:0.6;"/><polygon fill="none" points="94.2,204.864,98.4,192.864,102.6,204.864,94.2,204.864" style="stroke:#454645;stroke-width:0.6;"/></g><!--MD5=[1031735363d49c9f2ac3483128640f78]
reverse link Board to Pawn--><g id="link_Board_Pawn"><path codeLine="107" d="M246.342,162.6 C246.342,162.6 264.438,162.6 264.438,162.6 " fill="none" id="Board-backto-Pawn" style="stroke:#454645;stroke-width:0.6;"/><polygon fill="#454645" points="243.342,162.6,248.742,165,246.342,162.6,248.742,160.2,243.342,162.6" style="stroke:#454645;stroke-width:0.6;"/></g><!--MD5=[762b1bad54bda995845750ecd7df4c7a]
reverse link Pawn to Professor--><g id="link_Pawn_Professor"><path codeLine="109" d="M400.05,204.864 C400.05,204.864 400.05,238.884 400.05,238.884 " fill="none" id="Pawn-backto-Professor" style="stroke:#454645;stroke-width:0.6;"/><polygon fill="none" points="395.85,204.864,400.05,192.864,404.25,204.864,395.85,204.864" style="stroke:#454645;stroke-width:0.6;"/></g><!--MD5=[4cbe029bfd09fd7227938a05c4ca9bf5]
reverse link Pawn to Student--><g id="link_Pawn_Student"><path codeLine="110" d="M334.8,204.864 C334.8,204.864 334.8,238.884 334.8,238.884 " fill="none" id="Pawn-backto-Student" style="stroke:#454645;stroke-width:0.6;"/><polygon fill="none" points="330.6,204.864,334.8,192.864,339,204.864,330.6,204.864" style="stroke:#454645;stroke-width:0.6;"/></g><!--MD5=[99a87e5119cbbe499307809beb818dac]
reverse link Pawn to Tower--><g id="link_Pawn_Tower"><path codeLine="111" d="M274.8,204.864 C274.8,204.864 274.8,238.884 274.8,238.884 " fill="none" id="Pawn-backto-Tower" style="stroke:#454645;stroke-width:0.6;"/><polygon fill="none" points="270.6,204.864,274.8,192.864,279,204.864,270.6,204.864" style="stroke:#454645;stroke-width:0.6;"/></g><!--MD5=[28e1341c03a648a0732569ca8dce5ec4]
reverse link Pawn to MotherNature--><g id="link_Pawn_MotherNature"><path codeLine="112" d="M427.974,162.6 C427.974,162.6 486.6,162.6 486.6,162.6 C486.6,162.6 486.6,217.62 486.6,244.482 " fill="none" id="Pawn-backto-MotherNature" style="stroke:#454645;stroke-width:0.6;"/><polygon fill="none" points="427.974,166.8,415.974,162.6,427.974,158.4,427.974,166.8" style="stroke:#454645;stroke-width:0.6;"/></g><!--MD5=[5cf861f56d83ae4345dbc2180ae8b1d0]
reverse link Deck to Card--><g id="link_Deck_Card"><path codeLine="114" d="M658.2,297.102 C658.2,297.102 658.2,351.552 658.2,351.552 " fill="none" id="Deck-backto-Card" style="stroke:#454645;stroke-width:0.6;"/><polygon fill="#454645" points="658.2,289.302,655.8,292.902,658.2,296.502,660.6,292.902,658.2,289.302" style="stroke:#454645;stroke-width:0.6;"/></g><!--MD5=[8d9472248db2c295e563e60b72e74922]
link Player to Deck--><g id="link_Player_Deck"><path codeLine="115" d="M611.7,192.864 C611.7,192.864 611.7,225.534 611.7,225.534 " fill="none" id="Player-to-Deck" style="stroke:#454645;stroke-width:0.6;"/><polygon fill="#454645" points="611.7,228.534,614.1,223.134,611.7,225.534,609.3,223.134,611.7,228.534" style="stroke:#454645;stroke-width:0.6;"/></g><!--MD5=[6b6b9e8ceff4e9e58f06e15491e15318]
link Game to Player--><g id="link_Game_Player"><path codeLine="117" d="M405.618,60.6 C479.568,60.6 589.8,60.6 589.8,60.6 C589.8,60.6 589.8,128.784 589.8,128.784 " fill="none" id="Game-to-Player" style="stroke:#454645;stroke-width:0.6;"/><polygon fill="#454645" points="589.8,131.784,592.2,126.384,589.8,128.784,587.4,126.384,589.8,131.784" style="stroke:#454645;stroke-width:0.6;"/></g><!--MD5=[15c8f9ca3aac13d865864b4eb5314ef1]
link Game to Board--><g id="link_Game_Board"><path codeLine="118" d="M274.65,60.6 C222.138,60.6 157.2,60.6 157.2,60.6 C157.2,60.6 157.2,128.784 157.2,128.784 " fill="none" id="Game-to-Board" style="stroke:#454645;stroke-width:0.6;"/><polygon fill="#454645" points="157.2,131.784,159.6,126.384,157.2,128.784,154.8,126.384,157.2,131.784" style="stroke:#454645;stroke-width:0.6;"/></g><!--MD5=[d8b339cd4d972907013b901513a5cdef]
link Game to Pawn--><g id="link_Game_Pawn"><path codeLine="119" d="M340.2,96.168 C340.2,96.168 340.2,128.982 340.2,128.982 " fill="none" id="Game-to-Pawn" style="stroke:#454645;stroke-width:0.6;"/><polygon fill="#454645" points="340.2,131.982,342.6,126.582,340.2,128.982,337.8,126.582,340.2,131.982" style="stroke:#454645;stroke-width:0.6;"/></g><!--MD5=[c4de8f0a3fa2c66573592a8c04806d52]
link Professor to Color--><g id="link_Professor_Color"><path codeLine="121" d="M389.55,278.796 C389.55,278.796 389.55,322.14 389.55,322.14 " fill="none" id="Professor-to-Color" style="stroke:#454645;stroke-width:0.6;stroke-dasharray:7.0,7.0;"/><polygon fill="#454645" points="389.55,325.14,391.95,319.74,389.55,322.14,387.15,319.74,389.55,325.14" style="stroke:#454645;stroke-width:0.6;"/></g><!--MD5=[1daab493f86e124074863c7d996548e1]
link Student to Color--><g id="link_Student_Color"><path codeLine="122" d="M358.05,278.796 C358.05,278.796 358.05,322.14 358.05,322.14 " fill="none" id="Student-to-Color" style="stroke:#454645;stroke-width:0.6;stroke-dasharray:7.0,7.0;"/><polygon fill="#454645" points="358.05,325.14,360.45,319.74,358.05,322.14,355.65,319.74,358.05,325.14" style="stroke:#454645;stroke-width:0.6;"/></g><!--MD5=[bb2987cb63935726317af892abb93c33]
link Tower to TowerColor--><g id="link_Tower_TowerColor"><path codeLine="124" d="M244.8,278.796 C244.8,278.796 244.8,332.682 244.8,332.682 " fill="none" id="Tower-to-TowerColor" style="stroke:#454645;stroke-width:0.6;stroke-dasharray:7.0,7.0;"/><polygon fill="#454645" points="244.8,335.682,247.2,330.282,244.8,332.682,242.4,330.282,244.8,335.682" style="stroke:#454645;stroke-width:0.6;"/></g><!--MD5=[13de4c9f2237d887e62bfe01a69c79ff]
@startuml initial_uml
!theme vibrant
skinparam Linetype polyline
skinparam Linetype ortho

package model <<Folder>> {
    enum Color {
        YELLOW
        BLUE
        GREEN
        RED
        PINK
    }

    enum TowerColor {
        WHITE
        GRAY
        BLACK
    }

    class Game {
        - ArrayList<Player> playerOrder
        + <<constructor>>Game()
        + void round()
        + void addPlayer(Player player)
    }

    abstract class Board {
        ~ int ID
        + ArrayList<Student> getStudentOnBoard()
        + int getID()
    }
    
    abstract class Pawn {
        - Board position
        + Board getPosition()
        + void setPosition(Board newPosition)
    }

    abstract class Card

    class Player {
        - String nickname
        + <<constructor>>Player(String nickname)
        + String getNickname()
    }

    class Island {
    
    }
    
    class School {
    
    }

    class Cloud {

    }

    class Professor {
        - Color color
    }

    class Student {
        - Color color
    }

    class Tower {
        - TowerColor color
    }

    class MotherNature

    class AssistantCard {
        - int value
        - int movement
    }

    class CharacterCard {
        - Color color
    }

    class Deck {
        - ArrayList<Card> cardArrayList
        + <<constructor>>Deck(ArrayList<Card> cardArrayList)
        + Card extractCard()
    }

    class Coin {
        - AssistantCard card
        + AssistantCard getCard()
    }

    class BlockTile {
        - Island island
        + Island getPosition()
    }

    BlockTile -UP-> Island
    Coin -RIGHT-> AssistantCard

    Card <|-DOWN- AssistantCard
    Card <|- - CharacterCard

    Board <|-DOWN- Island
    Board <|-DOWN- Cloud
    Board <|-DOWN- School
    Board <-RIGHT- - Pawn

    Pawn <|- - Professor
    Pawn <|- - Student
    Pawn <|- - Tower
    Pawn <|- - MotherNature

    Deck *- - Card
    Deck <-UP- Player

    Game - -> Player
    Game - -> Board
    Game - -> Pawn
    
    Color <.UP. Professor
    Color <.UP. Student

    TowerColor <.UP. Tower
}

@enduml

@startuml initial_uml
skinparam BackgroundColor FFFFFF
skinparam shadowing false
skinparam RoundCorner 7
skinparam ArrowColor 454645
skinparam FontColor 454645
skinparam SequenceLifeLineBorderColor 696969
skinparam SequenceGroupHeaderFontColor 454645
skinparam SequenceGroupFontColor 696969
skinparam SequenceGroupBorderColor 696969
skinparam SequenceGroupBorderThickness 1

skinparam sequenceDivider {
    BorderColor 454645
    BorderThickness 1
    FontColor 454645
}

skinparam participant {
    BackgroundColor FF6347
    BorderColor 454645
    FontColor FFFFFF
    BorderThickness 1.5
}

skinparam database {
    BackgroundColor 00FFFF
    BorderColor 454645
    FontColor 454645
}

skinparam entity {
    BackgroundColor FFE552
    BorderColor 454645
    FontColor 454645
}

skinparam note {
    BackgroundColor 7FFFD4
    BorderColor 454645
    FontColor 454645
    BorderThickness 1.5
}

skinparam actor {
    BackgroundColor 454645
    BorderColor 454645
    FontColor 454645
}

skinparam boundary {
    BackgroundColor FFE552
    BorderColor 454645
    FontColor 454645
}

skinparam control {
    BackgroundColor FFE552
    BorderColor 454645
    FontColor 454645
}

skinparam collections {
    BackgroundColor FF5F42
    BorderColor 454645
    FontColor 454645
}

skinparam queue {
    BackgroundColor FF6347
    BorderColor 454645
    FontColor FFF
    BorderThickness 1.5
}
skinparam Linetype polyline
skinparam Linetype ortho

package model <<Folder>> {
    enum Color {
        YELLOW
        BLUE
        GREEN
        RED
        PINK
    }

    enum TowerColor {
        WHITE
        GRAY
        BLACK
    }

    class Game {
        - ArrayList<Player> playerOrder
        + <<constructor>>Game()
        + void round()
        + void addPlayer(Player player)
    }

    abstract class Board {
        ~ int ID
        + ArrayList<Student> getStudentOnBoard()
        + int getID()
    }
    
    abstract class Pawn {
        - Board position
        + Board getPosition()
        + void setPosition(Board newPosition)
    }

    abstract class Card

    class Player {
        - String nickname
        + <<constructor>>Player(String nickname)
        + String getNickname()
    }

    class Island {
    
    }
    
    class School {
    
    }

    class Cloud {

    }

    class Professor {
        - Color color
    }

    class Student {
        - Color color
    }

    class Tower {
        - TowerColor color
    }

    class MotherNature

    class AssistantCard {
        - int value
        - int movement
    }

    class CharacterCard {
        - Color color
    }

    class Deck {
        - ArrayList<Card> cardArrayList
        + <<constructor>>Deck(ArrayList<Card> cardArrayList)
        + Card extractCard()
    }

    class Coin {
        - AssistantCard card
        + AssistantCard getCard()
    }

    class BlockTile {
        - Island island
        + Island getPosition()
    }

    BlockTile -UP-> Island
    Coin -RIGHT-> AssistantCard

    Card <|-DOWN- AssistantCard
    Card <|- - CharacterCard

    Board <|-DOWN- Island
    Board <|-DOWN- Cloud
    Board <|-DOWN- School
    Board <-RIGHT- - Pawn

    Pawn <|- - Professor
    Pawn <|- - Student
    Pawn <|- - Tower
    Pawn <|- - MotherNature

    Deck *- - Card
    Deck <-UP- Player

    Game - -> Player
    Game - -> Board
    Game - -> Pawn
    
    Color <.UP. Professor
    Color <.UP. Student

    TowerColor <.UP. Tower
}

@enduml

PlantUML version 1.2022.2(Sat Mar 05 17:30:19 CET 2022)
(GPL source distribution)
Java Runtime: OpenJDK Runtime Environment
JVM: OpenJDK 64-Bit Server VM
Default Encoding: Cp1252
Language: it
Country: IT
--></g></svg>