<?xml version="1.0" encoding="UTF-8" standalone="no"?><svg xmlns="http://www.w3.org/2000/svg" xmlns:xlink="http://www.w3.org/1999/xlink" contentStyleType="text/css" height="1062px" preserveAspectRatio="none" style="width:1239px;height:1062px;background:#FFFFFF;" version="1.1" viewBox="0 0 1239 1062" width="1239.3px" zoomAndPan="magnify"><defs/><g><!--MD5=[5d4cd377749310b66bf14896f5cd8d9b]
cluster model--><g id="cluster_model"><path d="M8.55,5.4 L46.35,5.4 A4.725,4.725 0 0 1 49.5,8.55 L55.8,26.6484 L1229.85,26.6484 A3.15,3.15 0 0 1 1233,29.7984 L1233,1052.55 A3.15,3.15 0 0 1 1229.85,1055.7 L8.55,1055.7 A3.15,3.15 0 0 1 5.4,1052.55 L5.4,8.55 A3.15,3.15 0 0 1 8.55,5.4 " style="stroke:#696969;stroke-width:0.9;fill:none;"/><line style="stroke:#696969;stroke-width:0.9;fill:none;" x1="5.4" x2="55.8" y1="26.6484" y2="26.6484"/><text fill="#000000" font-family="sans-serif" font-size="12.6" font-weight="bold" lengthAdjust="spacing" textLength="38.7" x="9" y="20.2799">model</text></g><!--MD5=[18eee71c88ab61f27581b8cbdd3ef5ee]
class Color--><g id="elem_Color"><rect codeLine="6" fill="#F1F1F1" height="122.4422" id="Color" rx="3.15" ry="3.15" style="stroke:#181818;stroke-width:0.45;" width="63" x="1045.8" y="421.65"/><ellipse cx="1060.92" cy="436.05" fill="#EB937F" rx="9.9" ry="9.9" style="stroke:#181818;stroke-width:0.9;"/><path d="M1059.57,436.95 L1059.57,438.75 L1063.17,438.75 L1063.17,437.85 L1063.17,437.4141 L1063.7325,436.95 L1064.07,436.95 L1064.4075,436.95 L1064.97,437.4141 L1064.97,437.85 L1064.97,440.55 L1057.77,440.55 L1057.3341,440.55 L1056.87,439.9875 L1056.87,439.65 L1056.87,439.3125 L1057.3341,438.75 L1057.77,438.75 L1057.77,438.75 L1057.77,433.35 L1057.77,433.35 L1057.3341,433.35 L1056.87,432.7875 L1056.87,432.45 L1056.87,432.1125 L1057.3341,431.55 L1057.77,431.55 L1064.97,431.55 L1064.97,434.25 L1064.97,434.6859 L1064.4075,435.15 L1064.07,435.15 L1063.7325,435.15 L1063.17,434.6859 L1063.17,434.25 L1063.17,433.35 L1059.57,433.35 L1059.57,435.15 L1060.47,435.15 L1060.47,434.7141 L1060.47,434.7141 L1061.0325,434.25 L1061.37,434.25 L1061.7075,434.25 L1062.27,434.7141 L1062.27,435.15 L1062.27,436.95 L1062.27,437.3859 L1061.7075,437.85 L1061.7075,437.85 L1061.37,437.85 L1061.0325,437.85 L1060.47,437.3859 L1060.47,437.3859 L1060.47,436.95 L1059.57,436.95 Z " fill="#000000"/><text fill="#000000" font-family="sans-serif" font-size="12.6" lengthAdjust="spacing" textLength="30.6" x="1073.88" y="441.2057">Color</text><line style="stroke:#181818;stroke-width:0.45;" x1="1046.7" x2="1107.9" y1="450.45" y2="450.45"/><text fill="#000000" font-family="sans-serif" font-size="12.6" lengthAdjust="spacing" textLength="52.2" x="1051.2" y="467.1299">YELLOW</text><text fill="#000000" font-family="sans-serif" font-size="12.6" lengthAdjust="spacing" textLength="31.5" x="1051.2" y="482.9783">BLUE</text><text fill="#000000" font-family="sans-serif" font-size="12.6" lengthAdjust="spacing" textLength="43.2" x="1051.2" y="498.8268">GREEN</text><text fill="#000000" font-family="sans-serif" font-size="12.6" lengthAdjust="spacing" textLength="26.1" x="1051.2" y="514.6752">RED</text><text fill="#000000" font-family="sans-serif" font-size="12.6" lengthAdjust="spacing" textLength="27" x="1051.2" y="530.5236">PINK</text><line style="stroke:#181818;stroke-width:0.45;" x1="1046.7" x2="1107.9" y1="536.8922" y2="536.8922"/></g><!--MD5=[6804500824724e03a064fc7681986872]
class TowerColor--><g id="elem_TowerColor"><rect codeLine="14" fill="#F1F1F1" height="90.7453" id="TowerColor" rx="3.15" ry="3.15" style="stroke:#181818;stroke-width:0.45;" width="94.5" x="799.65" y="637.65"/><ellipse cx="813.15" cy="652.05" fill="#EB937F" rx="9.9" ry="9.9" style="stroke:#181818;stroke-width:0.9;"/><path d="M811.8,652.95 L811.8,654.75 L815.4,654.75 L815.4,653.85 L815.4,653.4141 L815.9625,652.95 L816.3,652.95 L816.6375,652.95 L817.2,653.4141 L817.2,653.85 L817.2,656.55 L810,656.55 L809.5641,656.55 L809.1,655.9875 L809.1,655.65 L809.1,655.3125 L809.5641,654.75 L810,654.75 L810,654.75 L810,649.35 L810,649.35 L809.5641,649.35 L809.1,648.7875 L809.1,648.45 L809.1,648.1125 L809.5641,647.55 L810,647.55 L817.2,647.55 L817.2,650.25 L817.2,650.6859 L816.6375,651.15 L816.3,651.15 L815.9625,651.15 L815.4,650.6859 L815.4,650.25 L815.4,649.35 L811.8,649.35 L811.8,651.15 L812.7,651.15 L812.7,650.7141 L812.7,650.7141 L813.2625,650.25 L813.6,650.25 L813.9375,650.25 L814.5,650.7141 L814.5,651.15 L814.5,652.95 L814.5,653.3859 L813.9375,653.85 L813.9375,653.85 L813.6,653.85 L813.2625,653.85 L812.7,653.3859 L812.7,653.3859 L812.7,652.95 L811.8,652.95 Z " fill="#000000"/><text fill="#000000" font-family="sans-serif" font-size="12.6" lengthAdjust="spacing" textLength="65.7" x="825.75" y="657.2057">TowerColor</text><line style="stroke:#181818;stroke-width:0.45;" x1="800.55" x2="893.25" y1="666.45" y2="666.45"/><text fill="#000000" font-family="sans-serif" font-size="12.6" lengthAdjust="spacing" textLength="38.7" x="805.05" y="683.1299">WHITE</text><text fill="#000000" font-family="sans-serif" font-size="12.6" lengthAdjust="spacing" textLength="35.1" x="805.05" y="698.9783">GRAY</text><text fill="#000000" font-family="sans-serif" font-size="12.6" lengthAdjust="spacing" textLength="40.5" x="805.05" y="714.8268">BLACK</text><line style="stroke:#181818;stroke-width:0.45;" x1="800.55" x2="893.25" y1="721.1953" y2="721.1953"/></g><!--MD5=[b6dcce5e5ef3c84b0b048d11301373dd]
class Game--><g id="elem_Game"><rect codeLine="20" fill="#F1F1F1" height="106.5938" id="Game" rx="3.15" ry="3.15" style="stroke:#181818;stroke-width:0.45;" width="196.2" x="468.9" y="37.8"/><ellipse cx="546.075" cy="52.2" fill="#ADD1B2" rx="9.9" ry="9.9" style="stroke:#181818;stroke-width:0.9;"/><path d="M547.875,49.05 Q548.0578,48.6 548.2688,48.375 Q548.4797,48.15 548.7188,48.15 Q549.1406,48.15 549.4078,48.4031 Q549.675,48.6563 549.675,49.2469 L549.675,50.6531 Q549.675,51.2438 549.4219,51.4969 Q549.1688,51.75 548.775,51.75 Q548.4234,51.75 548.1984,51.5953 Q547.9734,51.4406 547.875,51.0328 Q547.8328,50.7516 547.6781,50.5969 Q547.3969,50.3016 546.8906,50.1328 Q546.3844,49.95 545.8781,49.95 Q545.2453,49.95 544.7109,50.2031 Q544.1906,50.4563 543.7828,51.0188 Q543.375,51.5813 543.375,52.3547 L543.375,53.1844 Q543.375,54.1125 544.1344,54.7313 Q544.8938,55.35 546.2438,55.35 Q547.0453,55.35 547.6078,55.1672 Q547.9313,55.0688 548.2969,54.7453 Q548.5359,54.5625 548.6625,54.5063 Q548.7891,54.45 548.9438,54.45 Q549.2391,54.45 549.45,54.6891 Q549.675,54.9141 549.675,55.2375 Q549.675,55.5469 549.3656,55.9125 Q548.9156,56.4469 548.1984,56.7422 Q547.2563,57.15 546.1031,57.15 Q544.7531,57.15 543.6703,56.6156 Q542.7984,56.1938 542.1797,55.2797 Q541.575,54.3656 541.575,53.2828 L541.575,52.2984 Q541.575,51.1734 542.1094,50.1891 Q542.6578,49.2047 543.6,48.6844 Q544.5563,48.15 545.625,48.15 Q546.2719,48.15 546.8344,48.375 Q547.3969,48.6 547.875,49.05 Z " fill="#000000"/><text fill="#000000" font-family="sans-serif" font-size="12.6" lengthAdjust="spacing" textLength="34.2" x="564.525" y="57.3557">Game</text><line style="stroke:#181818;stroke-width:0.45;" x1="469.8" x2="664.2" y1="66.6" y2="66.6"/><rect fill="none" height="5.4" style="stroke:#C82930;stroke-width:0.9;" width="5.4" x="476.1" y="73.8"/><text fill="#000000" font-family="sans-serif" font-size="12.6" lengthAdjust="spacing" textLength="172.8" x="486.9" y="83.2799">ArrayList&lt;Player&gt; playerOrder</text><line style="stroke:#181818;stroke-width:0.45;" x1="469.8" x2="664.2" y1="89.6484" y2="89.6484"/><ellipse cx="478.8" cy="99.5484" fill="#84BE84" rx="2.7" ry="2.7" style="stroke:#038048;stroke-width:0.9;"/><text fill="#000000" font-family="sans-serif" font-size="12.6" lengthAdjust="spacing" textLength="121.5" x="486.9" y="106.3283">«constructor»Game()</text><ellipse cx="478.8" cy="115.3969" fill="#84BE84" rx="2.7" ry="2.7" style="stroke:#038048;stroke-width:0.9;"/><text fill="#000000" font-family="sans-serif" font-size="12.6" lengthAdjust="spacing" textLength="69.3" x="486.9" y="122.1768">void round()</text><ellipse cx="478.8" cy="131.2453" fill="#84BE84" rx="2.7" ry="2.7" style="stroke:#038048;stroke-width:0.9;"/><text fill="#000000" font-family="sans-serif" font-size="12.6" lengthAdjust="spacing" textLength="129.6" x="486.9" y="138.0252">void addPlayer(Player)</text></g><!--MD5=[9563755d011c5cec7ec66dc53565a59e]
class Board--><g id="elem_Board"><rect codeLine="28" fill="#F1F1F1" height="154.1391" id="Board" rx="3.15" ry="3.15" style="stroke:#181818;stroke-width:0.45;" width="187.2" x="473.4" y="405.9"/><ellipse cx="541.125" cy="420.3" fill="#ADD1B2" rx="9.9" ry="9.9" style="stroke:#181818;stroke-width:0.9;"/><path d="M542.925,417.15 Q543.1078,416.7 543.3188,416.475 Q543.5297,416.25 543.7688,416.25 Q544.1906,416.25 544.4578,416.5031 Q544.725,416.7563 544.725,417.3469 L544.725,418.7531 Q544.725,419.3438 544.4719,419.5969 Q544.2188,419.85 543.825,419.85 Q543.4734,419.85 543.2484,419.6953 Q543.0234,419.5406 542.925,419.1328 Q542.8828,418.8516 542.7281,418.6969 Q542.4469,418.4016 541.9406,418.2328 Q541.4344,418.05 540.9281,418.05 Q540.2953,418.05 539.7609,418.3031 Q539.2406,418.5563 538.8328,419.1188 Q538.425,419.6813 538.425,420.4547 L538.425,421.2844 Q538.425,422.2125 539.1844,422.8313 Q539.9438,423.45 541.2938,423.45 Q542.0953,423.45 542.6578,423.2672 Q542.9813,423.1688 543.3469,422.8453 Q543.5859,422.6625 543.7125,422.6063 Q543.8391,422.55 543.9938,422.55 Q544.2891,422.55 544.5,422.7891 Q544.725,423.0141 544.725,423.3375 Q544.725,423.6469 544.4156,424.0125 Q543.9656,424.5469 543.2484,424.8422 Q542.3063,425.25 541.1531,425.25 Q539.8031,425.25 538.7203,424.7156 Q537.8484,424.2938 537.2297,423.3797 Q536.625,422.4656 536.625,421.3828 L536.625,420.3984 Q536.625,419.2734 537.1594,418.2891 Q537.7078,417.3047 538.65,416.7844 Q539.6063,416.25 540.675,416.25 Q541.3219,416.25 541.8844,416.475 Q542.4469,416.7 542.925,417.15 Z " fill="#000000"/><text fill="#000000" font-family="sans-serif" font-size="12.6" lengthAdjust="spacing" textLength="34.2" x="559.575" y="425.4557">Board</text><rect fill="#FFFFFF" height="15.3844" style="stroke:#000000;stroke-width:0.9;stroke-dasharray:2.0,2.0;" width="8.1" x="655.2" y="403.2"/><text fill="#000000" font-family="sans-serif" font-size="10.8" font-style="italic" lengthAdjust="spacing" textLength="6.3" x="656.1" y="415.3113">T</text><line style="stroke:#181818;stroke-width:0.45;" x1="474.3" x2="659.7" y1="434.7" y2="434.7"/><ellipse cx="483.3" cy="444.6" fill="none" rx="2.7" ry="2.7" style="stroke:#038048;stroke-width:0.9;"/><text fill="#000000" font-family="sans-serif" font-size="12.6" lengthAdjust="spacing" textLength="81.9" x="491.4" y="451.3799">List&lt;T&gt; pawns</text><line style="stroke:#181818;stroke-width:0.45;" x1="474.3" x2="659.7" y1="457.7484" y2="457.7484"/><ellipse cx="483.3" cy="467.6484" fill="#84BE84" rx="2.7" ry="2.7" style="stroke:#038048;stroke-width:0.9;"/><text fill="#000000" font-family="sans-serif" font-size="12.6" lengthAdjust="spacing" textLength="121.5" x="491.4" y="474.4283">«constructor»Board()</text><ellipse cx="483.3" cy="483.4969" fill="#84BE84" rx="2.7" ry="2.7" style="stroke:#038048;stroke-width:0.9;"/><text fill="#000000" font-family="sans-serif" font-size="12.6" lengthAdjust="spacing" textLength="163.8" x="491.4" y="490.2768">«constructor»Board(List&lt;T&gt;)</text><ellipse cx="483.3" cy="499.3453" fill="#84BE84" rx="2.7" ry="2.7" style="stroke:#038048;stroke-width:0.9;"/><text fill="#000000" font-family="sans-serif" font-size="12.6" lengthAdjust="spacing" textLength="109.8" x="491.4" y="506.1252">List&lt;T&gt; getPawns()</text><ellipse cx="483.3" cy="515.1938" fill="#84BE84" rx="2.7" ry="2.7" style="stroke:#038048;stroke-width:0.9;"/><text fill="#000000" font-family="sans-serif" font-size="12.6" lengthAdjust="spacing" textLength="69.3" x="491.4" y="521.9736">T getPawn()</text><ellipse cx="483.3" cy="531.0422" fill="#84BE84" rx="2.7" ry="2.7" style="stroke:#038048;stroke-width:0.9;"/><text fill="#000000" font-family="sans-serif" font-size="12.6" lengthAdjust="spacing" textLength="159.3" x="491.4" y="537.8221">boolean addPawns(List&lt;T&gt;)</text><ellipse cx="483.3" cy="546.8906" fill="#84BE84" rx="2.7" ry="2.7" style="stroke:#038048;stroke-width:0.9;"/><text fill="#000000" font-family="sans-serif" font-size="12.6" lengthAdjust="spacing" textLength="118.8" x="491.4" y="553.6705">boolean addPawn(T)</text></g><!--MD5=[af29ca247b3a3642f0fb478cea99ef78]
class Pawn--><g id="elem_Pawn"><rect codeLine="39" fill="#F1F1F1" height="90.7453" id="Pawn" rx="3.15" ry="3.15" style="stroke:#181818;stroke-width:0.45;" width="149.4" x="763.2" y="45.45"/><ellipse cx="813.825" cy="59.85" fill="#A9DCDF" rx="9.9" ry="9.9" style="stroke:#181818;stroke-width:0.9;"/><path d="M815.4,61.2 L812.4328,61.2 L812.0391,62.1 L812.0391,62.1 L812.4609,62.1 L812.925,62.6625 L812.925,63 L812.925,63.3375 L812.4609,63.9 L812.0391,63.9 L810.3375,63.9 L809.7891,63.9 L809.325,63.3375 L809.325,63 L809.325,62.6625 L809.7891,62.1 L810.3375,62.1 L812.4188,56.7 L811.6313,56.7 L810.6891,56.7 L810.225,56.1375 L810.225,55.8 L810.225,55.4625 L810.6891,54.9 L811.6313,54.9 L814.9359,54.9 L817.3547,62.1 L817.8609,62.1 L817.8609,62.1 L818.325,62.6625 L818.325,63 L818.325,63.3375 L817.8609,63.9 L817.3547,63.9 L815.6531,63.9 L815.1891,63.9 L814.725,63.3375 L814.725,63 L814.725,62.6625 L815.1891,62.1 L815.6531,62.1 L815.6531,62.1 L815.4,61.2 Z M814.9078,59.4 L813.825,56.1797 L812.8969,59.4 L814.9078,59.4 Z " fill="#000000"/><text fill="#000000" font-family="sans-serif" font-size="12.6" font-style="italic" lengthAdjust="spacing" textLength="30.6" x="832.275" y="65.0057">Pawn</text><rect fill="#FFFFFF" height="15.3844" style="stroke:#000000;stroke-width:0.9;stroke-dasharray:2.0,2.0;" width="8.1" x="907.2" y="42.75"/><text fill="#000000" font-family="sans-serif" font-size="10.8" font-style="italic" lengthAdjust="spacing" textLength="6.3" x="908.1" y="54.8613">T</text><line style="stroke:#181818;stroke-width:0.45;" x1="764.1" x2="911.7" y1="74.25" y2="74.25"/><rect fill="none" height="5.4" style="stroke:#C82930;stroke-width:0.9;" width="5.4" x="770.4" y="81.45"/><text fill="#000000" font-family="sans-serif" font-size="12.6" lengthAdjust="spacing" textLength="39.6" x="781.2" y="90.9299">T color</text><line style="stroke:#181818;stroke-width:0.45;" x1="764.1" x2="911.7" y1="97.2984" y2="97.2984"/><ellipse cx="773.1" cy="107.1984" fill="#84BE84" rx="2.7" ry="2.7" style="stroke:#038048;stroke-width:0.9;"/><text fill="#000000" font-family="sans-serif" font-size="12.6" lengthAdjust="spacing" textLength="126" x="781.2" y="113.9783">«constructor»Pawn(T)</text><ellipse cx="773.1" cy="123.0469" fill="#84BE84" rx="2.7" ry="2.7" style="stroke:#038048;stroke-width:0.9;"/><text fill="#000000" font-family="sans-serif" font-size="12.6" lengthAdjust="spacing" textLength="69.3" x="781.2" y="129.8268">T getColor()</text></g><!--MD5=[5e305716458bbdabbd2d7f572ed2bae2]
class Card--><g id="elem_Card"><rect codeLine="46" fill="#F1F1F1" height="59.0484" id="Card" rx="3.15" ry="3.15" style="stroke:#181818;stroke-width:0.45;" width="211.5" x="49.05" y="653.4"/><ellipse cx="137.025" cy="667.8" fill="#A9DCDF" rx="9.9" ry="9.9" style="stroke:#181818;stroke-width:0.9;"/><path d="M138.6,669.15 L135.6328,669.15 L135.2391,670.05 L135.2391,670.05 L135.6609,670.05 L136.125,670.6125 L136.125,670.95 L136.125,671.2875 L135.6609,671.85 L135.2391,671.85 L133.5375,671.85 L132.9891,671.85 L132.525,671.2875 L132.525,670.95 L132.525,670.6125 L132.9891,670.05 L133.5375,670.05 L135.6188,664.65 L134.8313,664.65 L133.8891,664.65 L133.425,664.0875 L133.425,663.75 L133.425,663.4125 L133.8891,662.85 L134.8313,662.85 L138.1359,662.85 L140.5547,670.05 L141.0609,670.05 L141.0609,670.05 L141.525,670.6125 L141.525,670.95 L141.525,671.2875 L141.0609,671.85 L140.5547,671.85 L138.8531,671.85 L138.3891,671.85 L137.925,671.2875 L137.925,670.95 L137.925,670.6125 L138.3891,670.05 L138.8531,670.05 L138.8531,670.05 L138.6,669.15 Z M138.1078,667.35 L137.025,664.1297 L136.0969,667.35 L138.1078,667.35 Z " fill="#000000"/><text fill="#000000" font-family="sans-serif" font-size="12.6" font-style="italic" lengthAdjust="spacing" textLength="27.9" x="155.475" y="672.9557">Card</text><line style="stroke:#181818;stroke-width:0.45;" x1="49.95" x2="259.65" y1="682.2" y2="682.2"/><line style="stroke:#181818;stroke-width:0.45;" x1="49.95" x2="259.65" y1="689.4" y2="689.4"/><ellipse cx="58.95" cy="699.3" fill="#84BE84" rx="2.7" ry="2.7" style="stroke:#038048;stroke-width:0.9;"/><text fill="#000000" font-family="sans-serif" font-size="12.6" lengthAdjust="spacing" textLength="188.1" x="67.05" y="706.0799">«constructor»Card(Lorem ipsum)</text></g><!--MD5=[2cb47ba637a0d19583e6199456f6ad0b]
class Player--><g id="elem_Player"><rect codeLine="50" fill="#F1F1F1" height="106.5938" id="Player" rx="3.15" ry="3.15" style="stroke:#181818;stroke-width:0.45;" width="342" x="19.8" y="221.85"/><ellipse cx="168.975" cy="236.25" fill="#ADD1B2" rx="9.9" ry="9.9" style="stroke:#181818;stroke-width:0.9;"/><path d="M170.775,233.1 Q170.9578,232.65 171.1688,232.425 Q171.3797,232.2 171.6188,232.2 Q172.0406,232.2 172.3078,232.4531 Q172.575,232.7063 172.575,233.2969 L172.575,234.7031 Q172.575,235.2938 172.3219,235.5469 Q172.0688,235.8 171.675,235.8 Q171.3234,235.8 171.0984,235.6453 Q170.8734,235.4906 170.775,235.0828 Q170.7328,234.8016 170.5781,234.6469 Q170.2969,234.3516 169.7906,234.1828 Q169.2844,234 168.7781,234 Q168.1453,234 167.6109,234.2531 Q167.0906,234.5063 166.6828,235.0688 Q166.275,235.6313 166.275,236.4047 L166.275,237.2344 Q166.275,238.1625 167.0344,238.7813 Q167.7938,239.4 169.1438,239.4 Q169.9453,239.4 170.5078,239.2172 Q170.8313,239.1188 171.1969,238.7953 Q171.4359,238.6125 171.5625,238.5563 Q171.6891,238.5 171.8438,238.5 Q172.1391,238.5 172.35,238.7391 Q172.575,238.9641 172.575,239.2875 Q172.575,239.5969 172.2656,239.9625 Q171.8156,240.4969 171.0984,240.7922 Q170.1563,241.2 169.0031,241.2 Q167.6531,241.2 166.5703,240.6656 Q165.6984,240.2438 165.0797,239.3297 Q164.475,238.4156 164.475,237.3328 L164.475,236.3484 Q164.475,235.2234 165.0094,234.2391 Q165.5578,233.2547 166.5,232.7344 Q167.4563,232.2 168.525,232.2 Q169.1719,232.2 169.7344,232.425 Q170.2969,232.65 170.775,233.1 Z " fill="#000000"/><text fill="#000000" font-family="sans-serif" font-size="12.6" lengthAdjust="spacing" textLength="36" x="187.425" y="241.4057">Player</text><line style="stroke:#181818;stroke-width:0.45;" x1="20.7" x2="360.9" y1="250.65" y2="250.65"/><rect fill="none" height="5.4" style="stroke:#C82930;stroke-width:0.9;" width="5.4" x="27" y="257.85"/><text fill="#000000" font-family="sans-serif" font-size="12.6" lengthAdjust="spacing" textLength="90.9" x="37.8" y="267.3299">String nickname</text><ellipse cx="29.7" cy="276.3984" fill="none" rx="2.7" ry="2.7" style="stroke:#038048;stroke-width:0.9;"/><text fill="#000000" font-family="sans-serif" font-size="12.6" lengthAdjust="spacing" textLength="79.2" x="37.8" y="283.1783">School school</text><line style="stroke:#181818;stroke-width:0.45;" x1="20.7" x2="360.9" y1="289.5469" y2="289.5469"/><ellipse cx="29.7" cy="299.4469" fill="#84BE84" rx="2.7" ry="2.7" style="stroke:#038048;stroke-width:0.9;"/><text fill="#000000" font-family="sans-serif" font-size="12.6" lengthAdjust="spacing" textLength="318.6" x="37.8" y="306.2268">«constructor»Player(String, List&lt;Student&gt;, List&lt;Tower&gt;)</text><ellipse cx="29.7" cy="315.2953" fill="#84BE84" rx="2.7" ry="2.7" style="stroke:#038048;stroke-width:0.9;"/><text fill="#000000" font-family="sans-serif" font-size="12.6" lengthAdjust="spacing" textLength="118.8" x="37.8" y="322.0752">String getNickname()</text></g><!--MD5=[05ce2a234461a7e613a06d388968c06d]
class Island--><g id="elem_Island"><rect codeLine="58" fill="#F1F1F1" height="138.2906" id="Island" rx="3.15" ry="3.15" style="stroke:#181818;stroke-width:0.45;" width="222.3" x="545.85" y="613.8"/><ellipse cx="636.525" cy="628.2" fill="#ADD1B2" rx="9.9" ry="9.9" style="stroke:#181818;stroke-width:0.9;"/><path d="M638.325,625.05 Q638.5078,624.6 638.7188,624.375 Q638.9297,624.15 639.1688,624.15 Q639.5906,624.15 639.8578,624.4031 Q640.125,624.6563 640.125,625.2469 L640.125,626.6531 Q640.125,627.2438 639.8719,627.4969 Q639.6188,627.75 639.225,627.75 Q638.8734,627.75 638.6484,627.5953 Q638.4234,627.4406 638.325,627.0328 Q638.2828,626.7516 638.1281,626.5969 Q637.8469,626.3016 637.3406,626.1328 Q636.8344,625.95 636.3281,625.95 Q635.6953,625.95 635.1609,626.2031 Q634.6406,626.4563 634.2328,627.0188 Q633.825,627.5813 633.825,628.3547 L633.825,629.1844 Q633.825,630.1125 634.5844,630.7313 Q635.3438,631.35 636.6938,631.35 Q637.4953,631.35 638.0578,631.1672 Q638.3813,631.0688 638.7469,630.7453 Q638.9859,630.5625 639.1125,630.5063 Q639.2391,630.45 639.3938,630.45 Q639.6891,630.45 639.9,630.6891 Q640.125,630.9141 640.125,631.2375 Q640.125,631.5469 639.8156,631.9125 Q639.3656,632.4469 638.6484,632.7422 Q637.7063,633.15 636.5531,633.15 Q635.2031,633.15 634.1203,632.6156 Q633.2484,632.1938 632.6297,631.2797 Q632.025,630.3656 632.025,629.2828 L632.025,628.2984 Q632.025,627.1734 632.5594,626.1891 Q633.1078,625.2047 634.05,624.6844 Q635.0063,624.15 636.075,624.15 Q636.7219,624.15 637.2844,624.375 Q637.8469,624.6 638.325,625.05 Z " fill="#000000"/><text fill="#000000" font-family="sans-serif" font-size="12.6" lengthAdjust="spacing" textLength="33.3" x="654.975" y="633.3557">Island</text><line style="stroke:#181818;stroke-width:0.45;" x1="546.75" x2="767.25" y1="642.6" y2="642.6"/><rect fill="none" height="5.4" style="stroke:#C82930;stroke-width:0.9;" width="5.4" x="553.05" y="649.8"/><text fill="#000000" font-family="sans-serif" font-size="12.6" lengthAdjust="spacing" textLength="69.3" x="563.85" y="659.2799">Tower tower</text><line style="stroke:#181818;stroke-width:0.45;" x1="546.75" x2="767.25" y1="665.6484" y2="665.6484"/><ellipse cx="555.75" cy="675.5484" fill="#84BE84" rx="2.7" ry="2.7" style="stroke:#038048;stroke-width:0.9;"/><text fill="#000000" font-family="sans-serif" font-size="12.6" lengthAdjust="spacing" textLength="198.9" x="563.85" y="682.3283">«constructor»Island(List&lt;Student&gt;)</text><ellipse cx="555.75" cy="691.3969" fill="#84BE84" rx="2.7" ry="2.7" style="stroke:#038048;stroke-width:0.9;"/><text fill="#000000" font-family="sans-serif" font-size="12.6" lengthAdjust="spacing" textLength="99.9" x="563.85" y="698.1768">Tower setTower()</text><ellipse cx="555.75" cy="707.2453" fill="#84BE84" rx="2.7" ry="2.7" style="stroke:#038048;stroke-width:0.9;"/><text fill="#000000" font-family="sans-serif" font-size="12.6" lengthAdjust="spacing" textLength="100.8" x="563.85" y="714.0252">Tower getTower()</text><ellipse cx="555.75" cy="723.0938" fill="#84BE84" rx="2.7" ry="2.7" style="stroke:#038048;stroke-width:0.9;"/><text fill="#000000" font-family="sans-serif" font-size="12.6" lengthAdjust="spacing" textLength="122.4" x="563.85" y="729.8736">Player getInfluencer()</text><rect fill="#F24D5C" height="5.4" style="stroke:#C82930;stroke-width:0.9;" width="5.4" x="553.05" y="736.2422"/><text fill="#000000" font-family="sans-serif" font-size="12.6" lengthAdjust="spacing" textLength="133.2" x="563.85" y="745.7221">int countByColor(Color)</text></g><!--MD5=[10a9fff9df9a76a22f65fd5d58adb785]
class School--><g id="elem_School"><rect codeLine="69" fill="#F1F1F1" height="154.1391" id="School" rx="3.15" ry="3.15" style="stroke:#181818;stroke-width:0.45;" width="347.4" x="393.3" y="198"/><ellipse cx="543.825" cy="212.4" fill="#ADD1B2" rx="9.9" ry="9.9" style="stroke:#181818;stroke-width:0.9;"/><path d="M545.625,209.25 Q545.8078,208.8 546.0188,208.575 Q546.2297,208.35 546.4688,208.35 Q546.8906,208.35 547.1578,208.6031 Q547.425,208.8563 547.425,209.4469 L547.425,210.8531 Q547.425,211.4438 547.1719,211.6969 Q546.9188,211.95 546.525,211.95 Q546.1734,211.95 545.9484,211.7953 Q545.7234,211.6406 545.625,211.2328 Q545.5828,210.9516 545.4281,210.7969 Q545.1469,210.5016 544.6406,210.3328 Q544.1344,210.15 543.6281,210.15 Q542.9953,210.15 542.4609,210.4031 Q541.9406,210.6563 541.5328,211.2188 Q541.125,211.7813 541.125,212.5547 L541.125,213.3844 Q541.125,214.3125 541.8844,214.9313 Q542.6438,215.55 543.9938,215.55 Q544.7953,215.55 545.3578,215.3672 Q545.6813,215.2688 546.0469,214.9453 Q546.2859,214.7625 546.4125,214.7063 Q546.5391,214.65 546.6938,214.65 Q546.9891,214.65 547.2,214.8891 Q547.425,215.1141 547.425,215.4375 Q547.425,215.7469 547.1156,216.1125 Q546.6656,216.6469 545.9484,216.9422 Q545.0063,217.35 543.8531,217.35 Q542.5031,217.35 541.4203,216.8156 Q540.5484,216.3938 539.9297,215.4797 Q539.325,214.5656 539.325,213.4828 L539.325,212.4984 Q539.325,211.3734 539.8594,210.3891 Q540.4078,209.4047 541.35,208.8844 Q542.3063,208.35 543.375,208.35 Q544.0219,208.35 544.5844,208.575 Q545.1469,208.8 545.625,209.25 Z " fill="#000000"/><text fill="#000000" font-family="sans-serif" font-size="12.6" lengthAdjust="spacing" textLength="38.7" x="562.275" y="217.5557">School</text><line style="stroke:#181818;stroke-width:0.45;" x1="394.2" x2="739.8" y1="226.8" y2="226.8"/><rect fill="none" height="5.4" style="stroke:#C82930;stroke-width:0.9;" width="5.4" x="400.5" y="234"/><text fill="#000000" font-family="sans-serif" font-size="12.6" lengthAdjust="spacing" textLength="73.8" x="411.3" y="243.4799">Player owner</text><ellipse cx="403.2" cy="252.5484" fill="none" rx="2.7" ry="2.7" style="stroke:#038048;stroke-width:0.9;"/><text fill="#000000" font-family="sans-serif" font-size="12.6" lengthAdjust="spacing" textLength="105.3" x="411.3" y="259.3283">Board diningRoom</text><ellipse cx="403.2" cy="268.3969" fill="none" rx="2.7" ry="2.7" style="stroke:#038048;stroke-width:0.9;"/><text fill="#000000" font-family="sans-serif" font-size="12.6" lengthAdjust="spacing" textLength="88.2" x="411.3" y="275.1768">Board entrance</text><ellipse cx="403.2" cy="284.2453" fill="none" rx="2.7" ry="2.7" style="stroke:#038048;stroke-width:0.9;"/><text fill="#000000" font-family="sans-serif" font-size="12.6" lengthAdjust="spacing" textLength="130.5" x="411.3" y="291.0252">Board professorsTable</text><ellipse cx="403.2" cy="300.0938" fill="none" rx="2.7" ry="2.7" style="stroke:#038048;stroke-width:0.9;"/><text fill="#000000" font-family="sans-serif" font-size="12.6" lengthAdjust="spacing" textLength="108.9" x="411.3" y="306.8736">Board towersBoard</text><line style="stroke:#181818;stroke-width:0.45;" x1="394.2" x2="739.8" y1="313.2422" y2="313.2422"/><ellipse cx="403.2" cy="323.1422" fill="#84BE84" rx="2.7" ry="2.7" style="stroke:#038048;stroke-width:0.9;"/><text fill="#000000" font-family="sans-serif" font-size="12.6" lengthAdjust="spacing" textLength="324" x="411.3" y="329.9221">«constructor»School(Player, List&lt;Student&gt;, List&lt;Tower&gt;)</text><ellipse cx="403.2" cy="338.9906" fill="#84BE84" rx="2.7" ry="2.7" style="stroke:#038048;stroke-width:0.9;"/><text fill="#000000" font-family="sans-serif" font-size="12.6" lengthAdjust="spacing" textLength="103.5" x="411.3" y="345.7705">Player getOwner()</text></g><!--MD5=[a18b01c4419d38931cdb2da3f79e5451]
class Cloud--><g id="elem_Cloud"><rect codeLine="80" fill="#F1F1F1" height="59.0484" id="Cloud" rx="3.15" ry="3.15" style="stroke:#181818;stroke-width:0.45;" width="222.3" x="292.05" y="653.4"/><ellipse cx="382.725" cy="667.8" fill="#ADD1B2" rx="9.9" ry="9.9" style="stroke:#181818;stroke-width:0.9;"/><path d="M384.525,664.65 Q384.7078,664.2 384.9188,663.975 Q385.1297,663.75 385.3688,663.75 Q385.7906,663.75 386.0578,664.0031 Q386.325,664.2563 386.325,664.8469 L386.325,666.2531 Q386.325,666.8438 386.0719,667.0969 Q385.8188,667.35 385.425,667.35 Q385.0734,667.35 384.8484,667.1953 Q384.6234,667.0406 384.525,666.6328 Q384.4828,666.3516 384.3281,666.1969 Q384.0469,665.9016 383.5406,665.7328 Q383.0344,665.55 382.5281,665.55 Q381.8953,665.55 381.3609,665.8031 Q380.8406,666.0563 380.4328,666.6188 Q380.025,667.1813 380.025,667.9547 L380.025,668.7844 Q380.025,669.7125 380.7844,670.3313 Q381.5438,670.95 382.8938,670.95 Q383.6953,670.95 384.2578,670.7672 Q384.5813,670.6688 384.9469,670.3453 Q385.1859,670.1625 385.3125,670.1063 Q385.4391,670.05 385.5938,670.05 Q385.8891,670.05 386.1,670.2891 Q386.325,670.5141 386.325,670.8375 Q386.325,671.1469 386.0156,671.5125 Q385.5656,672.0469 384.8484,672.3422 Q383.9063,672.75 382.7531,672.75 Q381.4031,672.75 380.3203,672.2156 Q379.4484,671.7938 378.8297,670.8797 Q378.225,669.9656 378.225,668.8828 L378.225,667.8984 Q378.225,666.7734 378.7594,665.7891 Q379.3078,664.8047 380.25,664.2844 Q381.2063,663.75 382.275,663.75 Q382.9219,663.75 383.4844,663.975 Q384.0469,664.2 384.525,664.65 Z " fill="#000000"/><text fill="#000000" font-family="sans-serif" font-size="12.6" lengthAdjust="spacing" textLength="33.3" x="401.175" y="672.9557">Cloud</text><line style="stroke:#181818;stroke-width:0.45;" x1="292.95" x2="513.45" y1="682.2" y2="682.2"/><line style="stroke:#181818;stroke-width:0.45;" x1="292.95" x2="513.45" y1="689.4" y2="689.4"/><ellipse cx="301.95" cy="699.3" fill="#84BE84" rx="2.7" ry="2.7" style="stroke:#038048;stroke-width:0.9;"/><text fill="#000000" font-family="sans-serif" font-size="12.6" lengthAdjust="spacing" textLength="198.9" x="310.05" y="706.0799">«constructor»Cloud(List&lt;Student&gt;)</text></g><!--MD5=[21bc47177812100412265a444b535d59]
class Professor--><g id="elem_Professor"><rect codeLine="84" fill="#F1F1F1" height="59.0484" id="Professor" rx="3.15" ry="3.15" style="stroke:#181818;stroke-width:0.45;" width="196.2" x="805.5" y="245.25"/><ellipse cx="872.325" cy="259.65" fill="#ADD1B2" rx="9.9" ry="9.9" style="stroke:#181818;stroke-width:0.9;"/><path d="M874.125,256.5 Q874.3078,256.05 874.5188,255.825 Q874.7297,255.6 874.9688,255.6 Q875.3906,255.6 875.6578,255.8531 Q875.925,256.1063 875.925,256.6969 L875.925,258.1031 Q875.925,258.6938 875.6719,258.9469 Q875.4188,259.2 875.025,259.2 Q874.6734,259.2 874.4484,259.0453 Q874.2234,258.8906 874.125,258.4828 Q874.0828,258.2016 873.9281,258.0469 Q873.6469,257.7516 873.1406,257.5828 Q872.6344,257.4 872.1281,257.4 Q871.4953,257.4 870.9609,257.6531 Q870.4406,257.9063 870.0328,258.4688 Q869.625,259.0313 869.625,259.8047 L869.625,260.6344 Q869.625,261.5625 870.3844,262.1813 Q871.1438,262.8 872.4938,262.8 Q873.2953,262.8 873.8578,262.6172 Q874.1813,262.5188 874.5469,262.1953 Q874.7859,262.0125 874.9125,261.9563 Q875.0391,261.9 875.1938,261.9 Q875.4891,261.9 875.7,262.1391 Q875.925,262.3641 875.925,262.6875 Q875.925,262.9969 875.6156,263.3625 Q875.1656,263.8969 874.4484,264.1922 Q873.5063,264.6 872.3531,264.6 Q871.0031,264.6 869.9203,264.0656 Q869.0484,263.6438 868.4297,262.7297 Q867.825,261.8156 867.825,260.7328 L867.825,259.7484 Q867.825,258.6234 868.3594,257.6391 Q868.9078,256.6547 869.85,256.1344 Q870.8063,255.6 871.875,255.6 Q872.5219,255.6 873.0844,255.825 Q873.6469,256.05 874.125,256.5 Z " fill="#000000"/><text fill="#000000" font-family="sans-serif" font-size="12.6" lengthAdjust="spacing" textLength="54.9" x="890.775" y="264.8057">Professor</text><line style="stroke:#181818;stroke-width:0.45;" x1="806.4" x2="1000.8" y1="274.05" y2="274.05"/><line style="stroke:#181818;stroke-width:0.45;" x1="806.4" x2="1000.8" y1="281.25" y2="281.25"/><ellipse cx="815.4" cy="291.15" fill="#84BE84" rx="2.7" ry="2.7" style="stroke:#038048;stroke-width:0.9;"/><text fill="#000000" font-family="sans-serif" font-size="12.6" lengthAdjust="spacing" textLength="172.8" x="823.5" y="297.9299">«constructor»Professor(Color)</text></g><!--MD5=[d6181cb537bdc20c0a3007a98a56832d]
class Student--><g id="elem_Student"><rect codeLine="88" fill="#F1F1F1" height="59.0484" id="Student" rx="3.15" ry="3.15" style="stroke:#181818;stroke-width:0.45;" width="185.4" x="1033.2" y="245.25"/><ellipse cx="1100.025" cy="259.65" fill="#ADD1B2" rx="9.9" ry="9.9" style="stroke:#181818;stroke-width:0.9;"/><path d="M1101.825,256.5 Q1102.0078,256.05 1102.2188,255.825 Q1102.4297,255.6 1102.6688,255.6 Q1103.0906,255.6 1103.3578,255.8531 Q1103.625,256.1063 1103.625,256.6969 L1103.625,258.1031 Q1103.625,258.6938 1103.3719,258.9469 Q1103.1188,259.2 1102.725,259.2 Q1102.3734,259.2 1102.1484,259.0453 Q1101.9234,258.8906 1101.825,258.4828 Q1101.7828,258.2016 1101.6281,258.0469 Q1101.3469,257.7516 1100.8406,257.5828 Q1100.3344,257.4 1099.8281,257.4 Q1099.1953,257.4 1098.6609,257.6531 Q1098.1406,257.9063 1097.7328,258.4688 Q1097.325,259.0313 1097.325,259.8047 L1097.325,260.6344 Q1097.325,261.5625 1098.0844,262.1813 Q1098.8438,262.8 1100.1938,262.8 Q1100.9953,262.8 1101.5578,262.6172 Q1101.8813,262.5188 1102.2469,262.1953 Q1102.4859,262.0125 1102.6125,261.9563 Q1102.7391,261.9 1102.8938,261.9 Q1103.1891,261.9 1103.4,262.1391 Q1103.625,262.3641 1103.625,262.6875 Q1103.625,262.9969 1103.3156,263.3625 Q1102.8656,263.8969 1102.1484,264.1922 Q1101.2063,264.6 1100.0531,264.6 Q1098.7031,264.6 1097.6203,264.0656 Q1096.7484,263.6438 1096.1297,262.7297 Q1095.525,261.8156 1095.525,260.7328 L1095.525,259.7484 Q1095.525,258.6234 1096.0594,257.6391 Q1096.6078,256.6547 1097.55,256.1344 Q1098.5063,255.6 1099.575,255.6 Q1100.2219,255.6 1100.7844,255.825 Q1101.3469,256.05 1101.825,256.5 Z " fill="#000000"/><text fill="#000000" font-family="sans-serif" font-size="12.6" lengthAdjust="spacing" textLength="44.1" x="1118.475" y="264.8057">Student</text><line style="stroke:#181818;stroke-width:0.45;" x1="1034.1" x2="1217.7" y1="274.05" y2="274.05"/><line style="stroke:#181818;stroke-width:0.45;" x1="1034.1" x2="1217.7" y1="281.25" y2="281.25"/><ellipse cx="1043.1" cy="291.15" fill="#84BE84" rx="2.7" ry="2.7" style="stroke:#038048;stroke-width:0.9;"/><text fill="#000000" font-family="sans-serif" font-size="12.6" lengthAdjust="spacing" textLength="162" x="1051.2" y="297.9299">«constructor»Student(Color)</text></g><!--MD5=[e6a0401af6286042726057f986c3e7c8]
class Tower--><g id="elem_Tower"><rect codeLine="92" fill="#F1F1F1" height="74.8969" id="Tower" rx="3.15" ry="3.15" style="stroke:#181818;stroke-width:0.45;" width="254.7" x="710.55" y="445.5"/><ellipse cx="816.525" cy="459.9" fill="#ADD1B2" rx="9.9" ry="9.9" style="stroke:#181818;stroke-width:0.9;"/><path d="M818.325,456.75 Q818.5078,456.3 818.7188,456.075 Q818.9297,455.85 819.1688,455.85 Q819.5906,455.85 819.8578,456.1031 Q820.125,456.3563 820.125,456.9469 L820.125,458.3531 Q820.125,458.9438 819.8719,459.1969 Q819.6188,459.45 819.225,459.45 Q818.8734,459.45 818.6484,459.2953 Q818.4234,459.1406 818.325,458.7328 Q818.2828,458.4516 818.1281,458.2969 Q817.8469,458.0016 817.3406,457.8328 Q816.8344,457.65 816.3281,457.65 Q815.6953,457.65 815.1609,457.9031 Q814.6406,458.1563 814.2328,458.7188 Q813.825,459.2813 813.825,460.0547 L813.825,460.8844 Q813.825,461.8125 814.5844,462.4313 Q815.3438,463.05 816.6938,463.05 Q817.4953,463.05 818.0578,462.8672 Q818.3813,462.7688 818.7469,462.4453 Q818.9859,462.2625 819.1125,462.2063 Q819.2391,462.15 819.3938,462.15 Q819.6891,462.15 819.9,462.3891 Q820.125,462.6141 820.125,462.9375 Q820.125,463.2469 819.8156,463.6125 Q819.3656,464.1469 818.6484,464.4422 Q817.7063,464.85 816.5531,464.85 Q815.2031,464.85 814.1203,464.3156 Q813.2484,463.8938 812.6297,462.9797 Q812.025,462.0656 812.025,460.9828 L812.025,459.9984 Q812.025,458.8734 812.5594,457.8891 Q813.1078,456.9047 814.05,456.3844 Q815.0063,455.85 816.075,455.85 Q816.7219,455.85 817.2844,456.075 Q817.8469,456.3 818.325,456.75 Z " fill="#000000"/><text fill="#000000" font-family="sans-serif" font-size="12.6" lengthAdjust="spacing" textLength="35.1" x="834.975" y="465.0557">Tower</text><line style="stroke:#181818;stroke-width:0.45;" x1="711.45" x2="964.35" y1="474.3" y2="474.3"/><ellipse cx="720.45" cy="484.2" fill="none" rx="2.7" ry="2.7" style="stroke:#038048;stroke-width:0.9;"/><text fill="#000000" font-family="sans-serif" font-size="12.6" lengthAdjust="spacing" textLength="73.8" x="728.55" y="490.9799">Player owner</text><line style="stroke:#181818;stroke-width:0.45;" x1="711.45" x2="964.35" y1="497.3484" y2="497.3484"/><ellipse cx="720.45" cy="507.2484" fill="#84BE84" rx="2.7" ry="2.7" style="stroke:#038048;stroke-width:0.9;"/><text fill="#000000" font-family="sans-serif" font-size="12.6" lengthAdjust="spacing" textLength="231.3" x="728.55" y="514.0283">«constructor»Tower(Player, TowerColor)</text></g><!--MD5=[3ea2e56578276300f1408dbb43472621]
class MotherNature--><g id="elem_MotherNature"><rect codeLine="98" fill="#F1F1F1" height="106.5938" id="MotherNature" rx="3.15" ry="3.15" style="stroke:#181818;stroke-width:0.45;" width="221.4" x="469.8" y="806.4"/><ellipse cx="537.975" cy="820.8" fill="#ADD1B2" rx="9.9" ry="9.9" style="stroke:#181818;stroke-width:0.9;"/><path d="M539.775,817.65 Q539.9578,817.2 540.1688,816.975 Q540.3797,816.75 540.6188,816.75 Q541.0406,816.75 541.3078,817.0031 Q541.575,817.2563 541.575,817.8469 L541.575,819.2531 Q541.575,819.8438 541.3219,820.0969 Q541.0688,820.35 540.675,820.35 Q540.3234,820.35 540.0984,820.1953 Q539.8734,820.0406 539.775,819.6328 Q539.7328,819.3516 539.5781,819.1969 Q539.2969,818.9016 538.7906,818.7328 Q538.2844,818.55 537.7781,818.55 Q537.1453,818.55 536.6109,818.8031 Q536.0906,819.0563 535.6828,819.6188 Q535.275,820.1813 535.275,820.9547 L535.275,821.7844 Q535.275,822.7125 536.0344,823.3313 Q536.7938,823.95 538.1438,823.95 Q538.9453,823.95 539.5078,823.7672 Q539.8313,823.6688 540.1969,823.3453 Q540.4359,823.1625 540.5625,823.1063 Q540.6891,823.05 540.8438,823.05 Q541.1391,823.05 541.35,823.2891 Q541.575,823.5141 541.575,823.8375 Q541.575,824.1469 541.2656,824.5125 Q540.8156,825.0469 540.0984,825.3422 Q539.1563,825.75 538.0031,825.75 Q536.6531,825.75 535.5703,825.2156 Q534.6984,824.7938 534.0797,823.8797 Q533.475,822.9656 533.475,821.8828 L533.475,820.8984 Q533.475,819.7734 534.0094,818.7891 Q534.5578,817.8047 535.5,817.2844 Q536.4563,816.75 537.525,816.75 Q538.1719,816.75 538.7344,816.975 Q539.2969,817.2 539.775,817.65 Z " fill="#000000"/><text fill="#000000" font-family="sans-serif" font-size="12.6" lengthAdjust="spacing" textLength="77.4" x="556.425" y="825.9557">MotherNature</text><line style="stroke:#181818;stroke-width:0.45;" x1="470.7" x2="690.3" y1="835.2" y2="835.2"/><rect fill="none" height="5.4" style="stroke:#C82930;stroke-width:0.9;" width="5.4" x="477" y="842.4"/><text fill="#000000" font-family="sans-serif" font-size="12.6" lengthAdjust="spacing" textLength="123.3" x="487.8" y="851.8799">private Island position</text><line style="stroke:#181818;stroke-width:0.45;" x1="470.7" x2="690.3" y1="858.2484" y2="858.2484"/><ellipse cx="479.7" cy="868.1484" fill="#84BE84" rx="2.7" ry="2.7" style="stroke:#038048;stroke-width:0.9;"/><text fill="#000000" font-family="sans-serif" font-size="12.6" lengthAdjust="spacing" textLength="198" x="487.8" y="874.9283">«constructor»MotherNature(Island)</text><ellipse cx="479.7" cy="883.9969" fill="#84BE84" rx="2.7" ry="2.7" style="stroke:#038048;stroke-width:0.9;"/><text fill="#000000" font-family="sans-serif" font-size="12.6" lengthAdjust="spacing" textLength="108.9" x="487.8" y="890.7768">Island getPosition()</text><ellipse cx="479.7" cy="899.8453" fill="#84BE84" rx="2.7" ry="2.7" style="stroke:#038048;stroke-width:0.9;"/><text fill="#000000" font-family="sans-serif" font-size="12.6" lengthAdjust="spacing" textLength="141.3" x="487.8" y="906.6252">Island setPosition(Island)</text></g><!--MD5=[9153511ab415ec25fadc371cb52004ef]
class AssistantCard--><g id="elem_AssistantCard"><rect codeLine="106" fill="#F1F1F1" height="74.8969" id="AssistantCard" rx="3.15" ry="3.15" style="stroke:#181818;stroke-width:0.45;" width="108" x="55.8" y="822.15"/><ellipse cx="69.3" cy="836.55" fill="#ADD1B2" rx="9.9" ry="9.9" style="stroke:#181818;stroke-width:0.9;"/><path d="M71.1,833.4 Q71.2828,832.95 71.4938,832.725 Q71.7047,832.5 71.9438,832.5 Q72.3656,832.5 72.6328,832.7531 Q72.9,833.0063 72.9,833.5969 L72.9,835.0031 Q72.9,835.5938 72.6469,835.8469 Q72.3938,836.1 72,836.1 Q71.6484,836.1 71.4234,835.9453 Q71.1984,835.7906 71.1,835.3828 Q71.0578,835.1016 70.9031,834.9469 Q70.6219,834.6516 70.1156,834.4828 Q69.6094,834.3 69.1031,834.3 Q68.4703,834.3 67.9359,834.5531 Q67.4156,834.8063 67.0078,835.3688 Q66.6,835.9313 66.6,836.7047 L66.6,837.5344 Q66.6,838.4625 67.3594,839.0813 Q68.1188,839.7 69.4688,839.7 Q70.2703,839.7 70.8328,839.5172 Q71.1563,839.4188 71.5219,839.0953 Q71.7609,838.9125 71.8875,838.8563 Q72.0141,838.8 72.1688,838.8 Q72.4641,838.8 72.675,839.0391 Q72.9,839.2641 72.9,839.5875 Q72.9,839.8969 72.5906,840.2625 Q72.1406,840.7969 71.4234,841.0922 Q70.4813,841.5 69.3281,841.5 Q67.9781,841.5 66.8953,840.9656 Q66.0234,840.5438 65.4047,839.6297 Q64.8,838.7156 64.8,837.6328 L64.8,836.6484 Q64.8,835.5234 65.3344,834.5391 Q65.8828,833.5547 66.825,833.0344 Q67.7813,832.5 68.85,832.5 Q69.4969,832.5 70.0594,832.725 Q70.6219,832.95 71.1,833.4 Z " fill="#000000"/><text fill="#000000" font-family="sans-serif" font-size="12.6" lengthAdjust="spacing" textLength="79.2" x="81.9" y="841.7057">AssistantCard</text><line style="stroke:#181818;stroke-width:0.45;" x1="56.7" x2="162.9" y1="850.95" y2="850.95"/><rect fill="none" height="5.4" style="stroke:#C82930;stroke-width:0.9;" width="5.4" x="63" y="858.15"/><text fill="#000000" font-family="sans-serif" font-size="12.6" lengthAdjust="spacing" textLength="47.7" x="73.8" y="867.6299">int value</text><rect fill="none" height="5.4" style="stroke:#C82930;stroke-width:0.9;" width="5.4" x="63" y="873.9984"/><text fill="#000000" font-family="sans-serif" font-size="12.6" lengthAdjust="spacing" textLength="75.6" x="73.8" y="883.4783">int movement</text><line style="stroke:#181818;stroke-width:0.45;" x1="56.7" x2="162.9" y1="889.8469" y2="889.8469"/></g><!--MD5=[4ea8e61345abb1b5d1b65d1adc4a63a0]
class CharacterCard--><g id="elem_CharacterCard"><rect codeLine="111" fill="#F1F1F1" height="59.0484" id="CharacterCard" rx="3.15" ry="3.15" style="stroke:#181818;stroke-width:0.45;" width="175.5" x="195.75" y="829.8"/><ellipse cx="237.375" cy="844.2" fill="#ADD1B2" rx="9.9" ry="9.9" style="stroke:#181818;stroke-width:0.9;"/><path d="M239.175,841.05 Q239.3578,840.6 239.5688,840.375 Q239.7797,840.15 240.0188,840.15 Q240.4406,840.15 240.7078,840.4031 Q240.975,840.6563 240.975,841.2469 L240.975,842.6531 Q240.975,843.2438 240.7219,843.4969 Q240.4688,843.75 240.075,843.75 Q239.7234,843.75 239.4984,843.5953 Q239.2734,843.4406 239.175,843.0328 Q239.1328,842.7516 238.9781,842.5969 Q238.6969,842.3016 238.1906,842.1328 Q237.6844,841.95 237.1781,841.95 Q236.5453,841.95 236.0109,842.2031 Q235.4906,842.4563 235.0828,843.0188 Q234.675,843.5813 234.675,844.3547 L234.675,845.1844 Q234.675,846.1125 235.4344,846.7313 Q236.1938,847.35 237.5438,847.35 Q238.3453,847.35 238.9078,847.1672 Q239.2313,847.0688 239.5969,846.7453 Q239.8359,846.5625 239.9625,846.5063 Q240.0891,846.45 240.2438,846.45 Q240.5391,846.45 240.75,846.6891 Q240.975,846.9141 240.975,847.2375 Q240.975,847.5469 240.6656,847.9125 Q240.2156,848.4469 239.4984,848.7422 Q238.5563,849.15 237.4031,849.15 Q236.0531,849.15 234.9703,848.6156 Q234.0984,848.1938 233.4797,847.2797 Q232.875,846.3656 232.875,845.2828 L232.875,844.2984 Q232.875,843.1734 233.4094,842.1891 Q233.9578,841.2047 234.9,840.6844 Q235.8563,840.15 236.925,840.15 Q237.5719,840.15 238.1344,840.375 Q238.6969,840.6 239.175,841.05 Z " fill="#000000"/><text fill="#000000" font-family="sans-serif" font-size="12.6" lengthAdjust="spacing" textLength="84.6" x="255.825" y="849.3557">CharacterCard</text><line style="stroke:#181818;stroke-width:0.45;" x1="196.65" x2="370.35" y1="858.6" y2="858.6"/><rect fill="none" height="5.4" style="stroke:#C82930;stroke-width:0.9;" width="5.4" x="202.95" y="865.8"/><text fill="#000000" font-family="sans-serif" font-size="12.6" lengthAdjust="spacing" textLength="152.1" x="213.75" y="875.2799">CharacterCardEffect effect</text><line style="stroke:#181818;stroke-width:0.45;" x1="196.65" x2="370.35" y1="881.6484" y2="881.6484"/></g><!--MD5=[30299a58ba6b78debaaed5ddbb42f29a]
class Deck--><g id="elem_Deck"><rect codeLine="115" fill="#F1F1F1" height="90.7453" id="Deck" rx="3.15" ry="3.15" style="stroke:#181818;stroke-width:0.45;" width="232.2" x="47.7" y="437.4"/><ellipse cx="145.575" cy="451.8" fill="#ADD1B2" rx="9.9" ry="9.9" style="stroke:#181818;stroke-width:0.9;"/><path d="M147.375,448.65 Q147.5578,448.2 147.7688,447.975 Q147.9797,447.75 148.2188,447.75 Q148.6406,447.75 148.9078,448.0031 Q149.175,448.2563 149.175,448.8469 L149.175,450.2531 Q149.175,450.8438 148.9219,451.0969 Q148.6688,451.35 148.275,451.35 Q147.9234,451.35 147.6984,451.1953 Q147.4734,451.0406 147.375,450.6328 Q147.3328,450.3516 147.1781,450.1969 Q146.8969,449.9016 146.3906,449.7328 Q145.8844,449.55 145.3781,449.55 Q144.7453,449.55 144.2109,449.8031 Q143.6906,450.0563 143.2828,450.6188 Q142.875,451.1813 142.875,451.9547 L142.875,452.7844 Q142.875,453.7125 143.6344,454.3313 Q144.3938,454.95 145.7438,454.95 Q146.5453,454.95 147.1078,454.7672 Q147.4313,454.6688 147.7969,454.3453 Q148.0359,454.1625 148.1625,454.1063 Q148.2891,454.05 148.4438,454.05 Q148.7391,454.05 148.95,454.2891 Q149.175,454.5141 149.175,454.8375 Q149.175,455.1469 148.8656,455.5125 Q148.4156,456.0469 147.6984,456.3422 Q146.7563,456.75 145.6031,456.75 Q144.2531,456.75 143.1703,456.2156 Q142.2984,455.7938 141.6797,454.8797 Q141.075,453.9656 141.075,452.8828 L141.075,451.8984 Q141.075,450.7734 141.6094,449.7891 Q142.1578,448.8047 143.1,448.2844 Q144.0563,447.75 145.125,447.75 Q145.7719,447.75 146.3344,447.975 Q146.8969,448.2 147.375,448.65 Z " fill="#000000"/><text fill="#000000" font-family="sans-serif" font-size="12.6" lengthAdjust="spacing" textLength="28.8" x="164.025" y="456.9557">Deck</text><line style="stroke:#181818;stroke-width:0.45;" x1="48.6" x2="279" y1="466.2" y2="466.2"/><rect fill="none" height="5.4" style="stroke:#C82930;stroke-width:0.9;" width="5.4" x="54.9" y="473.4"/><text fill="#000000" font-family="sans-serif" font-size="12.6" lengthAdjust="spacing" textLength="171.9" x="65.7" y="482.8799">ArrayList&lt;Card&gt; cardArrayList</text><line style="stroke:#181818;stroke-width:0.45;" x1="48.6" x2="279" y1="489.2484" y2="489.2484"/><ellipse cx="57.6" cy="499.1484" fill="#84BE84" rx="2.7" ry="2.7" style="stroke:#038048;stroke-width:0.9;"/><text fill="#000000" font-family="sans-serif" font-size="12.6" lengthAdjust="spacing" textLength="208.8" x="65.7" y="505.9283">«constructor»Deck(ArrayList&lt;Card&gt;)</text><ellipse cx="57.6" cy="514.9969" fill="#84BE84" rx="2.7" ry="2.7" style="stroke:#038048;stroke-width:0.9;"/><text fill="#000000" font-family="sans-serif" font-size="12.6" lengthAdjust="spacing" textLength="106.2" x="65.7" y="521.7768">Card extractCard()</text></g><!--MD5=[1da8f80c0a6f875dfd1b47fac061377f]
class Coin--><g id="elem_Coin"><rect codeLine="121" fill="#F1F1F1" height="74.8969" id="Coin" rx="3.15" ry="3.15" style="stroke:#181818;stroke-width:0.45;" width="166.5" x="200.25" y="966.6"/><ellipse cx="266.625" cy="981" fill="#ADD1B2" rx="9.9" ry="9.9" style="stroke:#181818;stroke-width:0.9;"/><path d="M268.425,977.85 Q268.6078,977.4 268.8188,977.175 Q269.0297,976.95 269.2688,976.95 Q269.6906,976.95 269.9578,977.2031 Q270.225,977.4563 270.225,978.0469 L270.225,979.4531 Q270.225,980.0438 269.9719,980.2969 Q269.7188,980.55 269.325,980.55 Q268.9734,980.55 268.7484,980.3953 Q268.5234,980.2406 268.425,979.8328 Q268.3828,979.5516 268.2281,979.3969 Q267.9469,979.1016 267.4406,978.9328 Q266.9344,978.75 266.4281,978.75 Q265.7953,978.75 265.2609,979.0031 Q264.7406,979.2563 264.3328,979.8188 Q263.925,980.3813 263.925,981.1547 L263.925,981.9844 Q263.925,982.9125 264.6844,983.5313 Q265.4438,984.15 266.7938,984.15 Q267.5953,984.15 268.1578,983.9672 Q268.4813,983.8688 268.8469,983.5453 Q269.0859,983.3625 269.2125,983.3063 Q269.3391,983.25 269.4938,983.25 Q269.7891,983.25 270,983.4891 Q270.225,983.7141 270.225,984.0375 Q270.225,984.3469 269.9156,984.7125 Q269.4656,985.2469 268.7484,985.5422 Q267.8063,985.95 266.6531,985.95 Q265.3031,985.95 264.2203,985.4156 Q263.3484,984.9938 262.7297,984.0797 Q262.125,983.1656 262.125,982.0828 L262.125,981.0984 Q262.125,979.9734 262.6594,978.9891 Q263.2078,978.0047 264.15,977.4844 Q265.1063,976.95 266.175,976.95 Q266.8219,976.95 267.3844,977.175 Q267.9469,977.4 268.425,977.85 Z " fill="#000000"/><text fill="#000000" font-family="sans-serif" font-size="12.6" lengthAdjust="spacing" textLength="26.1" x="285.075" y="986.1557">Coin</text><line style="stroke:#181818;stroke-width:0.45;" x1="201.15" x2="365.85" y1="995.4" y2="995.4"/><rect fill="none" height="5.4" style="stroke:#C82930;stroke-width:0.9;" width="5.4" x="207.45" y="1002.6"/><text fill="#000000" font-family="sans-serif" font-size="12.6" lengthAdjust="spacing" textLength="113.4" x="218.25" y="1012.0799">CharacterCard card</text><line style="stroke:#181818;stroke-width:0.45;" x1="201.15" x2="365.85" y1="1018.4484" y2="1018.4484"/><ellipse cx="210.15" cy="1028.3484" fill="#84BE84" rx="2.7" ry="2.7" style="stroke:#038048;stroke-width:0.9;"/><text fill="#000000" font-family="sans-serif" font-size="12.6" lengthAdjust="spacing" textLength="143.1" x="218.25" y="1035.1283">CharacterCard getCard()</text></g><!--MD5=[d271d16d53cfe2f20218414189ac7c91]
class NoEntryTile--><g id="elem_NoEntryTile"><rect codeLine="126" fill="#F1F1F1" height="74.8969" id="NoEntryTile" rx="3.15" ry="3.15" style="stroke:#181818;stroke-width:0.45;" width="132.3" x="723.15" y="822.15"/><ellipse cx="753.66" cy="836.55" fill="#ADD1B2" rx="9.9" ry="9.9" style="stroke:#181818;stroke-width:0.9;"/><path d="M755.46,833.4 Q755.6428,832.95 755.8538,832.725 Q756.0647,832.5 756.3038,832.5 Q756.7256,832.5 756.9928,832.7531 Q757.26,833.0063 757.26,833.5969 L757.26,835.0031 Q757.26,835.5938 757.0069,835.8469 Q756.7538,836.1 756.36,836.1 Q756.0084,836.1 755.7834,835.9453 Q755.5584,835.7906 755.46,835.3828 Q755.4178,835.1016 755.2631,834.9469 Q754.9819,834.6516 754.4756,834.4828 Q753.9694,834.3 753.4631,834.3 Q752.8303,834.3 752.2959,834.5531 Q751.7756,834.8063 751.3678,835.3688 Q750.96,835.9313 750.96,836.7047 L750.96,837.5344 Q750.96,838.4625 751.7194,839.0813 Q752.4788,839.7 753.8288,839.7 Q754.6303,839.7 755.1928,839.5172 Q755.5163,839.4188 755.8819,839.0953 Q756.1209,838.9125 756.2475,838.8563 Q756.3741,838.8 756.5288,838.8 Q756.8241,838.8 757.035,839.0391 Q757.26,839.2641 757.26,839.5875 Q757.26,839.8969 756.9506,840.2625 Q756.5006,840.7969 755.7834,841.0922 Q754.8413,841.5 753.6881,841.5 Q752.3381,841.5 751.2553,840.9656 Q750.3834,840.5438 749.7647,839.6297 Q749.16,838.7156 749.16,837.6328 L749.16,836.6484 Q749.16,835.5234 749.6944,834.5391 Q750.2428,833.5547 751.185,833.0344 Q752.1413,832.5 753.21,832.5 Q753.8569,832.5 754.4194,832.725 Q754.9819,832.95 755.46,833.4 Z " fill="#000000"/><text fill="#000000" font-family="sans-serif" font-size="12.6" lengthAdjust="spacing" textLength="65.7" x="770.04" y="841.7057">NoEntryTile</text><line style="stroke:#181818;stroke-width:0.45;" x1="724.05" x2="854.55" y1="850.95" y2="850.95"/><rect fill="none" height="5.4" style="stroke:#C82930;stroke-width:0.9;" width="5.4" x="730.35" y="858.15"/><text fill="#000000" font-family="sans-serif" font-size="12.6" lengthAdjust="spacing" textLength="70.2" x="741.15" y="867.6299">Island island</text><line style="stroke:#181818;stroke-width:0.45;" x1="724.05" x2="854.55" y1="873.9984" y2="873.9984"/><ellipse cx="733.05" cy="883.8984" fill="#84BE84" rx="2.7" ry="2.7" style="stroke:#038048;stroke-width:0.9;"/><text fill="#000000" font-family="sans-serif" font-size="12.6" lengthAdjust="spacing" textLength="108.9" x="741.15" y="890.6783">Island getPosition()</text></g><!--MD5=[50c01108cc94cc552c924244958887b6]
reverse link Island to NoEntryTile--><g id="link_Island_NoEntryTile"><path codeLine="131" d="M745.65,757.062 C745.65,757.062 745.65,822.105 745.65,822.105 " fill="none" id="Island-backto-NoEntryTile" style="stroke:#454645;stroke-width:0.9;"/><polygon fill="#454645" points="745.65,752.562,742.05,760.662,745.65,757.062,749.25,760.662,745.65,752.562" style="stroke:#454645;stroke-width:0.9;"/></g><!--MD5=[56b528ef5a939e327e31674b369d041c]
reverse link CharacterCard to Coin--><g id="link_CharacterCard_Coin"><path codeLine="132" d="M283.5,893.934 C283.5,893.934 283.5,966.339 283.5,966.339 " fill="none" id="CharacterCard-backto-Coin" style="stroke:#454645;stroke-width:0.9;"/><polygon fill="#454645" points="283.5,889.434,279.9,897.534,283.5,893.934,287.1,897.534,283.5,889.434" style="stroke:#454645;stroke-width:0.9;"/></g><!--MD5=[ef3cd93b4b4594f3c81ac07d483b3904]
reverse link Card to AssistantCard--><g id="link_Card_AssistantCard"><path codeLine="134" d="M109.8,731.025 C109.8,731.025 109.8,822.051 109.8,822.051 " fill="none" id="Card-backto-AssistantCard" style="stroke:#454645;stroke-width:0.9;"/><polygon fill="none" points="103.5,731.025,109.8,713.025,116.1,731.025,103.5,731.025" style="stroke:#454645;stroke-width:0.9;"/></g><!--MD5=[291c5d578a16afa36f38ad0004fb93fc]
reverse link Card to CharacterCard--><g id="link_Card_CharacterCard"><path codeLine="135" d="M228.15,731.025 C228.15,731.025 228.15,829.728 228.15,829.728 " fill="none" id="Card-backto-CharacterCard" style="stroke:#454645;stroke-width:0.9;"/><polygon fill="none" points="221.85,731.025,228.15,713.025,234.45,731.025,221.85,731.025" style="stroke:#454645;stroke-width:0.9;"/></g><!--MD5=[675c98fc2462cbf3e0a6a5ea82b07648]
reverse link Board to Island--><g id="link_Board_Island"><path codeLine="137" d="M603.225,577.989 C603.225,577.989 603.225,613.539 603.225,613.539 " fill="none" id="Board-backto-Island" style="stroke:#454645;stroke-width:0.9;"/><polygon fill="none" points="596.925,577.989,603.225,559.989,609.525,577.989,596.925,577.989" style="stroke:#454645;stroke-width:0.9;"/><text fill="#000000" font-family="sans-serif" font-size="11.7" lengthAdjust="spacing" textLength="111.6" x="481.1811" y="603.9981">&lt;&lt;bind&gt;&gt; T-&gt;Student</text></g><!--MD5=[be23cc1339613c23591eff570872c022]
reverse link Board to Cloud--><g id="link_Board_Cloud"><path codeLine="138" d="M493.875,577.989 C493.875,577.989 493.875,653.265 493.875,653.265 " fill="none" id="Board-backto-Cloud" style="stroke:#454645;stroke-width:0.9;"/><polygon fill="none" points="487.575,577.989,493.875,559.989,500.175,577.989,487.575,577.989" style="stroke:#454645;stroke-width:0.9;"/><text fill="#000000" font-family="sans-serif" font-size="11.7" lengthAdjust="spacing" textLength="95.4" x="397.575" y="628.6726">«bind» T-&gt;Student</text></g><!--MD5=[09f2a2401941c981073992779819d8ae]
link School to Board--><g id="link_School_Board"><path codeLine="140" d="M567,352.071 C567,352.071 567,394.155 567,394.155 " fill="none" id="School-to-Board" style="stroke:#454645;stroke-width:0.9;"/><polygon fill="#454645" points="567,405.855,570.6,400.455,567,395.055,563.4,400.455,567,405.855" style="stroke:#454645;stroke-width:0.9;"/></g><!--MD5=[762b1bad54bda995845750ecd7df4c7a]
reverse link Pawn to Professor--><g id="link_Pawn_Professor"><path codeLine="142" d="M859.05,154.395 C859.05,154.395 859.05,245.205 859.05,245.205 " fill="none" id="Pawn-backto-Professor" style="stroke:#454645;stroke-width:0.9;"/><polygon fill="none" points="852.75,154.395,859.05,136.395,865.35,154.395,852.75,154.395" style="stroke:#454645;stroke-width:0.9;"/><text fill="#000000" font-family="sans-serif" font-size="11.7" lengthAdjust="spacing" textLength="81.9" x="776.25" y="196.6456">«bind» T-&gt;Color</text></g><!--MD5=[4cbe029bfd09fd7227938a05c4ca9bf5]
reverse link Pawn to Student--><g id="link_Pawn_Student"><path codeLine="143" d="M930.816,90.9 C930.816,90.9 1125.9,90.9 1125.9,90.9 C1125.9,90.9 1125.9,192.816 1125.9,244.971 " fill="none" id="Pawn-backto-Student" style="stroke:#454645;stroke-width:0.9;"/><polygon fill="none" points="930.816,97.2,912.816,90.9,930.816,84.6,930.816,97.2" style="stroke:#454645;stroke-width:0.9;"/><text fill="#000000" font-family="sans-serif" font-size="11.7" lengthAdjust="spacing" textLength="81.9" x="1022.589" y="87.7456">«bind» T-&gt;Color</text></g><!--MD5=[99a87e5119cbbe499307809beb818dac]
reverse link Pawn to Tower--><g id="link_Pawn_Tower"><path codeLine="144" d="M784.35,154.629 C784.35,154.629 784.35,445.275 784.35,445.275 " fill="none" id="Pawn-backto-Tower" style="stroke:#454645;stroke-width:0.9;"/><polygon fill="none" points="778.05,154.629,784.35,136.629,790.65,154.629,778.05,154.629" style="stroke:#454645;stroke-width:0.9;"/><text fill="#000000" font-family="sans-serif" font-size="11.7" lengthAdjust="spacing" textLength="112.5" x="756.675" y="312.9976">«bind» T-&gt;TowerColor</text></g><!--MD5=[f2e91f23fb8550ea91d84d87b2c0d763]
reverse link Island to MotherNature--><g id="link_Island_MotherNature"><path codeLine="146" d="M618.525,757.062 C618.525,757.062 618.525,806.184 618.525,806.184 " fill="none" id="Island-backto-MotherNature" style="stroke:#454645;stroke-width:0.9;"/><polygon fill="#454645" points="618.525,752.562,614.925,760.662,618.525,757.062,622.125,760.662,618.525,752.562" style="stroke:#454645;stroke-width:0.9;"/></g><!--MD5=[5cf861f56d83ae4345dbc2180ae8b1d0]
reverse link Deck to Card--><g id="link_Deck_Card"><path codeLine="148" d="M154.8,540.243 C154.8,540.243 154.8,653.139 154.8,653.139 " fill="none" id="Deck-backto-Card" style="stroke:#454645;stroke-width:0.9;"/><polygon fill="#454645" points="154.8,528.543,151.2,533.943,154.8,539.343,158.4,533.943,154.8,528.543" style="stroke:#454645;stroke-width:0.9;"/></g><!--MD5=[8d9472248db2c295e563e60b72e74922]
link Player to Deck--><g id="link_Player_Deck"><path codeLine="149" d="M163.8,328.221 C163.8,328.221 163.8,432.621 163.8,432.621 " fill="none" id="Player-to-Deck" style="stroke:#454645;stroke-width:0.9;"/><polygon fill="#454645" points="163.8,437.121,167.4,429.021,163.8,432.621,160.2,429.021,163.8,437.121" style="stroke:#454645;stroke-width:0.9;"/></g><!--MD5=[6b6b9e8ceff4e9e58f06e15491e15318]
link Game to Player--><g id="link_Game_Player"><path codeLine="151" d="M468.891,90.9 C357.426,90.9 190.8,90.9 190.8,90.9 C190.8,90.9 190.8,217.215 190.8,217.215 " fill="none" id="Game-to-Player" style="stroke:#454645;stroke-width:0.9;"/><polygon fill="#454645" points="190.8,221.715,194.4,213.615,190.8,217.215,187.2,213.615,190.8,221.715" style="stroke:#454645;stroke-width:0.9;"/></g><!--MD5=[21e9fce92c99e1c874b11e192da255e6]
link Game to School--><g id="link_Game_School"><path codeLine="152" d="M567,144.135 C567,144.135 567,193.374 567,193.374 " fill="none" id="Game-to-School" style="stroke:#454645;stroke-width:0.9;"/><polygon fill="#454645" points="567,197.874,570.6,189.774,567,193.374,563.4,189.774,567,197.874" style="stroke:#454645;stroke-width:0.9;"/></g><!--MD5=[d8b339cd4d972907013b901513a5cdef]
link Game to Pawn--><g id="link_Game_Pawn"><path codeLine="153" d="M665.181,90.9 C665.181,90.9 758.484,90.9 758.484,90.9 " fill="none" id="Game-to-Pawn" style="stroke:#454645;stroke-width:0.9;"/><polygon fill="#454645" points="762.984,90.9,754.884,87.3,758.484,90.9,754.884,94.5,762.984,90.9" style="stroke:#454645;stroke-width:0.9;"/></g><!--MD5=[c4de8f0a3fa2c66573592a8c04806d52]
link Professor to Color--><g id="link_Professor_Color"><path codeLine="155" d="M983.475,304.83 C983.475,350.847 983.475,433.8 983.475,433.8 C983.475,433.8 1041.3,433.8 1041.3,433.8 " fill="none" id="Professor-to-Color" style="stroke:#454645;stroke-width:0.9;stroke-dasharray:7.0,7.0;"/><polygon fill="#454645" points="1045.8,433.8,1037.7,430.2,1041.3,433.8,1037.7,437.4,1045.8,433.8" style="stroke:#454645;stroke-width:0.9;"/></g><!--MD5=[1daab493f86e124074863c7d996548e1]
link Student to Color--><g id="link_Student_Color"><path codeLine="156" d="M1077.3,304.74 C1077.3,304.74 1077.3,416.907 1077.3,416.907 " fill="none" id="Student-to-Color" style="stroke:#454645;stroke-width:0.9;stroke-dasharray:7.0,7.0;"/><polygon fill="#454645" points="1077.3,421.407,1080.9,413.307,1077.3,416.907,1073.7,413.307,1077.3,421.407" style="stroke:#454645;stroke-width:0.9;"/></g><!--MD5=[bb2987cb63935726317af892abb93c33]
link Tower to TowerColor--><g id="link_Tower_TowerColor"><path codeLine="158" d="M846.9,520.281 C846.9,520.281 846.9,632.925 846.9,632.925 " fill="none" id="Tower-to-TowerColor" style="stroke:#454645;stroke-width:0.9;stroke-dasharray:7.0,7.0;"/><polygon fill="#454645" points="846.9,637.425,850.5,629.325,846.9,632.925,843.3,629.325,846.9,637.425" style="stroke:#454645;stroke-width:0.9;"/></g><!--MD5=[e9cfd0608071a1bfa9abb2fcaf8f98d8]
@startuml initial_uml
!theme vibrant
skinparam Linetype polyline
skinparam Linetype ortho

package model <<Folder>> {
    enum Color {
        YELLOW
        BLUE
        GREEN
        RED
        PINK
    }

    enum TowerColor {
        WHITE
        GRAY
        BLACK
    }

    class Game {
        - ArrayList<Player> playerOrder

        + <<constructor>>Game()
        + void round()
        + void addPlayer(Player)
    }

    class Board<T> {
        + List<T> pawns

        + <<constructor>>Board()
        + <<constructor>>Board(List<T>)
        + List<T> getPawns()
        + T getPawn()
        + boolean addPawns(List<T>)
        + boolean addPawn(T)
    }
    
    abstract class Pawn<T> {
        - T color

        + <<constructor>>Pawn(T)
        + T getColor()
    }

    abstract class Card{
        + <<constructor>>Card(Lorem ipsum)
    }

    class Player {
        - String nickname
        + School school

        + <<constructor>>Player(String, List<Student>, List<Tower>)
        + String getNickname()
    }

    class Island {
        - Tower tower

        + <<constructor>>Island(List<Student>)
        + Tower setTower()
        + Tower getTower()
        + Player getInfluencer()
        - int countByColor(Color)

    }
    
    class School {
        - Player owner
        + Board diningRoom
        + Board entrance
        + Board professorsTable
        + Board towersBoard

        + <<constructor>>School(Player, List<Student>, List<Tower>)
        + Player getOwner()
    }

    class Cloud {
        + <<constructor>>Cloud(List<Student>)
    }

    class Professor {
        + <<constructor>>Professor(Color)
    }

    class Student {
        + <<constructor>>Student(Color)
    }

    class Tower {
        + Player owner

        + <<constructor>>Tower(Player, TowerColor)
    }

    class MotherNature {
        - private Island position

        + <<constructor>>MotherNature(Island)
        + Island getPosition()
        + Island setPosition(Island)
    }

    class AssistantCard {
        - int value
        - int movement
    }

    class CharacterCard {
        - CharacterCardEffect effect
    }

    class Deck {
        - ArrayList<Card> cardArrayList
        + <<constructor>>Deck(ArrayList<Card>)
        + Card extractCard()
    }

    class Coin {
        - CharacterCard card
        + CharacterCard getCard()
    }

    class NoEntryTile {
        - Island island
        + Island getPosition()
    }

    NoEntryTile -UP-> Island
    CharacterCard <- - Coin

    Card <|-DOWN- AssistantCard
    Card <|-DOWN- CharacterCard

    Board <|-DOWN- "<<bind>> T->Student" Island
    Board <|-DOWN- Cloud : <<bind>> T->Student

    School - -* Board

    Pawn <|-DOWN- Professor : <<bind>> T->Color
    Pawn <|-DOWN- Student : <<bind>> T->Color
    Pawn <|- - - Tower : <<bind>> T->TowerColor

    MotherNature -UP-> Island

    Deck *-DOWN- Card
    Deck <-UP- Player

    Game -DOWN-> Player
    Game - -> School
    Game -RIGHT-> Pawn
    
    Color <.UP. Professor
    Color <.UP. Student

    TowerColor <.UP. Tower
}

@enduml

@startuml initial_uml
skinparam BackgroundColor FFFFFF
skinparam shadowing false
skinparam RoundCorner 7
skinparam ArrowColor 454645
skinparam FontColor 454645
skinparam SequenceLifeLineBorderColor 696969
skinparam SequenceGroupHeaderFontColor 454645
skinparam SequenceGroupFontColor 696969
skinparam SequenceGroupBorderColor 696969
skinparam SequenceGroupBorderThickness 1

skinparam sequenceDivider {
    BorderColor 454645
    BorderThickness 1
    FontColor 454645
}

skinparam participant {
    BackgroundColor FF6347
    BorderColor 454645
    FontColor FFFFFF
    BorderThickness 1.5
}

skinparam database {
    BackgroundColor 00FFFF
    BorderColor 454645
    FontColor 454645
}

skinparam entity {
    BackgroundColor FFE552
    BorderColor 454645
    FontColor 454645
}

skinparam note {
    BackgroundColor 7FFFD4
    BorderColor 454645
    FontColor 454645
    BorderThickness 1.5
}

skinparam actor {
    BackgroundColor 454645
    BorderColor 454645
    FontColor 454645
}

skinparam boundary {
    BackgroundColor FFE552
    BorderColor 454645
    FontColor 454645
}

skinparam control {
    BackgroundColor FFE552
    BorderColor 454645
    FontColor 454645
}

skinparam collections {
    BackgroundColor FF5F42
    BorderColor 454645
    FontColor 454645
}

skinparam queue {
    BackgroundColor FF6347
    BorderColor 454645
    FontColor FFF
    BorderThickness 1.5
}
skinparam Linetype polyline
skinparam Linetype ortho

package model <<Folder>> {
    enum Color {
        YELLOW
        BLUE
        GREEN
        RED
        PINK
    }

    enum TowerColor {
        WHITE
        GRAY
        BLACK
    }

    class Game {
        - ArrayList<Player> playerOrder

        + <<constructor>>Game()
        + void round()
        + void addPlayer(Player)
    }

    class Board<T> {
        + List<T> pawns

        + <<constructor>>Board()
        + <<constructor>>Board(List<T>)
        + List<T> getPawns()
        + T getPawn()
        + boolean addPawns(List<T>)
        + boolean addPawn(T)
    }
    
    abstract class Pawn<T> {
        - T color

        + <<constructor>>Pawn(T)
        + T getColor()
    }

    abstract class Card{
        + <<constructor>>Card(Lorem ipsum)
    }

    class Player {
        - String nickname
        + School school

        + <<constructor>>Player(String, List<Student>, List<Tower>)
        + String getNickname()
    }

    class Island {
        - Tower tower

        + <<constructor>>Island(List<Student>)
        + Tower setTower()
        + Tower getTower()
        + Player getInfluencer()
        - int countByColor(Color)

    }
    
    class School {
        - Player owner
        + Board diningRoom
        + Board entrance
        + Board professorsTable
        + Board towersBoard

        + <<constructor>>School(Player, List<Student>, List<Tower>)
        + Player getOwner()
    }

    class Cloud {
        + <<constructor>>Cloud(List<Student>)
    }

    class Professor {
        + <<constructor>>Professor(Color)
    }

    class Student {
        + <<constructor>>Student(Color)
    }

    class Tower {
        + Player owner

        + <<constructor>>Tower(Player, TowerColor)
    }

    class MotherNature {
        - private Island position

        + <<constructor>>MotherNature(Island)
        + Island getPosition()
        + Island setPosition(Island)
    }

    class AssistantCard {
        - int value
        - int movement
    }

    class CharacterCard {
        - CharacterCardEffect effect
    }

    class Deck {
        - ArrayList<Card> cardArrayList
        + <<constructor>>Deck(ArrayList<Card>)
        + Card extractCard()
    }

    class Coin {
        - CharacterCard card
        + CharacterCard getCard()
    }

    class NoEntryTile {
        - Island island
        + Island getPosition()
    }

    NoEntryTile -UP-> Island
    CharacterCard <- - Coin

    Card <|-DOWN- AssistantCard
    Card <|-DOWN- CharacterCard

    Board <|-DOWN- "<<bind>> T->Student" Island
    Board <|-DOWN- Cloud : <<bind>> T->Student

    School - -* Board

    Pawn <|-DOWN- Professor : <<bind>> T->Color
    Pawn <|-DOWN- Student : <<bind>> T->Color
    Pawn <|- - - Tower : <<bind>> T->TowerColor

    MotherNature -UP-> Island

    Deck *-DOWN- Card
    Deck <-UP- Player

    Game -DOWN-> Player
    Game - -> School
    Game -RIGHT-> Pawn
    
    Color <.UP. Professor
    Color <.UP. Student

    TowerColor <.UP. Tower
}

@enduml

PlantUML version 1.2022.2(Sat Mar 05 17:30:19 CET 2022)
(GPL source distribution)
Java Runtime: OpenJDK Runtime Environment
JVM: OpenJDK 64-Bit Server VM
Default Encoding: Cp1252
Language: it
Country: IT
--></g></svg>