<?xml version="1.0" encoding="UTF-8" standalone="no"?><svg xmlns="http://www.w3.org/2000/svg" xmlns:xlink="http://www.w3.org/1999/xlink" contentStyleType="text/css" height="826px" preserveAspectRatio="none" style="width:1131px;height:826px;background:#FFFFFF;" version="1.1" viewBox="0 0 1131 826" width="1131px" zoomAndPan="magnify"><defs/><g><!--MD5=[4ef80439e1ef409f8f3a0ec422262701]
cluster server--><g id="cluster_server"><path d="M9.5,6 L55.5,6 A5.25,5.25 0 0 1 59,9.5 L66,29.6094 L1120.5,29.6094 A3.5,3.5 0 0 1 1124,33.1094 L1124,815.5 A3.5,3.5 0 0 1 1120.5,819 L9.5,819 A3.5,3.5 0 0 1 6,815.5 L6,9.5 A3.5,3.5 0 0 1 9.5,6 " style="stroke:#696969;stroke-width:1.0;fill:none;"/><line style="stroke:#696969;stroke-width:1.0;fill:none;" x1="6" x2="66" y1="29.6094" y2="29.6094"/><text fill="#000000" font-family="sans-serif" font-size="14" font-weight="bold" lengthAdjust="spacing" textLength="47" x="10" y="22.5332">server</text></g><!--MD5=[18eee71c88ab61f27581b8cbdd3ef5ee]
class Color--><g id="elem_Color"><rect codeLine="6" fill="#F1F1F1" height="136.0469" id="Color" rx="3.5" ry="3.5" style="stroke:#181818;stroke-width:0.5;" width="70" x="588" y="524"/><ellipse cx="604.8" cy="540" fill="#EB937F" rx="11" ry="11" style="stroke:#181818;stroke-width:1.0;"/><path d="M603.6594,540.7969 L603.6594,543.2969 L607.9875,543.2969 L607.9875,542.375 Q607.9875,541.7656 608.2219,541.5 Q608.4719,541.2344 608.8469,541.2344 Q609.2219,541.2344 609.4563,541.5 Q609.6906,541.7656 609.6906,542.375 L609.6906,545 L601.6906,545 Q601.0656,545 600.8,544.7656 Q600.55,544.5313 600.55,544.1406 Q600.55,543.7656 600.8156,543.5313 Q601.0813,543.2969 601.6906,543.2969 L601.9563,543.2969 L601.9563,536.6406 L601.6906,536.6406 Q601.0656,536.6406 600.8,536.4063 Q600.55,536.1719 600.55,535.7813 Q600.55,535.4063 600.8,535.1719 Q601.0656,534.9375 601.6906,534.9375 L609.3156,534.9375 L609.3156,537.5313 Q609.3156,538.1406 609.0813,538.4063 Q608.8625,538.6563 608.4719,538.6563 Q608.0969,538.6563 607.8625,538.4063 Q607.6281,538.1406 607.6281,537.5313 L607.6281,536.6406 L603.6594,536.6406 L603.6594,539.0938 L605.1438,539.0938 Q605.1438,538.4375 605.2688,538.25 Q605.5344,537.8438 606.0031,537.8438 Q606.3781,537.8438 606.6125,538.1094 Q606.8469,538.3594 606.8469,538.9688 L606.8469,540.9375 Q606.8469,541.4844 606.7219,541.6719 Q606.4563,542.0625 606.0031,542.0625 Q605.5344,542.0625 605.2688,541.6563 Q605.1438,541.4688 605.1438,540.7969 L603.6594,540.7969 Z " fill="#000000"/><text fill="#000000" font-family="sans-serif" font-size="14" lengthAdjust="spacing" textLength="34" x="619.2" y="545.7285">Color</text><line style="stroke:#181818;stroke-width:0.5;" x1="589" x2="657" y1="556" y2="556"/><text fill="#000000" font-family="sans-serif" font-size="14" lengthAdjust="spacing" textLength="58" x="594" y="574.5332">YELLOW</text><text fill="#000000" font-family="sans-serif" font-size="14" lengthAdjust="spacing" textLength="35" x="594" y="592.1426">BLUE</text><text fill="#000000" font-family="sans-serif" font-size="14" lengthAdjust="spacing" textLength="48" x="594" y="609.752">GREEN</text><text fill="#000000" font-family="sans-serif" font-size="14" lengthAdjust="spacing" textLength="29" x="594" y="627.3613">RED</text><text fill="#000000" font-family="sans-serif" font-size="14" lengthAdjust="spacing" textLength="30" x="594" y="644.9707">PINK</text><line style="stroke:#181818;stroke-width:0.5;" x1="589" x2="657" y1="652.0469" y2="652.0469"/></g><!--MD5=[6804500824724e03a064fc7681986872]
class TowerColor--><g id="elem_TowerColor"><rect codeLine="14" fill="#F1F1F1" height="100.8281" id="TowerColor" rx="3.5" ry="3.5" style="stroke:#181818;stroke-width:0.5;" width="105" x="355.5" y="541.5"/><ellipse cx="370.5" cy="557.5" fill="#EB937F" rx="11" ry="11" style="stroke:#181818;stroke-width:1.0;"/><path d="M369.3594,558.2969 L369.3594,560.7969 L373.6875,560.7969 L373.6875,559.875 Q373.6875,559.2656 373.9219,559 Q374.1719,558.7344 374.5469,558.7344 Q374.9219,558.7344 375.1563,559 Q375.3906,559.2656 375.3906,559.875 L375.3906,562.5 L367.3906,562.5 Q366.7656,562.5 366.5,562.2656 Q366.25,562.0313 366.25,561.6406 Q366.25,561.2656 366.5156,561.0313 Q366.7813,560.7969 367.3906,560.7969 L367.6563,560.7969 L367.6563,554.1406 L367.3906,554.1406 Q366.7656,554.1406 366.5,553.9063 Q366.25,553.6719 366.25,553.2813 Q366.25,552.9063 366.5,552.6719 Q366.7656,552.4375 367.3906,552.4375 L375.0156,552.4375 L375.0156,555.0313 Q375.0156,555.6406 374.7813,555.9063 Q374.5625,556.1563 374.1719,556.1563 Q373.7969,556.1563 373.5625,555.9063 Q373.3281,555.6406 373.3281,555.0313 L373.3281,554.1406 L369.3594,554.1406 L369.3594,556.5938 L370.8438,556.5938 Q370.8438,555.9375 370.9688,555.75 Q371.2344,555.3438 371.7031,555.3438 Q372.0781,555.3438 372.3125,555.6094 Q372.5469,555.8594 372.5469,556.4688 L372.5469,558.4375 Q372.5469,558.9844 372.4219,559.1719 Q372.1563,559.5625 371.7031,559.5625 Q371.2344,559.5625 370.9688,559.1563 Q370.8438,558.9688 370.8438,558.2969 L369.3594,558.2969 Z " fill="#000000"/><text fill="#000000" font-family="sans-serif" font-size="14" lengthAdjust="spacing" textLength="73" x="384.5" y="563.2285">TowerColor</text><line style="stroke:#181818;stroke-width:0.5;" x1="356.5" x2="459.5" y1="573.5" y2="573.5"/><text fill="#000000" font-family="sans-serif" font-size="14" lengthAdjust="spacing" textLength="43" x="361.5" y="592.0332">WHITE</text><text fill="#000000" font-family="sans-serif" font-size="14" lengthAdjust="spacing" textLength="39" x="361.5" y="609.6426">GRAY</text><text fill="#000000" font-family="sans-serif" font-size="14" lengthAdjust="spacing" textLength="45" x="361.5" y="627.252">BLACK</text><line style="stroke:#181818;stroke-width:0.5;" x1="356.5" x2="459.5" y1="634.3281" y2="634.3281"/></g><!--MD5=[b6dcce5e5ef3c84b0b048d11301373dd]
class Game--><g id="elem_Game"><rect codeLine="20" fill="#F1F1F1" height="118.4375" id="Game" rx="3.5" ry="3.5" style="stroke:#181818;stroke-width:0.5;" width="218" x="449" y="42"/><ellipse cx="534.75" cy="58" fill="#ADD1B2" rx="11" ry="11" style="stroke:#181818;stroke-width:1.0;"/><path d="M537.5156,53.875 Q537.6719,53.6563 537.8594,53.5469 Q538.0469,53.4375 538.2656,53.4375 Q538.6406,53.4375 538.875,53.7031 Q539.1094,53.9531 539.1094,54.5625 L539.1094,56.0156 Q539.1094,56.625 538.875,56.8906 Q538.6406,57.1563 538.2656,57.1563 Q537.9219,57.1563 537.7188,56.9531 Q537.5156,56.7656 537.4063,56.25 Q537.3594,55.8906 537.1719,55.7031 Q536.8438,55.3281 536.2344,55.1094 Q535.625,54.8906 535,54.8906 Q534.2344,54.8906 533.5938,55.2188 Q532.9688,55.5469 532.4688,56.2969 Q531.9844,57.0469 531.9844,58.0781 L531.9844,59.1719 Q531.9844,60.4063 532.875,61.2344 Q533.7656,62.0469 535.3594,62.0469 Q536.2969,62.0469 536.9531,61.7969 Q537.3438,61.6406 537.7656,61.2031 Q538.0313,60.9375 538.1719,60.8594 Q538.3281,60.7813 538.5313,60.7813 Q538.8594,60.7813 539.1094,61.0469 Q539.375,61.2969 539.375,61.6406 Q539.375,61.9844 539.0313,62.3906 Q538.5313,62.9688 537.7344,63.2969 Q536.6563,63.75 535.3594,63.75 Q533.8438,63.75 532.6406,63.125 Q531.6563,62.625 530.9688,61.5625 Q530.2813,60.4844 530.2813,59.2031 L530.2813,58.0469 Q530.2813,56.7188 530.8906,55.5781 Q531.5156,54.4219 532.6094,53.8125 Q533.7031,53.1875 534.9375,53.1875 Q535.6719,53.1875 536.3125,53.3594 Q536.9688,53.5156 537.5156,53.875 Z " fill="#000000"/><text fill="#000000" font-family="sans-serif" font-size="14" lengthAdjust="spacing" textLength="38" x="555.25" y="63.7285">Game</text><line style="stroke:#181818;stroke-width:0.5;" x1="450" x2="666" y1="74" y2="74"/><rect fill="none" height="6" style="stroke:#C82930;stroke-width:1.0;" width="6" x="457" y="82"/><text fill="#000000" font-family="sans-serif" font-size="14" lengthAdjust="spacing" textLength="192" x="469" y="92.5332">ArrayList&lt;Player&gt; playerOrder</text><line style="stroke:#181818;stroke-width:0.5;" x1="450" x2="666" y1="99.6094" y2="99.6094"/><ellipse cx="460" cy="110.6094" fill="#84BE84" rx="3" ry="3" style="stroke:#038048;stroke-width:1.0;"/><text fill="#000000" font-family="sans-serif" font-size="14" lengthAdjust="spacing" textLength="135" x="469" y="118.1426">«constructor»Game()</text><ellipse cx="460" cy="128.2188" fill="#84BE84" rx="3" ry="3" style="stroke:#038048;stroke-width:1.0;"/><text fill="#000000" font-family="sans-serif" font-size="14" lengthAdjust="spacing" textLength="77" x="469" y="135.752">void round()</text><ellipse cx="460" cy="145.8281" fill="#84BE84" rx="3" ry="3" style="stroke:#038048;stroke-width:1.0;"/><text fill="#000000" font-family="sans-serif" font-size="14" lengthAdjust="spacing" textLength="104" x="469" y="153.3613">void addPlayer()</text></g><!--MD5=[9563755d011c5cec7ec66dc53565a59e]
class Board--><g id="elem_Board"><rect codeLine="27" fill="#F1F1F1" height="100.8281" id="Board" rx="3.5" ry="3.5" style="stroke:#181818;stroke-width:0.5;" width="287" x="127.5" y="220"/><ellipse cx="247.75" cy="236" fill="#A9DCDF" rx="11" ry="11" style="stroke:#181818;stroke-width:1.0;"/><path d="M249.9375,237.7656 L245.7969,237.7656 L245.375,238.7969 L245.7969,238.7969 Q246.4063,238.7969 246.6719,239.0313 Q246.9375,239.2656 246.9375,239.6563 Q246.9375,240.0313 246.6719,240.2656 Q246.4063,240.5 245.7969,240.5 L243.5,240.5 Q242.8906,240.5 242.6406,240.2656 Q242.375,240.0313 242.375,239.6406 Q242.375,239.2656 242.6563,239.0313 Q242.9219,238.7813 243.5469,238.7969 L246.2188,232.1406 L245.1094,232.1406 Q244.5,232.1406 244.2344,231.9063 Q243.9688,231.6719 243.9688,231.2813 Q243.9688,230.9063 244.2344,230.6719 Q244.5,230.4375 245.1094,230.4375 L248.7813,230.4375 L252.1719,238.7969 Q252.7656,238.7969 252.9531,238.9375 Q253.3438,239.2031 253.3438,239.6563 Q253.3438,240.0313 253.0781,240.2656 Q252.8281,240.5 252.2188,240.5 L249.9219,240.5 Q249.3125,240.5 249.0469,240.2656 Q248.7813,240.0313 248.7813,239.6406 Q248.7813,239.2656 249.0469,239.0313 Q249.3125,238.7969 249.9219,238.7969 L250.3438,238.7969 L249.9375,237.7656 Z M249.2188,236.0625 L247.8594,232.6875 L246.4844,236.0625 L249.2188,236.0625 Z " fill="#000000"/><text fill="#000000" font-family="sans-serif" font-size="14" font-style="italic" lengthAdjust="spacing" textLength="38" x="268.25" y="241.7285">Board</text><line style="stroke:#181818;stroke-width:0.5;" x1="128.5" x2="413.5" y1="252" y2="252"/><polygon fill="none" points="138.5,259,134.5,265,142.5,265" style="stroke:#1963A0;stroke-width:1.0;"/><text fill="#000000" font-family="sans-serif" font-size="14" lengthAdjust="spacing" textLength="32" x="147.5" y="270.5332">int ID</text><line style="stroke:#181818;stroke-width:0.5;" x1="128.5" x2="413.5" y1="277.6094" y2="277.6094"/><ellipse cx="138.5" cy="288.6094" fill="#84BE84" rx="3" ry="3" style="stroke:#038048;stroke-width:1.0;"/><text fill="#000000" font-family="sans-serif" font-size="14" lengthAdjust="spacing" textLength="261" x="147.5" y="296.1426">ArrayList&lt;Student&gt; getStudentOnBoard()</text><ellipse cx="138.5" cy="306.2188" fill="#84BE84" rx="3" ry="3" style="stroke:#038048;stroke-width:1.0;"/><text fill="#000000" font-family="sans-serif" font-size="14" lengthAdjust="spacing" textLength="62" x="147.5" y="313.752">int getID()</text></g><!--MD5=[af29ca247b3a3642f0fb478cea99ef78]
class Pawn--><g id="elem_Pawn"><rect codeLine="33" fill="#F1F1F1" height="83.2188" id="Pawn" rx="3.5" ry="3.5" style="stroke:#181818;stroke-width:0.5;" width="148" x="484" y="229"/><ellipse cx="536.75" cy="245" fill="#A9DCDF" rx="11" ry="11" style="stroke:#181818;stroke-width:1.0;"/><path d="M538.9375,246.7656 L534.7969,246.7656 L534.375,247.7969 L534.7969,247.7969 Q535.4063,247.7969 535.6719,248.0313 Q535.9375,248.2656 535.9375,248.6563 Q535.9375,249.0313 535.6719,249.2656 Q535.4063,249.5 534.7969,249.5 L532.5,249.5 Q531.8906,249.5 531.6406,249.2656 Q531.375,249.0313 531.375,248.6406 Q531.375,248.2656 531.6563,248.0313 Q531.9219,247.7813 532.5469,247.7969 L535.2188,241.1406 L534.1094,241.1406 Q533.5,241.1406 533.2344,240.9063 Q532.9688,240.6719 532.9688,240.2813 Q532.9688,239.9063 533.2344,239.6719 Q533.5,239.4375 534.1094,239.4375 L537.7813,239.4375 L541.1719,247.7969 Q541.7656,247.7969 541.9531,247.9375 Q542.3438,248.2031 542.3438,248.6563 Q542.3438,249.0313 542.0781,249.2656 Q541.8281,249.5 541.2188,249.5 L538.9219,249.5 Q538.3125,249.5 538.0469,249.2656 Q537.7813,249.0313 537.7813,248.6406 Q537.7813,248.2656 538.0469,248.0313 Q538.3125,247.7969 538.9219,247.7969 L539.3438,247.7969 L538.9375,246.7656 Z M538.2188,245.0625 L536.8594,241.6875 L535.4844,245.0625 L538.2188,245.0625 Z " fill="#000000"/><text fill="#000000" font-family="sans-serif" font-size="14" font-style="italic" lengthAdjust="spacing" textLength="34" x="557.25" y="250.7285">Pawn</text><line style="stroke:#181818;stroke-width:0.5;" x1="485" x2="631" y1="261" y2="261"/><rect fill="none" height="6" style="stroke:#C82930;stroke-width:1.0;" width="6" x="492" y="269"/><text fill="#000000" font-family="sans-serif" font-size="14" lengthAdjust="spacing" textLength="91" x="504" y="279.5332">Board position</text><line style="stroke:#181818;stroke-width:0.5;" x1="485" x2="631" y1="286.6094" y2="286.6094"/><ellipse cx="495" cy="297.6094" fill="#84BE84" rx="3" ry="3" style="stroke:#038048;stroke-width:1.0;"/><text fill="#000000" font-family="sans-serif" font-size="14" lengthAdjust="spacing" textLength="122" x="504" y="305.1426">Board getPosition()</text></g><!--MD5=[5e305716458bbdabbd2d7f572ed2bae2]
class Card--><g id="elem_Card"><rect codeLine="38" fill="#F1F1F1" height="48" id="Card" rx="3.5" ry="3.5" style="stroke:#181818;stroke-width:0.5;" width="63" x="984.5" y="568"/><ellipse cx="999.5" cy="584" fill="#A9DCDF" rx="11" ry="11" style="stroke:#181818;stroke-width:1.0;"/><path d="M1001.6875,585.7656 L997.5469,585.7656 L997.125,586.7969 L997.5469,586.7969 Q998.1563,586.7969 998.4219,587.0313 Q998.6875,587.2656 998.6875,587.6563 Q998.6875,588.0313 998.4219,588.2656 Q998.1563,588.5 997.5469,588.5 L995.25,588.5 Q994.6406,588.5 994.3906,588.2656 Q994.125,588.0313 994.125,587.6406 Q994.125,587.2656 994.4063,587.0313 Q994.6719,586.7813 995.2969,586.7969 L997.9688,580.1406 L996.8594,580.1406 Q996.25,580.1406 995.9844,579.9063 Q995.7188,579.6719 995.7188,579.2813 Q995.7188,578.9063 995.9844,578.6719 Q996.25,578.4375 996.8594,578.4375 L1000.5313,578.4375 L1003.9219,586.7969 Q1004.5156,586.7969 1004.7031,586.9375 Q1005.0938,587.2031 1005.0938,587.6563 Q1005.0938,588.0313 1004.8281,588.2656 Q1004.5781,588.5 1003.9688,588.5 L1001.6719,588.5 Q1001.0625,588.5 1000.7969,588.2656 Q1000.5313,588.0313 1000.5313,587.6406 Q1000.5313,587.2656 1000.7969,587.0313 Q1001.0625,586.7969 1001.6719,586.7969 L1002.0938,586.7969 L1001.6875,585.7656 Z M1000.9688,584.0625 L999.6094,580.6875 L998.2344,584.0625 L1000.9688,584.0625 Z " fill="#000000"/><text fill="#000000" font-family="sans-serif" font-size="14" font-style="italic" lengthAdjust="spacing" textLength="31" x="1013.5" y="589.7285">Card</text><line style="stroke:#181818;stroke-width:0.5;" x1="985.5" x2="1046.5" y1="600" y2="600"/><line style="stroke:#181818;stroke-width:0.5;" x1="985.5" x2="1046.5" y1="608" y2="608"/></g><!--MD5=[2cb47ba637a0d19583e6199456f6ad0b]
class Player--><g id="elem_Player"><rect codeLine="40" fill="#F1F1F1" height="100.8281" id="Player" rx="3.5" ry="3.5" style="stroke:#181818;stroke-width:0.5;" width="264" x="755" y="220"/><ellipse cx="862.75" cy="236" fill="#ADD1B2" rx="11" ry="11" style="stroke:#181818;stroke-width:1.0;"/><path d="M865.5156,231.875 Q865.6719,231.6563 865.8594,231.5469 Q866.0469,231.4375 866.2656,231.4375 Q866.6406,231.4375 866.875,231.7031 Q867.1094,231.9531 867.1094,232.5625 L867.1094,234.0156 Q867.1094,234.625 866.875,234.8906 Q866.6406,235.1563 866.2656,235.1563 Q865.9219,235.1563 865.7188,234.9531 Q865.5156,234.7656 865.4063,234.25 Q865.3594,233.8906 865.1719,233.7031 Q864.8438,233.3281 864.2344,233.1094 Q863.625,232.8906 863,232.8906 Q862.2344,232.8906 861.5938,233.2188 Q860.9688,233.5469 860.4688,234.2969 Q859.9844,235.0469 859.9844,236.0781 L859.9844,237.1719 Q859.9844,238.4063 860.875,239.2344 Q861.7656,240.0469 863.3594,240.0469 Q864.2969,240.0469 864.9531,239.7969 Q865.3438,239.6406 865.7656,239.2031 Q866.0313,238.9375 866.1719,238.8594 Q866.3281,238.7813 866.5313,238.7813 Q866.8594,238.7813 867.1094,239.0469 Q867.375,239.2969 867.375,239.6406 Q867.375,239.9844 867.0313,240.3906 Q866.5313,240.9688 865.7344,241.2969 Q864.6563,241.75 863.3594,241.75 Q861.8438,241.75 860.6406,241.125 Q859.6563,240.625 858.9688,239.5625 Q858.2813,238.4844 858.2813,237.2031 L858.2813,236.0469 Q858.2813,234.7188 858.8906,233.5781 Q859.5156,232.4219 860.6094,231.8125 Q861.7031,231.1875 862.9375,231.1875 Q863.6719,231.1875 864.3125,231.3594 Q864.9688,231.5156 865.5156,231.875 Z " fill="#000000"/><text fill="#000000" font-family="sans-serif" font-size="14" lengthAdjust="spacing" textLength="40" x="883.25" y="241.7285">Player</text><line style="stroke:#181818;stroke-width:0.5;" x1="756" x2="1018" y1="252" y2="252"/><rect fill="none" height="6" style="stroke:#C82930;stroke-width:1.0;" width="6" x="763" y="260"/><text fill="#000000" font-family="sans-serif" font-size="14" lengthAdjust="spacing" textLength="101" x="775" y="270.5332">String nickname</text><line style="stroke:#181818;stroke-width:0.5;" x1="756" x2="1018" y1="277.6094" y2="277.6094"/><ellipse cx="766" cy="288.6094" fill="#84BE84" rx="3" ry="3" style="stroke:#038048;stroke-width:1.0;"/><text fill="#000000" font-family="sans-serif" font-size="14" lengthAdjust="spacing" textLength="238" x="775" y="296.1426">«constructor»Player(String nickname)</text><ellipse cx="766" cy="306.2188" fill="#84BE84" rx="3" ry="3" style="stroke:#038048;stroke-width:1.0;"/><text fill="#000000" font-family="sans-serif" font-size="14" lengthAdjust="spacing" textLength="132" x="775" y="313.752">String getNickname()</text></g><!--MD5=[05ce2a234461a7e613a06d388968c06d]
class Island--><g id="elem_Island"><rect codeLine="46" fill="#F1F1F1" height="48" id="Island" rx="3.5" ry="3.5" style="stroke:#181818;stroke-width:0.5;" width="69" x="22.5" y="398.5"/><ellipse cx="37.5" cy="414.5" fill="#ADD1B2" rx="11" ry="11" style="stroke:#181818;stroke-width:1.0;"/><path d="M40.2656,410.375 Q40.4219,410.1563 40.6094,410.0469 Q40.7969,409.9375 41.0156,409.9375 Q41.3906,409.9375 41.625,410.2031 Q41.8594,410.4531 41.8594,411.0625 L41.8594,412.5156 Q41.8594,413.125 41.625,413.3906 Q41.3906,413.6563 41.0156,413.6563 Q40.6719,413.6563 40.4688,413.4531 Q40.2656,413.2656 40.1563,412.75 Q40.1094,412.3906 39.9219,412.2031 Q39.5938,411.8281 38.9844,411.6094 Q38.375,411.3906 37.75,411.3906 Q36.9844,411.3906 36.3438,411.7188 Q35.7188,412.0469 35.2188,412.7969 Q34.7344,413.5469 34.7344,414.5781 L34.7344,415.6719 Q34.7344,416.9063 35.625,417.7344 Q36.5156,418.5469 38.1094,418.5469 Q39.0469,418.5469 39.7031,418.2969 Q40.0938,418.1406 40.5156,417.7031 Q40.7813,417.4375 40.9219,417.3594 Q41.0781,417.2813 41.2813,417.2813 Q41.6094,417.2813 41.8594,417.5469 Q42.125,417.7969 42.125,418.1406 Q42.125,418.4844 41.7813,418.8906 Q41.2813,419.4688 40.4844,419.7969 Q39.4063,420.25 38.1094,420.25 Q36.5938,420.25 35.3906,419.625 Q34.4063,419.125 33.7188,418.0625 Q33.0313,416.9844 33.0313,415.7031 L33.0313,414.5469 Q33.0313,413.2188 33.6406,412.0781 Q34.2656,410.9219 35.3594,410.3125 Q36.4531,409.6875 37.6875,409.6875 Q38.4219,409.6875 39.0625,409.8594 Q39.7188,410.0156 40.2656,410.375 Z " fill="#000000"/><text fill="#000000" font-family="sans-serif" font-size="14" lengthAdjust="spacing" textLength="37" x="51.5" y="420.2285">Island</text><line style="stroke:#181818;stroke-width:0.5;" x1="23.5" x2="90.5" y1="430.5" y2="430.5"/><line style="stroke:#181818;stroke-width:0.5;" x1="23.5" x2="90.5" y1="438.5" y2="438.5"/></g><!--MD5=[10a9fff9df9a76a22f65fd5d58adb785]
class School--><g id="elem_School"><rect codeLine="50" fill="#F1F1F1" height="48" id="School" rx="3.5" ry="3.5" style="stroke:#181818;stroke-width:0.5;" width="75" x="126.5" y="398.5"/><ellipse cx="141.5" cy="414.5" fill="#ADD1B2" rx="11" ry="11" style="stroke:#181818;stroke-width:1.0;"/><path d="M144.2656,410.375 Q144.4219,410.1563 144.6094,410.0469 Q144.7969,409.9375 145.0156,409.9375 Q145.3906,409.9375 145.625,410.2031 Q145.8594,410.4531 145.8594,411.0625 L145.8594,412.5156 Q145.8594,413.125 145.625,413.3906 Q145.3906,413.6563 145.0156,413.6563 Q144.6719,413.6563 144.4688,413.4531 Q144.2656,413.2656 144.1563,412.75 Q144.1094,412.3906 143.9219,412.2031 Q143.5938,411.8281 142.9844,411.6094 Q142.375,411.3906 141.75,411.3906 Q140.9844,411.3906 140.3438,411.7188 Q139.7188,412.0469 139.2188,412.7969 Q138.7344,413.5469 138.7344,414.5781 L138.7344,415.6719 Q138.7344,416.9063 139.625,417.7344 Q140.5156,418.5469 142.1094,418.5469 Q143.0469,418.5469 143.7031,418.2969 Q144.0938,418.1406 144.5156,417.7031 Q144.7813,417.4375 144.9219,417.3594 Q145.0781,417.2813 145.2813,417.2813 Q145.6094,417.2813 145.8594,417.5469 Q146.125,417.7969 146.125,418.1406 Q146.125,418.4844 145.7813,418.8906 Q145.2813,419.4688 144.4844,419.7969 Q143.4063,420.25 142.1094,420.25 Q140.5938,420.25 139.3906,419.625 Q138.4063,419.125 137.7188,418.0625 Q137.0313,416.9844 137.0313,415.7031 L137.0313,414.5469 Q137.0313,413.2188 137.6406,412.0781 Q138.2656,410.9219 139.3594,410.3125 Q140.4531,409.6875 141.6875,409.6875 Q142.4219,409.6875 143.0625,409.8594 Q143.7188,410.0156 144.2656,410.375 Z " fill="#000000"/><text fill="#000000" font-family="sans-serif" font-size="14" lengthAdjust="spacing" textLength="43" x="155.5" y="420.2285">School</text><line style="stroke:#181818;stroke-width:0.5;" x1="127.5" x2="200.5" y1="430.5" y2="430.5"/><line style="stroke:#181818;stroke-width:0.5;" x1="127.5" x2="200.5" y1="438.5" y2="438.5"/></g><!--MD5=[a18b01c4419d38931cdb2da3f79e5451]
class Cloud--><g id="elem_Cloud"><rect codeLine="54" fill="#F1F1F1" height="48" id="Cloud" rx="3.5" ry="3.5" style="stroke:#181818;stroke-width:0.5;" width="69" x="236.5" y="398.5"/><ellipse cx="251.5" cy="414.5" fill="#ADD1B2" rx="11" ry="11" style="stroke:#181818;stroke-width:1.0;"/><path d="M254.2656,410.375 Q254.4219,410.1563 254.6094,410.0469 Q254.7969,409.9375 255.0156,409.9375 Q255.3906,409.9375 255.625,410.2031 Q255.8594,410.4531 255.8594,411.0625 L255.8594,412.5156 Q255.8594,413.125 255.625,413.3906 Q255.3906,413.6563 255.0156,413.6563 Q254.6719,413.6563 254.4688,413.4531 Q254.2656,413.2656 254.1563,412.75 Q254.1094,412.3906 253.9219,412.2031 Q253.5938,411.8281 252.9844,411.6094 Q252.375,411.3906 251.75,411.3906 Q250.9844,411.3906 250.3438,411.7188 Q249.7188,412.0469 249.2188,412.7969 Q248.7344,413.5469 248.7344,414.5781 L248.7344,415.6719 Q248.7344,416.9063 249.625,417.7344 Q250.5156,418.5469 252.1094,418.5469 Q253.0469,418.5469 253.7031,418.2969 Q254.0938,418.1406 254.5156,417.7031 Q254.7813,417.4375 254.9219,417.3594 Q255.0781,417.2813 255.2813,417.2813 Q255.6094,417.2813 255.8594,417.5469 Q256.125,417.7969 256.125,418.1406 Q256.125,418.4844 255.7813,418.8906 Q255.2813,419.4688 254.4844,419.7969 Q253.4063,420.25 252.1094,420.25 Q250.5938,420.25 249.3906,419.625 Q248.4063,419.125 247.7188,418.0625 Q247.0313,416.9844 247.0313,415.7031 L247.0313,414.5469 Q247.0313,413.2188 247.6406,412.0781 Q248.2656,410.9219 249.3594,410.3125 Q250.4531,409.6875 251.6875,409.6875 Q252.4219,409.6875 253.0625,409.8594 Q253.7188,410.0156 254.2656,410.375 Z " fill="#000000"/><text fill="#000000" font-family="sans-serif" font-size="14" lengthAdjust="spacing" textLength="37" x="265.5" y="420.2285">Cloud</text><line style="stroke:#181818;stroke-width:0.5;" x1="237.5" x2="304.5" y1="430.5" y2="430.5"/><line style="stroke:#181818;stroke-width:0.5;" x1="237.5" x2="304.5" y1="438.5" y2="438.5"/></g><!--MD5=[21bc47177812100412265a444b535d59]
class Professor--><g id="elem_Professor"><rect codeLine="58" fill="#F1F1F1" height="65.6094" id="Professor" rx="3.5" ry="3.5" style="stroke:#181818;stroke-width:0.5;" width="95" x="640.5" y="389.5"/><ellipse cx="656.4" cy="405.5" fill="#ADD1B2" rx="11" ry="11" style="stroke:#181818;stroke-width:1.0;"/><path d="M659.1656,401.375 Q659.3219,401.1563 659.5094,401.0469 Q659.6969,400.9375 659.9156,400.9375 Q660.2906,400.9375 660.525,401.2031 Q660.7594,401.4531 660.7594,402.0625 L660.7594,403.5156 Q660.7594,404.125 660.525,404.3906 Q660.2906,404.6563 659.9156,404.6563 Q659.5719,404.6563 659.3688,404.4531 Q659.1656,404.2656 659.0563,403.75 Q659.0094,403.3906 658.8219,403.2031 Q658.4938,402.8281 657.8844,402.6094 Q657.275,402.3906 656.65,402.3906 Q655.8844,402.3906 655.2438,402.7188 Q654.6188,403.0469 654.1188,403.7969 Q653.6344,404.5469 653.6344,405.5781 L653.6344,406.6719 Q653.6344,407.9063 654.525,408.7344 Q655.4156,409.5469 657.0094,409.5469 Q657.9469,409.5469 658.6031,409.2969 Q658.9938,409.1406 659.4156,408.7031 Q659.6813,408.4375 659.8219,408.3594 Q659.9781,408.2813 660.1813,408.2813 Q660.5094,408.2813 660.7594,408.5469 Q661.025,408.7969 661.025,409.1406 Q661.025,409.4844 660.6813,409.8906 Q660.1813,410.4688 659.3844,410.7969 Q658.3063,411.25 657.0094,411.25 Q655.4938,411.25 654.2906,410.625 Q653.3063,410.125 652.6188,409.0625 Q651.9313,407.9844 651.9313,406.7031 L651.9313,405.5469 Q651.9313,404.2188 652.5406,403.0781 Q653.1656,401.9219 654.2594,401.3125 Q655.3531,400.6875 656.5875,400.6875 Q657.3219,400.6875 657.9625,400.8594 Q658.6188,401.0156 659.1656,401.375 Z " fill="#000000"/><text fill="#000000" font-family="sans-serif" font-size="14" lengthAdjust="spacing" textLength="61" x="670.6" y="411.2285">Professor</text><line style="stroke:#181818;stroke-width:0.5;" x1="641.5" x2="734.5" y1="421.5" y2="421.5"/><rect fill="none" height="6" style="stroke:#C82930;stroke-width:1.0;" width="6" x="648.5" y="429.5"/><text fill="#000000" font-family="sans-serif" font-size="14" lengthAdjust="spacing" textLength="69" x="660.5" y="440.0332">Color color</text><line style="stroke:#181818;stroke-width:0.5;" x1="641.5" x2="734.5" y1="447.1094" y2="447.1094"/></g><!--MD5=[d6181cb537bdc20c0a3007a98a56832d]
class Student--><g id="elem_Student"><rect codeLine="62" fill="#F1F1F1" height="65.6094" id="Student" rx="3.5" ry="3.5" style="stroke:#181818;stroke-width:0.5;" width="95" x="510.5" y="389.5"/><ellipse cx="531.8" cy="405.5" fill="#ADD1B2" rx="11" ry="11" style="stroke:#181818;stroke-width:1.0;"/><path d="M534.5656,401.375 Q534.7219,401.1563 534.9094,401.0469 Q535.0969,400.9375 535.3156,400.9375 Q535.6906,400.9375 535.925,401.2031 Q536.1594,401.4531 536.1594,402.0625 L536.1594,403.5156 Q536.1594,404.125 535.925,404.3906 Q535.6906,404.6563 535.3156,404.6563 Q534.9719,404.6563 534.7688,404.4531 Q534.5656,404.2656 534.4563,403.75 Q534.4094,403.3906 534.2219,403.2031 Q533.8938,402.8281 533.2844,402.6094 Q532.675,402.3906 532.05,402.3906 Q531.2844,402.3906 530.6438,402.7188 Q530.0188,403.0469 529.5188,403.7969 Q529.0344,404.5469 529.0344,405.5781 L529.0344,406.6719 Q529.0344,407.9063 529.925,408.7344 Q530.8156,409.5469 532.4094,409.5469 Q533.3469,409.5469 534.0031,409.2969 Q534.3938,409.1406 534.8156,408.7031 Q535.0813,408.4375 535.2219,408.3594 Q535.3781,408.2813 535.5813,408.2813 Q535.9094,408.2813 536.1594,408.5469 Q536.425,408.7969 536.425,409.1406 Q536.425,409.4844 536.0813,409.8906 Q535.5813,410.4688 534.7844,410.7969 Q533.7063,411.25 532.4094,411.25 Q530.8938,411.25 529.6906,410.625 Q528.7063,410.125 528.0188,409.0625 Q527.3313,407.9844 527.3313,406.7031 L527.3313,405.5469 Q527.3313,404.2188 527.9406,403.0781 Q528.5656,401.9219 529.6594,401.3125 Q530.7531,400.6875 531.9875,400.6875 Q532.7219,400.6875 533.3625,400.8594 Q534.0188,401.0156 534.5656,401.375 Z " fill="#000000"/><text fill="#000000" font-family="sans-serif" font-size="14" lengthAdjust="spacing" textLength="49" x="547.2" y="411.2285">Student</text><line style="stroke:#181818;stroke-width:0.5;" x1="511.5" x2="604.5" y1="421.5" y2="421.5"/><rect fill="none" height="6" style="stroke:#C82930;stroke-width:1.0;" width="6" x="518.5" y="429.5"/><text fill="#000000" font-family="sans-serif" font-size="14" lengthAdjust="spacing" textLength="69" x="530.5" y="440.0332">Color color</text><line style="stroke:#181818;stroke-width:0.5;" x1="511.5" x2="604.5" y1="447.1094" y2="447.1094"/></g><!--MD5=[e6a0401af6286042726057f986c3e7c8]
class Tower--><g id="elem_Tower"><rect codeLine="66" fill="#F1F1F1" height="65.6094" id="Tower" rx="3.5" ry="3.5" style="stroke:#181818;stroke-width:0.5;" width="134" x="341" y="389.5"/><ellipse cx="384.35" cy="405.5" fill="#ADD1B2" rx="11" ry="11" style="stroke:#181818;stroke-width:1.0;"/><path d="M387.1156,401.375 Q387.2719,401.1563 387.4594,401.0469 Q387.6469,400.9375 387.8656,400.9375 Q388.2406,400.9375 388.475,401.2031 Q388.7094,401.4531 388.7094,402.0625 L388.7094,403.5156 Q388.7094,404.125 388.475,404.3906 Q388.2406,404.6563 387.8656,404.6563 Q387.5219,404.6563 387.3188,404.4531 Q387.1156,404.2656 387.0063,403.75 Q386.9594,403.3906 386.7719,403.2031 Q386.4438,402.8281 385.8344,402.6094 Q385.225,402.3906 384.6,402.3906 Q383.8344,402.3906 383.1938,402.7188 Q382.5688,403.0469 382.0688,403.7969 Q381.5844,404.5469 381.5844,405.5781 L381.5844,406.6719 Q381.5844,407.9063 382.475,408.7344 Q383.3656,409.5469 384.9594,409.5469 Q385.8969,409.5469 386.5531,409.2969 Q386.9438,409.1406 387.3656,408.7031 Q387.6313,408.4375 387.7719,408.3594 Q387.9281,408.2813 388.1313,408.2813 Q388.4594,408.2813 388.7094,408.5469 Q388.975,408.7969 388.975,409.1406 Q388.975,409.4844 388.6313,409.8906 Q388.1313,410.4688 387.3344,410.7969 Q386.2563,411.25 384.9594,411.25 Q383.4438,411.25 382.2406,410.625 Q381.2563,410.125 380.5688,409.0625 Q379.8813,407.9844 379.8813,406.7031 L379.8813,405.5469 Q379.8813,404.2188 380.4906,403.0781 Q381.1156,401.9219 382.2094,401.3125 Q383.3031,400.6875 384.5375,400.6875 Q385.2719,400.6875 385.9125,400.8594 Q386.5688,401.0156 387.1156,401.375 Z " fill="#000000"/><text fill="#000000" font-family="sans-serif" font-size="14" lengthAdjust="spacing" textLength="39" x="404.65" y="411.2285">Tower</text><line style="stroke:#181818;stroke-width:0.5;" x1="342" x2="474" y1="421.5" y2="421.5"/><rect fill="none" height="6" style="stroke:#C82930;stroke-width:1.0;" width="6" x="349" y="429.5"/><text fill="#000000" font-family="sans-serif" font-size="14" lengthAdjust="spacing" textLength="108" x="361" y="440.0332">TowerColor color</text><line style="stroke:#181818;stroke-width:0.5;" x1="342" x2="474" y1="447.1094" y2="447.1094"/></g><!--MD5=[3ea2e56578276300f1408dbb43472621]
class MotherNature--><g id="elem_MotherNature"><rect codeLine="70" fill="#F1F1F1" height="48" id="MotherNature" rx="3.5" ry="3.5" style="stroke:#181818;stroke-width:0.5;" width="118" x="771" y="398.5"/><ellipse cx="786" cy="414.5" fill="#ADD1B2" rx="11" ry="11" style="stroke:#181818;stroke-width:1.0;"/><path d="M788.7656,410.375 Q788.9219,410.1563 789.1094,410.0469 Q789.2969,409.9375 789.5156,409.9375 Q789.8906,409.9375 790.125,410.2031 Q790.3594,410.4531 790.3594,411.0625 L790.3594,412.5156 Q790.3594,413.125 790.125,413.3906 Q789.8906,413.6563 789.5156,413.6563 Q789.1719,413.6563 788.9688,413.4531 Q788.7656,413.2656 788.6563,412.75 Q788.6094,412.3906 788.4219,412.2031 Q788.0938,411.8281 787.4844,411.6094 Q786.875,411.3906 786.25,411.3906 Q785.4844,411.3906 784.8438,411.7188 Q784.2188,412.0469 783.7188,412.7969 Q783.2344,413.5469 783.2344,414.5781 L783.2344,415.6719 Q783.2344,416.9063 784.125,417.7344 Q785.0156,418.5469 786.6094,418.5469 Q787.5469,418.5469 788.2031,418.2969 Q788.5938,418.1406 789.0156,417.7031 Q789.2813,417.4375 789.4219,417.3594 Q789.5781,417.2813 789.7813,417.2813 Q790.1094,417.2813 790.3594,417.5469 Q790.625,417.7969 790.625,418.1406 Q790.625,418.4844 790.2813,418.8906 Q789.7813,419.4688 788.9844,419.7969 Q787.9063,420.25 786.6094,420.25 Q785.0938,420.25 783.8906,419.625 Q782.9063,419.125 782.2188,418.0625 Q781.5313,416.9844 781.5313,415.7031 L781.5313,414.5469 Q781.5313,413.2188 782.1406,412.0781 Q782.7656,410.9219 783.8594,410.3125 Q784.9531,409.6875 786.1875,409.6875 Q786.9219,409.6875 787.5625,409.8594 Q788.2188,410.0156 788.7656,410.375 Z " fill="#000000"/><text fill="#000000" font-family="sans-serif" font-size="14" lengthAdjust="spacing" textLength="86" x="800" y="420.2285">MotherNature</text><line style="stroke:#181818;stroke-width:0.5;" x1="772" x2="888" y1="430.5" y2="430.5"/><line style="stroke:#181818;stroke-width:0.5;" x1="772" x2="888" y1="438.5" y2="438.5"/></g><!--MD5=[9153511ab415ec25fadc371cb52004ef]
class AssistantCard--><g id="elem_AssistantCard"><rect codeLine="72" fill="#F1F1F1" height="83.2188" id="AssistantCard" rx="3.5" ry="3.5" style="stroke:#181818;stroke-width:0.5;" width="120" x="972" y="720"/><ellipse cx="987" cy="736" fill="#ADD1B2" rx="11" ry="11" style="stroke:#181818;stroke-width:1.0;"/><path d="M989.7656,731.875 Q989.9219,731.6563 990.1094,731.5469 Q990.2969,731.4375 990.5156,731.4375 Q990.8906,731.4375 991.125,731.7031 Q991.3594,731.9531 991.3594,732.5625 L991.3594,734.0156 Q991.3594,734.625 991.125,734.8906 Q990.8906,735.1563 990.5156,735.1563 Q990.1719,735.1563 989.9688,734.9531 Q989.7656,734.7656 989.6563,734.25 Q989.6094,733.8906 989.4219,733.7031 Q989.0938,733.3281 988.4844,733.1094 Q987.875,732.8906 987.25,732.8906 Q986.4844,732.8906 985.8438,733.2188 Q985.2188,733.5469 984.7188,734.2969 Q984.2344,735.0469 984.2344,736.0781 L984.2344,737.1719 Q984.2344,738.4063 985.125,739.2344 Q986.0156,740.0469 987.6094,740.0469 Q988.5469,740.0469 989.2031,739.7969 Q989.5938,739.6406 990.0156,739.2031 Q990.2813,738.9375 990.4219,738.8594 Q990.5781,738.7813 990.7813,738.7813 Q991.1094,738.7813 991.3594,739.0469 Q991.625,739.2969 991.625,739.6406 Q991.625,739.9844 991.2813,740.3906 Q990.7813,740.9688 989.9844,741.2969 Q988.9063,741.75 987.6094,741.75 Q986.0938,741.75 984.8906,741.125 Q983.9063,740.625 983.2188,739.5625 Q982.5313,738.4844 982.5313,737.2031 L982.5313,736.0469 Q982.5313,734.7188 983.1406,733.5781 Q983.7656,732.4219 984.8594,731.8125 Q985.9531,731.1875 987.1875,731.1875 Q987.9219,731.1875 988.5625,731.3594 Q989.2188,731.5156 989.7656,731.875 Z " fill="#000000"/><text fill="#000000" font-family="sans-serif" font-size="14" lengthAdjust="spacing" textLength="88" x="1001" y="741.7285">AssistantCard</text><line style="stroke:#181818;stroke-width:0.5;" x1="973" x2="1091" y1="752" y2="752"/><rect fill="none" height="6" style="stroke:#C82930;stroke-width:1.0;" width="6" x="980" y="760"/><text fill="#000000" font-family="sans-serif" font-size="14" lengthAdjust="spacing" textLength="53" x="992" y="770.5332">int value</text><rect fill="none" height="6" style="stroke:#C82930;stroke-width:1.0;" width="6" x="980" y="777.6094"/><text fill="#000000" font-family="sans-serif" font-size="14" lengthAdjust="spacing" textLength="84" x="992" y="788.1426">int movement</text><line style="stroke:#181818;stroke-width:0.5;" x1="973" x2="1091" y1="795.2188" y2="795.2188"/></g><!--MD5=[4ea8e61345abb1b5d1b65d1adc4a63a0]
class CharacterCard--><g id="elem_CharacterCard"><rect codeLine="77" fill="#F1F1F1" height="65.6094" id="CharacterCard" rx="3.5" ry="3.5" style="stroke:#181818;stroke-width:0.5;" width="126" x="596" y="728.5"/><ellipse cx="611" cy="744.5" fill="#ADD1B2" rx="11" ry="11" style="stroke:#181818;stroke-width:1.0;"/><path d="M613.7656,740.375 Q613.9219,740.1563 614.1094,740.0469 Q614.2969,739.9375 614.5156,739.9375 Q614.8906,739.9375 615.125,740.2031 Q615.3594,740.4531 615.3594,741.0625 L615.3594,742.5156 Q615.3594,743.125 615.125,743.3906 Q614.8906,743.6563 614.5156,743.6563 Q614.1719,743.6563 613.9688,743.4531 Q613.7656,743.2656 613.6563,742.75 Q613.6094,742.3906 613.4219,742.2031 Q613.0938,741.8281 612.4844,741.6094 Q611.875,741.3906 611.25,741.3906 Q610.4844,741.3906 609.8438,741.7188 Q609.2188,742.0469 608.7188,742.7969 Q608.2344,743.5469 608.2344,744.5781 L608.2344,745.6719 Q608.2344,746.9063 609.125,747.7344 Q610.0156,748.5469 611.6094,748.5469 Q612.5469,748.5469 613.2031,748.2969 Q613.5938,748.1406 614.0156,747.7031 Q614.2813,747.4375 614.4219,747.3594 Q614.5781,747.2813 614.7813,747.2813 Q615.1094,747.2813 615.3594,747.5469 Q615.625,747.7969 615.625,748.1406 Q615.625,748.4844 615.2813,748.8906 Q614.7813,749.4688 613.9844,749.7969 Q612.9063,750.25 611.6094,750.25 Q610.0938,750.25 608.8906,749.625 Q607.9063,749.125 607.2188,748.0625 Q606.5313,746.9844 606.5313,745.7031 L606.5313,744.5469 Q606.5313,743.2188 607.1406,742.0781 Q607.7656,740.9219 608.8594,740.3125 Q609.9531,739.6875 611.1875,739.6875 Q611.9219,739.6875 612.5625,739.8594 Q613.2188,740.0156 613.7656,740.375 Z " fill="#000000"/><text fill="#000000" font-family="sans-serif" font-size="14" lengthAdjust="spacing" textLength="94" x="625" y="750.2285">CharacterCard</text><line style="stroke:#181818;stroke-width:0.5;" x1="597" x2="721" y1="760.5" y2="760.5"/><rect fill="none" height="6" style="stroke:#C82930;stroke-width:1.0;" width="6" x="604" y="768.5"/><text fill="#000000" font-family="sans-serif" font-size="14" lengthAdjust="spacing" textLength="69" x="616" y="779.0332">Color color</text><line style="stroke:#181818;stroke-width:0.5;" x1="597" x2="721" y1="786.1094" y2="786.1094"/></g><!--MD5=[30299a58ba6b78debaaed5ddbb42f29a]
class Deck--><g id="elem_Deck"><rect codeLine="81" fill="#F1F1F1" height="83.2188" id="Deck" rx="3.5" ry="3.5" style="stroke:#181818;stroke-width:0.5;" width="183" x="924.5" y="381"/><ellipse cx="995.75" cy="397" fill="#ADD1B2" rx="11" ry="11" style="stroke:#181818;stroke-width:1.0;"/><path d="M998.5156,392.875 Q998.6719,392.6563 998.8594,392.5469 Q999.0469,392.4375 999.2656,392.4375 Q999.6406,392.4375 999.875,392.7031 Q1000.1094,392.9531 1000.1094,393.5625 L1000.1094,395.0156 Q1000.1094,395.625 999.875,395.8906 Q999.6406,396.1563 999.2656,396.1563 Q998.9219,396.1563 998.7188,395.9531 Q998.5156,395.7656 998.4063,395.25 Q998.3594,394.8906 998.1719,394.7031 Q997.8438,394.3281 997.2344,394.1094 Q996.625,393.8906 996,393.8906 Q995.2344,393.8906 994.5938,394.2188 Q993.9688,394.5469 993.4688,395.2969 Q992.9844,396.0469 992.9844,397.0781 L992.9844,398.1719 Q992.9844,399.4063 993.875,400.2344 Q994.7656,401.0469 996.3594,401.0469 Q997.2969,401.0469 997.9531,400.7969 Q998.3438,400.6406 998.7656,400.2031 Q999.0313,399.9375 999.1719,399.8594 Q999.3281,399.7813 999.5313,399.7813 Q999.8594,399.7813 1000.1094,400.0469 Q1000.375,400.2969 1000.375,400.6406 Q1000.375,400.9844 1000.0313,401.3906 Q999.5313,401.9688 998.7344,402.2969 Q997.6563,402.75 996.3594,402.75 Q994.8438,402.75 993.6406,402.125 Q992.6563,401.625 991.9688,400.5625 Q991.2813,399.4844 991.2813,398.2031 L991.2813,397.0469 Q991.2813,395.7188 991.8906,394.5781 Q992.5156,393.4219 993.6094,392.8125 Q994.7031,392.1875 995.9375,392.1875 Q996.6719,392.1875 997.3125,392.3594 Q997.9688,392.5156 998.5156,392.875 Z " fill="#000000"/><text fill="#000000" font-family="sans-serif" font-size="14" lengthAdjust="spacing" textLength="32" x="1016.25" y="402.7285">Deck</text><line style="stroke:#181818;stroke-width:0.5;" x1="925.5" x2="1106.5" y1="413" y2="413"/><rect fill="none" height="6" style="stroke:#C82930;stroke-width:1.0;" width="6" x="932.5" y="421"/><text fill="#000000" font-family="sans-serif" font-size="14" lengthAdjust="spacing" textLength="157" x="944.5" y="431.5332">ArrayList&lt;Card&gt; cardList</text><line style="stroke:#181818;stroke-width:0.5;" x1="925.5" x2="1106.5" y1="438.6094" y2="438.6094"/><ellipse cx="935.5" cy="449.6094" fill="#84BE84" rx="3" ry="3" style="stroke:#038048;stroke-width:1.0;"/><text fill="#000000" font-family="sans-serif" font-size="14" lengthAdjust="spacing" textLength="118" x="944.5" y="457.1426">Card extractCard()</text></g><!--MD5=[1da8f80c0a6f875dfd1b47fac061377f]
class Coin--><g id="elem_Coin"><rect codeLine="86" fill="#F1F1F1" height="83.2188" id="Coin" rx="3.5" ry="3.5" style="stroke:#181818;stroke-width:0.5;" width="179" x="757.5" y="720"/><ellipse cx="828.25" cy="736" fill="#ADD1B2" rx="11" ry="11" style="stroke:#181818;stroke-width:1.0;"/><path d="M831.0156,731.875 Q831.1719,731.6563 831.3594,731.5469 Q831.5469,731.4375 831.7656,731.4375 Q832.1406,731.4375 832.375,731.7031 Q832.6094,731.9531 832.6094,732.5625 L832.6094,734.0156 Q832.6094,734.625 832.375,734.8906 Q832.1406,735.1563 831.7656,735.1563 Q831.4219,735.1563 831.2188,734.9531 Q831.0156,734.7656 830.9063,734.25 Q830.8594,733.8906 830.6719,733.7031 Q830.3438,733.3281 829.7344,733.1094 Q829.125,732.8906 828.5,732.8906 Q827.7344,732.8906 827.0938,733.2188 Q826.4688,733.5469 825.9688,734.2969 Q825.4844,735.0469 825.4844,736.0781 L825.4844,737.1719 Q825.4844,738.4063 826.375,739.2344 Q827.2656,740.0469 828.8594,740.0469 Q829.7969,740.0469 830.4531,739.7969 Q830.8438,739.6406 831.2656,739.2031 Q831.5313,738.9375 831.6719,738.8594 Q831.8281,738.7813 832.0313,738.7813 Q832.3594,738.7813 832.6094,739.0469 Q832.875,739.2969 832.875,739.6406 Q832.875,739.9844 832.5313,740.3906 Q832.0313,740.9688 831.2344,741.2969 Q830.1563,741.75 828.8594,741.75 Q827.3438,741.75 826.1406,741.125 Q825.1563,740.625 824.4688,739.5625 Q823.7813,738.4844 823.7813,737.2031 L823.7813,736.0469 Q823.7813,734.7188 824.3906,733.5781 Q825.0156,732.4219 826.1094,731.8125 Q827.2031,731.1875 828.4375,731.1875 Q829.1719,731.1875 829.8125,731.3594 Q830.4688,731.5156 831.0156,731.875 Z " fill="#000000"/><text fill="#000000" font-family="sans-serif" font-size="14" lengthAdjust="spacing" textLength="29" x="848.75" y="741.7285">Coin</text><line style="stroke:#181818;stroke-width:0.5;" x1="758.5" x2="935.5" y1="752" y2="752"/><rect fill="none" height="6" style="stroke:#C82930;stroke-width:1.0;" width="6" x="765.5" y="760"/><text fill="#000000" font-family="sans-serif" font-size="14" lengthAdjust="spacing" textLength="120" x="777.5" y="770.5332">AssistantCard card</text><line style="stroke:#181818;stroke-width:0.5;" x1="758.5" x2="935.5" y1="777.6094" y2="777.6094"/><ellipse cx="768.5" cy="788.6094" fill="#84BE84" rx="3" ry="3" style="stroke:#038048;stroke-width:1.0;"/><text fill="#000000" font-family="sans-serif" font-size="14" lengthAdjust="spacing" textLength="153" x="777.5" y="796.1426">AssistantCard getCard()</text></g><!--MD5=[aa5893810a147e5bdbd2270e945234e0]
class BlockTile--><g id="elem_BlockTile"><rect codeLine="91" fill="#F1F1F1" height="83.2188" id="BlockTile" rx="3.5" ry="3.5" style="stroke:#181818;stroke-width:0.5;" width="147" x="22.5" y="550.5"/><ellipse cx="63.6" cy="566.5" fill="#ADD1B2" rx="11" ry="11" style="stroke:#181818;stroke-width:1.0;"/><path d="M66.3656,562.375 Q66.5219,562.1563 66.7094,562.0469 Q66.8969,561.9375 67.1156,561.9375 Q67.4906,561.9375 67.725,562.2031 Q67.9594,562.4531 67.9594,563.0625 L67.9594,564.5156 Q67.9594,565.125 67.725,565.3906 Q67.4906,565.6563 67.1156,565.6563 Q66.7719,565.6563 66.5688,565.4531 Q66.3656,565.2656 66.2563,564.75 Q66.2094,564.3906 66.0219,564.2031 Q65.6938,563.8281 65.0844,563.6094 Q64.475,563.3906 63.85,563.3906 Q63.0844,563.3906 62.4438,563.7188 Q61.8188,564.0469 61.3188,564.7969 Q60.8344,565.5469 60.8344,566.5781 L60.8344,567.6719 Q60.8344,568.9063 61.725,569.7344 Q62.6156,570.5469 64.2094,570.5469 Q65.1469,570.5469 65.8031,570.2969 Q66.1938,570.1406 66.6156,569.7031 Q66.8813,569.4375 67.0219,569.3594 Q67.1781,569.2813 67.3813,569.2813 Q67.7094,569.2813 67.9594,569.5469 Q68.225,569.7969 68.225,570.1406 Q68.225,570.4844 67.8813,570.8906 Q67.3813,571.4688 66.5844,571.7969 Q65.5063,572.25 64.2094,572.25 Q62.6938,572.25 61.4906,571.625 Q60.5063,571.125 59.8188,570.0625 Q59.1313,568.9844 59.1313,567.7031 L59.1313,566.5469 Q59.1313,565.2188 59.7406,564.0781 Q60.3656,562.9219 61.4594,562.3125 Q62.5531,561.6875 63.7875,561.6875 Q64.5219,561.6875 65.1625,561.8594 Q65.8188,562.0156 66.3656,562.375 Z " fill="#000000"/><text fill="#000000" font-family="sans-serif" font-size="14" lengthAdjust="spacing" textLength="57" x="83.4" y="572.2285">BlockTile</text><line style="stroke:#181818;stroke-width:0.5;" x1="23.5" x2="168.5" y1="582.5" y2="582.5"/><rect fill="none" height="6" style="stroke:#C82930;stroke-width:1.0;" width="6" x="30.5" y="590.5"/><text fill="#000000" font-family="sans-serif" font-size="14" lengthAdjust="spacing" textLength="78" x="42.5" y="601.0332">Island island</text><line style="stroke:#181818;stroke-width:0.5;" x1="23.5" x2="168.5" y1="608.1094" y2="608.1094"/><ellipse cx="33.5" cy="619.1094" fill="#84BE84" rx="3" ry="3" style="stroke:#038048;stroke-width:1.0;"/><text fill="#000000" font-family="sans-serif" font-size="14" lengthAdjust="spacing" textLength="121" x="42.5" y="626.6426">Island getPosition()</text></g><!--MD5=[c505e7abed7eac600adb46cdf8a9bcad]
reverse link Island to BlockTile--><g id="link_Island_BlockTile"><path codeLine="96" d="M57,451.79 C57,451.79 57,550.41 57,550.41 " fill="none" id="Island-backto-BlockTile" style="stroke:#454645;stroke-width:1.0;"/><polygon fill="#454645" points="57,446.79,53,455.79,57,451.79,61,455.79,57,446.79" style="stroke:#454645;stroke-width:1.0;"/></g><!--MD5=[ecb523b99ee52cd5a2ceec301750661a]
link Coin to AssistantCard--><g id="link_Coin_AssistantCard"><path codeLine="97" d="M936.52,762 C936.52,762 966.88,762 966.88,762 " fill="none" id="Coin-to-AssistantCard" style="stroke:#454645;stroke-width:1.0;"/><polygon fill="#454645" points="971.88,762,962.88,758,966.88,762,962.88,766,971.88,762" style="stroke:#454645;stroke-width:1.0;"/></g><!--MD5=[ef3cd93b4b4594f3c81ac07d483b3904]
reverse link Card to AssistantCard--><g id="link_Card_AssistantCard"><path codeLine="99" d="M1016,636.29 C1016,636.29 1016,719.91 1016,719.91 " fill="none" id="Card-backto-AssistantCard" style="stroke:#454645;stroke-width:1.0;"/><polygon fill="none" points="1009,636.29,1016,616.29,1023,636.29,1009,636.29" style="stroke:#454645;stroke-width:1.0;"/></g><!--MD5=[291c5d578a16afa36f38ad0004fb93fc]
reverse link Card to CharacterCard--><g id="link_Card_CharacterCard"><path codeLine="100" d="M964.45,592 C964.45,592 690,592 690,592 C690,592 690,679.09 690,728.42 " fill="none" id="Card-backto-CharacterCard" style="stroke:#454645;stroke-width:1.0;"/><polygon fill="none" points="964.45,585,984.45,592,964.45,599,964.45,585" style="stroke:#454645;stroke-width:1.0;"/></g><!--MD5=[675c98fc2462cbf3e0a6a5ea82b07648]
reverse link Board to Island--><g id="link_Board_Island"><path codeLine="102" d="M107.37,271 C107.37,271 57,271 57,271 C57,271 57,355.78 57,398.49 " fill="none" id="Board-backto-Island" style="stroke:#454645;stroke-width:1.0;"/><polygon fill="none" points="107.37,264,127.37,271,107.37,278,107.37,264" style="stroke:#454645;stroke-width:1.0;"/></g><!--MD5=[be23cc1339613c23591eff570872c022]
reverse link Board to Cloud--><g id="link_Board_Cloud"><path codeLine="103" d="M271,341.11 C271,341.11 271,398.49 271,398.49 " fill="none" id="Board-backto-Cloud" style="stroke:#454645;stroke-width:1.0;"/><polygon fill="none" points="264,341.11,271,321.11,278,341.11,264,341.11" style="stroke:#454645;stroke-width:1.0;"/></g><!--MD5=[7f594aabb976cac6a4bd27a68b863784]
reverse link Board to School--><g id="link_Board_School"><path codeLine="104" d="M164.5,341.11 C164.5,341.11 164.5,398.49 164.5,398.49 " fill="none" id="Board-backto-School" style="stroke:#454645;stroke-width:1.0;"/><polygon fill="none" points="157.5,341.11,164.5,321.11,171.5,341.11,157.5,341.11" style="stroke:#454645;stroke-width:1.0;"/></g><!--MD5=[1031735363d49c9f2ac3483128640f78]
reverse link Board to Pawn--><g id="link_Board_Pawn"><path codeLine="105" d="M419.92,271 C419.92,271 483.97,271 483.97,271 " fill="none" id="Board-backto-Pawn" style="stroke:#454645;stroke-width:1.0;"/><polygon fill="#454645" points="414.92,271,423.92,275,419.92,271,423.92,267,414.92,271" style="stroke:#454645;stroke-width:1.0;"/></g><!--MD5=[762b1bad54bda995845750ecd7df4c7a]
reverse link Pawn to Professor--><g id="link_Pawn_Professor"><path codeLine="107" d="M618.75,332.17 C618.75,332.17 618.75,423 618.75,423 C618.75,423 628.29,423 640.28,423 " fill="none" id="Pawn-backto-Professor" style="stroke:#454645;stroke-width:1.0;"/><polygon fill="none" points="611.75,332.17,618.75,312.17,625.75,332.17,611.75,332.17" style="stroke:#454645;stroke-width:1.0;"/></g><!--MD5=[4cbe029bfd09fd7227938a05c4ca9bf5]
reverse link Pawn to Student--><g id="link_Pawn_Student"><path codeLine="108" d="M558,332.03 C558,332.03 558,389.19 558,389.19 " fill="none" id="Pawn-backto-Student" style="stroke:#454645;stroke-width:1.0;"/><polygon fill="none" points="551,332.03,558,312.03,565,332.03,551,332.03" style="stroke:#454645;stroke-width:1.0;"/></g><!--MD5=[99a87e5119cbbe499307809beb818dac]
reverse link Pawn to Tower--><g id="link_Pawn_Tower"><path codeLine="109" d="M497.25,332.17 C497.25,332.17 497.25,423 497.25,423 C497.25,423 487.87,423 475.19,423 " fill="none" id="Pawn-backto-Tower" style="stroke:#454645;stroke-width:1.0;"/><polygon fill="none" points="490.25,332.17,497.25,312.17,504.25,332.17,490.25,332.17" style="stroke:#454645;stroke-width:1.0;"/></g><!--MD5=[28e1341c03a648a0732569ca8dce5ec4]
reverse link Pawn to MotherNature--><g id="link_Pawn_MotherNature"><path codeLine="110" d="M652.01,271 C652.01,271 745.25,271 745.25,271 C745.25,271 745.25,423 745.25,423 C745.25,423 756.43,423 770.68,423 " fill="none" id="Pawn-backto-MotherNature" style="stroke:#454645;stroke-width:1.0;"/><polygon fill="none" points="652.01,278,632.01,271,652.01,264,652.01,278" style="stroke:#454645;stroke-width:1.0;"/></g><!--MD5=[5cf861f56d83ae4345dbc2180ae8b1d0]
reverse link Deck to Card--><g id="link_Deck_Card"><path codeLine="112" d="M1016,477.4 C1016,477.4 1016,567.84 1016,567.84 " fill="none" id="Deck-backto-Card" style="stroke:#454645;stroke-width:1.0;"/><polygon fill="#454645" points="1016,464.4,1012,470.4,1016,476.4,1020,470.4,1016,464.4" style="stroke:#454645;stroke-width:1.0;"/></g><!--MD5=[8d9472248db2c295e563e60b72e74922]
link Player to Deck--><g id="link_Player_Deck"><path codeLine="113" d="M971.75,321.11 C971.75,321.11 971.75,375.71 971.75,375.71 " fill="none" id="Player-to-Deck" style="stroke:#454645;stroke-width:1.0;"/><polygon fill="#454645" points="971.75,380.71,975.75,371.71,971.75,375.71,967.75,371.71,971.75,380.71" style="stroke:#454645;stroke-width:1.0;"/></g><!--MD5=[6b6b9e8ceff4e9e58f06e15491e15318]
link Game to Player--><g id="link_Game_Player"><path codeLine="115" d="M653.75,160.21 C653.75,191.3 653.75,223 653.75,223 C653.75,223 749.7,223 749.7,223 " fill="none" id="Game-to-Player" style="stroke:#454645;stroke-width:1.0;"/><polygon fill="#454645" points="754.7,223,745.7,219,749.7,223,745.7,227,754.7,223" style="stroke:#454645;stroke-width:1.0;"/></g><!--MD5=[15c8f9ca3aac13d865864b4eb5314ef1]
link Game to Board--><g id="link_Game_Board"><path codeLine="116" d="M462,160.21 C462,192.51 462,226 462,226 C462,226 419.79,226 419.79,226 " fill="none" id="Game-to-Board" style="stroke:#454645;stroke-width:1.0;"/><polygon fill="#454645" points="414.79,226,423.79,230,419.79,226,423.79,222,414.79,226" style="stroke:#454645;stroke-width:1.0;"/></g><!--MD5=[d8b339cd4d972907013b901513a5cdef]
link Game to Pawn--><g id="link_Game_Pawn"><path codeLine="117" d="M558,160.28 C558,160.28 558,223.85 558,223.85 " fill="none" id="Game-to-Pawn" style="stroke:#454645;stroke-width:1.0;"/><polygon fill="#454645" points="558,228.85,562,219.85,558,223.85,554,219.85,558,228.85" style="stroke:#454645;stroke-width:1.0;"/></g><!--MD5=[c4de8f0a3fa2c66573592a8c04806d52]
link Professor to Color--><g id="link_Professor_Color"><path codeLine="119" d="M649.25,455.58 C649.25,455.58 649.25,518.93 649.25,518.93 " fill="none" id="Professor-to-Color" style="stroke:#454645;stroke-width:1.0;stroke-dasharray:7.0,7.0;"/><polygon fill="#454645" points="649.25,523.93,653.25,514.93,649.25,518.93,645.25,514.93,649.25,523.93" style="stroke:#454645;stroke-width:1.0;"/></g><!--MD5=[1daab493f86e124074863c7d996548e1]
link Student to Color--><g id="link_Student_Color"><path codeLine="120" d="M596.75,455.58 C596.75,455.58 596.75,518.93 596.75,518.93 " fill="none" id="Student-to-Color" style="stroke:#454645;stroke-width:1.0;stroke-dasharray:7.0,7.0;"/><polygon fill="#454645" points="596.75,523.93,600.75,514.93,596.75,518.93,592.75,514.93,596.75,523.93" style="stroke:#454645;stroke-width:1.0;"/></g><!--MD5=[bb2987cb63935726317af892abb93c33]
link Tower to TowerColor--><g id="link_Tower_TowerColor"><path codeLine="122" d="M408,455.58 C408,455.58 408,536.3 408,536.3 " fill="none" id="Tower-to-TowerColor" style="stroke:#454645;stroke-width:1.0;stroke-dasharray:7.0,7.0;"/><polygon fill="#454645" points="408,541.3,412.0257,532.3115,408.0143,536.3,404.0257,532.2886,408,541.3" style="stroke:#454645;stroke-width:1.0;"/></g><!--MD5=[284a99ef58c2ad0836c74634b2c8bb85]
@startuml ing_sw
!theme vibrant
skinparam Linetype polyline
skinparam Linetype ortho

package server <<Folder>> {
    enum Color {
        YELLOW
        BLUE
        GREEN
        RED
        PINK
    }

    enum TowerColor {
        WHITE
        GRAY
        BLACK
    }

    class Game {
        - ArrayList<Player> playerOrder
        + <<constructor>>Game()
        + void round()
        + void addPlayer()
    }

    abstract class Board {
        ~ int ID
        + ArrayList<Student> getStudentOnBoard()
        + int getID()
    }
    
    abstract class Pawn {
        - Board position
        + Board getPosition()
    }

    abstract class Card

    class Player {
        - String nickname
        + <<constructor>>Player(String nickname)
        + String getNickname()
    }

    class Island {
    
    }
    
    class School {
    
    }

    class Cloud {

    }

    class Professor {
        - Color color
    }

    class Student {
        - Color color
    }

    class Tower {
        - TowerColor color
    }

    class MotherNature

    class AssistantCard {
        - int value
        - int movement
    }

    class CharacterCard {
        - Color color
    }

    class Deck {
        - ArrayList<Card> cardList
        + Card extractCard()
    }

    class Coin {
        - AssistantCard card
        + AssistantCard getCard()
    }

    class BlockTile {
        - Island island
        + Island getPosition()
    }

    BlockTile -UP-> Island
    Coin -RIGHT-> AssistantCard

    Card <|-DOWN- AssistantCard
    Card <|- - CharacterCard

    Board <|-DOWN- Island
    Board <|-DOWN- Cloud
    Board <|-DOWN- School
    Board <-RIGHT- - Pawn

    Pawn <|- - Professor
    Pawn <|- - Student
    Pawn <|- - Tower
    Pawn <|- - MotherNature

    Deck *- - Card
    Deck <-UP- Player

    Game - -> Player
    Game - -> Board
    Game - -> Pawn
    
    Color <.UP. Professor
    Color <.UP. Student

    TowerColor <.UP. Tower
}

@enduml

@startuml ing_sw
skinparam BackgroundColor FFFFFF
skinparam shadowing false
skinparam RoundCorner 7
skinparam ArrowColor 454645
skinparam FontColor 454645
skinparam SequenceLifeLineBorderColor 696969
skinparam SequenceGroupHeaderFontColor 454645
skinparam SequenceGroupFontColor 696969
skinparam SequenceGroupBorderColor 696969
skinparam SequenceGroupBorderThickness 1

skinparam sequenceDivider {
    BorderColor 454645
    BorderThickness 1
    FontColor 454645
}

skinparam participant {
    BackgroundColor FF6347
    BorderColor 454645
    FontColor FFFFFF
    BorderThickness 1.5
}

skinparam database {
    BackgroundColor 00FFFF
    BorderColor 454645
    FontColor 454645
}

skinparam entity {
    BackgroundColor FFE552
    BorderColor 454645
    FontColor 454645
}

skinparam note {
    BackgroundColor 7FFFD4
    BorderColor 454645
    FontColor 454645
    BorderThickness 1.5
}

skinparam actor {
    BackgroundColor 454645
    BorderColor 454645
    FontColor 454645
}

skinparam boundary {
    BackgroundColor FFE552
    BorderColor 454645
    FontColor 454645
}

skinparam control {
    BackgroundColor FFE552
    BorderColor 454645
    FontColor 454645
}

skinparam collections {
    BackgroundColor FF5F42
    BorderColor 454645
    FontColor 454645
}

skinparam queue {
    BackgroundColor FF6347
    BorderColor 454645
    FontColor FFF
    BorderThickness 1.5
}
skinparam Linetype polyline
skinparam Linetype ortho

package server <<Folder>> {
    enum Color {
        YELLOW
        BLUE
        GREEN
        RED
        PINK
    }

    enum TowerColor {
        WHITE
        GRAY
        BLACK
    }

    class Game {
        - ArrayList<Player> playerOrder
        + <<constructor>>Game()
        + void round()
        + void addPlayer()
    }

    abstract class Board {
        ~ int ID
        + ArrayList<Student> getStudentOnBoard()
        + int getID()
    }
    
    abstract class Pawn {
        - Board position
        + Board getPosition()
    }

    abstract class Card

    class Player {
        - String nickname
        + <<constructor>>Player(String nickname)
        + String getNickname()
    }

    class Island {
    
    }
    
    class School {
    
    }

    class Cloud {

    }

    class Professor {
        - Color color
    }

    class Student {
        - Color color
    }

    class Tower {
        - TowerColor color
    }

    class MotherNature

    class AssistantCard {
        - int value
        - int movement
    }

    class CharacterCard {
        - Color color
    }

    class Deck {
        - ArrayList<Card> cardList
        + Card extractCard()
    }

    class Coin {
        - AssistantCard card
        + AssistantCard getCard()
    }

    class BlockTile {
        - Island island
        + Island getPosition()
    }

    BlockTile -UP-> Island
    Coin -RIGHT-> AssistantCard

    Card <|-DOWN- AssistantCard
    Card <|- - CharacterCard

    Board <|-DOWN- Island
    Board <|-DOWN- Cloud
    Board <|-DOWN- School
    Board <-RIGHT- - Pawn

    Pawn <|- - Professor
    Pawn <|- - Student
    Pawn <|- - Tower
    Pawn <|- - MotherNature

    Deck *- - Card
    Deck <-UP- Player

    Game - -> Player
    Game - -> Board
    Game - -> Pawn
    
    Color <.UP. Professor
    Color <.UP. Student

    TowerColor <.UP. Tower
}

@enduml

PlantUML version 1.2022.2(Sat Mar 05 17:30:19 CET 2022)
(GPL source distribution)
Java Runtime: Java(TM) SE Runtime Environment
JVM: Java HotSpot(TM) 64-Bit Server VM
Default Encoding: Cp1252
Language: it
Country: IT
--></g></svg>