<?xml version="1.0" encoding="UTF-8" standalone="no"?><svg xmlns="http://www.w3.org/2000/svg" xmlns:xlink="http://www.w3.org/1999/xlink" contentStyleType="text/css" height="823px" preserveAspectRatio="none" style="width:1367px;height:823px;background:#FFFFFF;" version="1.1" viewBox="0 0 1367 823" width="1367px" zoomAndPan="magnify"><defs/><g><!--MD5=[5d4cd377749310b66bf14896f5cd8d9b]
cluster model--><g id="cluster_model"><path d="M9.5,6 L53.5,6 A5.25,5.25 0 0 1 57,9.5 L64,28.4883 L1356.5,28.4883 A3.5,3.5 0 0 1 1360,31.9883 L1360,812.5 A3.5,3.5 0 0 1 1356.5,816 L9.5,816 A3.5,3.5 0 0 1 6,812.5 L6,9.5 A3.5,3.5 0 0 1 9.5,6 " style="stroke:#696969;stroke-width:1.0;fill:none;"/><line style="stroke:#696969;stroke-width:1.0;fill:none;" x1="6" x2="64" y1="28.4883" y2="28.4883"/><text fill="#000000" font-family="sans-serif" font-size="14" font-weight="bold" lengthAdjust="spacing" textLength="45" x="10" y="21.5352">model</text></g><!--MD5=[18eee71c88ab61f27581b8cbdd3ef5ee]
class Color--><g id="elem_Color"><rect codeLine="6" fill="#F1F1F1" height="130.4414" id="Color" rx="3.5" ry="3.5" style="stroke:#181818;stroke-width:0.5;" width="70" x="620" y="529"/><ellipse cx="635" cy="545" fill="#EB937F" rx="11" ry="11" style="stroke:#181818;stroke-width:1.0;"/><path d="M638.6143,551.5 L630.8945,551.5 L630.8945,539.1069 L638.6143,539.1069 L638.6143,541.2651 L633.3433,541.2651 L633.3433,543.938 L638.1162,543.938 L638.1162,546.0962 L633.3433,546.0962 L633.3433,549.3418 L638.6143,549.3418 Z " fill="#000000"/><text fill="#000000" font-family="sans-serif" font-size="14" lengthAdjust="spacing" textLength="38" x="649" y="550.291">Color</text><line style="stroke:#181818;stroke-width:0.5;" x1="621" x2="689" y1="561" y2="561"/><text fill="#000000" font-family="sans-serif" font-size="14" lengthAdjust="spacing" textLength="54" x="626" y="578.5352">YELLOW</text><text fill="#000000" font-family="sans-serif" font-size="14" lengthAdjust="spacing" textLength="33" x="626" y="595.0234">BLUE</text><text fill="#000000" font-family="sans-serif" font-size="14" lengthAdjust="spacing" textLength="45" x="626" y="611.5117">GREEN</text><text fill="#000000" font-family="sans-serif" font-size="14" lengthAdjust="spacing" textLength="27" x="626" y="628">RED</text><text fill="#000000" font-family="sans-serif" font-size="14" lengthAdjust="spacing" textLength="31" x="626" y="644.4883">PINK</text><line style="stroke:#181818;stroke-width:0.5;" x1="621" x2="689" y1="651.4414" y2="651.4414"/></g><!--MD5=[6804500824724e03a064fc7681986872]
class TowerColor--><g id="elem_TowerColor"><rect codeLine="14" fill="#F1F1F1" height="97.4648" id="TowerColor" rx="3.5" ry="3.5" style="stroke:#181818;stroke-width:0.5;" width="113" x="369.5" y="545.5"/><ellipse cx="384.5" cy="561.5" fill="#EB937F" rx="11" ry="11" style="stroke:#181818;stroke-width:1.0;"/><path d="M388.1143,568 L380.3945,568 L380.3945,555.6069 L388.1143,555.6069 L388.1143,557.7651 L382.8433,557.7651 L382.8433,560.438 L387.6162,560.438 L387.6162,562.5962 L382.8433,562.5962 L382.8433,565.8418 L388.1143,565.8418 Z " fill="#000000"/><text fill="#000000" font-family="sans-serif" font-size="14" lengthAdjust="spacing" textLength="81" x="398.5" y="566.791">TowerColor</text><line style="stroke:#181818;stroke-width:0.5;" x1="370.5" x2="481.5" y1="577.5" y2="577.5"/><text fill="#000000" font-family="sans-serif" font-size="14" lengthAdjust="spacing" textLength="43" x="375.5" y="595.0352">WHITE</text><text fill="#000000" font-family="sans-serif" font-size="14" lengthAdjust="spacing" textLength="38" x="375.5" y="611.5234">GRAY</text><text fill="#000000" font-family="sans-serif" font-size="14" lengthAdjust="spacing" textLength="44" x="375.5" y="628.0117">BLACK</text><line style="stroke:#181818;stroke-width:0.5;" x1="370.5" x2="481.5" y1="634.9648" y2="634.9648"/></g><!--MD5=[b6dcce5e5ef3c84b0b048d11301373dd]
class Game--><g id="elem_Game"><rect codeLine="20" fill="#F1F1F1" height="113.9531" id="Game" rx="3.5" ry="3.5" style="stroke:#181818;stroke-width:0.5;" width="235" x="478.5" y="41"/><ellipse cx="572.25" cy="57" fill="#ADD1B2" rx="11" ry="11" style="stroke:#181818;stroke-width:1.0;"/><path d="M574.7231,63.1431 Q574.1421,63.4419 573.5029,63.5913 Q572.8638,63.7407 572.1582,63.7407 Q569.6514,63.7407 568.3315,62.0889 Q567.0117,60.437 567.0117,57.3159 Q567.0117,54.1865 568.3315,52.5347 Q569.6514,50.8828 572.1582,50.8828 Q572.8638,50.8828 573.5112,51.0322 Q574.1587,51.1816 574.7231,51.4805 L574.7231,54.2031 Q574.0923,53.6221 573.4988,53.3523 Q572.9053,53.0825 572.2744,53.0825 Q570.9297,53.0825 570.2449,54.1492 Q569.5601,55.2158 569.5601,57.3159 Q569.5601,59.4077 570.2449,60.4744 Q570.9297,61.541 572.2744,61.541 Q572.9053,61.541 573.4988,61.2712 Q574.0923,61.0015 574.7231,60.4204 Z " fill="#000000"/><text fill="#000000" font-family="sans-serif" font-size="14" lengthAdjust="spacing" textLength="39" x="592.75" y="62.291">Game</text><line style="stroke:#181818;stroke-width:0.5;" x1="479.5" x2="712.5" y1="73" y2="73"/><rect fill="none" height="6" style="stroke:#C82930;stroke-width:1.0;" width="6" x="486.5" y="81"/><text fill="#000000" font-family="sans-serif" font-size="14" lengthAdjust="spacing" textLength="209" x="498.5" y="90.5352">ArrayList&lt;Player&gt; playerOrder</text><line style="stroke:#181818;stroke-width:0.5;" x1="479.5" x2="712.5" y1="97.4883" y2="97.4883"/><ellipse cx="489.5" cy="108.4883" fill="#84BE84" rx="3" ry="3" style="stroke:#038048;stroke-width:1.0;"/><text fill="#000000" font-family="sans-serif" font-size="14" lengthAdjust="spacing" textLength="142" x="498.5" y="115.0234">«constructor»Game()</text><ellipse cx="489.5" cy="124.9766" fill="#84BE84" rx="3" ry="3" style="stroke:#038048;stroke-width:1.0;"/><text fill="#000000" font-family="sans-serif" font-size="14" lengthAdjust="spacing" textLength="85" x="498.5" y="131.5117">void round()</text><ellipse cx="489.5" cy="141.4648" fill="#84BE84" rx="3" ry="3" style="stroke:#038048;stroke-width:1.0;"/><text fill="#000000" font-family="sans-serif" font-size="14" lengthAdjust="spacing" textLength="197" x="498.5" y="148">void addPlayer(Player player)</text></g><!--MD5=[9563755d011c5cec7ec66dc53565a59e]
class Board--><g id="elem_Board"><rect codeLine="27" fill="#F1F1F1" height="97.4648" id="Board" rx="3.5" ry="3.5" style="stroke:#181818;stroke-width:0.5;" width="310" x="115" y="215"/><ellipse cx="245.75" cy="231" fill="#A9DCDF" rx="11" ry="11" style="stroke:#181818;stroke-width:1.0;"/><path d="M245.6133,226.3481 L244.4595,231.4199 L246.7754,231.4199 Z M244.1191,224.1069 L247.1157,224.1069 L250.4609,236.5 L248.0122,236.5 L247.2485,233.437 L243.9697,233.437 L243.2227,236.5 L240.7739,236.5 Z " fill="#000000"/><text fill="#000000" font-family="sans-serif" font-size="14" font-style="italic" lengthAdjust="spacing" textLength="40" x="266.25" y="236.291">Board</text><line style="stroke:#181818;stroke-width:0.5;" x1="116" x2="424" y1="247" y2="247"/><polygon fill="none" points="126,254,122,260,130,260" style="stroke:#1963A0;stroke-width:1.0;"/><text fill="#000000" font-family="sans-serif" font-size="14" lengthAdjust="spacing" textLength="36" x="135" y="264.5352">int ID</text><line style="stroke:#181818;stroke-width:0.5;" x1="116" x2="424" y1="271.4883" y2="271.4883"/><ellipse cx="126" cy="282.4883" fill="#84BE84" rx="3" ry="3" style="stroke:#038048;stroke-width:1.0;"/><text fill="#000000" font-family="sans-serif" font-size="14" lengthAdjust="spacing" textLength="284" x="135" y="289.0234">ArrayList&lt;Student&gt; getStudentOnBoard()</text><ellipse cx="126" cy="298.9766" fill="#84BE84" rx="3" ry="3" style="stroke:#038048;stroke-width:1.0;"/><text fill="#000000" font-family="sans-serif" font-size="14" lengthAdjust="spacing" textLength="68" x="135" y="305.5117">int getID()</text></g><!--MD5=[af29ca247b3a3642f0fb478cea99ef78]
class Pawn--><g id="elem_Pawn"><rect codeLine="33" fill="#F1F1F1" height="97.4648" id="Pawn" rx="3.5" ry="3.5" style="stroke:#181818;stroke-width:0.5;" width="271" x="460.5" y="215"/><ellipse cx="573.75" cy="231" fill="#A9DCDF" rx="11" ry="11" style="stroke:#181818;stroke-width:1.0;"/><path d="M573.6133,226.3481 L572.4595,231.4199 L574.7754,231.4199 Z M572.1191,224.1069 L575.1157,224.1069 L578.4609,236.5 L576.0122,236.5 L575.2485,233.437 L571.9697,233.437 L571.2227,236.5 L568.7739,236.5 Z " fill="#000000"/><text fill="#000000" font-family="sans-serif" font-size="14" font-style="italic" lengthAdjust="spacing" textLength="36" x="594.25" y="236.291">Pawn</text><line style="stroke:#181818;stroke-width:0.5;" x1="461.5" x2="730.5" y1="247" y2="247"/><rect fill="none" height="6" style="stroke:#C82930;stroke-width:1.0;" width="6" x="468.5" y="255"/><text fill="#000000" font-family="sans-serif" font-size="14" lengthAdjust="spacing" textLength="100" x="480.5" y="264.5352">Board position</text><line style="stroke:#181818;stroke-width:0.5;" x1="461.5" x2="730.5" y1="271.4883" y2="271.4883"/><ellipse cx="471.5" cy="282.4883" fill="#84BE84" rx="3" ry="3" style="stroke:#038048;stroke-width:1.0;"/><text fill="#000000" font-family="sans-serif" font-size="14" lengthAdjust="spacing" textLength="131" x="480.5" y="289.0234">Board getPosition()</text><ellipse cx="471.5" cy="298.9766" fill="#84BE84" rx="3" ry="3" style="stroke:#038048;stroke-width:1.0;"/><text fill="#000000" font-family="sans-serif" font-size="14" lengthAdjust="spacing" textLength="245" x="480.5" y="305.5117">void setPosition(Board newPosition)</text></g><!--MD5=[5e305716458bbdabbd2d7f572ed2bae2]
class Card--><g id="elem_Card"><rect codeLine="39" fill="#F1F1F1" height="48" id="Card" rx="3.5" ry="3.5" style="stroke:#181818;stroke-width:0.5;" width="65" x="1125.5" y="570"/><ellipse cx="1140.5" cy="586" fill="#A9DCDF" rx="11" ry="11" style="stroke:#181818;stroke-width:1.0;"/><path d="M1140.3633,581.3481 L1139.2095,586.4199 L1141.5254,586.4199 Z M1138.8691,579.1069 L1141.8657,579.1069 L1145.2109,591.5 L1142.7622,591.5 L1141.9985,588.437 L1138.7197,588.437 L1137.9727,591.5 L1135.5239,591.5 Z " fill="#000000"/><text fill="#000000" font-family="sans-serif" font-size="14" font-style="italic" lengthAdjust="spacing" textLength="33" x="1154.5" y="591.291">Card</text><line style="stroke:#181818;stroke-width:0.5;" x1="1126.5" x2="1189.5" y1="602" y2="602"/><line style="stroke:#181818;stroke-width:0.5;" x1="1126.5" x2="1189.5" y1="610" y2="610"/></g><!--MD5=[2cb47ba637a0d19583e6199456f6ad0b]
class Player--><g id="elem_Player"><rect codeLine="41" fill="#F1F1F1" height="97.4648" id="Player" rx="3.5" ry="3.5" style="stroke:#181818;stroke-width:0.5;" width="281" x="896.5" y="215"/><ellipse cx="1012.25" cy="231" fill="#ADD1B2" rx="11" ry="11" style="stroke:#181818;stroke-width:1.0;"/><path d="M1014.7231,237.1431 Q1014.1421,237.4419 1013.5029,237.5913 Q1012.8638,237.7407 1012.1582,237.7407 Q1009.6514,237.7407 1008.3315,236.0889 Q1007.0117,234.437 1007.0117,231.3159 Q1007.0117,228.1865 1008.3315,226.5347 Q1009.6514,224.8828 1012.1582,224.8828 Q1012.8638,224.8828 1013.5112,225.0322 Q1014.1587,225.1816 1014.7231,225.4805 L1014.7231,228.2031 Q1014.0923,227.6221 1013.4988,227.3523 Q1012.9053,227.0825 1012.2744,227.0825 Q1010.9297,227.0825 1010.2449,228.1492 Q1009.5601,229.2158 1009.5601,231.3159 Q1009.5601,233.4077 1010.2449,234.4744 Q1010.9297,235.541 1012.2744,235.541 Q1012.9053,235.541 1013.4988,235.2712 Q1014.0923,235.0015 1014.7231,234.4204 Z " fill="#000000"/><text fill="#000000" font-family="sans-serif" font-size="14" lengthAdjust="spacing" textLength="41" x="1032.75" y="236.291">Player</text><line style="stroke:#181818;stroke-width:0.5;" x1="897.5" x2="1176.5" y1="247" y2="247"/><rect fill="none" height="6" style="stroke:#C82930;stroke-width:1.0;" width="6" x="904.5" y="255"/><text fill="#000000" font-family="sans-serif" font-size="14" lengthAdjust="spacing" textLength="111" x="916.5" y="264.5352">String nickname</text><line style="stroke:#181818;stroke-width:0.5;" x1="897.5" x2="1176.5" y1="271.4883" y2="271.4883"/><ellipse cx="907.5" cy="282.4883" fill="#84BE84" rx="3" ry="3" style="stroke:#038048;stroke-width:1.0;"/><text fill="#000000" font-family="sans-serif" font-size="14" lengthAdjust="spacing" textLength="255" x="916.5" y="289.0234">«constructor»Player(String nickname)</text><ellipse cx="907.5" cy="298.9766" fill="#84BE84" rx="3" ry="3" style="stroke:#038048;stroke-width:1.0;"/><text fill="#000000" font-family="sans-serif" font-size="14" lengthAdjust="spacing" textLength="144" x="916.5" y="305.5117">String getNickname()</text></g><!--MD5=[05ce2a234461a7e613a06d388968c06d]
class Island--><g id="elem_Island"><rect codeLine="47" fill="#F1F1F1" height="48" id="Island" rx="3.5" ry="3.5" style="stroke:#181818;stroke-width:0.5;" width="73" x="22.5" y="396.5"/><ellipse cx="37.5" cy="412.5" fill="#ADD1B2" rx="11" ry="11" style="stroke:#181818;stroke-width:1.0;"/><path d="M39.9731,418.6431 Q39.3921,418.9419 38.7529,419.0913 Q38.1138,419.2407 37.4082,419.2407 Q34.9014,419.2407 33.5815,417.5889 Q32.2617,415.937 32.2617,412.8159 Q32.2617,409.6865 33.5815,408.0347 Q34.9014,406.3828 37.4082,406.3828 Q38.1138,406.3828 38.7612,406.5322 Q39.4087,406.6816 39.9731,406.9805 L39.9731,409.7031 Q39.3423,409.1221 38.7488,408.8523 Q38.1553,408.5825 37.5244,408.5825 Q36.1797,408.5825 35.4949,409.6492 Q34.8101,410.7158 34.8101,412.8159 Q34.8101,414.9077 35.4949,415.9744 Q36.1797,417.041 37.5244,417.041 Q38.1553,417.041 38.7488,416.7712 Q39.3423,416.5015 39.9731,415.9204 Z " fill="#000000"/><text fill="#000000" font-family="sans-serif" font-size="14" lengthAdjust="spacing" textLength="41" x="51.5" y="417.791">Island</text><line style="stroke:#181818;stroke-width:0.5;" x1="23.5" x2="94.5" y1="428.5" y2="428.5"/><line style="stroke:#181818;stroke-width:0.5;" x1="23.5" x2="94.5" y1="436.5" y2="436.5"/></g><!--MD5=[10a9fff9df9a76a22f65fd5d58adb785]
class School--><g id="elem_School"><rect codeLine="51" fill="#F1F1F1" height="48" id="School" rx="3.5" ry="3.5" style="stroke:#181818;stroke-width:0.5;" width="78" x="131" y="396.5"/><ellipse cx="146" cy="412.5" fill="#ADD1B2" rx="11" ry="11" style="stroke:#181818;stroke-width:1.0;"/><path d="M148.4731,418.6431 Q147.8921,418.9419 147.2529,419.0913 Q146.6138,419.2407 145.9082,419.2407 Q143.4014,419.2407 142.0815,417.5889 Q140.7617,415.937 140.7617,412.8159 Q140.7617,409.6865 142.0815,408.0347 Q143.4014,406.3828 145.9082,406.3828 Q146.6138,406.3828 147.2612,406.5322 Q147.9087,406.6816 148.4731,406.9805 L148.4731,409.7031 Q147.8423,409.1221 147.2488,408.8523 Q146.6553,408.5825 146.0244,408.5825 Q144.6797,408.5825 143.9949,409.6492 Q143.3101,410.7158 143.3101,412.8159 Q143.3101,414.9077 143.9949,415.9744 Q144.6797,417.041 146.0244,417.041 Q146.6553,417.041 147.2488,416.7712 Q147.8423,416.5015 148.4731,415.9204 Z " fill="#000000"/><text fill="#000000" font-family="sans-serif" font-size="14" lengthAdjust="spacing" textLength="46" x="160" y="417.791">School</text><line style="stroke:#181818;stroke-width:0.5;" x1="132" x2="208" y1="428.5" y2="428.5"/><line style="stroke:#181818;stroke-width:0.5;" x1="132" x2="208" y1="436.5" y2="436.5"/></g><!--MD5=[a18b01c4419d38931cdb2da3f79e5451]
class Cloud--><g id="elem_Cloud"><rect codeLine="55" fill="#F1F1F1" height="48" id="Cloud" rx="3.5" ry="3.5" style="stroke:#181818;stroke-width:0.5;" width="73" x="244.5" y="396.5"/><ellipse cx="259.5" cy="412.5" fill="#ADD1B2" rx="11" ry="11" style="stroke:#181818;stroke-width:1.0;"/><path d="M261.9731,418.6431 Q261.3921,418.9419 260.7529,419.0913 Q260.1138,419.2407 259.4082,419.2407 Q256.9014,419.2407 255.5815,417.5889 Q254.2617,415.937 254.2617,412.8159 Q254.2617,409.6865 255.5815,408.0347 Q256.9014,406.3828 259.4082,406.3828 Q260.1138,406.3828 260.7612,406.5322 Q261.4087,406.6816 261.9731,406.9805 L261.9731,409.7031 Q261.3423,409.1221 260.7488,408.8523 Q260.1553,408.5825 259.5244,408.5825 Q258.1797,408.5825 257.4949,409.6492 Q256.8101,410.7158 256.8101,412.8159 Q256.8101,414.9077 257.4949,415.9744 Q258.1797,417.041 259.5244,417.041 Q260.1553,417.041 260.7488,416.7712 Q261.3423,416.5015 261.9731,415.9204 Z " fill="#000000"/><text fill="#000000" font-family="sans-serif" font-size="14" lengthAdjust="spacing" textLength="41" x="273.5" y="417.791">Cloud</text><line style="stroke:#181818;stroke-width:0.5;" x1="245.5" x2="316.5" y1="428.5" y2="428.5"/><line style="stroke:#181818;stroke-width:0.5;" x1="245.5" x2="316.5" y1="436.5" y2="436.5"/></g><!--MD5=[21bc47177812100412265a444b535d59]
class Professor--><g id="elem_Professor"><rect codeLine="59" fill="#F1F1F1" height="64.4883" id="Professor" rx="3.5" ry="3.5" style="stroke:#181818;stroke-width:0.5;" width="103" x="672.5" y="388.5"/><ellipse cx="690.2" cy="404.5" fill="#ADD1B2" rx="11" ry="11" style="stroke:#181818;stroke-width:1.0;"/><path d="M692.6731,410.6431 Q692.0921,410.9419 691.4529,411.0913 Q690.8138,411.2407 690.1082,411.2407 Q687.6014,411.2407 686.2815,409.5889 Q684.9617,407.937 684.9617,404.8159 Q684.9617,401.6865 686.2815,400.0347 Q687.6014,398.3828 690.1082,398.3828 Q690.8138,398.3828 691.4612,398.5322 Q692.1087,398.6816 692.6731,398.9805 L692.6731,401.7031 Q692.0423,401.1221 691.4488,400.8523 Q690.8553,400.5825 690.2244,400.5825 Q688.8797,400.5825 688.1949,401.6492 Q687.5101,402.7158 687.5101,404.8159 Q687.5101,406.9077 688.1949,407.9744 Q688.8797,409.041 690.2244,409.041 Q690.8553,409.041 691.4488,408.7712 Q692.0423,408.5015 692.6731,407.9204 Z " fill="#000000"/><text fill="#000000" font-family="sans-serif" font-size="14" lengthAdjust="spacing" textLength="65" x="704.8" y="409.791">Professor</text><line style="stroke:#181818;stroke-width:0.5;" x1="673.5" x2="774.5" y1="420.5" y2="420.5"/><rect fill="none" height="6" style="stroke:#C82930;stroke-width:1.0;" width="6" x="680.5" y="428.5"/><text fill="#000000" font-family="sans-serif" font-size="14" lengthAdjust="spacing" textLength="77" x="692.5" y="438.0352">Color color</text><line style="stroke:#181818;stroke-width:0.5;" x1="673.5" x2="774.5" y1="444.9883" y2="444.9883"/></g><!--MD5=[d6181cb537bdc20c0a3007a98a56832d]
class Student--><g id="elem_Student"><rect codeLine="63" fill="#F1F1F1" height="64.4883" id="Student" rx="3.5" ry="3.5" style="stroke:#181818;stroke-width:0.5;" width="103" x="534.5" y="388.5"/><ellipse cx="557.6" cy="404.5" fill="#ADD1B2" rx="11" ry="11" style="stroke:#181818;stroke-width:1.0;"/><path d="M560.0731,410.6431 Q559.4921,410.9419 558.8529,411.0913 Q558.2138,411.2407 557.5082,411.2407 Q555.0014,411.2407 553.6815,409.5889 Q552.3617,407.937 552.3617,404.8159 Q552.3617,401.6865 553.6815,400.0347 Q555.0014,398.3828 557.5082,398.3828 Q558.2138,398.3828 558.8612,398.5322 Q559.5087,398.6816 560.0731,398.9805 L560.0731,401.7031 Q559.4423,401.1221 558.8488,400.8523 Q558.2553,400.5825 557.6244,400.5825 Q556.2797,400.5825 555.5949,401.6492 Q554.9101,402.7158 554.9101,404.8159 Q554.9101,406.9077 555.5949,407.9744 Q556.2797,409.041 557.6244,409.041 Q558.2553,409.041 558.8488,408.7712 Q559.4423,408.5015 560.0731,407.9204 Z " fill="#000000"/><text fill="#000000" font-family="sans-serif" font-size="14" lengthAdjust="spacing" textLength="53" x="573.4" y="409.791">Student</text><line style="stroke:#181818;stroke-width:0.5;" x1="535.5" x2="636.5" y1="420.5" y2="420.5"/><rect fill="none" height="6" style="stroke:#C82930;stroke-width:1.0;" width="6" x="542.5" y="428.5"/><text fill="#000000" font-family="sans-serif" font-size="14" lengthAdjust="spacing" textLength="77" x="554.5" y="438.0352">Color color</text><line style="stroke:#181818;stroke-width:0.5;" x1="535.5" x2="636.5" y1="444.9883" y2="444.9883"/></g><!--MD5=[e6a0401af6286042726057f986c3e7c8]
class Tower--><g id="elem_Tower"><rect codeLine="67" fill="#F1F1F1" height="64.4883" id="Tower" rx="3.5" ry="3.5" style="stroke:#181818;stroke-width:0.5;" width="146" x="353" y="388.5"/><ellipse cx="400.25" cy="404.5" fill="#ADD1B2" rx="11" ry="11" style="stroke:#181818;stroke-width:1.0;"/><path d="M402.7231,410.6431 Q402.1421,410.9419 401.5029,411.0913 Q400.8638,411.2407 400.1582,411.2407 Q397.6514,411.2407 396.3315,409.5889 Q395.0117,407.937 395.0117,404.8159 Q395.0117,401.6865 396.3315,400.0347 Q397.6514,398.3828 400.1582,398.3828 Q400.8638,398.3828 401.5112,398.5322 Q402.1587,398.6816 402.7231,398.9805 L402.7231,401.7031 Q402.0923,401.1221 401.4988,400.8523 Q400.9053,400.5825 400.2744,400.5825 Q398.9297,400.5825 398.2449,401.6492 Q397.5601,402.7158 397.5601,404.8159 Q397.5601,406.9077 398.2449,407.9744 Q398.9297,409.041 400.2744,409.041 Q400.9053,409.041 401.4988,408.7712 Q402.0923,408.5015 402.7231,407.9204 Z " fill="#000000"/><text fill="#000000" font-family="sans-serif" font-size="14" lengthAdjust="spacing" textLength="43" x="420.75" y="409.791">Tower</text><line style="stroke:#181818;stroke-width:0.5;" x1="354" x2="498" y1="420.5" y2="420.5"/><rect fill="none" height="6" style="stroke:#C82930;stroke-width:1.0;" width="6" x="361" y="428.5"/><text fill="#000000" font-family="sans-serif" font-size="14" lengthAdjust="spacing" textLength="120" x="373" y="438.0352">TowerColor color</text><line style="stroke:#181818;stroke-width:0.5;" x1="354" x2="498" y1="444.9883" y2="444.9883"/></g><!--MD5=[3ea2e56578276300f1408dbb43472621]
class MotherNature--><g id="elem_MotherNature"><rect codeLine="71" fill="#F1F1F1" height="48" id="MotherNature" rx="3.5" ry="3.5" style="stroke:#181818;stroke-width:0.5;" width="127" x="810.5" y="396.5"/><ellipse cx="825.5" cy="412.5" fill="#ADD1B2" rx="11" ry="11" style="stroke:#181818;stroke-width:1.0;"/><path d="M827.9731,418.6431 Q827.3921,418.9419 826.7529,419.0913 Q826.1138,419.2407 825.4082,419.2407 Q822.9014,419.2407 821.5815,417.5889 Q820.2617,415.937 820.2617,412.8159 Q820.2617,409.6865 821.5815,408.0347 Q822.9014,406.3828 825.4082,406.3828 Q826.1138,406.3828 826.7612,406.5322 Q827.4087,406.6816 827.9731,406.9805 L827.9731,409.7031 Q827.3423,409.1221 826.7488,408.8523 Q826.1553,408.5825 825.5244,408.5825 Q824.1797,408.5825 823.4949,409.6492 Q822.8101,410.7158 822.8101,412.8159 Q822.8101,414.9077 823.4949,415.9744 Q824.1797,417.041 825.5244,417.041 Q826.1553,417.041 826.7488,416.7712 Q827.3423,416.5015 827.9731,415.9204 Z " fill="#000000"/><text fill="#000000" font-family="sans-serif" font-size="14" lengthAdjust="spacing" textLength="95" x="839.5" y="417.791">MotherNature</text><line style="stroke:#181818;stroke-width:0.5;" x1="811.5" x2="936.5" y1="428.5" y2="428.5"/><line style="stroke:#181818;stroke-width:0.5;" x1="811.5" x2="936.5" y1="436.5" y2="436.5"/></g><!--MD5=[9153511ab415ec25fadc371cb52004ef]
class AssistantCard--><g id="elem_AssistantCard"><rect codeLine="73" fill="#F1F1F1" height="80.9766" id="AssistantCard" rx="3.5" ry="3.5" style="stroke:#181818;stroke-width:0.5;" width="127" x="1155.5" y="719"/><ellipse cx="1170.5" cy="735" fill="#ADD1B2" rx="11" ry="11" style="stroke:#181818;stroke-width:1.0;"/><path d="M1172.9731,741.1431 Q1172.3921,741.4419 1171.7529,741.5913 Q1171.1138,741.7407 1170.4082,741.7407 Q1167.9014,741.7407 1166.5815,740.0889 Q1165.2617,738.437 1165.2617,735.3159 Q1165.2617,732.1865 1166.5815,730.5347 Q1167.9014,728.8828 1170.4082,728.8828 Q1171.1138,728.8828 1171.7612,729.0322 Q1172.4087,729.1816 1172.9731,729.4805 L1172.9731,732.2031 Q1172.3423,731.6221 1171.7488,731.3523 Q1171.1553,731.0825 1170.5244,731.0825 Q1169.1797,731.0825 1168.4949,732.1492 Q1167.8101,733.2158 1167.8101,735.3159 Q1167.8101,737.4077 1168.4949,738.4744 Q1169.1797,739.541 1170.5244,739.541 Q1171.1553,739.541 1171.7488,739.2712 Q1172.3423,739.0015 1172.9731,738.4204 Z " fill="#000000"/><text fill="#000000" font-family="sans-serif" font-size="14" lengthAdjust="spacing" textLength="95" x="1184.5" y="740.291">AssistantCard</text><line style="stroke:#181818;stroke-width:0.5;" x1="1156.5" x2="1281.5" y1="751" y2="751"/><rect fill="none" height="6" style="stroke:#C82930;stroke-width:1.0;" width="6" x="1163.5" y="759"/><text fill="#000000" font-family="sans-serif" font-size="14" lengthAdjust="spacing" textLength="58" x="1175.5" y="768.5352">int value</text><rect fill="none" height="6" style="stroke:#C82930;stroke-width:1.0;" width="6" x="1163.5" y="775.4883"/><text fill="#000000" font-family="sans-serif" font-size="14" lengthAdjust="spacing" textLength="94" x="1175.5" y="785.0234">int movement</text><line style="stroke:#181818;stroke-width:0.5;" x1="1156.5" x2="1281.5" y1="791.9766" y2="791.9766"/></g><!--MD5=[4ea8e61345abb1b5d1b65d1adc4a63a0]
class CharacterCard--><g id="elem_CharacterCard"><rect codeLine="78" fill="#F1F1F1" height="64.4883" id="CharacterCard" rx="3.5" ry="3.5" style="stroke:#181818;stroke-width:0.5;" width="132" x="763" y="727.5"/><ellipse cx="778" cy="743.5" fill="#ADD1B2" rx="11" ry="11" style="stroke:#181818;stroke-width:1.0;"/><path d="M780.4731,749.6431 Q779.8921,749.9419 779.2529,750.0913 Q778.6138,750.2407 777.9082,750.2407 Q775.4014,750.2407 774.0815,748.5889 Q772.7617,746.937 772.7617,743.8159 Q772.7617,740.6865 774.0815,739.0347 Q775.4014,737.3828 777.9082,737.3828 Q778.6138,737.3828 779.2612,737.5322 Q779.9087,737.6816 780.4731,737.9805 L780.4731,740.7031 Q779.8423,740.1221 779.2488,739.8523 Q778.6553,739.5825 778.0244,739.5825 Q776.6797,739.5825 775.9949,740.6492 Q775.3101,741.7158 775.3101,743.8159 Q775.3101,745.9077 775.9949,746.9744 Q776.6797,748.041 778.0244,748.041 Q778.6553,748.041 779.2488,747.7712 Q779.8423,747.5015 780.4731,746.9204 Z " fill="#000000"/><text fill="#000000" font-family="sans-serif" font-size="14" lengthAdjust="spacing" textLength="100" x="792" y="748.791">CharacterCard</text><line style="stroke:#181818;stroke-width:0.5;" x1="764" x2="894" y1="759.5" y2="759.5"/><rect fill="none" height="6" style="stroke:#C82930;stroke-width:1.0;" width="6" x="771" y="767.5"/><text fill="#000000" font-family="sans-serif" font-size="14" lengthAdjust="spacing" textLength="77" x="783" y="777.0352">Color color</text><line style="stroke:#181818;stroke-width:0.5;" x1="764" x2="894" y1="783.9883" y2="783.9883"/></g><!--MD5=[30299a58ba6b78debaaed5ddbb42f29a]
class Deck--><g id="elem_Deck"><rect codeLine="82" fill="#F1F1F1" height="97.4648" id="Deck" rx="3.5" ry="3.5" style="stroke:#181818;stroke-width:0.5;" width="371" x="972.5" y="372"/><ellipse cx="1137.25" cy="388" fill="#ADD1B2" rx="11" ry="11" style="stroke:#181818;stroke-width:1.0;"/><path d="M1139.7231,394.1431 Q1139.1421,394.4419 1138.5029,394.5913 Q1137.8638,394.7407 1137.1582,394.7407 Q1134.6514,394.7407 1133.3315,393.0889 Q1132.0117,391.437 1132.0117,388.3159 Q1132.0117,385.1865 1133.3315,383.5347 Q1134.6514,381.8828 1137.1582,381.8828 Q1137.8638,381.8828 1138.5112,382.0322 Q1139.1587,382.1816 1139.7231,382.4805 L1139.7231,385.2031 Q1139.0923,384.6221 1138.4988,384.3523 Q1137.9053,384.0825 1137.2744,384.0825 Q1135.9297,384.0825 1135.2449,385.1492 Q1134.5601,386.2158 1134.5601,388.3159 Q1134.5601,390.4077 1135.2449,391.4744 Q1135.9297,392.541 1137.2744,392.541 Q1137.9053,392.541 1138.4988,392.2712 Q1139.0923,392.0015 1139.7231,391.4204 Z " fill="#000000"/><text fill="#000000" font-family="sans-serif" font-size="14" lengthAdjust="spacing" textLength="33" x="1157.75" y="393.291">Deck</text><line style="stroke:#181818;stroke-width:0.5;" x1="973.5" x2="1342.5" y1="404" y2="404"/><rect fill="none" height="6" style="stroke:#C82930;stroke-width:1.0;" width="6" x="980.5" y="412"/><text fill="#000000" font-family="sans-serif" font-size="14" lengthAdjust="spacing" textLength="209" x="992.5" y="421.5352">ArrayList&lt;Card&gt; cardArrayList</text><line style="stroke:#181818;stroke-width:0.5;" x1="973.5" x2="1342.5" y1="428.4883" y2="428.4883"/><ellipse cx="983.5" cy="439.4883" fill="#84BE84" rx="3" ry="3" style="stroke:#038048;stroke-width:1.0;"/><text fill="#000000" font-family="sans-serif" font-size="14" lengthAdjust="spacing" textLength="345" x="992.5" y="446.0234">«constructor»Deck(ArrayList&lt;Card&gt; cardArrayList)</text><ellipse cx="983.5" cy="455.9766" fill="#84BE84" rx="3" ry="3" style="stroke:#038048;stroke-width:1.0;"/><text fill="#000000" font-family="sans-serif" font-size="14" lengthAdjust="spacing" textLength="128" x="992.5" y="462.5117">Card extractCard()</text></g><!--MD5=[1da8f80c0a6f875dfd1b47fac061377f]
class Coin--><g id="elem_Coin"><rect codeLine="88" fill="#F1F1F1" height="80.9766" id="Coin" rx="3.5" ry="3.5" style="stroke:#181818;stroke-width:0.5;" width="190" x="930" y="719"/><ellipse cx="1004.75" cy="735" fill="#ADD1B2" rx="11" ry="11" style="stroke:#181818;stroke-width:1.0;"/><path d="M1007.2231,741.1431 Q1006.6421,741.4419 1006.0029,741.5913 Q1005.3638,741.7407 1004.6582,741.7407 Q1002.1514,741.7407 1000.8315,740.0889 Q999.5117,738.437 999.5117,735.3159 Q999.5117,732.1865 1000.8315,730.5347 Q1002.1514,728.8828 1004.6582,728.8828 Q1005.3638,728.8828 1006.0112,729.0322 Q1006.6587,729.1816 1007.2231,729.4805 L1007.2231,732.2031 Q1006.5923,731.6221 1005.9988,731.3523 Q1005.4053,731.0825 1004.7744,731.0825 Q1003.4297,731.0825 1002.7449,732.1492 Q1002.0601,733.2158 1002.0601,735.3159 Q1002.0601,737.4077 1002.7449,738.4744 Q1003.4297,739.541 1004.7744,739.541 Q1005.4053,739.541 1005.9988,739.2712 Q1006.5923,739.0015 1007.2231,738.4204 Z " fill="#000000"/><text fill="#000000" font-family="sans-serif" font-size="14" lengthAdjust="spacing" textLength="32" x="1025.25" y="740.291">Coin</text><line style="stroke:#181818;stroke-width:0.5;" x1="931" x2="1119" y1="751" y2="751"/><rect fill="none" height="6" style="stroke:#C82930;stroke-width:1.0;" width="6" x="938" y="759"/><text fill="#000000" font-family="sans-serif" font-size="14" lengthAdjust="spacing" textLength="129" x="950" y="768.5352">AssistantCard card</text><line style="stroke:#181818;stroke-width:0.5;" x1="931" x2="1119" y1="775.4883" y2="775.4883"/><ellipse cx="941" cy="786.4883" fill="#84BE84" rx="3" ry="3" style="stroke:#038048;stroke-width:1.0;"/><text fill="#000000" font-family="sans-serif" font-size="14" lengthAdjust="spacing" textLength="164" x="950" y="793.0234">AssistantCard getCard()</text></g><!--MD5=[d271d16d53cfe2f20218414189ac7c91]
class NoEntryTile--><g id="elem_NoEntryTile"><rect codeLine="93" fill="#F1F1F1" height="80.9766" id="NoEntryTile" rx="3.5" ry="3.5" style="stroke:#181818;stroke-width:0.5;" width="158" x="22" y="553.5"/><ellipse cx="58.15" cy="569.5" fill="#ADD1B2" rx="11" ry="11" style="stroke:#181818;stroke-width:1.0;"/><path d="M60.6231,575.6431 Q60.0421,575.9419 59.4029,576.0913 Q58.7638,576.2407 58.0582,576.2407 Q55.5514,576.2407 54.2315,574.5889 Q52.9117,572.937 52.9117,569.8159 Q52.9117,566.6865 54.2315,565.0347 Q55.5514,563.3828 58.0582,563.3828 Q58.7638,563.3828 59.4112,563.5322 Q60.0587,563.6816 60.6231,563.9805 L60.6231,566.7031 Q59.9923,566.1221 59.3988,565.8523 Q58.8053,565.5825 58.1744,565.5825 Q56.8297,565.5825 56.1449,566.6492 Q55.4601,567.7158 55.4601,569.8159 Q55.4601,571.9077 56.1449,572.9744 Q56.8297,574.041 58.1744,574.041 Q58.8053,574.041 59.3988,573.7712 Q59.9923,573.5015 60.6231,572.9204 Z " fill="#000000"/><text fill="#000000" font-family="sans-serif" font-size="14" lengthAdjust="spacing" textLength="79" x="76.85" y="574.791">NoEntryTile</text><line style="stroke:#181818;stroke-width:0.5;" x1="23" x2="179" y1="585.5" y2="585.5"/><rect fill="none" height="6" style="stroke:#C82930;stroke-width:1.0;" width="6" x="30" y="593.5"/><text fill="#000000" font-family="sans-serif" font-size="14" lengthAdjust="spacing" textLength="86" x="42" y="603.0352">Island island</text><line style="stroke:#181818;stroke-width:0.5;" x1="23" x2="179" y1="609.9883" y2="609.9883"/><ellipse cx="33" cy="620.9883" fill="#84BE84" rx="3" ry="3" style="stroke:#038048;stroke-width:1.0;"/><text fill="#000000" font-family="sans-serif" font-size="14" lengthAdjust="spacing" textLength="132" x="42" y="627.5234">Island getPosition()</text></g><!--MD5=[50c01108cc94cc552c924244958887b6]
reverse link Island to NoEntryTile--><g id="link_Island_NoEntryTile"><path codeLine="98" d="M59,449.62 C59,449.62 59,553.42 59,553.42 " fill="none" id="Island-backto-NoEntryTile" style="stroke:#454645;stroke-width:1.0;"/><polygon fill="#454645" points="59,444.62,55,453.62,59,449.62,63,453.62,59,444.62" style="stroke:#454645;stroke-width:1.0;"/></g><!--MD5=[ecb523b99ee52cd5a2ceec301750661a]
link Coin to AssistantCard--><g id="link_Coin_AssistantCard"><path codeLine="99" d="M1120.01,760 C1120.01,760 1150.4,760 1150.4,760 " fill="none" id="Coin-to-AssistantCard" style="stroke:#454645;stroke-width:1.0;"/><polygon fill="#454645" points="1155.4,760,1146.4,756,1150.4,760,1146.4,764,1155.4,760" style="stroke:#454645;stroke-width:1.0;"/></g><!--MD5=[ef3cd93b4b4594f3c81ac07d483b3904]
reverse link Card to AssistantCard--><g id="link_Card_AssistantCard"><path codeLine="101" d="M1173,638.07 C1173,638.07 1173,718.75 1173,718.75 " fill="none" id="Card-backto-AssistantCard" style="stroke:#454645;stroke-width:1.0;"/><polygon fill="none" points="1166,638.07,1173,618.07,1180,638.07,1166,638.07" style="stroke:#454645;stroke-width:1.0;"/></g><!--MD5=[291c5d578a16afa36f38ad0004fb93fc]
reverse link Card to CharacterCard--><g id="link_Card_CharacterCard"><path codeLine="102" d="M1105.33,594 C1105.33,594 852.75,594 852.75,594 C852.75,594 852.75,679.03 852.75,727.2 " fill="none" id="Card-backto-CharacterCard" style="stroke:#454645;stroke-width:1.0;"/><polygon fill="none" points="1105.33,587,1125.33,594,1105.33,601,1105.33,587" style="stroke:#454645;stroke-width:1.0;"/></g><!--MD5=[675c98fc2462cbf3e0a6a5ea82b07648]
reverse link Board to Island--><g id="link_Board_Island"><path codeLine="104" d="M123,332.04 C123,332.04 123,421 123,421 C123,421 110.08,421 95.86,421 " fill="none" id="Board-backto-Island" style="stroke:#454645;stroke-width:1.0;"/><polygon fill="none" points="116,332.04,123,312.04,130,332.04,116,332.04" style="stroke:#454645;stroke-width:1.0;"/></g><!--MD5=[be23cc1339613c23591eff570872c022]
reverse link Board to Cloud--><g id="link_Board_Cloud"><path codeLine="105" d="M281,332.32 C281,332.32 281,396.3 281,396.3 " fill="none" id="Board-backto-Cloud" style="stroke:#454645;stroke-width:1.0;"/><polygon fill="none" points="274,332.32,281,312.32,288,332.32,274,332.32" style="stroke:#454645;stroke-width:1.0;"/></g><!--MD5=[7f594aabb976cac6a4bd27a68b863784]
reverse link Board to School--><g id="link_Board_School"><path codeLine="106" d="M170,332.32 C170,332.32 170,396.3 170,396.3 " fill="none" id="Board-backto-School" style="stroke:#454645;stroke-width:1.0;"/><polygon fill="none" points="163,332.32,170,312.32,177,332.32,163,332.32" style="stroke:#454645;stroke-width:1.0;"/></g><!--MD5=[1031735363d49c9f2ac3483128640f78]
reverse link Board to Pawn--><g id="link_Board_Pawn"><path codeLine="107" d="M430.36,264 C430.36,264 460.21,264 460.21,264 " fill="none" id="Board-backto-Pawn" style="stroke:#454645;stroke-width:1.0;"/><polygon fill="#454645" points="425.36,264,434.36,268,430.36,264,434.36,260,425.36,264" style="stroke:#454645;stroke-width:1.0;"/></g><!--MD5=[762b1bad54bda995845750ecd7df4c7a]
reverse link Pawn to Professor--><g id="link_Pawn_Professor"><path codeLine="109" d="M702,332.32 C702,332.32 702,388.09 702,388.09 " fill="none" id="Pawn-backto-Professor" style="stroke:#454645;stroke-width:1.0;"/><polygon fill="none" points="695,332.32,702,312.32,709,332.32,695,332.32" style="stroke:#454645;stroke-width:1.0;"/></g><!--MD5=[4cbe029bfd09fd7227938a05c4ca9bf5]
reverse link Pawn to Student--><g id="link_Pawn_Student"><path codeLine="110" d="M586,332.32 C586,332.32 586,388.09 586,388.09 " fill="none" id="Pawn-backto-Student" style="stroke:#454645;stroke-width:1.0;"/><polygon fill="none" points="579,332.32,586,312.32,593,332.32,579,332.32" style="stroke:#454645;stroke-width:1.0;"/></g><!--MD5=[99a87e5119cbbe499307809beb818dac]
reverse link Pawn to Tower--><g id="link_Pawn_Tower"><path codeLine="111" d="M479.75,332.32 C479.75,332.32 479.75,388.09 479.75,388.09 " fill="none" id="Pawn-backto-Tower" style="stroke:#454645;stroke-width:1.0;"/><polygon fill="none" points="472.75,332.32,479.75,312.32,486.75,332.32,472.75,332.32" style="stroke:#454645;stroke-width:1.0;"/></g><!--MD5=[28e1341c03a648a0732569ca8dce5ec4]
reverse link Pawn to MotherNature--><g id="link_Pawn_MotherNature"><path codeLine="112" d="M751.54,264 C751.54,264 853.5,264 853.5,264 C853.5,264 853.5,352.49 853.5,396.39 " fill="none" id="Pawn-backto-MotherNature" style="stroke:#454645;stroke-width:1.0;"/><polygon fill="none" points="751.54,271,731.54,264,751.54,257,751.54,271" style="stroke:#454645;stroke-width:1.0;"/></g><!--MD5=[5cf861f56d83ae4345dbc2180ae8b1d0]
reverse link Deck to Card--><g id="link_Deck_Card"><path codeLine="114" d="M1158,482.29 C1158,482.29 1158,570 1158,570 " fill="none" id="Deck-backto-Card" style="stroke:#454645;stroke-width:1.0;"/><polygon fill="#454645" points="1158,469.29,1154,475.29,1158,481.29,1162,475.29,1158,469.29" style="stroke:#454645;stroke-width:1.0;"/></g><!--MD5=[8d9472248db2c295e563e60b72e74922]
link Player to Deck--><g id="link_Player_Deck"><path codeLine="115" d="M1075,312.32 C1075,312.32 1075,366.98 1075,366.98 " fill="none" id="Player-to-Deck" style="stroke:#454645;stroke-width:1.0;"/><polygon fill="#454645" points="1075,371.98,1079,362.98,1075,366.98,1071,362.98,1075,371.98" style="stroke:#454645;stroke-width:1.0;"/></g><!--MD5=[6b6b9e8ceff4e9e58f06e15491e15318]
link Game to Player--><g id="link_Game_Player"><path codeLine="117" d="M713.6,98 C844.24,98 1037,98 1037,98 C1037,98 1037,209.74 1037,209.74 " fill="none" id="Game-to-Player" style="stroke:#454645;stroke-width:1.0;"/><polygon fill="#454645" points="1037,214.74,1041,205.74,1037,209.74,1033,205.74,1037,214.74" style="stroke:#454645;stroke-width:1.0;"/></g><!--MD5=[15c8f9ca3aac13d865864b4eb5314ef1]
link Game to Board--><g id="link_Game_Board"><path codeLine="118" d="M478.31,98 C384.93,98 270,98 270,98 C270,98 270,209.74 270,209.74 " fill="none" id="Game-to-Board" style="stroke:#454645;stroke-width:1.0;"/><polygon fill="#454645" points="270,214.74,274,205.74,270,209.74,266,205.74,270,214.74" style="stroke:#454645;stroke-width:1.0;"/></g><!--MD5=[d8b339cd4d972907013b901513a5cdef]
link Game to Pawn--><g id="link_Game_Pawn"><path codeLine="119" d="M596,155.42 C596,155.42 596,209.98 596,209.98 " fill="none" id="Game-to-Pawn" style="stroke:#454645;stroke-width:1.0;"/><polygon fill="#454645" points="596,214.98,600,205.98,596,209.98,592,205.98,596,214.98" style="stroke:#454645;stroke-width:1.0;"/></g><!--MD5=[c4de8f0a3fa2c66573592a8c04806d52]
link Professor to Color--><g id="link_Professor_Color"><path codeLine="121" d="M681.25,452.73 C681.25,452.73 681.25,523.88 681.25,523.88 " fill="none" id="Professor-to-Color" style="stroke:#454645;stroke-width:1.0;stroke-dasharray:7.0,7.0;"/><polygon fill="#454645" points="681.25,528.88,685.25,519.88,681.25,523.88,677.25,519.88,681.25,528.88" style="stroke:#454645;stroke-width:1.0;"/></g><!--MD5=[1daab493f86e124074863c7d996548e1]
link Student to Color--><g id="link_Student_Color"><path codeLine="122" d="M628.75,452.73 C628.75,452.73 628.75,523.88 628.75,523.88 " fill="none" id="Student-to-Color" style="stroke:#454645;stroke-width:1.0;stroke-dasharray:7.0,7.0;"/><polygon fill="#454645" points="628.75,528.88,632.75,519.88,628.75,523.88,624.75,519.88,628.75,528.88" style="stroke:#454645;stroke-width:1.0;"/></g><!--MD5=[bb2987cb63935726317af892abb93c33]
link Tower to TowerColor--><g id="link_Tower_TowerColor"><path codeLine="124" d="M426,452.73 C426,452.73 426,540.22 426,540.22 " fill="none" id="Tower-to-TowerColor" style="stroke:#454645;stroke-width:1.0;stroke-dasharray:7.0,7.0;"/><polygon fill="#454645" points="426,545.22,430,536.22,426,540.22,422,536.22,426,545.22" style="stroke:#454645;stroke-width:1.0;"/></g><!--MD5=[11f7ccee0241ed354dd5a6554f0a2e1d]
@startuml initial_uml
!theme vibrant
skinparam Linetype polyline
skinparam Linetype ortho

package model <<Folder>> {
    enum Color {
        YELLOW
        BLUE
        GREEN
        RED
        PINK
    }

    enum TowerColor {
        WHITE
        GRAY
        BLACK
    }

    class Game {
        - ArrayList<Player> playerOrder
        + <<constructor>>Game()
        + void round()
        + void addPlayer(Player player)
    }

    abstract class Board {
        ~ int ID
        + ArrayList<Student> getStudentOnBoard()
        + int getID()
    }
    
    abstract class Pawn {
        - Board position
        + Board getPosition()
        + void setPosition(Board newPosition)
    }

    abstract class Card

    class Player {
        - String nickname
        + <<constructor>>Player(String nickname)
        + String getNickname()
    }

    class Island {
    
    }
    
    class School {
    
    }

    class Cloud {

    }

    class Professor {
        - Color color
    }

    class Student {
        - Color color
    }

    class Tower {
        - TowerColor color
    }

    class MotherNature

    class AssistantCard {
        - int value
        - int movement
    }

    class CharacterCard {
        - Color color
    }

    class Deck {
        - ArrayList<Card> cardArrayList
        + <<constructor>>Deck(ArrayList<Card> cardArrayList)
        + Card extractCard()
    }

    class Coin {
        - AssistantCard card
        + AssistantCard getCard()
    }

    class NoEntryTile {
        - Island island
        + Island getPosition()
    }

    NoEntryTile -UP-> Island
    Coin -RIGHT-> AssistantCard

    Card <|-DOWN- AssistantCard
    Card <|- - CharacterCard

    Board <|-DOWN- Island
    Board <|-DOWN- Cloud
    Board <|-DOWN- School
    Board <-RIGHT- - Pawn

    Pawn <|- - Professor
    Pawn <|- - Student
    Pawn <|- - Tower
    Pawn <|- - MotherNature

    Deck *- - Card
    Deck <-UP- Player

    Game - -> Player
    Game - -> Board
    Game - -> Pawn
    
    Color <.UP. Professor
    Color <.UP. Student

    TowerColor <.UP. Tower
}

@enduml

@startuml initial_uml
skinparam BackgroundColor FFFFFF
skinparam shadowing false
skinparam RoundCorner 7
skinparam ArrowColor 454645
skinparam FontColor 454645
skinparam SequenceLifeLineBorderColor 696969
skinparam SequenceGroupHeaderFontColor 454645
skinparam SequenceGroupFontColor 696969
skinparam SequenceGroupBorderColor 696969
skinparam SequenceGroupBorderThickness 1

skinparam sequenceDivider {
    BorderColor 454645
    BorderThickness 1
    FontColor 454645
}

skinparam participant {
    BackgroundColor FF6347
    BorderColor 454645
    FontColor FFFFFF
    BorderThickness 1.5
}

skinparam database {
    BackgroundColor 00FFFF
    BorderColor 454645
    FontColor 454645
}

skinparam entity {
    BackgroundColor FFE552
    BorderColor 454645
    FontColor 454645
}

skinparam note {
    BackgroundColor 7FFFD4
    BorderColor 454645
    FontColor 454645
    BorderThickness 1.5
}

skinparam actor {
    BackgroundColor 454645
    BorderColor 454645
    FontColor 454645
}

skinparam boundary {
    BackgroundColor FFE552
    BorderColor 454645
    FontColor 454645
}

skinparam control {
    BackgroundColor FFE552
    BorderColor 454645
    FontColor 454645
}

skinparam collections {
    BackgroundColor FF5F42
    BorderColor 454645
    FontColor 454645
}

skinparam queue {
    BackgroundColor FF6347
    BorderColor 454645
    FontColor FFF
    BorderThickness 1.5
}
skinparam Linetype polyline
skinparam Linetype ortho

package model <<Folder>> {
    enum Color {
        YELLOW
        BLUE
        GREEN
        RED
        PINK
    }

    enum TowerColor {
        WHITE
        GRAY
        BLACK
    }

    class Game {
        - ArrayList<Player> playerOrder
        + <<constructor>>Game()
        + void round()
        + void addPlayer(Player player)
    }

    abstract class Board {
        ~ int ID
        + ArrayList<Student> getStudentOnBoard()
        + int getID()
    }
    
    abstract class Pawn {
        - Board position
        + Board getPosition()
        + void setPosition(Board newPosition)
    }

    abstract class Card

    class Player {
        - String nickname
        + <<constructor>>Player(String nickname)
        + String getNickname()
    }

    class Island {
    
    }
    
    class School {
    
    }

    class Cloud {

    }

    class Professor {
        - Color color
    }

    class Student {
        - Color color
    }

    class Tower {
        - TowerColor color
    }

    class MotherNature

    class AssistantCard {
        - int value
        - int movement
    }

    class CharacterCard {
        - Color color
    }

    class Deck {
        - ArrayList<Card> cardArrayList
        + <<constructor>>Deck(ArrayList<Card> cardArrayList)
        + Card extractCard()
    }

    class Coin {
        - AssistantCard card
        + AssistantCard getCard()
    }

    class NoEntryTile {
        - Island island
        + Island getPosition()
    }

    NoEntryTile -UP-> Island
    Coin -RIGHT-> AssistantCard

    Card <|-DOWN- AssistantCard
    Card <|- - CharacterCard

    Board <|-DOWN- Island
    Board <|-DOWN- Cloud
    Board <|-DOWN- School
    Board <-RIGHT- - Pawn

    Pawn <|- - Professor
    Pawn <|- - Student
    Pawn <|- - Tower
    Pawn <|- - MotherNature

    Deck *- - Card
    Deck <-UP- Player

    Game - -> Player
    Game - -> Board
    Game - -> Pawn
    
    Color <.UP. Professor
    Color <.UP. Student

    TowerColor <.UP. Tower
}

@enduml

PlantUML version 1.2022.2(Sat Mar 05 17:30:19 CET 2022)
(GPL source distribution)
Java Runtime: OpenJDK Runtime Environment
JVM: OpenJDK 64-Bit Server VM
Default Encoding: UTF-8
Language: en
Country: IT
--></g></svg>