<?xml version="1.0" encoding="UTF-8" standalone="no"?><svg xmlns="http://www.w3.org/2000/svg" xmlns:xlink="http://www.w3.org/1999/xlink" contentStyleType="text/css" height="422px" preserveAspectRatio="none" style="width:646px;height:422px;background:#FFFFFF;" version="1.1" viewBox="0 0 646 422" width="646.5px" zoomAndPan="magnify"><defs/><g><!--MD5=[5d4cd377749310b66bf14896f5cd8d9b]
cluster model--><g id="cluster_model"><path d="M4.75,3 L25.75,3 A2.625,2.625 0 0 1 27.5,4.75 L31,14.8047 L641.25,14.8047 A1.75,1.75 0 0 1 643,16.5547 L643,416.75 A1.75,1.75 0 0 1 641.25,418.5 L4.75,418.5 A1.75,1.75 0 0 1 3,416.75 L3,4.75 A1.75,1.75 0 0 1 4.75,3 " style="stroke:#696969;stroke-width:0.5;fill:none;"/><line style="stroke:#696969;stroke-width:0.5;fill:none;" x1="3" x2="31" y1="14.8047" y2="14.8047"/><text fill="#000000" font-family="sans-serif" font-size="7" font-weight="bold" lengthAdjust="spacing" textLength="21.5" x="5" y="11.2666">model</text></g><!--MD5=[18eee71c88ab61f27581b8cbdd3ef5ee]
class Color--><g id="elem_Color"><rect codeLine="6" fill="#F1F1F1" height="68.0234" id="Color" rx="1.75" ry="1.75" style="stroke:#181818;stroke-width:0.25;" width="35" x="294" y="271"/><ellipse cx="302.4" cy="279" fill="#EB937F" rx="5.5" ry="5.5" style="stroke:#181818;stroke-width:0.5;"/><path d="M301.65,279.5 L301.65,280.5 L303.65,280.5 L303.65,280 L303.65,279.7578 L303.9625,279.5 L304.15,279.5 L304.3375,279.5 L304.65,279.7578 L304.65,280 L304.65,281.5 L300.65,281.5 L300.4078,281.5 L300.15,281.1875 L300.15,281 L300.15,280.8125 L300.4078,280.5 L300.65,280.5 L300.65,280.5 L300.65,277.5 L300.65,277.5 L300.4078,277.5 L300.15,277.1875 L300.15,277 L300.15,276.8125 L300.4078,276.5 L300.65,276.5 L304.65,276.5 L304.65,278 L304.65,278.2422 L304.3375,278.5 L304.15,278.5 L303.9625,278.5 L303.65,278.2422 L303.65,278 L303.65,277.5 L301.65,277.5 L301.65,278.5 L302.15,278.5 L302.15,278.2578 L302.15,278.2578 L302.4625,278 L302.65,278 L302.8375,278 L303.15,278.2578 L303.15,278.5 L303.15,279.5 L303.15,279.7422 L302.8375,280 L302.8375,280 L302.65,280 L302.4625,280 L302.15,279.7422 L302.15,279.7422 L302.15,279.5 L301.65,279.5 Z " fill="#000000"/><text fill="#000000" font-family="sans-serif" font-size="7" lengthAdjust="spacing" textLength="17" x="309.6" y="281.8643">Color</text><line style="stroke:#181818;stroke-width:0.25;" x1="294.5" x2="328.5" y1="287" y2="287"/><text fill="#000000" font-family="sans-serif" font-size="7" lengthAdjust="spacing" textLength="29" x="297" y="296.2666">YELLOW</text><text fill="#000000" font-family="sans-serif" font-size="7" lengthAdjust="spacing" textLength="17.5" x="297" y="305.0713">BLUE</text><text fill="#000000" font-family="sans-serif" font-size="7" lengthAdjust="spacing" textLength="24" x="297" y="313.876">GREEN</text><text fill="#000000" font-family="sans-serif" font-size="7" lengthAdjust="spacing" textLength="14.5" x="297" y="322.6807">RED</text><text fill="#000000" font-family="sans-serif" font-size="7" lengthAdjust="spacing" textLength="15" x="297" y="331.4854">PINK</text><line style="stroke:#181818;stroke-width:0.25;" x1="294.5" x2="328.5" y1="335.0234" y2="335.0234"/></g><!--MD5=[6804500824724e03a064fc7681986872]
class TowerColor--><g id="elem_TowerColor"><rect codeLine="14" fill="#F1F1F1" height="50.4141" id="TowerColor" rx="1.75" ry="1.75" style="stroke:#181818;stroke-width:0.25;" width="52.5" x="177.75" y="279.75"/><ellipse cx="185.25" cy="287.75" fill="#EB937F" rx="5.5" ry="5.5" style="stroke:#181818;stroke-width:0.5;"/><path d="M184.5,288.25 L184.5,289.25 L186.5,289.25 L186.5,288.75 L186.5,288.5078 L186.8125,288.25 L187,288.25 L187.1875,288.25 L187.5,288.5078 L187.5,288.75 L187.5,290.25 L183.5,290.25 L183.2578,290.25 L183,289.9375 L183,289.75 L183,289.5625 L183.2578,289.25 L183.5,289.25 L183.5,289.25 L183.5,286.25 L183.5,286.25 L183.2578,286.25 L183,285.9375 L183,285.75 L183,285.5625 L183.2578,285.25 L183.5,285.25 L187.5,285.25 L187.5,286.75 L187.5,286.9922 L187.1875,287.25 L187,287.25 L186.8125,287.25 L186.5,286.9922 L186.5,286.75 L186.5,286.25 L184.5,286.25 L184.5,287.25 L185,287.25 L185,287.0078 L185,287.0078 L185.3125,286.75 L185.5,286.75 L185.6875,286.75 L186,287.0078 L186,287.25 L186,288.25 L186,288.4922 L185.6875,288.75 L185.6875,288.75 L185.5,288.75 L185.3125,288.75 L185,288.4922 L185,288.4922 L185,288.25 L184.5,288.25 Z " fill="#000000"/><text fill="#000000" font-family="sans-serif" font-size="7" lengthAdjust="spacing" textLength="36.5" x="192.25" y="290.6143">TowerColor</text><line style="stroke:#181818;stroke-width:0.25;" x1="178.25" x2="229.75" y1="295.75" y2="295.75"/><text fill="#000000" font-family="sans-serif" font-size="7" lengthAdjust="spacing" textLength="21.5" x="180.75" y="305.0166">WHITE</text><text fill="#000000" font-family="sans-serif" font-size="7" lengthAdjust="spacing" textLength="19.5" x="180.75" y="313.8213">GRAY</text><text fill="#000000" font-family="sans-serif" font-size="7" lengthAdjust="spacing" textLength="22.5" x="180.75" y="322.626">BLACK</text><line style="stroke:#181818;stroke-width:0.25;" x1="178.25" x2="229.75" y1="326.1641" y2="326.1641"/></g><!--MD5=[b6dcce5e5ef3c84b0b048d11301373dd]
class Game--><g id="elem_Game"><rect codeLine="20" fill="#F1F1F1" height="59.2188" id="Game" rx="1.75" ry="1.75" style="stroke:#181818;stroke-width:0.25;" width="109" x="229" y="21"/><ellipse cx="271.875" cy="29" fill="#ADD1B2" rx="5.5" ry="5.5" style="stroke:#181818;stroke-width:0.5;"/><path d="M272.875,27.25 Q272.9766,27 273.0938,26.875 Q273.2109,26.75 273.3438,26.75 Q273.5781,26.75 273.7266,26.8906 Q273.875,27.0313 273.875,27.3594 L273.875,28.1406 Q273.875,28.4688 273.7344,28.6094 Q273.5938,28.75 273.375,28.75 Q273.1797,28.75 273.0547,28.6641 Q272.9297,28.5781 272.875,28.3516 Q272.8516,28.1953 272.7656,28.1094 Q272.6094,27.9453 272.3281,27.8516 Q272.0469,27.75 271.7656,27.75 Q271.4141,27.75 271.1172,27.8906 Q270.8281,28.0313 270.6016,28.3438 Q270.375,28.6563 270.375,29.0859 L270.375,29.5469 Q270.375,30.0625 270.7969,30.4063 Q271.2188,30.75 271.9688,30.75 Q272.4141,30.75 272.7266,30.6484 Q272.9063,30.5938 273.1094,30.4141 Q273.2422,30.3125 273.3125,30.2813 Q273.3828,30.25 273.4688,30.25 Q273.6328,30.25 273.75,30.3828 Q273.875,30.5078 273.875,30.6875 Q273.875,30.8594 273.7031,31.0625 Q273.4531,31.3594 273.0547,31.5234 Q272.5313,31.75 271.8906,31.75 Q271.1406,31.75 270.5391,31.4531 Q270.0547,31.2188 269.7109,30.7109 Q269.375,30.2031 269.375,29.6016 L269.375,29.0547 Q269.375,28.4297 269.6719,27.8828 Q269.9766,27.3359 270.5,27.0469 Q271.0313,26.75 271.625,26.75 Q271.9844,26.75 272.2969,26.875 Q272.6094,27 272.875,27.25 Z " fill="#000000"/><text fill="#000000" font-family="sans-serif" font-size="7" lengthAdjust="spacing" textLength="19" x="282.125" y="31.8643">Game</text><line style="stroke:#181818;stroke-width:0.25;" x1="229.5" x2="337.5" y1="37" y2="37"/><rect fill="none" height="3" style="stroke:#C82930;stroke-width:0.5;" width="3" x="233" y="41"/><text fill="#000000" font-family="sans-serif" font-size="7" lengthAdjust="spacing" textLength="96" x="239" y="46.2666">ArrayList&lt;Player&gt; playerOrder</text><line style="stroke:#181818;stroke-width:0.25;" x1="229.5" x2="337.5" y1="49.8047" y2="49.8047"/><ellipse cx="234.5" cy="55.3047" fill="#84BE84" rx="1.5" ry="1.5" style="stroke:#038048;stroke-width:0.5;"/><text fill="#000000" font-family="sans-serif" font-size="7" lengthAdjust="spacing" textLength="67.5" x="239" y="59.0713">«constructor»Game()</text><ellipse cx="234.5" cy="64.1094" fill="#84BE84" rx="1.5" ry="1.5" style="stroke:#038048;stroke-width:0.5;"/><text fill="#000000" font-family="sans-serif" font-size="7" lengthAdjust="spacing" textLength="38.5" x="239" y="67.876">void round()</text><ellipse cx="234.5" cy="72.9141" fill="#84BE84" rx="1.5" ry="1.5" style="stroke:#038048;stroke-width:0.5;"/><text fill="#000000" font-family="sans-serif" font-size="7" lengthAdjust="spacing" textLength="93.5" x="239" y="76.6807">void addPlayer(Player player)</text></g><!--MD5=[9563755d011c5cec7ec66dc53565a59e]
class Board--><g id="elem_Board"><rect codeLine="27" fill="#F1F1F1" height="50.4141" id="Board" rx="1.75" ry="1.75" style="stroke:#181818;stroke-width:0.25;" width="143.5" x="59.25" y="110"/><ellipse cx="119.375" cy="118" fill="#A9DCDF" rx="5.5" ry="5.5" style="stroke:#181818;stroke-width:0.5;"/><path d="M120.25,118.75 L118.6016,118.75 L118.3828,119.25 L118.3828,119.25 L118.6172,119.25 L118.875,119.5625 L118.875,119.75 L118.875,119.9375 L118.6172,120.25 L118.3828,120.25 L117.4375,120.25 L117.1328,120.25 L116.875,119.9375 L116.875,119.75 L116.875,119.5625 L117.1328,119.25 L117.4375,119.25 L118.5938,116.25 L118.1563,116.25 L117.6328,116.25 L117.375,115.9375 L117.375,115.75 L117.375,115.5625 L117.6328,115.25 L118.1563,115.25 L119.9922,115.25 L121.3359,119.25 L121.6172,119.25 L121.6172,119.25 L121.875,119.5625 L121.875,119.75 L121.875,119.9375 L121.6172,120.25 L121.3359,120.25 L120.3906,120.25 L120.1328,120.25 L119.875,119.9375 L119.875,119.75 L119.875,119.5625 L120.1328,119.25 L120.3906,119.25 L120.3906,119.25 L120.25,118.75 Z M119.9766,117.75 L119.375,115.9609 L118.8594,117.75 L119.9766,117.75 Z " fill="#000000"/><text fill="#000000" font-family="sans-serif" font-size="7" font-style="italic" lengthAdjust="spacing" textLength="19" x="129.625" y="120.8643">Board</text><line style="stroke:#181818;stroke-width:0.25;" x1="59.75" x2="202.25" y1="126" y2="126"/><polygon fill="none" points="64.75,129.5,62.75,132.5,66.75,132.5" style="stroke:#1963A0;stroke-width:0.5;"/><text fill="#000000" font-family="sans-serif" font-size="7" lengthAdjust="spacing" textLength="16" x="69.25" y="135.2666">int ID</text><line style="stroke:#181818;stroke-width:0.25;" x1="59.75" x2="202.25" y1="138.8047" y2="138.8047"/><ellipse cx="64.75" cy="144.3047" fill="#84BE84" rx="1.5" ry="1.5" style="stroke:#038048;stroke-width:0.5;"/><text fill="#000000" font-family="sans-serif" font-size="7" lengthAdjust="spacing" textLength="130.5" x="69.25" y="148.0713">ArrayList&lt;Student&gt; getStudentOnBoard()</text><ellipse cx="64.75" cy="153.1094" fill="#84BE84" rx="1.5" ry="1.5" style="stroke:#038048;stroke-width:0.5;"/><text fill="#000000" font-family="sans-serif" font-size="7" lengthAdjust="spacing" textLength="31" x="69.25" y="156.876">int getID()</text></g><!--MD5=[af29ca247b3a3642f0fb478cea99ef78]
class Pawn--><g id="elem_Pawn"><rect codeLine="33" fill="#F1F1F1" height="50.4141" id="Pawn" rx="1.75" ry="1.75" style="stroke:#181818;stroke-width:0.25;" width="126" x="220.5" y="110"/><ellipse cx="272.875" cy="118" fill="#A9DCDF" rx="5.5" ry="5.5" style="stroke:#181818;stroke-width:0.5;"/><path d="M273.75,118.75 L272.1016,118.75 L271.8828,119.25 L271.8828,119.25 L272.1172,119.25 L272.375,119.5625 L272.375,119.75 L272.375,119.9375 L272.1172,120.25 L271.8828,120.25 L270.9375,120.25 L270.6328,120.25 L270.375,119.9375 L270.375,119.75 L270.375,119.5625 L270.6328,119.25 L270.9375,119.25 L272.0938,116.25 L271.6563,116.25 L271.1328,116.25 L270.875,115.9375 L270.875,115.75 L270.875,115.5625 L271.1328,115.25 L271.6563,115.25 L273.4922,115.25 L274.8359,119.25 L275.1172,119.25 L275.1172,119.25 L275.375,119.5625 L275.375,119.75 L275.375,119.9375 L275.1172,120.25 L274.8359,120.25 L273.8906,120.25 L273.6328,120.25 L273.375,119.9375 L273.375,119.75 L273.375,119.5625 L273.6328,119.25 L273.8906,119.25 L273.8906,119.25 L273.75,118.75 Z M273.4766,117.75 L272.875,115.9609 L272.3594,117.75 L273.4766,117.75 Z " fill="#000000"/><text fill="#000000" font-family="sans-serif" font-size="7" font-style="italic" lengthAdjust="spacing" textLength="17" x="283.125" y="120.8643">Pawn</text><line style="stroke:#181818;stroke-width:0.25;" x1="221" x2="346" y1="126" y2="126"/><rect fill="none" height="3" style="stroke:#C82930;stroke-width:0.5;" width="3" x="224.5" y="130"/><text fill="#000000" font-family="sans-serif" font-size="7" lengthAdjust="spacing" textLength="45.5" x="230.5" y="135.2666">Board position</text><line style="stroke:#181818;stroke-width:0.25;" x1="221" x2="346" y1="138.8047" y2="138.8047"/><ellipse cx="226" cy="144.3047" fill="#84BE84" rx="1.5" ry="1.5" style="stroke:#038048;stroke-width:0.5;"/><text fill="#000000" font-family="sans-serif" font-size="7" lengthAdjust="spacing" textLength="61" x="230.5" y="148.0713">Board getPosition()</text><ellipse cx="226" cy="153.1094" fill="#84BE84" rx="1.5" ry="1.5" style="stroke:#038048;stroke-width:0.5;"/><text fill="#000000" font-family="sans-serif" font-size="7" lengthAdjust="spacing" textLength="113" x="230.5" y="156.876">void setPosition(Board newPosition)</text></g><!--MD5=[5e305716458bbdabbd2d7f572ed2bae2]
class Card--><g id="elem_Card"><rect codeLine="39" fill="#F1F1F1" height="24" id="Card" rx="1.75" ry="1.75" style="stroke:#181818;stroke-width:0.25;" width="31.5" x="532.75" y="293"/><ellipse cx="540.25" cy="301" fill="#A9DCDF" rx="5.5" ry="5.5" style="stroke:#181818;stroke-width:0.5;"/><path d="M541.125,301.75 L539.4766,301.75 L539.2578,302.25 L539.2578,302.25 L539.4922,302.25 L539.75,302.5625 L539.75,302.75 L539.75,302.9375 L539.4922,303.25 L539.2578,303.25 L538.3125,303.25 L538.0078,303.25 L537.75,302.9375 L537.75,302.75 L537.75,302.5625 L538.0078,302.25 L538.3125,302.25 L539.4688,299.25 L539.0313,299.25 L538.5078,299.25 L538.25,298.9375 L538.25,298.75 L538.25,298.5625 L538.5078,298.25 L539.0313,298.25 L540.8672,298.25 L542.2109,302.25 L542.4922,302.25 L542.4922,302.25 L542.75,302.5625 L542.75,302.75 L542.75,302.9375 L542.4922,303.25 L542.2109,303.25 L541.2656,303.25 L541.0078,303.25 L540.75,302.9375 L540.75,302.75 L540.75,302.5625 L541.0078,302.25 L541.2656,302.25 L541.2656,302.25 L541.125,301.75 Z M540.8516,300.75 L540.25,298.9609 L539.7344,300.75 L540.8516,300.75 Z " fill="#000000"/><text fill="#000000" font-family="sans-serif" font-size="7" font-style="italic" lengthAdjust="spacing" textLength="15.5" x="547.25" y="303.8643">Card</text><line style="stroke:#181818;stroke-width:0.25;" x1="533.25" x2="563.75" y1="309" y2="309"/><line style="stroke:#181818;stroke-width:0.25;" x1="533.25" x2="563.75" y1="313" y2="313"/></g><!--MD5=[2cb47ba637a0d19583e6199456f6ad0b]
class Player--><g id="elem_Player"><rect codeLine="41" fill="#F1F1F1" height="50.4141" id="Player" rx="1.75" ry="1.75" style="stroke:#181818;stroke-width:0.25;" width="132" x="425.5" y="110"/><ellipse cx="479.375" cy="118" fill="#ADD1B2" rx="5.5" ry="5.5" style="stroke:#181818;stroke-width:0.5;"/><path d="M480.375,116.25 Q480.4766,116 480.5938,115.875 Q480.7109,115.75 480.8438,115.75 Q481.0781,115.75 481.2266,115.8906 Q481.375,116.0313 481.375,116.3594 L481.375,117.1406 Q481.375,117.4688 481.2344,117.6094 Q481.0938,117.75 480.875,117.75 Q480.6797,117.75 480.5547,117.6641 Q480.4297,117.5781 480.375,117.3516 Q480.3516,117.1953 480.2656,117.1094 Q480.1094,116.9453 479.8281,116.8516 Q479.5469,116.75 479.2656,116.75 Q478.9141,116.75 478.6172,116.8906 Q478.3281,117.0313 478.1016,117.3438 Q477.875,117.6563 477.875,118.0859 L477.875,118.5469 Q477.875,119.0625 478.2969,119.4063 Q478.7188,119.75 479.4688,119.75 Q479.9141,119.75 480.2266,119.6484 Q480.4063,119.5938 480.6094,119.4141 Q480.7422,119.3125 480.8125,119.2813 Q480.8828,119.25 480.9688,119.25 Q481.1328,119.25 481.25,119.3828 Q481.375,119.5078 481.375,119.6875 Q481.375,119.8594 481.2031,120.0625 Q480.9531,120.3594 480.5547,120.5234 Q480.0313,120.75 479.3906,120.75 Q478.6406,120.75 478.0391,120.4531 Q477.5547,120.2188 477.2109,119.7109 Q476.875,119.2031 476.875,118.6016 L476.875,118.0547 Q476.875,117.4297 477.1719,116.8828 Q477.4766,116.3359 478,116.0469 Q478.5313,115.75 479.125,115.75 Q479.4844,115.75 479.7969,115.875 Q480.1094,116 480.375,116.25 Z " fill="#000000"/><text fill="#000000" font-family="sans-serif" font-size="7" lengthAdjust="spacing" textLength="20" x="489.625" y="120.8643">Player</text><line style="stroke:#181818;stroke-width:0.25;" x1="426" x2="557" y1="126" y2="126"/><rect fill="none" height="3" style="stroke:#C82930;stroke-width:0.5;" width="3" x="429.5" y="130"/><text fill="#000000" font-family="sans-serif" font-size="7" lengthAdjust="spacing" textLength="50.5" x="435.5" y="135.2666">String nickname</text><line style="stroke:#181818;stroke-width:0.25;" x1="426" x2="557" y1="138.8047" y2="138.8047"/><ellipse cx="431" cy="144.3047" fill="#84BE84" rx="1.5" ry="1.5" style="stroke:#038048;stroke-width:0.5;"/><text fill="#000000" font-family="sans-serif" font-size="7" lengthAdjust="spacing" textLength="119" x="435.5" y="148.0713">«constructor»Player(String nickname)</text><ellipse cx="431" cy="153.1094" fill="#84BE84" rx="1.5" ry="1.5" style="stroke:#038048;stroke-width:0.5;"/><text fill="#000000" font-family="sans-serif" font-size="7" lengthAdjust="spacing" textLength="66" x="435.5" y="156.876">String getNickname()</text></g><!--MD5=[05ce2a234461a7e613a06d388968c06d]
class Island--><g id="elem_Island"><rect codeLine="47" fill="#F1F1F1" height="24" id="Island" rx="1.75" ry="1.75" style="stroke:#181818;stroke-width:0.25;" width="34.5" x="11.25" y="203.75"/><ellipse cx="18.75" cy="211.75" fill="#ADD1B2" rx="5.5" ry="5.5" style="stroke:#181818;stroke-width:0.5;"/><path d="M19.75,210 Q19.8516,209.75 19.9688,209.625 Q20.0859,209.5 20.2188,209.5 Q20.4531,209.5 20.6016,209.6406 Q20.75,209.7813 20.75,210.1094 L20.75,210.8906 Q20.75,211.2188 20.6094,211.3594 Q20.4688,211.5 20.25,211.5 Q20.0547,211.5 19.9297,211.4141 Q19.8047,211.3281 19.75,211.1016 Q19.7266,210.9453 19.6406,210.8594 Q19.4844,210.6953 19.2031,210.6016 Q18.9219,210.5 18.6406,210.5 Q18.2891,210.5 17.9922,210.6406 Q17.7031,210.7813 17.4766,211.0938 Q17.25,211.4063 17.25,211.8359 L17.25,212.2969 Q17.25,212.8125 17.6719,213.1563 Q18.0938,213.5 18.8438,213.5 Q19.2891,213.5 19.6016,213.3984 Q19.7813,213.3438 19.9844,213.1641 Q20.1172,213.0625 20.1875,213.0313 Q20.2578,213 20.3438,213 Q20.5078,213 20.625,213.1328 Q20.75,213.2578 20.75,213.4375 Q20.75,213.6094 20.5781,213.8125 Q20.3281,214.1094 19.9297,214.2734 Q19.4063,214.5 18.7656,214.5 Q18.0156,214.5 17.4141,214.2031 Q16.9297,213.9688 16.5859,213.4609 Q16.25,212.9531 16.25,212.3516 L16.25,211.8047 Q16.25,211.1797 16.5469,210.6328 Q16.8516,210.0859 17.375,209.7969 Q17.9063,209.5 18.5,209.5 Q18.8594,209.5 19.1719,209.625 Q19.4844,209.75 19.75,210 Z " fill="#000000"/><text fill="#000000" font-family="sans-serif" font-size="7" lengthAdjust="spacing" textLength="18.5" x="25.75" y="214.6143">Island</text><line style="stroke:#181818;stroke-width:0.25;" x1="11.75" x2="45.25" y1="219.75" y2="219.75"/><line style="stroke:#181818;stroke-width:0.25;" x1="11.75" x2="45.25" y1="223.75" y2="223.75"/></g><!--MD5=[10a9fff9df9a76a22f65fd5d58adb785]
class School--><g id="elem_School"><rect codeLine="51" fill="#F1F1F1" height="24" id="School" rx="1.75" ry="1.75" style="stroke:#181818;stroke-width:0.25;" width="37.5" x="63.25" y="203.75"/><ellipse cx="70.75" cy="211.75" fill="#ADD1B2" rx="5.5" ry="5.5" style="stroke:#181818;stroke-width:0.5;"/><path d="M71.75,210 Q71.8516,209.75 71.9688,209.625 Q72.0859,209.5 72.2188,209.5 Q72.4531,209.5 72.6016,209.6406 Q72.75,209.7813 72.75,210.1094 L72.75,210.8906 Q72.75,211.2188 72.6094,211.3594 Q72.4688,211.5 72.25,211.5 Q72.0547,211.5 71.9297,211.4141 Q71.8047,211.3281 71.75,211.1016 Q71.7266,210.9453 71.6406,210.8594 Q71.4844,210.6953 71.2031,210.6016 Q70.9219,210.5 70.6406,210.5 Q70.2891,210.5 69.9922,210.6406 Q69.7031,210.7813 69.4766,211.0938 Q69.25,211.4063 69.25,211.8359 L69.25,212.2969 Q69.25,212.8125 69.6719,213.1563 Q70.0938,213.5 70.8438,213.5 Q71.2891,213.5 71.6016,213.3984 Q71.7813,213.3438 71.9844,213.1641 Q72.1172,213.0625 72.1875,213.0313 Q72.2578,213 72.3438,213 Q72.5078,213 72.625,213.1328 Q72.75,213.2578 72.75,213.4375 Q72.75,213.6094 72.5781,213.8125 Q72.3281,214.1094 71.9297,214.2734 Q71.4063,214.5 70.7656,214.5 Q70.0156,214.5 69.4141,214.2031 Q68.9297,213.9688 68.5859,213.4609 Q68.25,212.9531 68.25,212.3516 L68.25,211.8047 Q68.25,211.1797 68.5469,210.6328 Q68.8516,210.0859 69.375,209.7969 Q69.9063,209.5 70.5,209.5 Q70.8594,209.5 71.1719,209.625 Q71.4844,209.75 71.75,210 Z " fill="#000000"/><text fill="#000000" font-family="sans-serif" font-size="7" lengthAdjust="spacing" textLength="21.5" x="77.75" y="214.6143">School</text><line style="stroke:#181818;stroke-width:0.25;" x1="63.75" x2="100.25" y1="219.75" y2="219.75"/><line style="stroke:#181818;stroke-width:0.25;" x1="63.75" x2="100.25" y1="223.75" y2="223.75"/></g><!--MD5=[a18b01c4419d38931cdb2da3f79e5451]
class Cloud--><g id="elem_Cloud"><rect codeLine="55" fill="#F1F1F1" height="24" id="Cloud" rx="1.75" ry="1.75" style="stroke:#181818;stroke-width:0.25;" width="34.5" x="118.25" y="203.75"/><ellipse cx="125.75" cy="211.75" fill="#ADD1B2" rx="5.5" ry="5.5" style="stroke:#181818;stroke-width:0.5;"/><path d="M126.75,210 Q126.8516,209.75 126.9688,209.625 Q127.0859,209.5 127.2188,209.5 Q127.4531,209.5 127.6016,209.6406 Q127.75,209.7813 127.75,210.1094 L127.75,210.8906 Q127.75,211.2188 127.6094,211.3594 Q127.4688,211.5 127.25,211.5 Q127.0547,211.5 126.9297,211.4141 Q126.8047,211.3281 126.75,211.1016 Q126.7266,210.9453 126.6406,210.8594 Q126.4844,210.6953 126.2031,210.6016 Q125.9219,210.5 125.6406,210.5 Q125.2891,210.5 124.9922,210.6406 Q124.7031,210.7813 124.4766,211.0938 Q124.25,211.4063 124.25,211.8359 L124.25,212.2969 Q124.25,212.8125 124.6719,213.1563 Q125.0938,213.5 125.8438,213.5 Q126.2891,213.5 126.6016,213.3984 Q126.7813,213.3438 126.9844,213.1641 Q127.1172,213.0625 127.1875,213.0313 Q127.2578,213 127.3438,213 Q127.5078,213 127.625,213.1328 Q127.75,213.2578 127.75,213.4375 Q127.75,213.6094 127.5781,213.8125 Q127.3281,214.1094 126.9297,214.2734 Q126.4063,214.5 125.7656,214.5 Q125.0156,214.5 124.4141,214.2031 Q123.9297,213.9688 123.5859,213.4609 Q123.25,212.9531 123.25,212.3516 L123.25,211.8047 Q123.25,211.1797 123.5469,210.6328 Q123.8516,210.0859 124.375,209.7969 Q124.9063,209.5 125.5,209.5 Q125.8594,209.5 126.1719,209.625 Q126.4844,209.75 126.75,210 Z " fill="#000000"/><text fill="#000000" font-family="sans-serif" font-size="7" lengthAdjust="spacing" textLength="18.5" x="132.75" y="214.6143">Cloud</text><line style="stroke:#181818;stroke-width:0.25;" x1="118.75" x2="152.25" y1="219.75" y2="219.75"/><line style="stroke:#181818;stroke-width:0.25;" x1="118.75" x2="152.25" y1="223.75" y2="223.75"/></g><!--MD5=[21bc47177812100412265a444b535d59]
class Professor--><g id="elem_Professor"><rect codeLine="59" fill="#F1F1F1" height="32.8047" id="Professor" rx="1.75" ry="1.75" style="stroke:#181818;stroke-width:0.25;" width="47.5" x="320.25" y="199.25"/><ellipse cx="328.2" cy="207.25" fill="#ADD1B2" rx="5.5" ry="5.5" style="stroke:#181818;stroke-width:0.5;"/><path d="M329.2,205.5 Q329.3016,205.25 329.4188,205.125 Q329.5359,205 329.6688,205 Q329.9031,205 330.0516,205.1406 Q330.2,205.2813 330.2,205.6094 L330.2,206.3906 Q330.2,206.7188 330.0594,206.8594 Q329.9188,207 329.7,207 Q329.5047,207 329.3797,206.9141 Q329.2547,206.8281 329.2,206.6016 Q329.1766,206.4453 329.0906,206.3594 Q328.9344,206.1953 328.6531,206.1016 Q328.3719,206 328.0906,206 Q327.7391,206 327.4422,206.1406 Q327.1531,206.2813 326.9266,206.5938 Q326.7,206.9063 326.7,207.3359 L326.7,207.7969 Q326.7,208.3125 327.1219,208.6563 Q327.5438,209 328.2938,209 Q328.7391,209 329.0516,208.8984 Q329.2313,208.8438 329.4344,208.6641 Q329.5672,208.5625 329.6375,208.5313 Q329.7078,208.5 329.7938,208.5 Q329.9578,208.5 330.075,208.6328 Q330.2,208.7578 330.2,208.9375 Q330.2,209.1094 330.0281,209.3125 Q329.7781,209.6094 329.3797,209.7734 Q328.8563,210 328.2156,210 Q327.4656,210 326.8641,209.7031 Q326.3797,209.4688 326.0359,208.9609 Q325.7,208.4531 325.7,207.8516 L325.7,207.3047 Q325.7,206.6797 325.9969,206.1328 Q326.3016,205.5859 326.825,205.2969 Q327.3563,205 327.95,205 Q328.3094,205 328.6219,205.125 Q328.9344,205.25 329.2,205.5 Z " fill="#000000"/><text fill="#000000" font-family="sans-serif" font-size="7" lengthAdjust="spacing" textLength="30.5" x="335.3" y="210.1143">Professor</text><line style="stroke:#181818;stroke-width:0.25;" x1="320.75" x2="367.25" y1="215.25" y2="215.25"/><rect fill="none" height="3" style="stroke:#C82930;stroke-width:0.5;" width="3" x="324.25" y="219.25"/><text fill="#000000" font-family="sans-serif" font-size="7" lengthAdjust="spacing" textLength="34.5" x="330.25" y="224.5166">Color color</text><line style="stroke:#181818;stroke-width:0.25;" x1="320.75" x2="367.25" y1="228.0547" y2="228.0547"/></g><!--MD5=[d6181cb537bdc20c0a3007a98a56832d]
class Student--><g id="elem_Student"><rect codeLine="63" fill="#F1F1F1" height="32.8047" id="Student" rx="1.75" ry="1.75" style="stroke:#181818;stroke-width:0.25;" width="47.5" x="255.25" y="199.25"/><ellipse cx="265.9" cy="207.25" fill="#ADD1B2" rx="5.5" ry="5.5" style="stroke:#181818;stroke-width:0.5;"/><path d="M266.9,205.5 Q267.0016,205.25 267.1188,205.125 Q267.2359,205 267.3688,205 Q267.6031,205 267.7516,205.1406 Q267.9,205.2813 267.9,205.6094 L267.9,206.3906 Q267.9,206.7188 267.7594,206.8594 Q267.6188,207 267.4,207 Q267.2047,207 267.0797,206.9141 Q266.9547,206.8281 266.9,206.6016 Q266.8766,206.4453 266.7906,206.3594 Q266.6344,206.1953 266.3531,206.1016 Q266.0719,206 265.7906,206 Q265.4391,206 265.1422,206.1406 Q264.8531,206.2813 264.6266,206.5938 Q264.4,206.9063 264.4,207.3359 L264.4,207.7969 Q264.4,208.3125 264.8219,208.6563 Q265.2438,209 265.9938,209 Q266.4391,209 266.7516,208.8984 Q266.9313,208.8438 267.1344,208.6641 Q267.2672,208.5625 267.3375,208.5313 Q267.4078,208.5 267.4938,208.5 Q267.6578,208.5 267.775,208.6328 Q267.9,208.7578 267.9,208.9375 Q267.9,209.1094 267.7281,209.3125 Q267.4781,209.6094 267.0797,209.7734 Q266.5563,210 265.9156,210 Q265.1656,210 264.5641,209.7031 Q264.0797,209.4688 263.7359,208.9609 Q263.4,208.4531 263.4,207.8516 L263.4,207.3047 Q263.4,206.6797 263.6969,206.1328 Q264.0016,205.5859 264.525,205.2969 Q265.0563,205 265.65,205 Q266.0094,205 266.3219,205.125 Q266.6344,205.25 266.9,205.5 Z " fill="#000000"/><text fill="#000000" font-family="sans-serif" font-size="7" lengthAdjust="spacing" textLength="24.5" x="273.6" y="210.1143">Student</text><line style="stroke:#181818;stroke-width:0.25;" x1="255.75" x2="302.25" y1="215.25" y2="215.25"/><rect fill="none" height="3" style="stroke:#C82930;stroke-width:0.5;" width="3" x="259.25" y="219.25"/><text fill="#000000" font-family="sans-serif" font-size="7" lengthAdjust="spacing" textLength="34.5" x="265.25" y="224.5166">Color color</text><line style="stroke:#181818;stroke-width:0.25;" x1="255.75" x2="302.25" y1="228.0547" y2="228.0547"/></g><!--MD5=[e6a0401af6286042726057f986c3e7c8]
class Tower--><g id="elem_Tower"><rect codeLine="67" fill="#F1F1F1" height="32.8047" id="Tower" rx="1.75" ry="1.75" style="stroke:#181818;stroke-width:0.25;" width="67" x="170.5" y="199.25"/><ellipse cx="192.175" cy="207.25" fill="#ADD1B2" rx="5.5" ry="5.5" style="stroke:#181818;stroke-width:0.5;"/><path d="M193.175,205.5 Q193.2766,205.25 193.3938,205.125 Q193.5109,205 193.6438,205 Q193.8781,205 194.0266,205.1406 Q194.175,205.2813 194.175,205.6094 L194.175,206.3906 Q194.175,206.7188 194.0344,206.8594 Q193.8938,207 193.675,207 Q193.4797,207 193.3547,206.9141 Q193.2297,206.8281 193.175,206.6016 Q193.1516,206.4453 193.0656,206.3594 Q192.9094,206.1953 192.6281,206.1016 Q192.3469,206 192.0656,206 Q191.7141,206 191.4172,206.1406 Q191.1281,206.2813 190.9016,206.5938 Q190.675,206.9063 190.675,207.3359 L190.675,207.7969 Q190.675,208.3125 191.0969,208.6563 Q191.5188,209 192.2688,209 Q192.7141,209 193.0266,208.8984 Q193.2063,208.8438 193.4094,208.6641 Q193.5422,208.5625 193.6125,208.5313 Q193.6828,208.5 193.7688,208.5 Q193.9328,208.5 194.05,208.6328 Q194.175,208.7578 194.175,208.9375 Q194.175,209.1094 194.0031,209.3125 Q193.7531,209.6094 193.3547,209.7734 Q192.8313,210 192.1906,210 Q191.4406,210 190.8391,209.7031 Q190.3547,209.4688 190.0109,208.9609 Q189.675,208.4531 189.675,207.8516 L189.675,207.3047 Q189.675,206.6797 189.9719,206.1328 Q190.2766,205.5859 190.8,205.2969 Q191.3313,205 191.925,205 Q192.2844,205 192.5969,205.125 Q192.9094,205.25 193.175,205.5 Z " fill="#000000"/><text fill="#000000" font-family="sans-serif" font-size="7" lengthAdjust="spacing" textLength="19.5" x="202.325" y="210.1143">Tower</text><line style="stroke:#181818;stroke-width:0.25;" x1="171" x2="237" y1="215.25" y2="215.25"/><rect fill="none" height="3" style="stroke:#C82930;stroke-width:0.5;" width="3" x="174.5" y="219.25"/><text fill="#000000" font-family="sans-serif" font-size="7" lengthAdjust="spacing" textLength="54" x="180.5" y="224.5166">TowerColor color</text><line style="stroke:#181818;stroke-width:0.25;" x1="171" x2="237" y1="228.0547" y2="228.0547"/></g><!--MD5=[3ea2e56578276300f1408dbb43472621]
class MotherNature--><g id="elem_MotherNature"><rect codeLine="71" fill="#F1F1F1" height="24" id="MotherNature" rx="1.75" ry="1.75" style="stroke:#181818;stroke-width:0.25;" width="59" x="385.5" y="203.75"/><ellipse cx="393" cy="211.75" fill="#ADD1B2" rx="5.5" ry="5.5" style="stroke:#181818;stroke-width:0.5;"/><path d="M394,210 Q394.1016,209.75 394.2188,209.625 Q394.3359,209.5 394.4688,209.5 Q394.7031,209.5 394.8516,209.6406 Q395,209.7813 395,210.1094 L395,210.8906 Q395,211.2188 394.8594,211.3594 Q394.7188,211.5 394.5,211.5 Q394.3047,211.5 394.1797,211.4141 Q394.0547,211.3281 394,211.1016 Q393.9766,210.9453 393.8906,210.8594 Q393.7344,210.6953 393.4531,210.6016 Q393.1719,210.5 392.8906,210.5 Q392.5391,210.5 392.2422,210.6406 Q391.9531,210.7813 391.7266,211.0938 Q391.5,211.4063 391.5,211.8359 L391.5,212.2969 Q391.5,212.8125 391.9219,213.1563 Q392.3438,213.5 393.0938,213.5 Q393.5391,213.5 393.8516,213.3984 Q394.0313,213.3438 394.2344,213.1641 Q394.3672,213.0625 394.4375,213.0313 Q394.5078,213 394.5938,213 Q394.7578,213 394.875,213.1328 Q395,213.2578 395,213.4375 Q395,213.6094 394.8281,213.8125 Q394.5781,214.1094 394.1797,214.2734 Q393.6563,214.5 393.0156,214.5 Q392.2656,214.5 391.6641,214.2031 Q391.1797,213.9688 390.8359,213.4609 Q390.5,212.9531 390.5,212.3516 L390.5,211.8047 Q390.5,211.1797 390.7969,210.6328 Q391.1016,210.0859 391.625,209.7969 Q392.1563,209.5 392.75,209.5 Q393.1094,209.5 393.4219,209.625 Q393.7344,209.75 394,210 Z " fill="#000000"/><text fill="#000000" font-family="sans-serif" font-size="7" lengthAdjust="spacing" textLength="43" x="400" y="214.6143">MotherNature</text><line style="stroke:#181818;stroke-width:0.25;" x1="386" x2="444" y1="219.75" y2="219.75"/><line style="stroke:#181818;stroke-width:0.25;" x1="386" x2="444" y1="223.75" y2="223.75"/></g><!--MD5=[9153511ab415ec25fadc371cb52004ef]
class AssistantCard--><g id="elem_AssistantCard"><rect codeLine="73" fill="#F1F1F1" height="41.6094" id="AssistantCard" rx="1.75" ry="1.75" style="stroke:#181818;stroke-width:0.25;" width="60" x="330.5" y="369"/><ellipse cx="338" cy="377" fill="#ADD1B2" rx="5.5" ry="5.5" style="stroke:#181818;stroke-width:0.5;"/><path d="M339,375.25 Q339.1016,375 339.2188,374.875 Q339.3359,374.75 339.4688,374.75 Q339.7031,374.75 339.8516,374.8906 Q340,375.0313 340,375.3594 L340,376.1406 Q340,376.4688 339.8594,376.6094 Q339.7188,376.75 339.5,376.75 Q339.3047,376.75 339.1797,376.6641 Q339.0547,376.5781 339,376.3516 Q338.9766,376.1953 338.8906,376.1094 Q338.7344,375.9453 338.4531,375.8516 Q338.1719,375.75 337.8906,375.75 Q337.5391,375.75 337.2422,375.8906 Q336.9531,376.0313 336.7266,376.3438 Q336.5,376.6563 336.5,377.0859 L336.5,377.5469 Q336.5,378.0625 336.9219,378.4063 Q337.3438,378.75 338.0938,378.75 Q338.5391,378.75 338.8516,378.6484 Q339.0313,378.5938 339.2344,378.4141 Q339.3672,378.3125 339.4375,378.2813 Q339.5078,378.25 339.5938,378.25 Q339.7578,378.25 339.875,378.3828 Q340,378.5078 340,378.6875 Q340,378.8594 339.8281,379.0625 Q339.5781,379.3594 339.1797,379.5234 Q338.6563,379.75 338.0156,379.75 Q337.2656,379.75 336.6641,379.4531 Q336.1797,379.2188 335.8359,378.7109 Q335.5,378.2031 335.5,377.6016 L335.5,377.0547 Q335.5,376.4297 335.7969,375.8828 Q336.1016,375.3359 336.625,375.0469 Q337.1563,374.75 337.75,374.75 Q338.1094,374.75 338.4219,374.875 Q338.7344,375 339,375.25 Z " fill="#000000"/><text fill="#000000" font-family="sans-serif" font-size="7" lengthAdjust="spacing" textLength="44" x="345" y="379.8643">AssistantCard</text><line style="stroke:#181818;stroke-width:0.25;" x1="331" x2="390" y1="385" y2="385"/><rect fill="none" height="3" style="stroke:#C82930;stroke-width:0.5;" width="3" x="334.5" y="389"/><text fill="#000000" font-family="sans-serif" font-size="7" lengthAdjust="spacing" textLength="26.5" x="340.5" y="394.2666">int value</text><rect fill="none" height="3" style="stroke:#C82930;stroke-width:0.5;" width="3" x="334.5" y="397.8047"/><text fill="#000000" font-family="sans-serif" font-size="7" lengthAdjust="spacing" textLength="42" x="340.5" y="403.0713">int movement</text><line style="stroke:#181818;stroke-width:0.25;" x1="331" x2="390" y1="406.6094" y2="406.6094"/></g><!--MD5=[4ea8e61345abb1b5d1b65d1adc4a63a0]
class CharacterCard--><g id="elem_CharacterCard"><rect codeLine="78" fill="#F1F1F1" height="32.8047" id="CharacterCard" rx="1.75" ry="1.75" style="stroke:#181818;stroke-width:0.25;" width="97.5" x="518.25" y="373.25"/><ellipse cx="541.375" cy="381.25" fill="#ADD1B2" rx="5.5" ry="5.5" style="stroke:#181818;stroke-width:0.5;"/><path d="M542.375,379.5 Q542.4766,379.25 542.5938,379.125 Q542.7109,379 542.8438,379 Q543.0781,379 543.2266,379.1406 Q543.375,379.2813 543.375,379.6094 L543.375,380.3906 Q543.375,380.7188 543.2344,380.8594 Q543.0938,381 542.875,381 Q542.6797,381 542.5547,380.9141 Q542.4297,380.8281 542.375,380.6016 Q542.3516,380.4453 542.2656,380.3594 Q542.1094,380.1953 541.8281,380.1016 Q541.5469,380 541.2656,380 Q540.9141,380 540.6172,380.1406 Q540.3281,380.2813 540.1016,380.5938 Q539.875,380.9063 539.875,381.3359 L539.875,381.7969 Q539.875,382.3125 540.2969,382.6563 Q540.7188,383 541.4688,383 Q541.9141,383 542.2266,382.8984 Q542.4063,382.8438 542.6094,382.6641 Q542.7422,382.5625 542.8125,382.5313 Q542.8828,382.5 542.9688,382.5 Q543.1328,382.5 543.25,382.6328 Q543.375,382.7578 543.375,382.9375 Q543.375,383.1094 543.2031,383.3125 Q542.9531,383.6094 542.5547,383.7734 Q542.0313,384 541.3906,384 Q540.6406,384 540.0391,383.7031 Q539.5547,383.4688 539.2109,382.9609 Q538.875,382.4531 538.875,381.8516 L538.875,381.3047 Q538.875,380.6797 539.1719,380.1328 Q539.4766,379.5859 540,379.2969 Q540.5313,379 541.125,379 Q541.4844,379 541.7969,379.125 Q542.1094,379.25 542.375,379.5 Z " fill="#000000"/><text fill="#000000" font-family="sans-serif" font-size="7" lengthAdjust="spacing" textLength="47" x="551.625" y="384.1143">CharacterCard</text><line style="stroke:#181818;stroke-width:0.25;" x1="518.75" x2="615.25" y1="389.25" y2="389.25"/><rect fill="none" height="3" style="stroke:#C82930;stroke-width:0.5;" width="3" x="522.25" y="393.25"/><text fill="#000000" font-family="sans-serif" font-size="7" lengthAdjust="spacing" textLength="84.5" x="528.25" y="398.5166">CharacterCardEffect effect</text><line style="stroke:#181818;stroke-width:0.25;" x1="518.75" x2="615.25" y1="402.0547" y2="402.0547"/></g><!--MD5=[30299a58ba6b78debaaed5ddbb42f29a]
class Deck--><g id="elem_Deck"><rect codeLine="82" fill="#F1F1F1" height="50.4141" id="Deck" rx="1.75" ry="1.75" style="stroke:#181818;stroke-width:0.25;" width="173" x="462" y="190.5"/><ellipse cx="538.375" cy="198.5" fill="#ADD1B2" rx="5.5" ry="5.5" style="stroke:#181818;stroke-width:0.5;"/><path d="M539.375,196.75 Q539.4766,196.5 539.5938,196.375 Q539.7109,196.25 539.8438,196.25 Q540.0781,196.25 540.2266,196.3906 Q540.375,196.5313 540.375,196.8594 L540.375,197.6406 Q540.375,197.9688 540.2344,198.1094 Q540.0938,198.25 539.875,198.25 Q539.6797,198.25 539.5547,198.1641 Q539.4297,198.0781 539.375,197.8516 Q539.3516,197.6953 539.2656,197.6094 Q539.1094,197.4453 538.8281,197.3516 Q538.5469,197.25 538.2656,197.25 Q537.9141,197.25 537.6172,197.3906 Q537.3281,197.5313 537.1016,197.8438 Q536.875,198.1563 536.875,198.5859 L536.875,199.0469 Q536.875,199.5625 537.2969,199.9063 Q537.7188,200.25 538.4688,200.25 Q538.9141,200.25 539.2266,200.1484 Q539.4063,200.0938 539.6094,199.9141 Q539.7422,199.8125 539.8125,199.7813 Q539.8828,199.75 539.9688,199.75 Q540.1328,199.75 540.25,199.8828 Q540.375,200.0078 540.375,200.1875 Q540.375,200.3594 540.2031,200.5625 Q539.9531,200.8594 539.5547,201.0234 Q539.0313,201.25 538.3906,201.25 Q537.6406,201.25 537.0391,200.9531 Q536.5547,200.7188 536.2109,200.2109 Q535.875,199.7031 535.875,199.1016 L535.875,198.5547 Q535.875,197.9297 536.1719,197.3828 Q536.4766,196.8359 537,196.5469 Q537.5313,196.25 538.125,196.25 Q538.4844,196.25 538.7969,196.375 Q539.1094,196.5 539.375,196.75 Z " fill="#000000"/><text fill="#000000" font-family="sans-serif" font-size="7" lengthAdjust="spacing" textLength="16" x="548.625" y="201.3643">Deck</text><line style="stroke:#181818;stroke-width:0.25;" x1="462.5" x2="634.5" y1="206.5" y2="206.5"/><rect fill="none" height="3" style="stroke:#C82930;stroke-width:0.5;" width="3" x="466" y="210.5"/><text fill="#000000" font-family="sans-serif" font-size="7" lengthAdjust="spacing" textLength="95.5" x="472" y="215.7666">ArrayList&lt;Card&gt; cardArrayList</text><line style="stroke:#181818;stroke-width:0.25;" x1="462.5" x2="634.5" y1="219.3047" y2="219.3047"/><ellipse cx="467.5" cy="224.8047" fill="#84BE84" rx="1.5" ry="1.5" style="stroke:#038048;stroke-width:0.5;"/><text fill="#000000" font-family="sans-serif" font-size="7" lengthAdjust="spacing" textLength="160" x="472" y="228.5713">«constructor»Deck(ArrayList&lt;Card&gt; cardArrayList)</text><ellipse cx="467.5" cy="233.6094" fill="#84BE84" rx="1.5" ry="1.5" style="stroke:#038048;stroke-width:0.5;"/><text fill="#000000" font-family="sans-serif" font-size="7" lengthAdjust="spacing" textLength="59" x="472" y="237.376">Card extractCard()</text></g><!--MD5=[1da8f80c0a6f875dfd1b47fac061377f]
class Coin--><g id="elem_Coin"><rect codeLine="88" fill="#F1F1F1" height="41.6094" id="Coin" rx="1.75" ry="1.75" style="stroke:#181818;stroke-width:0.25;" width="92.5" x="408.25" y="369"/><ellipse cx="445.125" cy="377" fill="#ADD1B2" rx="5.5" ry="5.5" style="stroke:#181818;stroke-width:0.5;"/><path d="M446.125,375.25 Q446.2266,375 446.3438,374.875 Q446.4609,374.75 446.5938,374.75 Q446.8281,374.75 446.9766,374.8906 Q447.125,375.0313 447.125,375.3594 L447.125,376.1406 Q447.125,376.4688 446.9844,376.6094 Q446.8438,376.75 446.625,376.75 Q446.4297,376.75 446.3047,376.6641 Q446.1797,376.5781 446.125,376.3516 Q446.1016,376.1953 446.0156,376.1094 Q445.8594,375.9453 445.5781,375.8516 Q445.2969,375.75 445.0156,375.75 Q444.6641,375.75 444.3672,375.8906 Q444.0781,376.0313 443.8516,376.3438 Q443.625,376.6563 443.625,377.0859 L443.625,377.5469 Q443.625,378.0625 444.0469,378.4063 Q444.4688,378.75 445.2188,378.75 Q445.6641,378.75 445.9766,378.6484 Q446.1563,378.5938 446.3594,378.4141 Q446.4922,378.3125 446.5625,378.2813 Q446.6328,378.25 446.7188,378.25 Q446.8828,378.25 447,378.3828 Q447.125,378.5078 447.125,378.6875 Q447.125,378.8594 446.9531,379.0625 Q446.7031,379.3594 446.3047,379.5234 Q445.7813,379.75 445.1406,379.75 Q444.3906,379.75 443.7891,379.4531 Q443.3047,379.2188 442.9609,378.7109 Q442.625,378.2031 442.625,377.6016 L442.625,377.0547 Q442.625,376.4297 442.9219,375.8828 Q443.2266,375.3359 443.75,375.0469 Q444.2813,374.75 444.875,374.75 Q445.2344,374.75 445.5469,374.875 Q445.8594,375 446.125,375.25 Z " fill="#000000"/><text fill="#000000" font-family="sans-serif" font-size="7" lengthAdjust="spacing" textLength="14.5" x="455.375" y="379.8643">Coin</text><line style="stroke:#181818;stroke-width:0.25;" x1="408.75" x2="500.25" y1="385" y2="385"/><rect fill="none" height="3" style="stroke:#C82930;stroke-width:0.5;" width="3" x="412.25" y="389"/><text fill="#000000" font-family="sans-serif" font-size="7" lengthAdjust="spacing" textLength="63" x="418.25" y="394.2666">CharacterCard card</text><line style="stroke:#181818;stroke-width:0.25;" x1="408.75" x2="500.25" y1="397.8047" y2="397.8047"/><ellipse cx="413.75" cy="403.3047" fill="#84BE84" rx="1.5" ry="1.5" style="stroke:#038048;stroke-width:0.5;"/><text fill="#000000" font-family="sans-serif" font-size="7" lengthAdjust="spacing" textLength="79.5" x="418.25" y="407.0713">CharacterCard getCard()</text></g><!--MD5=[d271d16d53cfe2f20218414189ac7c91]
class NoEntryTile--><g id="elem_NoEntryTile"><rect codeLine="93" fill="#F1F1F1" height="41.6094" id="NoEntryTile" rx="1.75" ry="1.75" style="stroke:#181818;stroke-width:0.25;" width="73.5" x="11.25" y="284.25"/><ellipse cx="28.2" cy="292.25" fill="#ADD1B2" rx="5.5" ry="5.5" style="stroke:#181818;stroke-width:0.5;"/><path d="M29.2,290.5 Q29.3016,290.25 29.4188,290.125 Q29.5359,290 29.6688,290 Q29.9031,290 30.0516,290.1406 Q30.2,290.2813 30.2,290.6094 L30.2,291.3906 Q30.2,291.7188 30.0594,291.8594 Q29.9188,292 29.7,292 Q29.5047,292 29.3797,291.9141 Q29.2547,291.8281 29.2,291.6016 Q29.1766,291.4453 29.0906,291.3594 Q28.9344,291.1953 28.6531,291.1016 Q28.3719,291 28.0906,291 Q27.7391,291 27.4422,291.1406 Q27.1531,291.2813 26.9266,291.5938 Q26.7,291.9063 26.7,292.3359 L26.7,292.7969 Q26.7,293.3125 27.1219,293.6563 Q27.5438,294 28.2938,294 Q28.7391,294 29.0516,293.8984 Q29.2313,293.8438 29.4344,293.6641 Q29.5672,293.5625 29.6375,293.5313 Q29.7078,293.5 29.7938,293.5 Q29.9578,293.5 30.075,293.6328 Q30.2,293.7578 30.2,293.9375 Q30.2,294.1094 30.0281,294.3125 Q29.7781,294.6094 29.3797,294.7734 Q28.8563,295 28.2156,295 Q27.4656,295 26.8641,294.7031 Q26.3797,294.4688 26.0359,293.9609 Q25.7,293.4531 25.7,292.8516 L25.7,292.3047 Q25.7,291.6797 25.9969,291.1328 Q26.3016,290.5859 26.825,290.2969 Q27.3563,290 27.95,290 Q28.3094,290 28.6219,290.125 Q28.9344,290.25 29.2,290.5 Z " fill="#000000"/><text fill="#000000" font-family="sans-serif" font-size="7" lengthAdjust="spacing" textLength="36.5" x="37.3" y="295.1143">NoEntryTile</text><line style="stroke:#181818;stroke-width:0.25;" x1="11.75" x2="84.25" y1="300.25" y2="300.25"/><rect fill="none" height="3" style="stroke:#C82930;stroke-width:0.5;" width="3" x="15.25" y="304.25"/><text fill="#000000" font-family="sans-serif" font-size="7" lengthAdjust="spacing" textLength="39" x="21.25" y="309.5166">Island island</text><line style="stroke:#181818;stroke-width:0.25;" x1="11.75" x2="84.25" y1="313.0547" y2="313.0547"/><ellipse cx="16.75" cy="318.5547" fill="#84BE84" rx="1.5" ry="1.5" style="stroke:#038048;stroke-width:0.5;"/><text fill="#000000" font-family="sans-serif" font-size="7" lengthAdjust="spacing" textLength="60.5" x="21.25" y="322.3213">Island getPosition()</text></g><!--MD5=[50c01108cc94cc552c924244958887b6]
reverse link Island to NoEntryTile--><g id="link_Island_NoEntryTile"><path codeLine="98" d="M28.5,230.285 C28.5,230.285 28.5,284.115 28.5,284.115 " fill="none" id="Island-backto-NoEntryTile" style="stroke:#454645;stroke-width:0.5;"/><polygon fill="#454645" points="28.5,227.785,26.5,232.285,28.5,230.285,30.5,232.285,28.5,227.785" style="stroke:#454645;stroke-width:0.5;"/></g><!--MD5=[bcc1cd8600bb830fb326ad5af816a83f]
link Coin to CharacterCard--><g id="link_Coin_CharacterCard"><path codeLine="99" d="M500.91,390 C500.91,390 515.65,390 515.65,390 " fill="none" id="Coin-to-CharacterCard" style="stroke:#454645;stroke-width:0.5;"/><polygon fill="#454645" points="518.15,390,513.65,388,515.65,390,513.65,392,518.15,390" style="stroke:#454645;stroke-width:0.5;"/></g><!--MD5=[ef3cd93b4b4594f3c81ac07d483b3904]
reverse link Card to AssistantCard--><g id="link_Card_AssistantCard"><path codeLine="101" d="M522.67,305 C522.67,305 388,305 388,305 C388,305 388,343.705 388,368.8 " fill="none" id="Card-backto-AssistantCard" style="stroke:#454645;stroke-width:0.5;"/><polygon fill="none" points="522.67,301.5,532.67,305,522.67,308.5,522.67,301.5" style="stroke:#454645;stroke-width:0.5;"/></g><!--MD5=[291c5d578a16afa36f38ad0004fb93fc]
reverse link Card to CharacterCard--><g id="link_Card_CharacterCard"><path codeLine="102" d="M548.5,327.145 C548.5,327.145 548.5,373.11 548.5,373.11 " fill="none" id="Card-backto-CharacterCard" style="stroke:#454645;stroke-width:0.5;"/><polygon fill="none" points="545,327.145,548.5,317.145,552,327.145,545,327.145" style="stroke:#454645;stroke-width:0.5;"/></g><!--MD5=[675c98fc2462cbf3e0a6a5ea82b07648]
reverse link Board to Island--><g id="link_Board_Island"><path codeLine="104" d="M61.25,170.58 C61.25,170.58 61.25,216 61.25,216 C61.25,216 53.69,216 45.835,216 " fill="none" id="Board-backto-Island" style="stroke:#454645;stroke-width:0.5;"/><polygon fill="none" points="57.75,170.58,61.25,160.58,64.75,170.58,57.75,170.58" style="stroke:#454645;stroke-width:0.5;"/></g><!--MD5=[be23cc1339613c23591eff570872c022]
reverse link Board to Cloud--><g id="link_Board_Cloud"><path codeLine="105" d="M135.5,170.72 C135.5,170.72 135.5,203.7 135.5,203.7 " fill="none" id="Board-backto-Cloud" style="stroke:#454645;stroke-width:0.5;"/><polygon fill="none" points="132,170.72,135.5,160.72,139,170.72,132,170.72" style="stroke:#454645;stroke-width:0.5;"/></g><!--MD5=[7f594aabb976cac6a4bd27a68b863784]
reverse link Board to School--><g id="link_Board_School"><path codeLine="106" d="M82,170.72 C82,170.72 82,203.7 82,203.7 " fill="none" id="Board-backto-School" style="stroke:#454645;stroke-width:0.5;"/><polygon fill="none" points="78.5,170.72,82,160.72,85.5,170.72,78.5,170.72" style="stroke:#454645;stroke-width:0.5;"/></g><!--MD5=[1031735363d49c9f2ac3483128640f78]
reverse link Board to Pawn--><g id="link_Board_Pawn"><path codeLine="107" d="M205.285,135.5 C205.285,135.5 220.365,135.5 220.365,135.5 " fill="none" id="Board-backto-Pawn" style="stroke:#454645;stroke-width:0.5;"/><polygon fill="#454645" points="202.785,135.5,207.285,137.5,205.285,135.5,207.285,133.5,202.785,135.5" style="stroke:#454645;stroke-width:0.5;"/></g><!--MD5=[762b1bad54bda995845750ecd7df4c7a]
reverse link Pawn to Professor--><g id="link_Pawn_Professor"><path codeLine="109" d="M333.375,170.72 C333.375,170.72 333.375,199.07 333.375,199.07 " fill="none" id="Pawn-backto-Professor" style="stroke:#454645;stroke-width:0.5;"/><polygon fill="none" points="329.875,170.72,333.375,160.72,336.875,170.72,329.875,170.72" style="stroke:#454645;stroke-width:0.5;"/></g><!--MD5=[4cbe029bfd09fd7227938a05c4ca9bf5]
reverse link Pawn to Student--><g id="link_Pawn_Student"><path codeLine="110" d="M279,170.72 C279,170.72 279,199.07 279,199.07 " fill="none" id="Pawn-backto-Student" style="stroke:#454645;stroke-width:0.5;"/><polygon fill="none" points="275.5,170.72,279,160.72,282.5,170.72,275.5,170.72" style="stroke:#454645;stroke-width:0.5;"/></g><!--MD5=[99a87e5119cbbe499307809beb818dac]
reverse link Pawn to Tower--><g id="link_Pawn_Tower"><path codeLine="111" d="M229,170.72 C229,170.72 229,199.07 229,199.07 " fill="none" id="Pawn-backto-Tower" style="stroke:#454645;stroke-width:0.5;"/><polygon fill="none" points="225.5,170.72,229,160.72,232.5,170.72,225.5,170.72" style="stroke:#454645;stroke-width:0.5;"/></g><!--MD5=[28e1341c03a648a0732569ca8dce5ec4]
reverse link Pawn to MotherNature--><g id="link_Pawn_MotherNature"><path codeLine="112" d="M356.645,135.5 C356.645,135.5 405.5,135.5 405.5,135.5 C405.5,135.5 405.5,181.35 405.5,203.735 " fill="none" id="Pawn-backto-MotherNature" style="stroke:#454645;stroke-width:0.5;"/><polygon fill="none" points="356.645,139,346.645,135.5,356.645,132,356.645,139" style="stroke:#454645;stroke-width:0.5;"/></g><!--MD5=[5cf861f56d83ae4345dbc2180ae8b1d0]
reverse link Deck to Card--><g id="link_Deck_Card"><path codeLine="114" d="M548.5,247.585 C548.5,247.585 548.5,292.96 548.5,292.96 " fill="none" id="Deck-backto-Card" style="stroke:#454645;stroke-width:0.5;"/><polygon fill="#454645" points="548.5,241.085,546.5,244.085,548.5,247.085,550.5,244.085,548.5,241.085" style="stroke:#454645;stroke-width:0.5;"/></g><!--MD5=[8d9472248db2c295e563e60b72e74922]
link Player to Deck--><g id="link_Player_Deck"><path codeLine="115" d="M509.75,160.72 C509.75,160.72 509.75,187.945 509.75,187.945 " fill="none" id="Player-to-Deck" style="stroke:#454645;stroke-width:0.5;"/><polygon fill="#454645" points="509.75,190.445,511.75,185.945,509.75,187.945,507.75,185.945,509.75,190.445" style="stroke:#454645;stroke-width:0.5;"/></g><!--MD5=[6b6b9e8ceff4e9e58f06e15491e15318]
link Game to Player--><g id="link_Game_Player"><path codeLine="117" d="M338.015,50.5 C399.64,50.5 491.5,50.5 491.5,50.5 C491.5,50.5 491.5,107.32 491.5,107.32 " fill="none" id="Game-to-Player" style="stroke:#454645;stroke-width:0.5;"/><polygon fill="#454645" points="491.5,109.82,493.5,105.32,491.5,107.32,489.5,105.32,491.5,109.82" style="stroke:#454645;stroke-width:0.5;"/></g><!--MD5=[15c8f9ca3aac13d865864b4eb5314ef1]
link Game to Board--><g id="link_Game_Board"><path codeLine="118" d="M228.875,50.5 C185.115,50.5 131,50.5 131,50.5 C131,50.5 131,107.32 131,107.32 " fill="none" id="Game-to-Board" style="stroke:#454645;stroke-width:0.5;"/><polygon fill="#454645" points="131,109.82,133,105.32,131,107.32,129,105.32,131,109.82" style="stroke:#454645;stroke-width:0.5;"/></g><!--MD5=[d8b339cd4d972907013b901513a5cdef]
link Game to Pawn--><g id="link_Game_Pawn"><path codeLine="119" d="M283.5,80.14 C283.5,80.14 283.5,107.485 283.5,107.485 " fill="none" id="Game-to-Pawn" style="stroke:#454645;stroke-width:0.5;"/><polygon fill="#454645" points="283.5,109.985,285.5,105.485,283.5,107.485,281.5,105.485,283.5,109.985" style="stroke:#454645;stroke-width:0.5;"/></g><!--MD5=[c4de8f0a3fa2c66573592a8c04806d52]
link Professor to Color--><g id="link_Professor_Color"><path codeLine="121" d="M324.625,232.33 C324.625,232.33 324.625,268.45 324.625,268.45 " fill="none" id="Professor-to-Color" style="stroke:#454645;stroke-width:0.5;stroke-dasharray:7.0,7.0;"/><polygon fill="#454645" points="324.625,270.95,326.625,266.45,324.625,268.45,322.625,266.45,324.625,270.95" style="stroke:#454645;stroke-width:0.5;"/></g><!--MD5=[1daab493f86e124074863c7d996548e1]
link Student to Color--><g id="link_Student_Color"><path codeLine="122" d="M298.375,232.33 C298.375,232.33 298.375,268.45 298.375,268.45 " fill="none" id="Student-to-Color" style="stroke:#454645;stroke-width:0.5;stroke-dasharray:7.0,7.0;"/><polygon fill="#454645" points="298.375,270.95,300.375,266.45,298.375,268.45,296.375,266.45,298.375,270.95" style="stroke:#454645;stroke-width:0.5;"/></g><!--MD5=[bb2987cb63935726317af892abb93c33]
link Tower to TowerColor--><g id="link_Tower_TowerColor"><path codeLine="124" d="M204,232.33 C204,232.33 204,277.235 204,277.235 " fill="none" id="Tower-to-TowerColor" style="stroke:#454645;stroke-width:0.5;stroke-dasharray:7.0,7.0;"/><polygon fill="#454645" points="204,279.735,206,275.235,204,277.235,202,275.235,204,279.735" style="stroke:#454645;stroke-width:0.5;"/></g><!--MD5=[d0d7549e2ad662736be98e4a9b5789b1]
@startuml initial_uml
!theme vibrant
skinparam Linetype polyline
skinparam Linetype ortho

package model <<Folder>> {
    enum Color {
        YELLOW
        BLUE
        GREEN
        RED
        PINK
    }

    enum TowerColor {
        WHITE
        GRAY
        BLACK
    }

    class Game {
        - ArrayList<Player> playerOrder
        + <<constructor>>Game()
        + void round()
        + void addPlayer(Player player)
    }

    abstract class Board {
        ~ int ID
        + ArrayList<Student> getStudentOnBoard()
        + int getID()
    }
    
    abstract class Pawn {
        - Board position
        + Board getPosition()
        + void setPosition(Board newPosition)
    }

    abstract class Card

    class Player {
        - String nickname
        + <<constructor>>Player(String nickname)
        + String getNickname()
    }

    class Island {
    
    }
    
    class School {
    
    }

    class Cloud {

    }

    class Professor {
        - Color color
    }

    class Student {
        - Color color
    }

    class Tower {
        - TowerColor color
    }

    class MotherNature

    class AssistantCard {
        - int value
        - int movement
    }

    class CharacterCard {
        - CharacterCardEffect effect
    }

    class Deck {
        - ArrayList<Card> cardArrayList
        + <<constructor>>Deck(ArrayList<Card> cardArrayList)
        + Card extractCard()
    }

    class Coin {
        - CharacterCard card
        + CharacterCard getCard()
    }

    class NoEntryTile {
        - Island island
        + Island getPosition()
    }

    NoEntryTile -UP-> Island
    Coin -RIGHT-> CharacterCard

    Card <|-DOWN- AssistantCard
    Card <|- - CharacterCard

    Board <|-DOWN- Island
    Board <|-DOWN- Cloud
    Board <|-DOWN- School
    Board <-RIGHT- - Pawn

    Pawn <|- - Professor
    Pawn <|- - Student
    Pawn <|- - Tower
    Pawn <|- - MotherNature

    Deck *- - Card
    Deck <-UP- Player

    Game - -> Player
    Game - -> Board
    Game - -> Pawn
    
    Color <.UP. Professor
    Color <.UP. Student

    TowerColor <.UP. Tower
}

@enduml

@startuml initial_uml
skinparam BackgroundColor FFFFFF
skinparam shadowing false
skinparam RoundCorner 7
skinparam ArrowColor 454645
skinparam FontColor 454645
skinparam SequenceLifeLineBorderColor 696969
skinparam SequenceGroupHeaderFontColor 454645
skinparam SequenceGroupFontColor 696969
skinparam SequenceGroupBorderColor 696969
skinparam SequenceGroupBorderThickness 1

skinparam sequenceDivider {
    BorderColor 454645
    BorderThickness 1
    FontColor 454645
}

skinparam participant {
    BackgroundColor FF6347
    BorderColor 454645
    FontColor FFFFFF
    BorderThickness 1.5
}

skinparam database {
    BackgroundColor 00FFFF
    BorderColor 454645
    FontColor 454645
}

skinparam entity {
    BackgroundColor FFE552
    BorderColor 454645
    FontColor 454645
}

skinparam note {
    BackgroundColor 7FFFD4
    BorderColor 454645
    FontColor 454645
    BorderThickness 1.5
}

skinparam actor {
    BackgroundColor 454645
    BorderColor 454645
    FontColor 454645
}

skinparam boundary {
    BackgroundColor FFE552
    BorderColor 454645
    FontColor 454645
}

skinparam control {
    BackgroundColor FFE552
    BorderColor 454645
    FontColor 454645
}

skinparam collections {
    BackgroundColor FF5F42
    BorderColor 454645
    FontColor 454645
}

skinparam queue {
    BackgroundColor FF6347
    BorderColor 454645
    FontColor FFF
    BorderThickness 1.5
}
skinparam Linetype polyline
skinparam Linetype ortho

package model <<Folder>> {
    enum Color {
        YELLOW
        BLUE
        GREEN
        RED
        PINK
    }

    enum TowerColor {
        WHITE
        GRAY
        BLACK
    }

    class Game {
        - ArrayList<Player> playerOrder
        + <<constructor>>Game()
        + void round()
        + void addPlayer(Player player)
    }

    abstract class Board {
        ~ int ID
        + ArrayList<Student> getStudentOnBoard()
        + int getID()
    }
    
    abstract class Pawn {
        - Board position
        + Board getPosition()
        + void setPosition(Board newPosition)
    }

    abstract class Card

    class Player {
        - String nickname
        + <<constructor>>Player(String nickname)
        + String getNickname()
    }

    class Island {
    
    }
    
    class School {
    
    }

    class Cloud {

    }

    class Professor {
        - Color color
    }

    class Student {
        - Color color
    }

    class Tower {
        - TowerColor color
    }

    class MotherNature

    class AssistantCard {
        - int value
        - int movement
    }

    class CharacterCard {
        - CharacterCardEffect effect
    }

    class Deck {
        - ArrayList<Card> cardArrayList
        + <<constructor>>Deck(ArrayList<Card> cardArrayList)
        + Card extractCard()
    }

    class Coin {
        - CharacterCard card
        + CharacterCard getCard()
    }

    class NoEntryTile {
        - Island island
        + Island getPosition()
    }

    NoEntryTile -UP-> Island
    Coin -RIGHT-> CharacterCard

    Card <|-DOWN- AssistantCard
    Card <|- - CharacterCard

    Board <|-DOWN- Island
    Board <|-DOWN- Cloud
    Board <|-DOWN- School
    Board <-RIGHT- - Pawn

    Pawn <|- - Professor
    Pawn <|- - Student
    Pawn <|- - Tower
    Pawn <|- - MotherNature

    Deck *- - Card
    Deck <-UP- Player

    Game - -> Player
    Game - -> Board
    Game - -> Pawn
    
    Color <.UP. Professor
    Color <.UP. Student

    TowerColor <.UP. Tower
}

@enduml

PlantUML version 1.2022.2(Sat Mar 05 17:30:19 CET 2022)
(GPL source distribution)
Java Runtime: OpenJDK Runtime Environment
JVM: OpenJDK 64-Bit Server VM
Default Encoding: Cp1252
Language: it
Country: IT
--></g></svg>