<?xml version="1.0" encoding="UTF-8" standalone="no"?><svg xmlns="http://www.w3.org/2000/svg" xmlns:xlink="http://www.w3.org/1999/xlink" contentStyleType="text/css" height="513.6px" preserveAspectRatio="none" style="width:999px;height:513px;background:#FFFFFF;" version="1.1" viewBox="0 0 999 513" width="999px" zoomAndPan="magnify"><defs/><g><!--MD5=[5d4cd377749310b66bf14896f5cd8d9b]
cluster model--><g id="cluster_model"><path d="M5.7,3.6 L32.1,3.6 A3.15,3.15 0 0 1 34.2,5.7 L38.4,17.093 L992.7,17.093 A2.1,2.1 0 0 1 994.8,19.193 L994.8,507.3 A2.1,2.1 0 0 1 992.7,509.4 L5.7,509.4 A2.1,2.1 0 0 1 3.6,507.3 L3.6,5.7 A2.1,2.1 0 0 1 5.7,3.6 " style="stroke:#696969;stroke-width:0.6;fill:none;"/><line style="stroke:#696969;stroke-width:0.6;fill:none;" x1="3.6" x2="38.4" y1="17.093" y2="17.093"/><text fill="#000000" font-family="sans-serif" font-size="8.4" font-weight="bold" lengthAdjust="spacing" textLength="27" x="6" y="12.9211">model</text></g><!--MD5=[18eee71c88ab61f27581b8cbdd3ef5ee]
class Color--><g id="elem_Color"><rect codeLine="6" fill="#F1F1F1" height="78.2648" id="Color" rx="2.1" ry="2.1" style="stroke:#181818;stroke-width:0.3;" width="42" x="550.8" y="337.2"/><ellipse cx="559.8" cy="346.8" fill="#EB937F" rx="6.6" ry="6.6" style="stroke:#181818;stroke-width:0.6;"/><path d="M561.9686,350.7 L557.3367,350.7 L557.3367,343.2642 L561.9686,343.2642 L561.9686,344.5591 L558.806,344.5591 L558.806,346.1628 L561.6697,346.1628 L561.6697,347.4577 L558.806,347.4577 L558.806,349.4051 L561.9686,349.4051 Z " fill="#000000"/><text fill="#000000" font-family="sans-serif" font-size="8.4" lengthAdjust="spacing" textLength="22.8" x="568.2" y="349.9746">Color</text><line style="stroke:#181818;stroke-width:0.3;" x1="551.4" x2="592.2" y1="356.4" y2="356.4"/><text fill="#000000" font-family="sans-serif" font-size="8.4" lengthAdjust="spacing" textLength="32.4" x="554.4" y="366.9211">YELLOW</text><text fill="#000000" font-family="sans-serif" font-size="8.4" lengthAdjust="spacing" textLength="19.8" x="554.4" y="376.8141">BLUE</text><text fill="#000000" font-family="sans-serif" font-size="8.4" lengthAdjust="spacing" textLength="27" x="554.4" y="386.707">GREEN</text><text fill="#000000" font-family="sans-serif" font-size="8.4" lengthAdjust="spacing" textLength="16.2" x="554.4" y="396.6">RED</text><text fill="#000000" font-family="sans-serif" font-size="8.4" lengthAdjust="spacing" textLength="18.6" x="554.4" y="406.493">PINK</text><line style="stroke:#181818;stroke-width:0.3;" x1="551.4" x2="592.2" y1="410.6648" y2="410.6648"/></g><!--MD5=[6804500824724e03a064fc7681986872]
class TowerColor--><g id="elem_TowerColor"><rect codeLine="14" fill="#F1F1F1" height="58.4789" id="TowerColor" rx="2.1" ry="2.1" style="stroke:#181818;stroke-width:0.3;" width="67.8" x="400.5" y="347.1"/><ellipse cx="409.5" cy="356.7" fill="#EB937F" rx="6.6" ry="6.6" style="stroke:#181818;stroke-width:0.6;"/><path d="M411.6686,360.6 L407.0367,360.6 L407.0367,353.1642 L411.6686,353.1642 L411.6686,354.4591 L408.506,354.4591 L408.506,356.0628 L411.3697,356.0628 L411.3697,357.3577 L408.506,357.3577 L408.506,359.3051 L411.6686,359.3051 Z " fill="#000000"/><text fill="#000000" font-family="sans-serif" font-size="8.4" lengthAdjust="spacing" textLength="48.6" x="417.9" y="359.8746">TowerColor</text><line style="stroke:#181818;stroke-width:0.3;" x1="401.1" x2="467.7" y1="366.3" y2="366.3"/><text fill="#000000" font-family="sans-serif" font-size="8.4" lengthAdjust="spacing" textLength="25.8" x="404.1" y="376.8211">WHITE</text><text fill="#000000" font-family="sans-serif" font-size="8.4" lengthAdjust="spacing" textLength="22.8" x="404.1" y="386.7141">GRAY</text><text fill="#000000" font-family="sans-serif" font-size="8.4" lengthAdjust="spacing" textLength="26.4" x="404.1" y="396.607">BLACK</text><line style="stroke:#181818;stroke-width:0.3;" x1="401.1" x2="467.7" y1="400.7789" y2="400.7789"/></g><!--MD5=[b6dcce5e5ef3c84b0b048d11301373dd]
class Game--><g id="elem_Game"><rect codeLine="20" fill="#F1F1F1" height="68.3719" id="Game" rx="2.1" ry="2.1" style="stroke:#181818;stroke-width:0.3;" width="141" x="465.9" y="24.6"/><ellipse cx="522.15" cy="34.2" fill="#ADD1B2" rx="6.6" ry="6.6" style="stroke:#181818;stroke-width:0.6;"/><path d="M523.6339,37.8858 Q523.2853,38.0651 522.9018,38.1548 Q522.5183,38.2444 522.0949,38.2444 Q520.5908,38.2444 519.7989,37.2533 Q519.007,36.2622 519.007,34.3896 Q519.007,32.5119 519.7989,31.5208 Q520.5908,30.5297 522.0949,30.5297 Q522.5183,30.5297 522.9067,30.6193 Q523.2952,30.709 523.6339,30.8883 L523.6339,32.5219 Q523.2554,32.1732 522.8993,32.0114 Q522.5432,31.8495 522.1646,31.8495 Q521.3578,31.8495 520.9469,32.4895 Q520.536,33.1295 520.536,34.3896 Q520.536,35.6446 520.9469,36.2846 Q521.3578,36.9246 522.1646,36.9246 Q522.5432,36.9246 522.8993,36.7627 Q523.2554,36.6009 523.6339,36.2522 Z " fill="#000000"/><text fill="#000000" font-family="sans-serif" font-size="8.4" lengthAdjust="spacing" textLength="23.4" x="534.45" y="37.3746">Game</text><line style="stroke:#181818;stroke-width:0.3;" x1="466.5" x2="606.3" y1="43.8" y2="43.8"/><rect fill="none" height="3.6" style="stroke:#C82930;stroke-width:0.6;" width="3.6" x="470.7" y="48.6"/><text fill="#000000" font-family="sans-serif" font-size="8.4" lengthAdjust="spacing" textLength="125.4" x="477.9" y="54.3211">ArrayList&lt;Player&gt; playerOrder</text><line style="stroke:#181818;stroke-width:0.3;" x1="466.5" x2="606.3" y1="58.493" y2="58.493"/><ellipse cx="472.5" cy="65.093" fill="#84BE84" rx="1.8" ry="1.8" style="stroke:#038048;stroke-width:0.6;"/><text fill="#000000" font-family="sans-serif" font-size="8.4" lengthAdjust="spacing" textLength="85.2" x="477.9" y="69.0141">«constructor»Game()</text><ellipse cx="472.5" cy="74.9859" fill="#84BE84" rx="1.8" ry="1.8" style="stroke:#038048;stroke-width:0.6;"/><text fill="#000000" font-family="sans-serif" font-size="8.4" lengthAdjust="spacing" textLength="51" x="477.9" y="78.907">void round()</text><ellipse cx="472.5" cy="84.8789" fill="#84BE84" rx="1.8" ry="1.8" style="stroke:#038048;stroke-width:0.6;"/><text fill="#000000" font-family="sans-serif" font-size="8.4" lengthAdjust="spacing" textLength="118.2" x="477.9" y="88.8">void addPlayer(Player player)</text></g><!--MD5=[9563755d011c5cec7ec66dc53565a59e]
class Board--><g id="elem_Board"><rect codeLine="27" fill="#F1F1F1" height="58.4789" id="Board" rx="2.1" ry="2.1" style="stroke:#181818;stroke-width:0.3;" width="186" x="247.8" y="129"/><ellipse cx="326.25" cy="138.6" fill="#A9DCDF" rx="6.6" ry="6.6" style="stroke:#181818;stroke-width:0.6;"/><path d="M326.168,135.8089 L325.4757,138.852 L326.8652,138.852 Z M325.2715,134.4642 L327.0694,134.4642 L329.0766,141.9 L327.6073,141.9 L327.1491,140.0622 L325.1818,140.0622 L324.7336,141.9 L323.2644,141.9 Z " fill="#000000"/><text fill="#000000" font-family="sans-serif" font-size="8.4" font-style="italic" lengthAdjust="spacing" textLength="24" x="338.55" y="141.7746">Board</text><line style="stroke:#181818;stroke-width:0.3;" x1="248.4" x2="433.2" y1="148.2" y2="148.2"/><polygon fill="none" points="254.4,152.4,252,156,256.8,156" style="stroke:#1963A0;stroke-width:0.6;"/><text fill="#000000" font-family="sans-serif" font-size="8.4" lengthAdjust="spacing" textLength="21.6" x="259.8" y="158.7211">int ID</text><line style="stroke:#181818;stroke-width:0.3;" x1="248.4" x2="433.2" y1="162.893" y2="162.893"/><ellipse cx="254.4" cy="169.493" fill="#84BE84" rx="1.8" ry="1.8" style="stroke:#038048;stroke-width:0.6;"/><text fill="#000000" font-family="sans-serif" font-size="8.4" lengthAdjust="spacing" textLength="170.4" x="259.8" y="173.4141">ArrayList&lt;Student&gt; getStudentOnBoard()</text><ellipse cx="254.4" cy="179.3859" fill="#84BE84" rx="1.8" ry="1.8" style="stroke:#038048;stroke-width:0.6;"/><text fill="#000000" font-family="sans-serif" font-size="8.4" lengthAdjust="spacing" textLength="40.8" x="259.8" y="183.307">int getID()</text></g><!--MD5=[af29ca247b3a3642f0fb478cea99ef78]
class Pawn--><g id="elem_Pawn"><rect codeLine="33" fill="#F1F1F1" height="58.4789" id="Pawn" rx="2.1" ry="2.1" style="stroke:#181818;stroke-width:0.3;" width="162.6" x="455.1" y="129"/><ellipse cx="523.05" cy="138.6" fill="#A9DCDF" rx="6.6" ry="6.6" style="stroke:#181818;stroke-width:0.6;"/><path d="M522.968,135.8089 L522.2757,138.852 L523.6652,138.852 Z M522.0715,134.4642 L523.8694,134.4642 L525.8766,141.9 L524.4073,141.9 L523.9491,140.0622 L521.9818,140.0622 L521.5336,141.9 L520.0644,141.9 Z " fill="#000000"/><text fill="#000000" font-family="sans-serif" font-size="8.4" font-style="italic" lengthAdjust="spacing" textLength="21.6" x="535.35" y="141.7746">Pawn</text><line style="stroke:#181818;stroke-width:0.3;" x1="455.7" x2="617.1" y1="148.2" y2="148.2"/><rect fill="none" height="3.6" style="stroke:#C82930;stroke-width:0.6;" width="3.6" x="459.9" y="153"/><text fill="#000000" font-family="sans-serif" font-size="8.4" lengthAdjust="spacing" textLength="60" x="467.1" y="158.7211">Board position</text><line style="stroke:#181818;stroke-width:0.3;" x1="455.7" x2="617.1" y1="162.893" y2="162.893"/><ellipse cx="461.7" cy="169.493" fill="#84BE84" rx="1.8" ry="1.8" style="stroke:#038048;stroke-width:0.6;"/><text fill="#000000" font-family="sans-serif" font-size="8.4" lengthAdjust="spacing" textLength="78.6" x="467.1" y="173.4141">Board getPosition()</text><ellipse cx="461.7" cy="179.3859" fill="#84BE84" rx="1.8" ry="1.8" style="stroke:#038048;stroke-width:0.6;"/><text fill="#000000" font-family="sans-serif" font-size="8.4" lengthAdjust="spacing" textLength="147" x="467.1" y="183.307">void setPosition(Board newPosition)</text></g><!--MD5=[5e305716458bbdabbd2d7f572ed2bae2]
class Card--><g id="elem_Card"><rect codeLine="39" fill="#F1F1F1" height="28.8" id="Card" rx="2.1" ry="2.1" style="stroke:#181818;stroke-width:0.3;" width="39" x="854.1" y="361.8"/><ellipse cx="863.1" cy="371.4" fill="#A9DCDF" rx="6.6" ry="6.6" style="stroke:#181818;stroke-width:0.6;"/><path d="M863.018,368.6089 L862.3257,371.652 L863.7152,371.652 Z M862.1215,367.2642 L863.9194,367.2642 L865.9266,374.7 L864.4573,374.7 L863.9991,372.8622 L862.0318,372.8622 L861.5836,374.7 L860.1144,374.7 Z " fill="#000000"/><text fill="#000000" font-family="sans-serif" font-size="8.4" font-style="italic" lengthAdjust="spacing" textLength="19.8" x="871.5" y="374.5746">Card</text><line style="stroke:#181818;stroke-width:0.3;" x1="854.7" x2="892.5" y1="381" y2="381"/><line style="stroke:#181818;stroke-width:0.3;" x1="854.7" x2="892.5" y1="385.8" y2="385.8"/></g><!--MD5=[2cb47ba637a0d19583e6199456f6ad0b]
class Player--><g id="elem_Player"><rect codeLine="41" fill="#F1F1F1" height="58.4789" id="Player" rx="2.1" ry="2.1" style="stroke:#181818;stroke-width:0.3;" width="168.6" x="716.7" y="129"/><ellipse cx="786.15" cy="138.6" fill="#ADD1B2" rx="6.6" ry="6.6" style="stroke:#181818;stroke-width:0.6;"/><path d="M787.6339,142.2858 Q787.2853,142.4651 786.9018,142.5548 Q786.5183,142.6444 786.0949,142.6444 Q784.5908,142.6444 783.7989,141.6533 Q783.007,140.6622 783.007,138.7896 Q783.007,136.9119 783.7989,135.9208 Q784.5908,134.9297 786.0949,134.9297 Q786.5183,134.9297 786.9067,135.0193 Q787.2952,135.109 787.6339,135.2883 L787.6339,136.9219 Q787.2554,136.5732 786.8993,136.4114 Q786.5432,136.2495 786.1646,136.2495 Q785.3578,136.2495 784.9469,136.8895 Q784.536,137.5295 784.536,138.7896 Q784.536,140.0446 784.9469,140.6846 Q785.3578,141.3246 786.1646,141.3246 Q786.5432,141.3246 786.8993,141.1627 Q787.2554,141.0009 787.6339,140.6522 Z " fill="#000000"/><text fill="#000000" font-family="sans-serif" font-size="8.4" lengthAdjust="spacing" textLength="24.6" x="798.45" y="141.7746">Player</text><line style="stroke:#181818;stroke-width:0.3;" x1="717.3" x2="884.7" y1="148.2" y2="148.2"/><rect fill="none" height="3.6" style="stroke:#C82930;stroke-width:0.6;" width="3.6" x="721.5" y="153"/><text fill="#000000" font-family="sans-serif" font-size="8.4" lengthAdjust="spacing" textLength="66.6" x="728.7" y="158.7211">String nickname</text><line style="stroke:#181818;stroke-width:0.3;" x1="717.3" x2="884.7" y1="162.893" y2="162.893"/><ellipse cx="723.3" cy="169.493" fill="#84BE84" rx="1.8" ry="1.8" style="stroke:#038048;stroke-width:0.6;"/><text fill="#000000" font-family="sans-serif" font-size="8.4" lengthAdjust="spacing" textLength="153" x="728.7" y="173.4141">«constructor»Player(String nickname)</text><ellipse cx="723.3" cy="179.3859" fill="#84BE84" rx="1.8" ry="1.8" style="stroke:#038048;stroke-width:0.6;"/><text fill="#000000" font-family="sans-serif" font-size="8.4" lengthAdjust="spacing" textLength="86.4" x="728.7" y="183.307">String getNickname()</text></g><!--MD5=[05ce2a234461a7e613a06d388968c06d]
class Island--><g id="elem_Island"><rect codeLine="47" fill="#F1F1F1" height="78.2648" id="Island" rx="2.1" ry="2.1" style="stroke:#181818;stroke-width:0.3;" width="181.2" x="13.2" y="223.2"/><ellipse cx="88.95" cy="232.8" fill="#ADD1B2" rx="6.6" ry="6.6" style="stroke:#181818;stroke-width:0.6;"/><path d="M90.4339,236.4858 Q90.0853,236.6651 89.7018,236.7548 Q89.3183,236.8444 88.8949,236.8444 Q87.3908,236.8444 86.5989,235.8533 Q85.807,234.8622 85.807,232.9896 Q85.807,231.1119 86.5989,230.1208 Q87.3908,229.1297 88.8949,229.1297 Q89.3183,229.1297 89.7067,229.2193 Q90.0952,229.309 90.4339,229.4883 L90.4339,231.1219 Q90.0554,230.7732 89.6993,230.6114 Q89.3432,230.4495 88.9646,230.4495 Q88.1578,230.4495 87.7469,231.0895 Q87.336,231.7295 87.336,232.9896 Q87.336,234.2446 87.7469,234.8846 Q88.1578,235.5246 88.9646,235.5246 Q89.3432,235.5246 89.6993,235.3627 Q90.0554,235.2009 90.4339,234.8522 Z " fill="#000000"/><text fill="#000000" font-family="sans-serif" font-size="8.4" lengthAdjust="spacing" textLength="24.6" x="101.25" y="235.9746">Island</text><line style="stroke:#181818;stroke-width:0.3;" x1="13.8" x2="193.8" y1="242.4" y2="242.4"/><rect fill="none" height="3.6" style="stroke:#C82930;stroke-width:0.6;" width="3.6" x="18" y="247.2"/><text fill="#000000" font-family="sans-serif" font-size="8.4" lengthAdjust="spacing" textLength="51.6" x="25.2" y="252.9211">Tower tower</text><line style="stroke:#181818;stroke-width:0.3;" x1="13.8" x2="193.8" y1="257.093" y2="257.093"/><ellipse cx="19.8" cy="263.693" fill="#84BE84" rx="1.8" ry="1.8" style="stroke:#038048;stroke-width:0.6;"/><text fill="#000000" font-family="sans-serif" font-size="8.4" lengthAdjust="spacing" textLength="87.6" x="25.2" y="267.6141">Player getInfluencer()</text><ellipse cx="19.8" cy="273.5859" fill="#84BE84" rx="1.8" ry="1.8" style="stroke:#038048;stroke-width:0.6;"/><text fill="#000000" font-family="sans-serif" font-size="8.4" lengthAdjust="spacing" textLength="165.6" x="25.2" y="277.507">int getNumStudentsByColor(Color color)</text><ellipse cx="19.8" cy="283.4789" fill="#84BE84" rx="1.8" ry="1.8" style="stroke:#038048;stroke-width:0.6;"/><text fill="#000000" font-family="sans-serif" font-size="8.4" lengthAdjust="spacing" textLength="63.6" x="25.2" y="287.4">void setTower()</text><ellipse cx="19.8" cy="293.3719" fill="#84BE84" rx="1.8" ry="1.8" style="stroke:#038048;stroke-width:0.6;"/><text fill="#000000" font-family="sans-serif" font-size="8.4" lengthAdjust="spacing" textLength="73.2" x="25.2" y="297.293">Tower getTower()</text></g><!--MD5=[10a9fff9df9a76a22f65fd5d58adb785]
class School--><g id="elem_School"><rect codeLine="55" fill="#F1F1F1" height="48.5859" id="School" rx="2.1" ry="2.1" style="stroke:#181818;stroke-width:0.3;" width="88.8" x="215.4" y="237.9"/><ellipse cx="243.45" cy="247.5" fill="#ADD1B2" rx="6.6" ry="6.6" style="stroke:#181818;stroke-width:0.6;"/><path d="M244.9339,251.1858 Q244.5853,251.3651 244.2018,251.4548 Q243.8183,251.5444 243.3949,251.5444 Q241.8908,251.5444 241.0989,250.5533 Q240.307,249.5622 240.307,247.6896 Q240.307,245.8119 241.0989,244.8208 Q241.8908,243.8297 243.3949,243.8297 Q243.8183,243.8297 244.2067,243.9193 Q244.5952,244.009 244.9339,244.1883 L244.9339,245.8219 Q244.5554,245.4732 244.1993,245.3114 Q243.8432,245.1495 243.4646,245.1495 Q242.6578,245.1495 242.2469,245.7895 Q241.836,246.4295 241.836,247.6896 Q241.836,248.9446 242.2469,249.5846 Q242.6578,250.2246 243.4646,250.2246 Q243.8432,250.2246 244.1993,250.0627 Q244.5554,249.9009 244.9339,249.5522 Z " fill="#000000"/><text fill="#000000" font-family="sans-serif" font-size="8.4" lengthAdjust="spacing" textLength="27.6" x="255.75" y="250.6746">School</text><line style="stroke:#181818;stroke-width:0.3;" x1="216" x2="303.6" y1="257.1" y2="257.1"/><rect fill="none" height="3.6" style="stroke:#C82930;stroke-width:0.6;" width="3.6" x="220.2" y="261.9"/><text fill="#000000" font-family="sans-serif" font-size="8.4" lengthAdjust="spacing" textLength="52.8" x="227.4" y="267.6211">Player owner</text><line style="stroke:#181818;stroke-width:0.3;" x1="216" x2="303.6" y1="271.793" y2="271.793"/><ellipse cx="222" cy="278.393" fill="#84BE84" rx="1.8" ry="1.8" style="stroke:#038048;stroke-width:0.6;"/><text fill="#000000" font-family="sans-serif" font-size="8.4" lengthAdjust="spacing" textLength="73.2" x="227.4" y="282.3141">Player getOwner()</text></g><!--MD5=[a18b01c4419d38931cdb2da3f79e5451]
class Cloud--><g id="elem_Cloud"><rect codeLine="60" fill="#F1F1F1" height="28.8" id="Cloud" rx="2.1" ry="2.1" style="stroke:#181818;stroke-width:0.3;" width="43.8" x="325.5" y="247.8"/><ellipse cx="334.5" cy="257.4" fill="#ADD1B2" rx="6.6" ry="6.6" style="stroke:#181818;stroke-width:0.6;"/><path d="M335.9839,261.0858 Q335.6353,261.2651 335.2518,261.3548 Q334.8683,261.4444 334.4449,261.4444 Q332.9408,261.4444 332.1489,260.4533 Q331.357,259.4622 331.357,257.5896 Q331.357,255.7119 332.1489,254.7208 Q332.9408,253.7297 334.4449,253.7297 Q334.8683,253.7297 335.2567,253.8193 Q335.6452,253.909 335.9839,254.0883 L335.9839,255.7219 Q335.6054,255.3732 335.2493,255.2114 Q334.8932,255.0495 334.5146,255.0495 Q333.7078,255.0495 333.2969,255.6895 Q332.886,256.3295 332.886,257.5896 Q332.886,258.8446 333.2969,259.4846 Q333.7078,260.1246 334.5146,260.1246 Q334.8932,260.1246 335.2493,259.9627 Q335.6054,259.8009 335.9839,259.4522 Z " fill="#000000"/><text fill="#000000" font-family="sans-serif" font-size="8.4" lengthAdjust="spacing" textLength="24.6" x="342.9" y="260.5746">Cloud</text><line style="stroke:#181818;stroke-width:0.3;" x1="326.1" x2="368.7" y1="267" y2="267"/><line style="stroke:#181818;stroke-width:0.3;" x1="326.1" x2="368.7" y1="271.8" y2="271.8"/></g><!--MD5=[21bc47177812100412265a444b535d59]
class Professor--><g id="elem_Professor"><rect codeLine="63" fill="#F1F1F1" height="38.693" id="Professor" rx="2.1" ry="2.1" style="stroke:#181818;stroke-width:0.3;" width="61.8" x="582.3" y="243"/><ellipse cx="592.92" cy="252.6" fill="#ADD1B2" rx="6.6" ry="6.6" style="stroke:#181818;stroke-width:0.6;"/><path d="M594.4039,256.2858 Q594.0553,256.4651 593.6718,256.5548 Q593.2883,256.6444 592.8649,256.6444 Q591.3608,256.6444 590.5689,255.6533 Q589.777,254.6622 589.777,252.7896 Q589.777,250.9119 590.5689,249.9208 Q591.3608,248.9297 592.8649,248.9297 Q593.2883,248.9297 593.6767,249.0193 Q594.0652,249.109 594.4039,249.2883 L594.4039,250.9219 Q594.0254,250.5732 593.6693,250.4114 Q593.3132,250.2495 592.9346,250.2495 Q592.1278,250.2495 591.7169,250.8895 Q591.306,251.5295 591.306,252.7896 Q591.306,254.0446 591.7169,254.6846 Q592.1278,255.3246 592.9346,255.3246 Q593.3132,255.3246 593.6693,255.1627 Q594.0254,255.0009 594.4039,254.6522 Z " fill="#000000"/><text fill="#000000" font-family="sans-serif" font-size="8.4" lengthAdjust="spacing" textLength="39" x="601.68" y="255.7746">Professor</text><line style="stroke:#181818;stroke-width:0.3;" x1="582.9" x2="643.5" y1="262.2" y2="262.2"/><rect fill="none" height="3.6" style="stroke:#C82930;stroke-width:0.6;" width="3.6" x="587.1" y="267"/><text fill="#000000" font-family="sans-serif" font-size="8.4" lengthAdjust="spacing" textLength="46.2" x="594.3" y="272.7211">Color color</text><line style="stroke:#181818;stroke-width:0.3;" x1="582.9" x2="643.5" y1="276.893" y2="276.893"/></g><!--MD5=[d6181cb537bdc20c0a3007a98a56832d]
class Student--><g id="elem_Student"><rect codeLine="67" fill="#F1F1F1" height="38.693" id="Student" rx="2.1" ry="2.1" style="stroke:#181818;stroke-width:0.3;" width="61.8" x="499.5" y="243"/><ellipse cx="513.36" cy="252.6" fill="#ADD1B2" rx="6.6" ry="6.6" style="stroke:#181818;stroke-width:0.6;"/><path d="M514.8439,256.2858 Q514.4953,256.4651 514.1118,256.5548 Q513.7283,256.6444 513.3049,256.6444 Q511.8008,256.6444 511.0089,255.6533 Q510.217,254.6622 510.217,252.7896 Q510.217,250.9119 511.0089,249.9208 Q511.8008,248.9297 513.3049,248.9297 Q513.7283,248.9297 514.1167,249.0193 Q514.5052,249.109 514.8439,249.2883 L514.8439,250.9219 Q514.4654,250.5732 514.1093,250.4114 Q513.7532,250.2495 513.3746,250.2495 Q512.5678,250.2495 512.1569,250.8895 Q511.746,251.5295 511.746,252.7896 Q511.746,254.0446 512.1569,254.6846 Q512.5678,255.3246 513.3746,255.3246 Q513.7532,255.3246 514.1093,255.1627 Q514.4654,255.0009 514.8439,254.6522 Z " fill="#000000"/><text fill="#000000" font-family="sans-serif" font-size="8.4" lengthAdjust="spacing" textLength="31.8" x="522.84" y="255.7746">Student</text><line style="stroke:#181818;stroke-width:0.3;" x1="500.1" x2="560.7" y1="262.2" y2="262.2"/><rect fill="none" height="3.6" style="stroke:#C82930;stroke-width:0.6;" width="3.6" x="504.3" y="267"/><text fill="#000000" font-family="sans-serif" font-size="8.4" lengthAdjust="spacing" textLength="46.2" x="511.5" y="272.7211">Color color</text><line style="stroke:#181818;stroke-width:0.3;" x1="500.1" x2="560.7" y1="276.893" y2="276.893"/></g><!--MD5=[e6a0401af6286042726057f986c3e7c8]
class Tower--><g id="elem_Tower"><rect codeLine="71" fill="#F1F1F1" height="38.693" id="Tower" rx="2.1" ry="2.1" style="stroke:#181818;stroke-width:0.3;" width="87.6" x="390.6" y="243"/><ellipse cx="418.95" cy="252.6" fill="#ADD1B2" rx="6.6" ry="6.6" style="stroke:#181818;stroke-width:0.6;"/><path d="M420.4339,256.2858 Q420.0853,256.4651 419.7018,256.5548 Q419.3183,256.6444 418.8949,256.6444 Q417.3908,256.6444 416.5989,255.6533 Q415.807,254.6622 415.807,252.7896 Q415.807,250.9119 416.5989,249.9208 Q417.3908,248.9297 418.8949,248.9297 Q419.3183,248.9297 419.7067,249.0193 Q420.0952,249.109 420.4339,249.2883 L420.4339,250.9219 Q420.0554,250.5732 419.6993,250.4114 Q419.3432,250.2495 418.9646,250.2495 Q418.1578,250.2495 417.7469,250.8895 Q417.336,251.5295 417.336,252.7896 Q417.336,254.0446 417.7469,254.6846 Q418.1578,255.3246 418.9646,255.3246 Q419.3432,255.3246 419.6993,255.1627 Q420.0554,255.0009 420.4339,254.6522 Z " fill="#000000"/><text fill="#000000" font-family="sans-serif" font-size="8.4" lengthAdjust="spacing" textLength="25.8" x="431.25" y="255.7746">Tower</text><line style="stroke:#181818;stroke-width:0.3;" x1="391.2" x2="477.6" y1="262.2" y2="262.2"/><rect fill="none" height="3.6" style="stroke:#C82930;stroke-width:0.6;" width="3.6" x="395.4" y="267"/><text fill="#000000" font-family="sans-serif" font-size="8.4" lengthAdjust="spacing" textLength="72" x="402.6" y="272.7211">TowerColor color</text><line style="stroke:#181818;stroke-width:0.3;" x1="391.2" x2="477.6" y1="276.893" y2="276.893"/></g><!--MD5=[3ea2e56578276300f1408dbb43472621]
class MotherNature--><g id="elem_MotherNature"><rect codeLine="75" fill="#F1F1F1" height="28.8" id="MotherNature" rx="2.1" ry="2.1" style="stroke:#181818;stroke-width:0.3;" width="76.2" x="665.1" y="247.8"/><ellipse cx="674.1" cy="257.4" fill="#ADD1B2" rx="6.6" ry="6.6" style="stroke:#181818;stroke-width:0.6;"/><path d="M675.5839,261.0858 Q675.2353,261.2651 674.8518,261.3548 Q674.4683,261.4444 674.0449,261.4444 Q672.5408,261.4444 671.7489,260.4533 Q670.957,259.4622 670.957,257.5896 Q670.957,255.7119 671.7489,254.7208 Q672.5408,253.7297 674.0449,253.7297 Q674.4683,253.7297 674.8567,253.8193 Q675.2452,253.909 675.5839,254.0883 L675.5839,255.7219 Q675.2054,255.3732 674.8493,255.2114 Q674.4932,255.0495 674.1146,255.0495 Q673.3078,255.0495 672.8969,255.6895 Q672.486,256.3295 672.486,257.5896 Q672.486,258.8446 672.8969,259.4846 Q673.3078,260.1246 674.1146,260.1246 Q674.4932,260.1246 674.8493,259.9627 Q675.2054,259.8009 675.5839,259.4522 Z " fill="#000000"/><text fill="#000000" font-family="sans-serif" font-size="8.4" lengthAdjust="spacing" textLength="57" x="682.5" y="260.5746">MotherNature</text><line style="stroke:#181818;stroke-width:0.3;" x1="665.7" x2="740.7" y1="267" y2="267"/><line style="stroke:#181818;stroke-width:0.3;" x1="665.7" x2="740.7" y1="271.8" y2="271.8"/></g><!--MD5=[9153511ab415ec25fadc371cb52004ef]
class AssistantCard--><g id="elem_AssistantCard"><rect codeLine="77" fill="#F1F1F1" height="48.5859" id="AssistantCard" rx="2.1" ry="2.1" style="stroke:#181818;stroke-width:0.3;" width="76.2" x="600.9" y="451.2"/><ellipse cx="609.9" cy="460.8" fill="#ADD1B2" rx="6.6" ry="6.6" style="stroke:#181818;stroke-width:0.6;"/><path d="M611.3839,464.4858 Q611.0353,464.6651 610.6518,464.7548 Q610.2683,464.8444 609.8449,464.8444 Q608.3408,464.8444 607.5489,463.8533 Q606.757,462.8622 606.757,460.9896 Q606.757,459.1119 607.5489,458.1208 Q608.3408,457.1297 609.8449,457.1297 Q610.2683,457.1297 610.6567,457.2193 Q611.0452,457.309 611.3839,457.4883 L611.3839,459.1219 Q611.0054,458.7732 610.6493,458.6114 Q610.2932,458.4495 609.9146,458.4495 Q609.1078,458.4495 608.6969,459.0895 Q608.286,459.7295 608.286,460.9896 Q608.286,462.2446 608.6969,462.8846 Q609.1078,463.5246 609.9146,463.5246 Q610.2932,463.5246 610.6493,463.3627 Q611.0054,463.2009 611.3839,462.8522 Z " fill="#000000"/><text fill="#000000" font-family="sans-serif" font-size="8.4" lengthAdjust="spacing" textLength="57" x="618.3" y="463.9746">AssistantCard</text><line style="stroke:#181818;stroke-width:0.3;" x1="601.5" x2="676.5" y1="470.4" y2="470.4"/><rect fill="none" height="3.6" style="stroke:#C82930;stroke-width:0.6;" width="3.6" x="605.7" y="475.2"/><text fill="#000000" font-family="sans-serif" font-size="8.4" lengthAdjust="spacing" textLength="34.8" x="612.9" y="480.9211">int value</text><rect fill="none" height="3.6" style="stroke:#C82930;stroke-width:0.6;" width="3.6" x="605.7" y="485.093"/><text fill="#000000" font-family="sans-serif" font-size="8.4" lengthAdjust="spacing" textLength="56.4" x="612.9" y="490.8141">int movement</text><line style="stroke:#181818;stroke-width:0.3;" x1="601.5" x2="676.5" y1="494.9859" y2="494.9859"/></g><!--MD5=[4ea8e61345abb1b5d1b65d1adc4a63a0]
class CharacterCard--><g id="elem_CharacterCard"><rect codeLine="82" fill="#F1F1F1" height="38.693" id="CharacterCard" rx="2.1" ry="2.1" style="stroke:#181818;stroke-width:0.3;" width="123.6" x="836.4" y="456.3"/><ellipse cx="865.65" cy="465.9" fill="#ADD1B2" rx="6.6" ry="6.6" style="stroke:#181818;stroke-width:0.6;"/><path d="M867.1339,469.5858 Q866.7853,469.7651 866.4018,469.8548 Q866.0183,469.9444 865.5949,469.9444 Q864.0908,469.9444 863.2989,468.9533 Q862.507,467.9622 862.507,466.0896 Q862.507,464.2119 863.2989,463.2208 Q864.0908,462.2297 865.5949,462.2297 Q866.0183,462.2297 866.4067,462.3193 Q866.7952,462.409 867.1339,462.5883 L867.1339,464.2219 Q866.7554,463.8732 866.3993,463.7114 Q866.0432,463.5495 865.6646,463.5495 Q864.8578,463.5495 864.4469,464.1895 Q864.036,464.8295 864.036,466.0896 Q864.036,467.3446 864.4469,467.9846 Q864.8578,468.6246 865.6646,468.6246 Q866.0432,468.6246 866.3993,468.4627 Q866.7554,468.3009 867.1339,467.9522 Z " fill="#000000"/><text fill="#000000" font-family="sans-serif" font-size="8.4" lengthAdjust="spacing" textLength="60" x="877.95" y="469.0746">CharacterCard</text><line style="stroke:#181818;stroke-width:0.3;" x1="837" x2="959.4" y1="475.5" y2="475.5"/><rect fill="none" height="3.6" style="stroke:#C82930;stroke-width:0.6;" width="3.6" x="841.2" y="480.3"/><text fill="#000000" font-family="sans-serif" font-size="8.4" lengthAdjust="spacing" textLength="108" x="848.4" y="486.0211">CharacterCardEffect effect</text><line style="stroke:#181818;stroke-width:0.3;" x1="837" x2="959.4" y1="490.193" y2="490.193"/></g><!--MD5=[30299a58ba6b78debaaed5ddbb42f29a]
class Deck--><g id="elem_Deck"><rect codeLine="86" fill="#F1F1F1" height="58.4789" id="Deck" rx="2.1" ry="2.1" style="stroke:#181818;stroke-width:0.3;" width="222.6" x="762.3" y="233.1"/><ellipse cx="861.15" cy="242.7" fill="#ADD1B2" rx="6.6" ry="6.6" style="stroke:#181818;stroke-width:0.6;"/><path d="M862.6339,246.3858 Q862.2853,246.5651 861.9018,246.6548 Q861.5183,246.7444 861.0949,246.7444 Q859.5908,246.7444 858.7989,245.7533 Q858.007,244.7622 858.007,242.8896 Q858.007,241.0119 858.7989,240.0208 Q859.5908,239.0297 861.0949,239.0297 Q861.5183,239.0297 861.9067,239.1193 Q862.2952,239.209 862.6339,239.3883 L862.6339,241.0219 Q862.2554,240.6732 861.8993,240.5114 Q861.5432,240.3495 861.1646,240.3495 Q860.3578,240.3495 859.9469,240.9895 Q859.536,241.6295 859.536,242.8896 Q859.536,244.1446 859.9469,244.7846 Q860.3578,245.4246 861.1646,245.4246 Q861.5432,245.4246 861.8993,245.2627 Q862.2554,245.1009 862.6339,244.7522 Z " fill="#000000"/><text fill="#000000" font-family="sans-serif" font-size="8.4" lengthAdjust="spacing" textLength="19.8" x="873.45" y="245.8746">Deck</text><line style="stroke:#181818;stroke-width:0.3;" x1="762.9" x2="984.3" y1="252.3" y2="252.3"/><rect fill="none" height="3.6" style="stroke:#C82930;stroke-width:0.6;" width="3.6" x="767.1" y="257.1"/><text fill="#000000" font-family="sans-serif" font-size="8.4" lengthAdjust="spacing" textLength="125.4" x="774.3" y="262.8211">ArrayList&lt;Card&gt; cardArrayList</text><line style="stroke:#181818;stroke-width:0.3;" x1="762.9" x2="984.3" y1="266.993" y2="266.993"/><ellipse cx="768.9" cy="273.593" fill="#84BE84" rx="1.8" ry="1.8" style="stroke:#038048;stroke-width:0.6;"/><text fill="#000000" font-family="sans-serif" font-size="8.4" lengthAdjust="spacing" textLength="207" x="774.3" y="277.5141">«constructor»Deck(ArrayList&lt;Card&gt; cardArrayList)</text><ellipse cx="768.9" cy="283.4859" fill="#84BE84" rx="1.8" ry="1.8" style="stroke:#038048;stroke-width:0.6;"/><text fill="#000000" font-family="sans-serif" font-size="8.4" lengthAdjust="spacing" textLength="76.8" x="774.3" y="287.407">Card extractCard()</text></g><!--MD5=[1da8f80c0a6f875dfd1b47fac061377f]
class Coin--><g id="elem_Coin"><rect codeLine="92" fill="#F1F1F1" height="48.5859" id="Coin" rx="2.1" ry="2.1" style="stroke:#181818;stroke-width:0.3;" width="117" x="698.1" y="451.2"/><ellipse cx="744.45" cy="460.8" fill="#ADD1B2" rx="6.6" ry="6.6" style="stroke:#181818;stroke-width:0.6;"/><path d="M745.9339,464.4858 Q745.5853,464.6651 745.2018,464.7548 Q744.8183,464.8444 744.3949,464.8444 Q742.8908,464.8444 742.0989,463.8533 Q741.307,462.8622 741.307,460.9896 Q741.307,459.1119 742.0989,458.1208 Q742.8908,457.1297 744.3949,457.1297 Q744.8183,457.1297 745.2067,457.2193 Q745.5952,457.309 745.9339,457.4883 L745.9339,459.1219 Q745.5554,458.7732 745.1993,458.6114 Q744.8432,458.4495 744.4646,458.4495 Q743.6578,458.4495 743.2469,459.0895 Q742.836,459.7295 742.836,460.9896 Q742.836,462.2446 743.2469,462.8846 Q743.6578,463.5246 744.4646,463.5246 Q744.8432,463.5246 745.1993,463.3627 Q745.5554,463.2009 745.9339,462.8522 Z " fill="#000000"/><text fill="#000000" font-family="sans-serif" font-size="8.4" lengthAdjust="spacing" textLength="19.2" x="756.75" y="463.9746">Coin</text><line style="stroke:#181818;stroke-width:0.3;" x1="698.7" x2="814.5" y1="470.4" y2="470.4"/><rect fill="none" height="3.6" style="stroke:#C82930;stroke-width:0.6;" width="3.6" x="702.9" y="475.2"/><text fill="#000000" font-family="sans-serif" font-size="8.4" lengthAdjust="spacing" textLength="80.4" x="710.1" y="480.9211">CharacterCard card</text><line style="stroke:#181818;stroke-width:0.3;" x1="698.7" x2="814.5" y1="485.093" y2="485.093"/><ellipse cx="704.7" cy="491.693" fill="#84BE84" rx="1.8" ry="1.8" style="stroke:#038048;stroke-width:0.6;"/><text fill="#000000" font-family="sans-serif" font-size="8.4" lengthAdjust="spacing" textLength="101.4" x="710.1" y="495.6141">CharacterCard getCard()</text></g><!--MD5=[d271d16d53cfe2f20218414189ac7c91]
class NoEntryTile--><g id="elem_NoEntryTile"><rect codeLine="97" fill="#F1F1F1" height="48.5859" id="NoEntryTile" rx="2.1" ry="2.1" style="stroke:#181818;stroke-width:0.3;" width="94.8" x="56.4" y="351.9"/><ellipse cx="78.09" cy="361.5" fill="#ADD1B2" rx="6.6" ry="6.6" style="stroke:#181818;stroke-width:0.6;"/><path d="M79.5739,365.1858 Q79.2253,365.3651 78.8418,365.4548 Q78.4583,365.5444 78.0349,365.5444 Q76.5308,365.5444 75.7389,364.5533 Q74.947,363.5622 74.947,361.6896 Q74.947,359.8119 75.7389,358.8208 Q76.5308,357.8297 78.0349,357.8297 Q78.4583,357.8297 78.8467,357.9193 Q79.2352,358.009 79.5739,358.1883 L79.5739,359.8219 Q79.1954,359.4732 78.8393,359.3114 Q78.4832,359.1495 78.1046,359.1495 Q77.2978,359.1495 76.8869,359.7895 Q76.476,360.4295 76.476,361.6896 Q76.476,362.9446 76.8869,363.5846 Q77.2978,364.2246 78.1046,364.2246 Q78.4832,364.2246 78.8393,364.0627 Q79.1954,363.9009 79.5739,363.5522 Z " fill="#000000"/><text fill="#000000" font-family="sans-serif" font-size="8.4" lengthAdjust="spacing" textLength="47.4" x="89.31" y="364.6746">NoEntryTile</text><line style="stroke:#181818;stroke-width:0.3;" x1="57" x2="150.6" y1="371.1" y2="371.1"/><rect fill="none" height="3.6" style="stroke:#C82930;stroke-width:0.6;" width="3.6" x="61.2" y="375.9"/><text fill="#000000" font-family="sans-serif" font-size="8.4" lengthAdjust="spacing" textLength="51.6" x="68.4" y="381.6211">Island island</text><line style="stroke:#181818;stroke-width:0.3;" x1="57" x2="150.6" y1="385.793" y2="385.793"/><ellipse cx="63" cy="392.393" fill="#84BE84" rx="1.8" ry="1.8" style="stroke:#038048;stroke-width:0.6;"/><text fill="#000000" font-family="sans-serif" font-size="8.4" lengthAdjust="spacing" textLength="79.2" x="68.4" y="396.3141">Island getPosition()</text></g><!--MD5=[50c01108cc94cc552c924244958887b6]
reverse link Island to NoEntryTile--><g id="link_Island_NoEntryTile"><path codeLine="102" d="M103.8,304.272 C103.8,304.272 103.8,351.792 103.8,351.792 " fill="none" id="Island-backto-NoEntryTile" style="stroke:#454645;stroke-width:0.6;"/><polygon fill="#454645" points="103.8,301.272,101.4,306.672,103.8,304.272,106.2,306.672,103.8,301.272" style="stroke:#454645;stroke-width:0.6;"/></g><!--MD5=[bcc1cd8600bb830fb326ad5af816a83f]
link Coin to CharacterCard--><g id="link_Coin_CharacterCard"><path codeLine="103" d="M815.214,475.8 C815.214,475.8 833.19,475.8 833.19,475.8 " fill="none" id="Coin-to-CharacterCard" style="stroke:#454645;stroke-width:0.6;"/><polygon fill="#454645" points="836.19,475.8,830.79,473.4,833.19,475.8,830.79,478.2,836.19,475.8" style="stroke:#454645;stroke-width:0.6;"/></g><!--MD5=[ef3cd93b4b4594f3c81ac07d483b3904]
reverse link Card to AssistantCard--><g id="link_Card_AssistantCard"><path codeLine="105" d="M841.998,376.2 C841.998,376.2 671.1,376.2 671.1,376.2 C671.1,376.2 671.1,421.548 671.1,450.954 " fill="none" id="Card-backto-AssistantCard" style="stroke:#454645;stroke-width:0.6;"/><polygon fill="none" points="841.998,372,853.998,376.2,841.998,380.4,841.998,372" style="stroke:#454645;stroke-width:0.6;"/></g><!--MD5=[291c5d578a16afa36f38ad0004fb93fc]
reverse link Card to CharacterCard--><g id="link_Card_CharacterCard"><path codeLine="106" d="M873.6,402.642 C873.6,402.642 873.6,456.27 873.6,456.27 " fill="none" id="Card-backto-CharacterCard" style="stroke:#454645;stroke-width:0.6;"/><polygon fill="none" points="869.4,402.642,873.6,390.642,877.8,402.642,869.4,402.642" style="stroke:#454645;stroke-width:0.6;"/></g><!--MD5=[675c98fc2462cbf3e0a6a5ea82b07648]
reverse link Board to Island--><g id="link_Board_Island"><path codeLine="108" d="M266.598,199.386 C266.598,199.386 266.598,228.6 266.598,228.6 C266.598,228.6 231.864,228.6 194.484,228.6 " fill="none" id="Board-backto-Island" style="stroke:#454645;stroke-width:0.6;"/><polygon fill="none" points="262.398,199.386,266.598,187.386,270.798,199.386,262.398,199.386" style="stroke:#454645;stroke-width:0.6;"/></g><!--MD5=[be23cc1339613c23591eff570872c022]
reverse link Board to Cloud--><g id="link_Board_Cloud"><path codeLine="109" d="M347.4,199.374 C347.4,199.374 347.4,247.8 347.4,247.8 " fill="none" id="Board-backto-Cloud" style="stroke:#454645;stroke-width:0.6;"/><polygon fill="none" points="343.2,199.374,347.4,187.374,351.6,199.374,343.2,199.374" style="stroke:#454645;stroke-width:0.6;"/></g><!--MD5=[7f594aabb976cac6a4bd27a68b863784]
reverse link Board to School--><g id="link_Board_School"><path codeLine="110" d="M285.402,199.374 C285.402,199.374 285.402,237.888 285.402,237.888 " fill="none" id="Board-backto-School" style="stroke:#454645;stroke-width:0.6;"/><polygon fill="none" points="281.202,199.374,285.402,187.374,289.602,199.374,281.202,199.374" style="stroke:#454645;stroke-width:0.6;"/></g><!--MD5=[1031735363d49c9f2ac3483128640f78]
reverse link Board to Pawn--><g id="link_Board_Pawn"><path codeLine="111" d="M437.016,158.4 C437.016,158.4 454.926,158.4 454.926,158.4 " fill="none" id="Board-backto-Pawn" style="stroke:#454645;stroke-width:0.6;"/><polygon fill="#454645" points="434.016,158.4,439.416,160.8,437.016,158.4,439.416,156,434.016,158.4" style="stroke:#454645;stroke-width:0.6;"/></g><!--MD5=[762b1bad54bda995845750ecd7df4c7a]
reverse link Pawn to Professor--><g id="link_Pawn_Professor"><path codeLine="113" d="M600,199.374 C600,199.374 600,242.988 600,242.988 " fill="none" id="Pawn-backto-Professor" style="stroke:#454645;stroke-width:0.6;"/><polygon fill="none" points="595.8,199.374,600,187.374,604.2,199.374,595.8,199.374" style="stroke:#454645;stroke-width:0.6;"/></g><!--MD5=[4cbe029bfd09fd7227938a05c4ca9bf5]
reverse link Pawn to Student--><g id="link_Pawn_Student"><path codeLine="114" d="M530.4,199.374 C530.4,199.374 530.4,242.988 530.4,242.988 " fill="none" id="Pawn-backto-Student" style="stroke:#454645;stroke-width:0.6;"/><polygon fill="none" points="526.2,199.374,530.4,187.374,534.6,199.374,526.2,199.374" style="stroke:#454645;stroke-width:0.6;"/></g><!--MD5=[99a87e5119cbbe499307809beb818dac]
reverse link Pawn to Tower--><g id="link_Pawn_Tower"><path codeLine="115" d="M466.65,199.374 C466.65,199.374 466.65,242.988 466.65,242.988 " fill="none" id="Pawn-backto-Tower" style="stroke:#454645;stroke-width:0.6;"/><polygon fill="none" points="462.45,199.374,466.65,187.374,470.85,199.374,462.45,199.374" style="stroke:#454645;stroke-width:0.6;"/></g><!--MD5=[28e1341c03a648a0732569ca8dce5ec4]
reverse link Pawn to MotherNature--><g id="link_Pawn_MotherNature"><path codeLine="116" d="M629.724,158.4 C629.724,158.4 690.9,158.4 690.9,158.4 C690.9,158.4 690.9,219.246 690.9,247.77 " fill="none" id="Pawn-backto-MotherNature" style="stroke:#454645;stroke-width:0.6;"/><polygon fill="none" points="629.724,162.6,617.724,158.4,629.724,154.2,629.724,162.6" style="stroke:#454645;stroke-width:0.6;"/></g><!--MD5=[5cf861f56d83ae4345dbc2180ae8b1d0]
reverse link Deck to Card--><g id="link_Deck_Card"><path codeLine="118" d="M873.6,299.358 C873.6,299.358 873.6,361.71 873.6,361.71 " fill="none" id="Deck-backto-Card" style="stroke:#454645;stroke-width:0.6;"/><polygon fill="#454645" points="873.6,291.558,871.2,295.158,873.6,298.758,876,295.158,873.6,291.558" style="stroke:#454645;stroke-width:0.6;"/></g><!--MD5=[8d9472248db2c295e563e60b72e74922]
link Player to Deck--><g id="link_Player_Deck"><path codeLine="119" d="M823.8,187.374 C823.8,187.374 823.8,229.962 823.8,229.962 " fill="none" id="Player-to-Deck" style="stroke:#454645;stroke-width:0.6;"/><polygon fill="#454645" points="823.8,232.962,826.2,227.562,823.8,229.962,821.4,227.562,823.8,232.962" style="stroke:#454645;stroke-width:0.6;"/></g><!--MD5=[6b6b9e8ceff4e9e58f06e15491e15318]
link Game to Player--><g id="link_Game_Player"><path codeLine="121" d="M606.96,58.8 C685.344,58.8 801,58.8 801,58.8 C801,58.8 801,125.844 801,125.844 " fill="none" id="Game-to-Player" style="stroke:#454645;stroke-width:0.6;"/><polygon fill="#454645" points="801,128.844,803.4,123.444,801,125.844,798.6,123.444,801,128.844" style="stroke:#454645;stroke-width:0.6;"/></g><!--MD5=[15c8f9ca3aac13d865864b4eb5314ef1]
link Game to Board--><g id="link_Game_Board"><path codeLine="122" d="M465.786,58.8 C409.758,58.8 340.8,58.8 340.8,58.8 C340.8,58.8 340.8,125.844 340.8,125.844 " fill="none" id="Game-to-Board" style="stroke:#454645;stroke-width:0.6;"/><polygon fill="#454645" points="340.8,128.844,343.2,123.444,340.8,125.844,338.4,123.444,340.8,128.844" style="stroke:#454645;stroke-width:0.6;"/></g><!--MD5=[d8b339cd4d972907013b901513a5cdef]
link Game to Pawn--><g id="link_Game_Pawn"><path codeLine="123" d="M536.4,93.252 C536.4,93.252 536.4,125.988 536.4,125.988 " fill="none" id="Game-to-Pawn" style="stroke:#454645;stroke-width:0.6;"/><polygon fill="#454645" points="536.4,128.988,538.8,123.588,536.4,125.988,534,123.588,536.4,128.988" style="stroke:#454645;stroke-width:0.6;"/></g><!--MD5=[c4de8f0a3fa2c66573592a8c04806d52]
link Professor to Color--><g id="link_Professor_Color"><path codeLine="125" d="M587.55,281.538 C587.55,281.538 587.55,334.11 587.55,334.11 " fill="none" id="Professor-to-Color" style="stroke:#454645;stroke-width:0.6;stroke-dasharray:7.0,7.0;"/><polygon fill="#454645" points="587.55,337.11,589.95,331.71,587.55,334.11,585.15,331.71,587.55,337.11" style="stroke:#454645;stroke-width:0.6;"/></g><!--MD5=[1daab493f86e124074863c7d996548e1]
link Student to Color--><g id="link_Student_Color"><path codeLine="126" d="M556.05,281.538 C556.05,281.538 556.05,334.11 556.05,334.11 " fill="none" id="Student-to-Color" style="stroke:#454645;stroke-width:0.6;stroke-dasharray:7.0,7.0;"/><polygon fill="#454645" points="556.05,337.11,558.45,331.71,556.05,334.11,553.65,331.71,556.05,337.11" style="stroke:#454645;stroke-width:0.6;"/></g><!--MD5=[bb2987cb63935726317af892abb93c33]
link Tower to TowerColor--><g id="link_Tower_TowerColor"><path codeLine="128" d="M434.4,281.538 C434.4,281.538 434.4,343.902 434.4,343.902 " fill="none" id="Tower-to-TowerColor" style="stroke:#454645;stroke-width:0.6;stroke-dasharray:7.0,7.0;"/><polygon fill="#454645" points="434.4,346.902,436.8,341.502,434.4,343.902,432,341.502,434.4,346.902" style="stroke:#454645;stroke-width:0.6;"/></g><!--MD5=[7f620135dec679cb1958edb5714a7a25]
@startuml initial_uml
!theme vibrant
skinparam Linetype polyline
skinparam Linetype ortho

package model <<Folder>> {
    enum Color {
        YELLOW
        BLUE
        GREEN
        RED
        PINK
    }

    enum TowerColor {
        WHITE
        GRAY
        BLACK
    }

    class Game {
        - ArrayList<Player> playerOrder
        + <<constructor>>Game()
        + void round()
        + void addPlayer(Player player)
    }

    abstract class Board {
        ~ int ID
        + ArrayList<Student> getStudentOnBoard()
        + int getID()
    }
    
    abstract class Pawn {
        - Board position
        + Board getPosition()
        + void setPosition(Board newPosition)
    }

    abstract class Card

    class Player {
        - String nickname
        + <<constructor>>Player(String nickname)
        + String getNickname()
    }

    class Island {
        - Tower tower
        + Player getInfluencer()
        + int getNumStudentsByColor(Color color)
        + void setTower()
        + Tower getTower()
    }
    
    class School {
        - Player owner
        + Player getOwner()
    }

    class Cloud {
    }

    class Professor {
        - Color color
    }

    class Student {
        - Color color
    }

    class Tower {
        - TowerColor color
    }

    class MotherNature

    class AssistantCard {
        - int value
        - int movement
    }

    class CharacterCard {
        - CharacterCardEffect effect
    }

    class Deck {
        - ArrayList<Card> cardArrayList
        + <<constructor>>Deck(ArrayList<Card> cardArrayList)
        + Card extractCard()
    }

    class Coin {
        - CharacterCard card
        + CharacterCard getCard()
    }

    class NoEntryTile {
        - Island island
        + Island getPosition()
    }

    NoEntryTile -UP-> Island
    Coin -RIGHT-> CharacterCard

    Card <|-DOWN- AssistantCard
    Card <|- - CharacterCard

    Board <|-DOWN- Island
    Board <|-DOWN- Cloud
    Board <|-DOWN- School
    Board <-RIGHT- - Pawn

    Pawn <|- - Professor
    Pawn <|- - Student
    Pawn <|- - Tower
    Pawn <|- - MotherNature

    Deck *- - Card
    Deck <-UP- Player

    Game - -> Player
    Game - -> Board
    Game - -> Pawn
    
    Color <.UP. Professor
    Color <.UP. Student

    TowerColor <.UP. Tower
}

@enduml

@startuml initial_uml
skinparam BackgroundColor FFFFFF
skinparam shadowing false
skinparam RoundCorner 7
skinparam ArrowColor 454645
skinparam FontColor 454645
skinparam SequenceLifeLineBorderColor 696969
skinparam SequenceGroupHeaderFontColor 454645
skinparam SequenceGroupFontColor 696969
skinparam SequenceGroupBorderColor 696969
skinparam SequenceGroupBorderThickness 1

skinparam sequenceDivider {
    BorderColor 454645
    BorderThickness 1
    FontColor 454645
}

skinparam participant {
    BackgroundColor FF6347
    BorderColor 454645
    FontColor FFFFFF
    BorderThickness 1.5
}

skinparam database {
    BackgroundColor 00FFFF
    BorderColor 454645
    FontColor 454645
}

skinparam entity {
    BackgroundColor FFE552
    BorderColor 454645
    FontColor 454645
}

skinparam note {
    BackgroundColor 7FFFD4
    BorderColor 454645
    FontColor 454645
    BorderThickness 1.5
}

skinparam actor {
    BackgroundColor 454645
    BorderColor 454645
    FontColor 454645
}

skinparam boundary {
    BackgroundColor FFE552
    BorderColor 454645
    FontColor 454645
}

skinparam control {
    BackgroundColor FFE552
    BorderColor 454645
    FontColor 454645
}

skinparam collections {
    BackgroundColor FF5F42
    BorderColor 454645
    FontColor 454645
}

skinparam queue {
    BackgroundColor FF6347
    BorderColor 454645
    FontColor FFF
    BorderThickness 1.5
}
skinparam Linetype polyline
skinparam Linetype ortho

package model <<Folder>> {
    enum Color {
        YELLOW
        BLUE
        GREEN
        RED
        PINK
    }

    enum TowerColor {
        WHITE
        GRAY
        BLACK
    }

    class Game {
        - ArrayList<Player> playerOrder
        + <<constructor>>Game()
        + void round()
        + void addPlayer(Player player)
    }

    abstract class Board {
        ~ int ID
        + ArrayList<Student> getStudentOnBoard()
        + int getID()
    }
    
    abstract class Pawn {
        - Board position
        + Board getPosition()
        + void setPosition(Board newPosition)
    }

    abstract class Card

    class Player {
        - String nickname
        + <<constructor>>Player(String nickname)
        + String getNickname()
    }

    class Island {
        - Tower tower
        + Player getInfluencer()
        + int getNumStudentsByColor(Color color)
        + void setTower()
        + Tower getTower()
    }
    
    class School {
        - Player owner
        + Player getOwner()
    }

    class Cloud {
    }

    class Professor {
        - Color color
    }

    class Student {
        - Color color
    }

    class Tower {
        - TowerColor color
    }

    class MotherNature

    class AssistantCard {
        - int value
        - int movement
    }

    class CharacterCard {
        - CharacterCardEffect effect
    }

    class Deck {
        - ArrayList<Card> cardArrayList
        + <<constructor>>Deck(ArrayList<Card> cardArrayList)
        + Card extractCard()
    }

    class Coin {
        - CharacterCard card
        + CharacterCard getCard()
    }

    class NoEntryTile {
        - Island island
        + Island getPosition()
    }

    NoEntryTile -UP-> Island
    Coin -RIGHT-> CharacterCard

    Card <|-DOWN- AssistantCard
    Card <|- - CharacterCard

    Board <|-DOWN- Island
    Board <|-DOWN- Cloud
    Board <|-DOWN- School
    Board <-RIGHT- - Pawn

    Pawn <|- - Professor
    Pawn <|- - Student
    Pawn <|- - Tower
    Pawn <|- - MotherNature

    Deck *- - Card
    Deck <-UP- Player

    Game - -> Player
    Game - -> Board
    Game - -> Pawn
    
    Color <.UP. Professor
    Color <.UP. Student

    TowerColor <.UP. Tower
}

@enduml

PlantUML version 1.2022.2(Sat Mar 05 17:30:19 CET 2022)
(GPL source distribution)
Java Runtime: OpenJDK Runtime Environment
JVM: OpenJDK 64-Bit Server VM
Default Encoding: UTF-8
Language: en
Country: IT
--></g></svg>