<?xml version="1.0" encoding="UTF-8" standalone="no"?><svg xmlns="http://www.w3.org/2000/svg" xmlns:xlink="http://www.w3.org/1999/xlink" contentStyleType="text/css" height="631px" preserveAspectRatio="none" style="width:786px;height:631px;background:#FFFFFF;" version="1.1" viewBox="0 0 786 631" width="786px" zoomAndPan="magnify"><defs/><g><rect height="26.4883" style="stroke:#00000000;stroke-width:1.0;fill:none;" width="262" x="259.25" y="10"/><text fill="#000000" font-family="sans-serif" font-size="14" font-weight="bold" lengthAdjust="spacing" textLength="252" x="264.25" y="28.5352">GC27 - Eriantys Sequence Diagram</text><rect fill="#DDDDDD" height="582.0137" style="stroke:#181818;stroke-width:0.5;" width="200" x="82.5" y="43.4883"/><text fill="#000000" font-family="sans-serif" font-size="13" font-weight="bold" lengthAdjust="spacing" textLength="35" x="165" y="56.0566">Local</text><rect fill="#DDDDDD" height="582.0137" style="stroke:#181818;stroke-width:0.5;" width="436.5" x="344" y="43.4883"/><text fill="#000000" font-family="sans-serif" font-size="13" font-weight="bold" lengthAdjust="spacing" textLength="51" x="536.75" y="56.0566">Remote</text><rect fill="#FFFFFF" height="386.7266" style="stroke:#181818;stroke-width:1.0;" width="10" x="104.5" y="150.2871"/><rect fill="#FFFFFF" height="319.1055" style="stroke:#181818;stroke-width:1.0;" width="10" x="246.5" y="179.5977"/><rect fill="#FFFFFF" height="175.8633" style="stroke:#181818;stroke-width:1.0;" width="10" x="389.5" y="293.5293"/><rect fill="#FFFFFF" height="117.2422" style="stroke:#181818;stroke-width:1.0;" width="10" x="507.5" y="322.8398"/><rect fill="#FFFFFF" height="29.3105" style="stroke:#181818;stroke-width:1.0;" width="10" x="625.5" y="352.1504"/><rect fill="#FFFFFF" height="29.3105" style="stroke:#181818;stroke-width:1.0;" width="10" x="743.5" y="381.4609"/><line style="stroke:#181818;stroke-width:0.5;stroke-dasharray:5.0,5.0;" x1="23" x2="23" y1="118.9766" y2="546.0137"/><line style="stroke:#181818;stroke-width:0.5;stroke-dasharray:5.0,5.0;" x1="109.5" x2="109.5" y1="118.9766" y2="546.0137"/><line style="stroke:#181818;stroke-width:0.5;stroke-dasharray:5.0,5.0;" x1="251.5" x2="251.5" y1="118.9766" y2="546.0137"/><line style="stroke:#181818;stroke-width:0.5;stroke-dasharray:5.0,5.0;" x1="394" x2="394" y1="118.9766" y2="546.0137"/><line style="stroke:#181818;stroke-width:0.5;stroke-dasharray:5.0,5.0;" x1="512" x2="512" y1="118.9766" y2="546.0137"/><line style="stroke:#181818;stroke-width:0.5;stroke-dasharray:5.0,5.0;" x1="630.5" x2="630.5" y1="118.9766" y2="546.0137"/><line style="stroke:#181818;stroke-width:0.5;stroke-dasharray:5.0,5.0;" x1="748.5" x2="748.5" y1="118.9766" y2="546.0137"/><text fill="#000000" font-family="sans-serif" font-size="14" lengthAdjust="spacing" textLength="31" x="5" y="116.0234">User</text><ellipse cx="23.5" cy="50.9883" fill="#E2E2F0" rx="8" ry="8" style="stroke:#181818;stroke-width:0.5;"/><path d="M23.5,58.9883 L23.5,85.9883 M10.5,66.9883 L36.5,66.9883 M23.5,85.9883 L10.5,100.9883 M23.5,85.9883 L36.5,100.9883 " fill="none" style="stroke:#181818;stroke-width:0.5;"/><text fill="#000000" font-family="sans-serif" font-size="14" lengthAdjust="spacing" textLength="31" x="5" y="558.5488">User</text><ellipse cx="23.5" cy="570.002" fill="#E2E2F0" rx="8" ry="8" style="stroke:#181818;stroke-width:0.5;"/><path d="M23.5,578.002 L23.5,605.002 M10.5,586.002 L36.5,586.002 M23.5,605.002 L10.5,620.002 M23.5,605.002 L36.5,620.002 " fill="none" style="stroke:#181818;stroke-width:0.5;"/><rect fill="#E2E2F0" height="30.4883" rx="2.5" ry="2.5" style="stroke:#181818;stroke-width:0.5;" width="46" x="86.5" y="87.4883"/><text fill="#000000" font-family="sans-serif" font-size="14" lengthAdjust="spacing" textLength="32" x="93.5" y="108.0234">View</text><rect fill="#E2E2F0" height="30.4883" rx="2.5" ry="2.5" style="stroke:#181818;stroke-width:0.5;" width="46" x="86.5" y="545.0137"/><text fill="#000000" font-family="sans-serif" font-size="14" lengthAdjust="spacing" textLength="32" x="93.5" y="565.5488">View</text><rect fill="#E2E2F0" height="30.4883" rx="2.5" ry="2.5" style="stroke:#181818;stroke-width:0.5;" width="54" x="224.5" y="87.4883"/><text fill="#000000" font-family="sans-serif" font-size="14" lengthAdjust="spacing" textLength="40" x="231.5" y="108.0234">Client</text><rect fill="#E2E2F0" height="30.4883" rx="2.5" ry="2.5" style="stroke:#181818;stroke-width:0.5;" width="54" x="224.5" y="545.0137"/><text fill="#000000" font-family="sans-serif" font-size="14" lengthAdjust="spacing" textLength="40" x="231.5" y="565.5488">Client</text><rect fill="#E2E2F0" height="30.4883" rx="2.5" ry="2.5" style="stroke:#181818;stroke-width:0.5;" width="93" x="348" y="87.4883"/><text fill="#000000" font-family="sans-serif" font-size="14" lengthAdjust="spacing" textLength="79" x="355" y="108.0234">Connection</text><rect fill="#E2E2F0" height="30.4883" rx="2.5" ry="2.5" style="stroke:#181818;stroke-width:0.5;" width="93" x="348" y="545.0137"/><text fill="#000000" font-family="sans-serif" font-size="14" lengthAdjust="spacing" textLength="79" x="355" y="565.5488">Connection</text><rect fill="#E2E2F0" height="30.4883" rx="2.5" ry="2.5" style="stroke:#181818;stroke-width:0.5;" width="91" x="467" y="87.4883"/><text fill="#000000" font-family="sans-serif" font-size="14" lengthAdjust="spacing" textLength="77" x="474" y="108.0234">VirtualView</text><rect fill="#E2E2F0" height="30.4883" rx="2.5" ry="2.5" style="stroke:#181818;stroke-width:0.5;" width="91" x="467" y="545.0137"/><text fill="#000000" font-family="sans-serif" font-size="14" lengthAdjust="spacing" textLength="77" x="474" y="565.5488">VirtualView</text><rect fill="#E2E2F0" height="30.4883" rx="2.5" ry="2.5" style="stroke:#181818;stroke-width:0.5;" width="84" x="588.5" y="87.4883"/><text fill="#000000" font-family="sans-serif" font-size="14" lengthAdjust="spacing" textLength="70" x="595.5" y="108.0234">Controller</text><rect fill="#E2E2F0" height="30.4883" rx="2.5" ry="2.5" style="stroke:#181818;stroke-width:0.5;" width="84" x="588.5" y="545.0137"/><text fill="#000000" font-family="sans-serif" font-size="14" lengthAdjust="spacing" textLength="70" x="595.5" y="565.5488">Controller</text><rect fill="#E2E2F0" height="30.4883" rx="2.5" ry="2.5" style="stroke:#181818;stroke-width:0.5;" width="56" x="720.5" y="87.4883"/><text fill="#000000" font-family="sans-serif" font-size="14" lengthAdjust="spacing" textLength="42" x="727.5" y="108.0234">Model</text><rect fill="#E2E2F0" height="30.4883" rx="2.5" ry="2.5" style="stroke:#181818;stroke-width:0.5;" width="56" x="720.5" y="545.0137"/><text fill="#000000" font-family="sans-serif" font-size="14" lengthAdjust="spacing" textLength="42" x="727.5" y="565.5488">Model</text><rect fill="#FFFFFF" height="386.7266" style="stroke:#181818;stroke-width:1.0;" width="10" x="104.5" y="150.2871"/><rect fill="#FFFFFF" height="319.1055" style="stroke:#181818;stroke-width:1.0;" width="10" x="246.5" y="179.5977"/><rect fill="#FFFFFF" height="175.8633" style="stroke:#181818;stroke-width:1.0;" width="10" x="389.5" y="293.5293"/><rect fill="#FFFFFF" height="117.2422" style="stroke:#181818;stroke-width:1.0;" width="10" x="507.5" y="322.8398"/><rect fill="#FFFFFF" height="29.3105" style="stroke:#181818;stroke-width:1.0;" width="10" x="625.5" y="352.1504"/><rect fill="#FFFFFF" height="29.3105" style="stroke:#181818;stroke-width:1.0;" width="10" x="743.5" y="381.4609"/><polygon fill="#181818" points="92.5,146.2871,102.5,150.2871,92.5,154.2871,96.5,150.2871" style="stroke:#181818;stroke-width:1.0;"/><line style="stroke:#181818;stroke-width:1.0;" x1="23.5" x2="98.5" y1="150.2871" y2="150.2871"/><text fill="#000000" font-family="sans-serif" font-size="13" lengthAdjust="spacing" textLength="41" x="30.5" y="145.5449">Action</text><polygon fill="#181818" points="234.5,175.5977,244.5,179.5977,234.5,183.5977,238.5,179.5977" style="stroke:#181818;stroke-width:1.0;"/><line style="stroke:#181818;stroke-width:1.0;" x1="114.5" x2="240.5" y1="179.5977" y2="179.5977"/><text fill="#000000" font-family="sans-serif" font-size="13" lengthAdjust="spacing" textLength="113" x="121.5" y="174.8555">fireRequestEvent()</text><line style="stroke:#181818;stroke-width:1.0;" x1="256.5" x2="298.5" y1="208.9082" y2="208.9082"/><line style="stroke:#181818;stroke-width:1.0;" x1="298.5" x2="298.5" y1="208.9082" y2="221.9082"/><line style="stroke:#181818;stroke-width:1.0;" x1="257.5" x2="298.5" y1="221.9082" y2="221.9082"/><polygon fill="#181818" points="267.5,217.9082,257.5,221.9082,267.5,225.9082,263.5,221.9082" style="stroke:#181818;stroke-width:1.0;"/><text fill="#000000" font-family="sans-serif" font-size="13" lengthAdjust="spacing" textLength="119" x="263.5" y="204.166">requestPerformed()</text><line style="stroke:#181818;stroke-width:1.0;" x1="256.5" x2="298.5" y1="251.2188" y2="251.2188"/><line style="stroke:#181818;stroke-width:1.0;" x1="298.5" x2="298.5" y1="251.2188" y2="264.2188"/><line style="stroke:#181818;stroke-width:1.0;" x1="257.5" x2="298.5" y1="264.2188" y2="264.2188"/><polygon fill="#181818" points="267.5,260.2188,257.5,264.2188,267.5,268.2188,263.5,264.2188" style="stroke:#181818;stroke-width:1.0;"/><text fill="#000000" font-family="sans-serif" font-size="13" lengthAdjust="spacing" textLength="38" x="263.5" y="246.4766">send()</text><polygon fill="#181818" points="377.5,289.5293,387.5,293.5293,377.5,297.5293,381.5,293.5293" style="stroke:#181818;stroke-width:1.0;"/><line style="stroke:#181818;stroke-width:1.0;" x1="256.5" x2="383.5" y1="293.5293" y2="293.5293"/><text fill="#000000" font-family="sans-serif" font-size="13" lengthAdjust="spacing" textLength="89" x="263.5" y="288.7871">requestEvent()</text><polygon fill="#181818" points="495.5,318.8398,505.5,322.8398,495.5,326.8398,499.5,322.8398" style="stroke:#181818;stroke-width:1.0;"/><line style="stroke:#181818;stroke-width:1.0;" x1="399.5" x2="501.5" y1="322.8398" y2="322.8398"/><text fill="#000000" font-family="sans-serif" font-size="13" lengthAdjust="spacing" textLength="89" x="406.5" y="318.0977">requestEvent()</text><polygon fill="#181818" points="613.5,348.1504,623.5,352.1504,613.5,356.1504,617.5,352.1504" style="stroke:#181818;stroke-width:1.0;"/><line style="stroke:#181818;stroke-width:1.0;" x1="517.5" x2="619.5" y1="352.1504" y2="352.1504"/><text fill="#000000" font-family="sans-serif" font-size="13" lengthAdjust="spacing" textLength="89" x="524.5" y="347.4082">requestEvent()</text><polygon fill="#181818" points="731.5,377.4609,741.5,381.4609,731.5,385.4609,735.5,381.4609" style="stroke:#181818;stroke-width:1.0;"/><line style="stroke:#181818;stroke-width:1.0;" x1="630.5" x2="737.5" y1="381.4609" y2="381.4609"/><text fill="#000000" font-family="sans-serif" font-size="13" lengthAdjust="spacing" textLength="89" x="637.5" y="376.7188">requestEvent()</text><polygon fill="#181818" points="528.5,406.7715,518.5,410.7715,528.5,414.7715,524.5,410.7715" style="stroke:#181818;stroke-width:1.0;"/><line style="stroke:#181818;stroke-width:1.0;stroke-dasharray:2.0,2.0;" x1="522.5" x2="747.5" y1="410.7715" y2="410.7715"/><text fill="#000000" font-family="sans-serif" font-size="13" lengthAdjust="spacing" textLength="57" x="534.5" y="406.0293">response</text><line style="stroke:#A80036;stroke-width:2.0;" x1="739.5" x2="757.5" y1="401.7715" y2="419.7715"/><line style="stroke:#A80036;stroke-width:2.0;" x1="739.5" x2="757.5" y1="419.7715" y2="401.7715"/><polygon fill="#181818" points="410.5,436.082,400.5,440.082,410.5,444.082,406.5,440.082" style="stroke:#181818;stroke-width:1.0;"/><line style="stroke:#181818;stroke-width:1.0;stroke-dasharray:2.0,2.0;" x1="404.5" x2="511.5" y1="440.082" y2="440.082"/><text fill="#000000" font-family="sans-serif" font-size="13" lengthAdjust="spacing" textLength="57" x="416.5" y="435.3398">response</text><polygon fill="#181818" points="267.5,465.3926,257.5,469.3926,267.5,473.3926,263.5,469.3926" style="stroke:#181818;stroke-width:1.0;"/><line style="stroke:#181818;stroke-width:1.0;stroke-dasharray:2.0,2.0;" x1="261.5" x2="393.5" y1="469.3926" y2="469.3926"/><text fill="#000000" font-family="sans-serif" font-size="13" lengthAdjust="spacing" textLength="57" x="273.5" y="464.6504">response</text><polygon fill="#181818" points="125.5,494.7031,115.5,498.7031,125.5,502.7031,121.5,498.7031" style="stroke:#181818;stroke-width:1.0;"/><line style="stroke:#181818;stroke-width:1.0;stroke-dasharray:2.0,2.0;" x1="119.5" x2="250.5" y1="498.7031" y2="498.7031"/><text fill="#000000" font-family="sans-serif" font-size="13" lengthAdjust="spacing" textLength="57" x="131.5" y="493.9609">response</text><polygon fill="#181818" points="34.5,524.0137,24.5,528.0137,34.5,532.0137,30.5,528.0137" style="stroke:#181818;stroke-width:1.0;"/><line style="stroke:#181818;stroke-width:1.0;stroke-dasharray:2.0,2.0;" x1="28.5" x2="103.5" y1="528.0137" y2="528.0137"/><text fill="#000000" font-family="sans-serif" font-size="13" lengthAdjust="spacing" textLength="57" x="40.5" y="523.2715">response</text><!--MD5=[8fb013ead3a288da9a11038b116e38ee]
@startuml
title GC27 - Eriantys Sequence Diagram

actor User

box "Local"
participant View
participant Client
end box
box "Remote"
participant Connection
participant VirtualView
participant Controller
participant Model
end box

User -> View: Action
activate View

View -> Client: fireRequestEvent()
activate Client
Client -> Client: requestPerformed()
Client -> Client: send()

Client -> Connection: requestEvent()
activate Connection

Connection -> VirtualView: requestEvent()
activate VirtualView

VirtualView -> Controller: requestEvent()
activate Controller

Controller -> Model: requestEvent()
deactivate Controller
activate Model

Model - -> VirtualView: response
destroy Model

VirtualView - -> Connection: response
deactivate VirtualView

Connection - -> Client: response
deactivate Connection

Client - -> View: response
deactivate Client

View - -> User: response
@enduml

PlantUML version 1.2022.4(Sat Apr 09 15:29:17 CEST 2022)
(GPL source distribution)
Java Runtime: OpenJDK Runtime Environment
JVM: OpenJDK 64-Bit Server VM
Default Encoding: UTF-8
Language: en
Country: IT
--></g></svg>